ISO-10303-21;
HEADER;
FILE_DESCRIPTION (( 'STEP AP214' ),
    '1' );
FILE_NAME ('final_a2_blockJaw_Contact_Block_A.STEP',
    '2026-09-20T02:38:22',
    ( '' ),
    ( '' ),
    'SwSTEP 2.0',
    'SolidWorks 2025',
    '' );
FILE_SCHEMA (( 'AUTOMOTIVE_DESIGN' ));
ENDSEC;

DATA;
#1 = VERTEX_POINT ( 'NONE', #451 ) ;
#2 = DIRECTION ( 'NONE',  ( -1.700709290173340409E-17, 0.000000000000000000, -1.000000000000000000 ) ) ;
#3 = ORIENTED_EDGE ( 'NONE', *, *, #1114, .F. ) ;
#4 = CARTESIAN_POINT ( 'NONE',  ( 5.000000000000000000, 3.851859888774471706E-33, 1.000000000000000000 ) ) ;
#5 = DIRECTION ( 'NONE',  ( 0.000000000000000000, 0.000000000000000000, -1.000000000000000000 ) ) ;
#6 = EDGE_CURVE ( 'NONE', #221, #1, #92, .T. ) ;
#7 = VERTEX_POINT ( 'NONE', #883 ) ;
#8 = CARTESIAN_POINT ( 'NONE',  ( 15.05453387609420624, -4.000000000000000888, 1.000000000000000222 ) ) ;
#9 = CARTESIAN_POINT ( 'NONE',  ( 5.000000000000000000, 0.000000000000000000, 4.251773225433351024E-17 ) ) ;
#10 = CARTESIAN_POINT ( 'NONE',  ( 5.000000000000000000, 1.203706215242022408E-32, -2.499999999999998668 ) ) ;
#11 = VECTOR ( 'NONE', #567, 1000.000000000000000 ) ;
#12 = EDGE_CURVE ( 'NONE', #1029, #903, #631, .T. ) ;
#13 = VERTEX_POINT ( 'NONE', #8 ) ;
#14 = PLANE ( 'NONE',  #607 ) ;
#15 = DIRECTION ( 'NONE',  ( -1.000000000000000000, -0.000000000000000000, 1.734723475976807094E-17 ) ) ;
#16 = DIRECTION ( 'NONE',  ( 1.000000000000000000, -0.000000000000000000, 1.700709290173340409E-17 ) ) ;
#17 = ORIENTED_EDGE ( 'NONE', *, *, #662, .T. ) ;
#18 = ORIENTED_EDGE ( 'NONE', *, *, #554, .T. ) ;
#19 = PLANE ( 'NONE',  #143 ) ;
#20 = B_SPLINE_CURVE_WITH_KNOTS ( 'NONE', 3,
 ( #536, #1050, #880, #1119, #515, #944, #777, #424, #963, #339, #333, #1030, #245, #772 ),
 .UNSPECIFIED., .F., .F.,
 ( 4, 2, 2, 2, 2, 2, 4 ),
 ( 0.000000000000000000, 0.0005335828852272577090, 0.001067165770454515418, 0.002134331540909031703, 0.003201497311363547555, 0.003735080196590806131, 0.004268663081818064274 ),
 .UNSPECIFIED. ) ;
#21 = LINE ( 'NONE', #9, #710 ) ;
#22 = CARTESIAN_POINT ( 'NONE',  ( -4.999999999999999112, 63.40000000000001279, 23.99999999999999645 ) ) ;
#23 = CARTESIAN_POINT ( 'NONE',  ( 2.499999999999999556, 70.90000000000000568, 22.50000000000000000 ) ) ;
#24 = CARTESIAN_POINT ( 'NONE',  ( 5.000000000000000888, -4.000000000000001776, 21.99999999999999289 ) ) ;
#25 = ADVANCED_FACE ( 'NONE', ( #707, #804 ), #14, .F. ) ;
#26 = ORIENTED_EDGE ( 'NONE', *, *, #1037, .T. ) ;
#27 = VECTOR ( 'NONE', #414, 1000.000000000000000 ) ;
#28 = VECTOR ( 'NONE', #294, 1000.000000000000000 ) ;
#29 = CARTESIAN_POINT ( 'NONE',  ( 11.28641454564401769, 67.90000000000000568, -2.499999999999998668 ) ) ;
#30 = CARTESIAN_POINT ( 'NONE',  ( -4.999999999999999112, 67.90000000000000568, 0.5000000000000000000 ) ) ;
#31 = PRODUCT_DEFINITION_FORMATION_WITH_SPECIFIED_SOURCE ( 'ANY', '', #778, .NOT_KNOWN. ) ;
#32 = ORIENTED_EDGE ( 'NONE', *, *, #575, .T. ) ;
#33 = DIRECTION ( 'NONE',  ( 0.000000000000000000, 0.000000000000000000, -1.000000000000000000 ) ) ;
#34 = CARTESIAN_POINT ( 'NONE',  ( 11.57465733170070799, 62.40000000000000568, 22.00000000000000355 ) ) ;
#35 = CARTESIAN_POINT ( 'NONE',  ( 5.000000000000000000, 0.000000000000000000, 4.251773225433351024E-17 ) ) ;
#36 = ORIENTED_EDGE ( 'NONE', *, *, #135, .T. ) ;
#37 = EDGE_CURVE ( 'NONE', #930, #142, #1068, .T. ) ;
#38 = CARTESIAN_POINT ( 'NONE',  ( 11.12919120779491244, 70.90000000000000568, 0.4999999999999991673 ) ) ;
#39 = DIRECTION ( 'NONE',  ( 0.000000000000000000, 0.000000000000000000, 1.000000000000000000 ) ) ;
#40 = ORIENTED_EDGE ( 'NONE', *, *, #1069, .F. ) ;
#41 = EDGE_CURVE ( 'NONE', #675, #996, #702, .T. ) ;
#42 = DIRECTION ( 'NONE',  ( 0.05233595624293726351, -0.9986295347545742773, -0.000000000000000000 ) ) ;
#43 = AXIS2_PLACEMENT_3D ( 'NONE', #1033, #152, #165 ) ;
#44 = DIRECTION ( 'NONE',  ( -1.700709290173340409E-17, 0.000000000000000000, 1.000000000000000000 ) ) ;
#45 = CIRCLE ( 'NONE', #835, 3.000000000000000000 ) ;
#46 =( NAMED_UNIT ( * ) SI_UNIT ( $, .STERADIAN. ) SOLID_ANGLE_UNIT ( ) );
#47 = ORIENTED_EDGE ( 'NONE', *, *, #838, .T. ) ;
#48 = CARTESIAN_POINT ( 'NONE',  ( 15.50000000000000000, -12.50000000000000000, 0.5000000000000000000 ) ) ;
#49 = CARTESIAN_POINT ( 'NONE',  ( 5.000000000000000000, 70.90000000000000568, 4.251773225433351024E-17 ) ) ;
#50 = EDGE_CURVE ( 'NONE', #854, #142, #557, .T. ) ;
#51 = CYLINDRICAL_SURFACE ( 'NONE', #364, 3.000000000000000000 ) ;
#52 = ORIENTED_EDGE ( 'NONE', *, *, #914, .T. ) ;
#53 = DIRECTION ( 'NONE',  ( 0.000000000000000000, -0.000000000000000000, 1.000000000000000000 ) ) ;
#54 = LINE ( 'NONE', #518, #27 ) ;
#55 = ADVANCED_BREP_SHAPE_REPRESENTATION ( 'final_a2_blockJaw_Contact_Block_A', ( #913, #162 ), #125 ) ;
#56 = ORIENTED_EDGE ( 'NONE', *, *, #41, .T. ) ;
#57 = CARTESIAN_POINT ( 'NONE',  ( 5.000000000000000888, 67.40000000000000568, 17.00000000000000000 ) ) ;
#58 = EDGE_CURVE ( 'NONE', #887, #354, #540, .T. ) ;
#59 = ORIENTED_EDGE ( 'NONE', *, *, #345, .T. ) ;
#60 = CARTESIAN_POINT ( 'NONE',  ( 15.43487596114133176, -11.25735931288070901, -2.500000000000000000 ) ) ;
#61 = ORIENTED_EDGE ( 'NONE', *, *, #6, .T. ) ;
#62 = DIRECTION ( 'NONE',  ( -1.000000000000000000, 0.000000000000000000, 0.000000000000000000 ) ) ;
#63 = EDGE_LOOP ( 'NONE', ( #638, #633, #861, #429, #261 ) ) ;
#64 = DIRECTION ( 'NONE',  ( -1.700709290173340409E-17, 0.000000000000000000, -1.000000000000000000 ) ) ;
#65 = AXIS2_PLACEMENT_3D ( 'NONE', #124, #201, #573 ) ;
#66 = STYLED_ITEM ( 'NONE', ( #918 ), #913 ) ;
#67 = VERTEX_POINT ( 'NONE', #463 ) ;
#68 = EDGE_CURVE ( 'NONE', #67, #679, #615, .T. ) ;
#69 = CARTESIAN_POINT ( 'NONE',  ( 9.063930161978817068E-16, 63.40000000000001279, 23.99999999999999645 ) ) ;
#70 = ORIENTED_EDGE ( 'NONE', *, *, #874, .T. ) ;
#71 = CARTESIAN_POINT ( 'NONE',  ( 5.000000000000000000, -3.996221620051281269E-15, 21.99999999999999289 ) ) ;
#72 = PRODUCT_DEFINITION_CONTEXT ( 'detailed design', #692, 'design' ) ;
#73 = EDGE_CURVE ( 'NONE', #981, #736, #1135, .T. ) ;
#74 = ORIENTED_EDGE ( 'NONE', *, *, #554, .F. ) ;
#75 = CYLINDRICAL_SURFACE ( 'NONE', #209, 1.499999999999999556 ) ;
#76 = ORIENTED_EDGE ( 'NONE', *, *, #747, .F. ) ;
#77 = LINE ( 'NONE', #351, #1080 ) ;
#78 = ORIENTED_EDGE ( 'NONE', *, *, #12, .T. ) ;
#79 = CARTESIAN_POINT ( 'NONE',  ( 15.05453387609420446, -4.000000000000001776, 21.99999999999999289 ) ) ;
#80 = ORIENTED_EDGE ( 'NONE', *, *, #786, .F. ) ;
#81 = CARTESIAN_POINT ( 'NONE',  ( 0.000000000000000000, 70.90000000000000568, 0.000000000000000000 ) ) ;
#82 = FACE_OUTER_BOUND ( 'NONE', #296, .T. ) ;
#83 = VECTOR ( 'NONE', #1074, 1000.000000000000000 ) ;
#84 = UNCERTAINTY_MEASURE_WITH_UNIT (LENGTH_MEASURE( 1.000000000000000082E-05 ), #1076, 'distance_accuracy_value', 'NONE');
#85 = VERTEX_POINT ( 'NONE', #621 ) ;
#86 = LINE ( 'NONE', #177, #493 ) ;
#87 = CARTESIAN_POINT ( 'NONE',  ( -4.999999999999999112, 63.40000000000001279, 21.75000000000000000 ) ) ;
#88 = CARTESIAN_POINT ( 'NONE',  ( 11.31261843528553435, 67.40000000000000568, 17.00000000000000000 ) ) ;
#89 = CARTESIAN_POINT ( 'NONE',  ( -2.499999999999999556, 70.90000000000000568, 25.50000000000000000 ) ) ;
#90 = EDGE_CURVE ( 'NONE', #171, #131, #450, .T. ) ;
#91 = ORIENTED_EDGE ( 'NONE', *, *, #920, .T. ) ;
#92 = LINE ( 'NONE', #798, #818 ) ;
#93 = CYLINDRICAL_SURFACE ( 'NONE', #1016, 1.500000000000000000 ) ;
#94 = DIRECTION ( 'NONE',  ( -1.000000000000000000, -0.000000000000000000, -0.000000000000000000 ) ) ;
#95 = ADVANCED_FACE ( 'NONE', ( #1086 ), #1073, .T. ) ;
#96 = ADVANCED_FACE ( 'NONE', ( #464 ), #994, .F. ) ;
#97 = ORIENTED_EDGE ( 'NONE', *, *, #176, .T. ) ;
#98 = ORIENTED_EDGE ( 'NONE', *, *, #213, .F. ) ;
#99 = DIRECTION ( 'NONE',  ( -1.700709290173340409E-17, 0.000000000000000000, 1.000000000000000000 ) ) ;
#100 = DIRECTION ( 'NONE',  ( -1.000000000000000000, 0.000000000000000000, -1.700709290173340409E-17 ) ) ;
#101 = CIRCLE ( 'NONE', #741, 1.500000000000000000 ) ;
#102 = EDGE_CURVE ( 'NONE', #854, #1040, #206, .T. ) ;
#103 = EDGE_CURVE ( 'NONE', #67, #511, #127, .T. ) ;
#104 = CIRCLE ( 'NONE', #743, 1.500000000000000000 ) ;
#105 = ORIENTED_EDGE ( 'NONE', *, *, #598, .F. ) ;
#106 = DIRECTION ( 'NONE',  ( 1.000000000000000000, -1.368455531567204475E-48, 1.700709290173340409E-17 ) ) ;
#107 = CARTESIAN_POINT ( 'NONE',  ( 15.31657277250937810, -9.000000000000000000, -5.008376604907085560E-16 ) ) ;
#108 = FACE_OUTER_BOUND ( 'NONE', #553, .T. ) ;
#109 = CARTESIAN_POINT ( 'NONE',  ( 2.500000000000000000, 67.90000000000000568, 0.5000000000000000000 ) ) ;
#110 = LINE ( 'NONE', #562, #210 ) ;
#111 = EDGE_LOOP ( 'NONE', ( #960, #425, #183, #105 ) ) ;
#112 = EDGE_CURVE ( 'NONE', #1035, #1118, #568, .T. ) ;
#113 = FACE_OUTER_BOUND ( 'NONE', #766, .T. ) ;
#114 = CARTESIAN_POINT ( 'NONE',  ( 5.000000000000000000, -4.000000000000000888, 1.000000000000000000 ) ) ;
#115 = CARTESIAN_POINT ( 'NONE',  ( -3.882005762289774786, 70.90000000000000568, 0.3331307633470061424 ) ) ;
#116 = ORIENTED_EDGE ( 'NONE', *, *, #41, .F. ) ;
#117 = DIRECTION ( 'NONE',  ( -1.000000000000000000, 0.000000000000000000, 0.000000000000000000 ) ) ;
#118 = CARTESIAN_POINT ( 'NONE',  ( -2.500000000000000000, 0.000000000000000000, -2.500000000000000000 ) ) ;
#119 = LINE ( 'NONE', #35, #28 ) ;
#120 = EDGE_LOOP ( 'NONE', ( #134, #682, #164, #750 ) ) ;
#121 = CIRCLE ( 'NONE', #1130, 2.249999999999998668 ) ;
#122 = AXIS2_PLACEMENT_3D ( 'NONE', #314, #1129, #172 ) ;
#123 = CARTESIAN_POINT ( 'NONE',  ( 15.50000000000000000, -9.000000000000001776, 16.99999999999999289 ) ) ;
#124 = CARTESIAN_POINT ( 'NONE',  ( -4.999999999999999112, 70.90000000000000568, 25.50000000000000000 ) ) ;
#125 =( GEOMETRIC_REPRESENTATION_CONTEXT ( 3 ) GLOBAL_UNCERTAINTY_ASSIGNED_CONTEXT ( ( #84 ) ) GLOBAL_UNIT_ASSIGNED_CONTEXT ( ( #1076, #378, #721 ) ) REPRESENTATION_CONTEXT ( 'NONE', 'WORKASPACE' ) );
#126 = ORIENTED_EDGE ( 'NONE', *, *, #906, .T. ) ;
#127 = LINE ( 'NONE', #107, #255 ) ;
#128 = DIRECTION ( 'NONE',  ( 1.000000000000000000, 7.703719777548943412E-34, 1.264933817329266432E-17 ) ) ;
#129 = CARTESIAN_POINT ( 'NONE',  ( 2.500000000000000000, 0.000000000000000000, 0.000000000000000000 ) ) ;
#130 = ADVANCED_FACE ( 'NONE', ( #113 ), #19, .T. ) ;
#131 = VERTEX_POINT ( 'NONE', #38 ) ;
#132 = LINE ( 'NONE', #933, #820 ) ;
#133 = CARTESIAN_POINT ( 'NONE',  ( 15.34277666215089475, -9.499999999999994671, -2.499999999999998668 ) ) ;
#134 = ORIENTED_EDGE ( 'NONE', *, *, #975, .T. ) ;
#135 = EDGE_CURVE ( 'NONE', #235, #300, #293, .T. ) ;
#136 = EDGE_CURVE ( 'NONE', #608, #675, #374, .T. ) ;
#137 = CARTESIAN_POINT ( 'NONE',  ( 15.50000000000000000, -9.500000000000001776, 25.50000000000000000 ) ) ;
#138 = VECTOR ( 'NONE', #991, 1000.000000000000000 ) ;
#139 = DIRECTION ( 'NONE',  ( 0.000000000000000000, 0.000000000000000000, 1.000000000000000000 ) ) ;
#140 = CIRCLE ( 'NONE', #907, 2.249999999999998668 ) ;
#141 = CARTESIAN_POINT ( 'NONE',  ( 0.000000000000000000, 0.000000000000000000, 0.000000000000000000 ) ) ;
#142 = VERTEX_POINT ( 'NONE', #302 ) ;
#143 = AXIS2_PLACEMENT_3D ( 'NONE', #555, #469, #1090 ) ;
#144 = CARTESIAN_POINT ( 'NONE',  ( 4.999999999999999112, 70.90000000000000568, 25.50000000000000000 ) ) ;
#145 = ADVANCED_FACE ( 'NONE', ( #560 ), #298, .T. ) ;
#146 = DIRECTION ( 'NONE',  ( 1.000000000000000000, 0.000000000000000000, 1.700709290173340409E-17 ) ) ;
#147 = EDGE_LOOP ( 'NONE', ( #166, #1022, #793, #74 ) ) ;
#148 = CARTESIAN_POINT ( 'NONE',  ( 11.57465733170070799, 62.40000000000000568, 1.000000000000000000 ) ) ;
#149 = EDGE_LOOP ( 'NONE', ( #539, #987, #761, #420 ) ) ;
#150 = DIRECTION ( 'NONE',  ( 1.734723475976805246E-17, 0.000000000000000000, 1.000000000000000000 ) ) ;
#151 = VERTEX_POINT ( 'NONE', #904 ) ;
#152 = DIRECTION ( 'NONE',  ( 1.000000000000000000, 0.000000000000000000, 0.000000000000000000 ) ) ;
#153 = VERTEX_POINT ( 'NONE', #809 ) ;
#154 = ORIENTED_EDGE ( 'NONE', *, *, #668, .T. ) ;
#155 = VERTEX_POINT ( 'NONE', #23 ) ;
#156 = CARTESIAN_POINT ( 'NONE',  ( 11.31261843528553435, 67.40000000000000568, 17.00000000000000000 ) ) ;
#157 = ORIENTED_EDGE ( 'NONE', *, *, #582, .T. ) ;
#158 = LINE ( 'NONE', #868, #460 ) ;
#159 = AXIS2_PLACEMENT_3D ( 'NONE', #1126, #527, #688 ) ;
#160 = VECTOR ( 'NONE', #569, 1000.000000000000000 ) ;
#161 = ADVANCED_FACE ( 'NONE', ( #900 ), #379, .F. ) ;
#162 = AXIS2_PLACEMENT_3D ( 'NONE', #287, #908, #822 ) ;
#163 = ORIENTED_EDGE ( 'NONE', *, *, #382, .F. ) ;
#164 = ORIENTED_EDGE ( 'NONE', *, *, #959, .T. ) ;
#165 = DIRECTION ( 'NONE',  ( 0.000000000000000000, 0.000000000000000000, -1.000000000000000000 ) ) ;
#166 = ORIENTED_EDGE ( 'NONE', *, *, #543, .F. ) ;
#167 = CARTESIAN_POINT ( 'NONE',  ( 2.500000000000000000, 70.85803989154980798, 0.000000000000000000 ) ) ;
#168 =( BOUNDED_CURVE ( )  B_SPLINE_CURVE ( 3, ( #885, #1071, #974, #964 ),
 .UNSPECIFIED., .F., .T. ) 
 B_SPLINE_CURVE_WITH_KNOTS ( ( 4, 4 ),
 ( 4.712388980384689674, 6.283185307179586232 ),
 .UNSPECIFIED. ) 
 CURVE ( )  GEOMETRIC_REPRESENTATION_ITEM ( )  RATIONAL_B_SPLINE_CURVE ( ( 1.000000000000000000, 0.8047378541243649375, 0.8047378541243649375, 1.000000000000000000 ) ) 
 REPRESENTATION_ITEM ( '' )  );
#169 = EDGE_CURVE ( 'NONE', #334, #171, #487, .T. ) ;
#170 = DIRECTION ( 'NONE',  ( 1.000000000000000000, 3.421138828918011187E-49, 1.700709290173340409E-17 ) ) ;
#171 = VERTEX_POINT ( 'NONE', #997 ) ;
#172 = DIRECTION ( 'NONE',  ( 0.000000000000000000, 0.000000000000000000, -1.000000000000000000 ) ) ;
#173 = DIRECTION ( 'NONE',  ( 0.000000000000000000, 1.000000000000000000, 1.816464372750583628E-16 ) ) ;
#174 =( BOUNDED_CURVE ( )  B_SPLINE_CURVE ( 3, ( #156, #602, #757, #950 ),
 .UNSPECIFIED., .F., .T. ) 
 B_SPLINE_CURVE_WITH_KNOTS ( ( 4, 4 ),
 ( 3.141592653589793116, 4.712388980384689674 ),
 .UNSPECIFIED. ) 
 CURVE ( )  GEOMETRIC_REPRESENTATION_ITEM ( )  RATIONAL_B_SPLINE_CURVE ( ( 1.000000000000000000, 0.8047378541243649375, 0.8047378541243649375, 1.000000000000000000 ) ) 
 REPRESENTATION_ITEM ( '' )  );
#175 = ORIENTED_EDGE ( 'NONE', *, *, #860, .T. ) ;
#176 = EDGE_CURVE ( 'NONE', #151, #604, #328, .T. ) ;
#177 = CARTESIAN_POINT ( 'NONE',  ( -5.000000000000000000, 70.90000000000000568, -0.5000000000000004441 ) ) ;
#178 = DIRECTION ( 'NONE',  ( -1.000000000000000000, -1.710569414459005593E-49, -1.700709290173340409E-17 ) ) ;
#179 = CARTESIAN_POINT ( 'NONE',  ( -4.999999999999999112, 70.90000000000000568, 0.5000000000000004441 ) ) ;
#180 = PLANE ( 'NONE',  #1038 ) ;
#181 = VECTOR ( 'NONE', #62, 1000.000000000000000 ) ;
#182 = AXIS2_PLACEMENT_3D ( 'NONE', #472, #811, #477 ) ;
#183 = ORIENTED_EDGE ( 'NONE', *, *, #73, .T. ) ;
#184 = CARTESIAN_POINT ( 'NONE',  ( 15.50000000000000000, 62.40000000000000568, 5.999999999999999112 ) ) ;
#185 = EDGE_CURVE ( 'NONE', #372, #511, #738, .T. ) ;
#186 = CYLINDRICAL_SURFACE ( 'NONE', #1000, 3.000000000000000000 ) ;
#187 = DIRECTION ( 'NONE',  ( 0.000000000000000000, 0.000000000000000000, -1.000000000000000000 ) ) ;
#188 = AXIS2_PLACEMENT_3D ( 'NONE', #329, #572, #150 ) ;
#189 = EDGE_LOOP ( 'NONE', ( #758, #490, #773, #516 ) ) ;
#190 = CYLINDRICAL_SURFACE ( 'NONE', #624, 5.000000000000000888 ) ;
#191 = DIRECTION ( 'NONE',  ( -1.000000000000000000, 0.000000000000000000, 1.700709290173340409E-17 ) ) ;
#192 = ORIENTED_EDGE ( 'NONE', *, *, #637, .T. ) ;
#193 = CARTESIAN_POINT ( 'NONE',  ( 15.50000000000000000, 62.40000000000000568, 22.00000000000000355 ) ) ;
#194 = CARTESIAN_POINT ( 'NONE',  ( -4.999999999999999112, 70.90000000000000568, 25.50000000000000000 ) ) ;
#195 = CARTESIAN_POINT ( 'NONE',  ( 5.000000000000000888, 62.40000000000000568, 5.999999999999999112 ) ) ;
#196 = AXIS2_PLACEMENT_3D ( 'NONE', #1013, #1010, #146 ) ;
#197 = ADVANCED_FACE ( 'NONE', ( #307 ), #474, .T. ) ;
#198 = VECTOR ( 'NONE', #99, 1000.000000000000000 ) ;
#199 = VERTEX_POINT ( 'NONE', #496 ) ;
#200 = DIRECTION ( 'NONE',  ( 4.329190716480530088E-18, -8.260587980841943710E-17, 1.000000000000000000 ) ) ;
#201 = DIRECTION ( 'NONE',  ( -1.000000000000000000, 0.000000000000000000, 1.700709290173340409E-17 ) ) ;
#202 = ORIENTED_EDGE ( 'NONE', *, *, #1060, .F. ) ;
#203 = CARTESIAN_POINT ( 'NONE',  ( -2.499999999999999556, 70.90000000000000568, 25.50000000000000000 ) ) ;
#204 = LINE ( 'NONE', #212, #650 ) ;
#205 = ORIENTED_EDGE ( 'NONE', *, *, #461, .F. ) ;
#206 = LINE ( 'NONE', #284, #327 ) ;
#207 = LINE ( 'NONE', #118, #685 ) ;
#208 = ORIENTED_EDGE ( 'NONE', *, *, #366, .T. ) ;
#209 = AXIS2_PLACEMENT_3D ( 'NONE', #1053, #2, #435 ) ;
#210 = VECTOR ( 'NONE', #552, 1000.000000000000000 ) ;
#211 = DIRECTION ( 'NONE',  ( 0.000000000000000000, -0.000000000000000000, 1.000000000000000000 ) ) ;
#212 = CARTESIAN_POINT ( 'NONE',  ( 8.283304597789253876E-16, 63.40000000000001279, 19.50000000000000000 ) ) ;
#213 = EDGE_CURVE ( 'NONE', #1025, #442, #745, .T. ) ;
#214 = CARTESIAN_POINT ( 'NONE',  ( 5.000000000000000000, 62.40000000000000568, 22.00000000000000355 ) ) ;
#215 = ORIENTED_EDGE ( 'NONE', *, *, #598, .T. ) ;
#216 = CARTESIAN_POINT ( 'NONE',  ( -4.999999999999999112, 15.00000000000000000, 21.75000000000000000 ) ) ;
#217 = PLANE ( 'NONE',  #65 ) ;
#218 = FILL_AREA_STYLE ('',( #1098 ) ) ;
#219 = ADVANCED_FACE ( 'NONE', ( #763 ), #583, .F. ) ;
#220 = PRODUCT_RELATED_PRODUCT_CATEGORY ( 'part', '', ( #778 ) ) ;
#221 = VERTEX_POINT ( 'NONE', #1009 ) ;
#222 = CARTESIAN_POINT ( 'NONE',  ( -4.999999999999999112, 15.00000000000000000, 23.99999999999999645 ) ) ;
#223 = LINE ( 'NONE', #247, #1112 ) ;
#224 = DIRECTION ( 'NONE',  ( 1.700709290173340409E-17, 0.000000000000000000, -1.000000000000000000 ) ) ;
#225 = VERTEX_POINT ( 'NONE', #832 ) ;
#226 = EDGE_CURVE ( 'NONE', #153, #305, #367, .T. ) ;
#227 = CARTESIAN_POINT ( 'NONE',  ( 15.50000000000000000, -12.50000000000000000, 2.418211663346640430E-16 ) ) ;
#228 = AXIS2_PLACEMENT_3D ( 'NONE', #184, #972, #814 ) ;
#229 = CARTESIAN_POINT ( 'NONE',  ( -2.499999999999999556, 15.00000000000000000, 21.75000000000000000 ) ) ;
#230 = AXIS2_PLACEMENT_3D ( 'NONE', #806, #546, #285 ) ;
#231 = DIRECTION ( 'NONE',  ( -1.000000000000000000, 0.000000000000000000, -1.700709290173340409E-17 ) ) ;
#232 = ORIENTED_EDGE ( 'NONE', *, *, #606, .T. ) ;
#233 = AXIS2_PLACEMENT_3D ( 'NONE', #491, #409, #312 ) ;
#234 = CARTESIAN_POINT ( 'NONE',  ( 15.50000000000000000, -4.000000000000000888, 5.999999999999999112 ) ) ;
#235 = VERTEX_POINT ( 'NONE', #222 ) ;
#236 = CARTESIAN_POINT ( 'NONE',  ( 15.31657277250937810, -9.000000000000001776, 16.99999999999999289 ) ) ;
#237 = EDGE_LOOP ( 'NONE', ( #976, #98, #625, #849 ) ) ;
#238 = LINE ( 'NONE', #585, #160 ) ;
#239 = ORIENTED_EDGE ( 'NONE', *, *, #1128, .F. ) ;
#240 = ORIENTED_EDGE ( 'NONE', *, *, #213, .T. ) ;
#241 = CARTESIAN_POINT ( 'NONE',  ( 11.28641454564401769, 67.90000000000000568, 25.50000000000000000 ) ) ;
#242 = ORIENTED_EDGE ( 'NONE', *, *, #570, .F. ) ;
#243 = ADVANCED_FACE ( 'NONE', ( #1012 ), #1100, .F. ) ;
#244 = EDGE_CURVE ( 'NONE', #171, #305, #670, .T. ) ;
#245 = CARTESIAN_POINT ( 'NONE',  ( -3.112489182934855769, 68.03777061876971288, -2.500000000000000444 ) ) ;
#246 = EDGE_LOOP ( 'NONE', ( #316, #154, #202, #949, #78, #549 ) ) ;
#247 = CARTESIAN_POINT ( 'NONE',  ( 9.063930161978817068E-16, 15.00000000000000000, 23.99999999999999645 ) ) ;
#248 = VECTOR ( 'NONE', #800, 1000.000000000000000 ) ;
#249 = ORIENTED_EDGE ( 'NONE', *, *, #315, .T. ) ;
#250 = CARTESIAN_POINT ( 'NONE',  ( 5.000000000000000000, -9.500000000000001776, 25.50000000000000000 ) ) ;
#251 = CIRCLE ( 'NONE', #399, 5.000000000000000888 ) ;
#252 = ADVANCED_FACE ( 'NONE', ( #577 ), #501, .F. ) ;
#253 = VECTOR ( 'NONE', #1137, 1000.000000000000000 ) ;
#254 = ORIENTED_EDGE ( 'NONE', *, *, #993, .F. ) ;
#255 = VECTOR ( 'NONE', #200, 1000.000000000000000 ) ;
#256 = CARTESIAN_POINT ( 'NONE',  ( -2.499999999999999556, 63.40000000000001279, 21.75000000000000000 ) ) ;
#257 = ORIENTED_EDGE ( 'NONE', *, *, #769, .T. ) ;
#258 = DIRECTION ( 'NONE',  ( 0.000000000000000000, -0.000000000000000000, 1.000000000000000000 ) ) ;
#259 = FACE_OUTER_BOUND ( 'NONE', #667, .T. ) ;
#260 = ADVANCED_FACE ( 'NONE', ( #927 ), #587, .F. ) ;
#261 = ORIENTED_EDGE ( 'NONE', *, *, #627, .T. ) ;
#262 = DIRECTION ( 'NONE',  ( -1.700709290173340409E-17, 0.000000000000000000, -1.000000000000000000 ) ) ;
#263 = ORIENTED_EDGE ( 'NONE', *, *, #823, .F. ) ;
#264 = CARTESIAN_POINT ( 'NONE',  ( -2.500000000000000000, -9.499999999999994671, 0.5000000000000000000 ) ) ;
#265 = CARTESIAN_POINT ( 'NONE',  ( -2.999999999999999556, 70.90000000000000568, 0.5000000000000000000 ) ) ;
#266 = EDGE_CURVE ( 'NONE', #580, #943, #132, .T. ) ;
#267 = ORIENTED_EDGE ( 'NONE', *, *, #683, .F. ) ;
#268 = DIRECTION ( 'NONE',  ( 0.000000000000000000, 0.000000000000000000, 1.000000000000000000 ) ) ;
#269 = LINE ( 'NONE', #4, #289 ) ;
#270 = CARTESIAN_POINT ( 'NONE',  ( 5.000000000000000888, -4.000000000000000888, 5.999999999999999112 ) ) ;
#271 = AXIS2_PLACEMENT_3D ( 'NONE', #387, #380, #492 ) ;
#272 = AXIS2_PLACEMENT_3D ( 'NONE', #141, #498, #592 ) ;
#273 = ORIENTED_EDGE ( 'NONE', *, *, #90, .F. ) ;
#274 = CARTESIAN_POINT ( 'NONE',  ( 11.31261843528553257, 67.40000000000000568, 3.071067811865472397 ) ) ;
#275 = DIRECTION ( 'NONE',  ( 1.700709290173340409E-17, 0.000000000000000000, 1.000000000000000000 ) ) ;
#276 = DIRECTION ( 'NONE',  ( 1.000000000000000000, -0.000000000000000000, 1.700709290173340409E-17 ) ) ;
#277 = SHAPE_DEFINITION_REPRESENTATION ( #1024, #55 ) ;
#278 = ORIENTED_EDGE ( 'NONE', *, *, #6, .F. ) ;
#279 = CARTESIAN_POINT ( 'NONE',  ( 15.50000000000000000, -12.50000000000000000, -2.499999999999998668 ) ) ;
#280 = LINE ( 'NONE', #623, #888 ) ;
#281 = EDGE_CURVE ( 'NONE', #545, #442, #1103, .T. ) ;
#282 = EDGE_LOOP ( 'NONE', ( #899, #91, #332, #486, #755, #1107, #350, #257, #311, #1110, #242, #768 ) ) ;
#283 =( BOUNDED_CURVE ( )  B_SPLINE_CURVE ( 3, ( #690, #957, #343, #696 ),
 .UNSPECIFIED., .F., .T. ) 
 B_SPLINE_CURVE_WITH_KNOTS ( ( 4, 4 ),
 ( 3.141592653589790896, 4.712388980384689674 ),
 .UNSPECIFIED. ) 
 CURVE ( )  GEOMETRIC_REPRESENTATION_ITEM ( )  RATIONAL_B_SPLINE_CURVE ( ( 1.000000000000000000, 0.8047378541243644934, 0.8047378541243644934, 1.000000000000000000 ) ) 
 REPRESENTATION_ITEM ( '' )  );
#284 = CARTESIAN_POINT ( 'NONE',  ( 5.000000000000000888, 62.40000000000000568, 1.000000000000000000 ) ) ;
#285 = DIRECTION ( 'NONE',  ( 0.000000000000000000, 0.000000000000000000, 1.000000000000000000 ) ) ;
#286 = DIRECTION ( 'NONE',  ( -0.000000000000000000, -0.000000000000000000, 1.000000000000000000 ) ) ;
#287 = CARTESIAN_POINT ( 'NONE',  ( 0.000000000000000000, 0.000000000000000000, 0.000000000000000000 ) ) ;
#288 = AXIS2_PLACEMENT_3D ( 'NONE', #49, #856, #839 ) ;
#289 = VECTOR ( 'NONE', #622, 1000.000000000000000 ) ;
#290 = ORIENTED_EDGE ( 'NONE', *, *, #959, .F. ) ;
#291 = DIRECTION ( 'NONE',  ( -1.000000000000000000, 0.000000000000000000, 1.734723475976807094E-17 ) ) ;
#292 = CARTESIAN_POINT ( 'NONE',  ( 5.000000000000000000, 3.851859888774471706E-33, 1.000000000000000000 ) ) ;
#293 = CIRCLE ( 'NONE', #711, 2.249999999999998668 ) ;
#294 = DIRECTION ( 'NONE',  ( -1.700709290173340409E-17, 0.000000000000000000, 1.000000000000000000 ) ) ;
#295 = AXIS2_PLACEMENT_3D ( 'NONE', #646, #910, #722 ) ;
#296 = EDGE_LOOP ( 'NONE', ( #544, #857, #427, #267 ) ) ;
#297 = ADVANCED_FACE ( 'NONE', ( #317 ), #1018, .T. ) ;
#298 = PLANE ( 'NONE',  #485 ) ;
#299 = CARTESIAN_POINT ( 'NONE',  ( 2.499999999999999556, 67.90000000000000568, 25.50000000000000000 ) ) ;
#300 = VERTEX_POINT ( 'NONE', #756 ) ;
#301 = ADVANCED_FACE ( 'NONE', ( #847 ), #321, .F. ) ;
#302 = CARTESIAN_POINT ( 'NONE',  ( 11.31261843528553435, 67.40000000000000568, 5.999999999999999112 ) ) ;
#303 = CARTESIAN_POINT ( 'NONE',  ( -2.499999999999999556, 63.40000000000001279, 19.50000000000000000 ) ) ;
#304 = DIRECTION ( 'NONE',  ( -1.000000000000000000, -7.703719777548943412E-34, -1.264933817329266432E-17 ) ) ;
#305 = VERTEX_POINT ( 'NONE', #133 ) ;
#306 = AXIS2_PLACEMENT_3D ( 'NONE', #362, #876, #709 ) ;
#307 = FACE_OUTER_BOUND ( 'NONE', #189, .T. ) ;
#308 = DIRECTION ( 'NONE',  ( 1.000000000000000000, 0.000000000000000000, 0.000000000000000000 ) ) ;
#309 = LINE ( 'NONE', #319, #344 ) ;
#310 = CLOSED_SHELL ( 'NONE', ( #647, #470, #938, #476, #830, #297, #130, #353, #145, #720, #96, #161, #865, #655, #1078, #95, #252, #831, #243, #792, #375, #538, #726, #219, #699, #1083, #260, #301, #197, #901, #521, #989, #25 ) ) ;
#311 = ORIENTED_EDGE ( 'NONE', *, *, #953, .T. ) ;
#312 = DIRECTION ( 'NONE',  ( 1.264933817329266432E-17, 0.000000000000000000, -1.000000000000000000 ) ) ;
#313 = DIRECTION ( 'NONE',  ( 1.264933817329266432E-17, 0.000000000000000000, -1.000000000000000000 ) ) ;
#314 = CARTESIAN_POINT ( 'NONE',  ( 5.000000000000000888, -9.500000000000001776, 22.50000000000000000 ) ) ;
#315 = EDGE_CURVE ( 'NONE', #468, #825, #207, .T. ) ;
#316 = ORIENTED_EDGE ( 'NONE', *, *, #754, .F. ) ;
#317 = FACE_OUTER_BOUND ( 'NONE', #971, .T. ) ;
#318 = FACE_OUTER_BOUND ( 'NONE', #63, .T. ) ;
#319 = CARTESIAN_POINT ( 'NONE',  ( -4.000000000000000000, 70.90000000000000568, 6.802837160693362871E-17 ) ) ;
#320 = ORIENTED_EDGE ( 'NONE', *, *, #176, .F. ) ;
#321 = CYLINDRICAL_SURFACE ( 'NONE', #228, 5.000000000000000000 ) ;
#322 = AXIS2_PLACEMENT_3D ( 'NONE', #1087, #128, #995 ) ;
#323 = CARTESIAN_POINT ( 'NONE',  ( 2.499999999999999556, 0.000000000000000000, 25.50000000000000000 ) ) ;
#324 = EDGE_LOOP ( 'NONE', ( #163, #909, #330, #26, #783, #326 ) ) ;
#325 = PLANE ( 'NONE',  #272 ) ;
#326 = ORIENTED_EDGE ( 'NONE', *, *, #1027, .T. ) ;
#327 = VECTOR ( 'NONE', #891, 1000.000000000000000 ) ;
#328 = CIRCLE ( 'NONE', #443, 1.499999999999999556 ) ;
#329 = CARTESIAN_POINT ( 'NONE',  ( 8.673617379884035472E-16, 63.40000000000001279, 21.75000000000000000 ) ) ;
#330 = ORIENTED_EDGE ( 'NONE', *, *, #136, .T. ) ;
#331 = FACE_OUTER_BOUND ( 'NONE', #237, .T. ) ;
#332 = ORIENTED_EDGE ( 'NONE', *, *, #637, .F. ) ;
#333 = CARTESIAN_POINT ( 'NONE',  ( -3.448468008754537628, 68.45025015461352780, -2.452339735778156893 ) ) ;
#334 = VERTEX_POINT ( 'NONE', #377 ) ;
#335 = EDGE_LOOP ( 'NONE', ( #533, #356, #18, #36 ) ) ;
#336 = EDGE_CURVE ( 'NONE', #854, #13, #1096, .T. ) ;
#337 = DIRECTION ( 'NONE',  ( -1.000000000000000000, -0.000000000000000000, 1.734723475976807094E-17 ) ) ;
#338 = EDGE_LOOP ( 'NONE', ( #480, #415, #116, #348 ) ) ;
#339 = CARTESIAN_POINT ( 'NONE',  ( -3.558628652502385581, 68.58615143127131830, -2.423856433599349547 ) ) ;
#340 = LINE ( 'NONE', #775, #853 ) ;
#341 = AXIS2_PLACEMENT_3D ( 'NONE', #444, #872, #788 ) ;
#342 = ORIENTED_EDGE ( 'NONE', *, *, #737, .F. ) ;
#343 = CARTESIAN_POINT ( 'NONE',  ( 11.19431524665358069, 69.65735931288072891, 25.50000000000000000 ) ) ;
#344 = VECTOR ( 'NONE', #64, 1000.000000000000000 ) ;
#345 = EDGE_CURVE ( 'NONE', #943, #680, #897, .T. ) ;
#346 = EDGE_CURVE ( 'NONE', #996, #526, #815, .T. ) ;
#347 = VECTOR ( 'NONE', #890, 1000.000000000000000 ) ;
#348 = ORIENTED_EDGE ( 'NONE', *, *, #136, .F. ) ;
#349 = DIRECTION ( 'NONE',  ( 0.000000000000000000, 0.000000000000000000, 1.000000000000000000 ) ) ;
#350 = ORIENTED_EDGE ( 'NONE', *, *, #1061, .T. ) ;
#351 = CARTESIAN_POINT ( 'NONE',  ( 4.999999999999999112, -9.499999999999994671, -2.500000000000000000 ) ) ;
#352 = CARTESIAN_POINT ( 'NONE',  ( -4.000000000000000000, 69.40000000000000568, 25.50000000000000000 ) ) ;
#353 = ADVANCED_FACE ( 'NONE', ( #833, #905, #810 ), #217, .T. ) ;
#354 = VERTEX_POINT ( 'NONE', #34 ) ;
#355 = CYLINDRICAL_SURFACE ( 'NONE', #341, 2.249999999999998668 ) ;
#356 = ORIENTED_EDGE ( 'NONE', *, *, #112, .F. ) ;
#357 = CARTESIAN_POINT ( 'NONE',  ( -2.999999999999999556, 70.90000000000000568, 0.5000000000000000000 ) ) ;
#358 = PLANE ( 'NONE',  #422 ) ;
#359 = VERTEX_POINT ( 'NONE', #114 ) ;
#360 = DIRECTION ( 'NONE',  ( 0.05233595624293726351, -0.9986295347545742773, 0.000000000000000000 ) ) ;
#361 = LINE ( 'NONE', #194, #686 ) ;
#362 = CARTESIAN_POINT ( 'NONE',  ( 15.50000000000000000, -9.000000000000000000, -5.016317519411106937E-16 ) ) ;
#363 = VECTOR ( 'NONE', #337, 1000.000000000000000 ) ;
#364 = AXIS2_PLACEMENT_3D ( 'NONE', #828, #912, #39 ) ;
#365 = ORIENTED_EDGE ( 'NONE', *, *, #454, .F. ) ;
#366 = EDGE_CURVE ( 'NONE', #131, #787, #739, .T. ) ;
#367 =( BOUNDED_CURVE ( )  B_SPLINE_CURVE ( 3, ( #48, #1115, #60, #419 ),
 .UNSPECIFIED., .F., .T. ) 
 B_SPLINE_CURVE_WITH_KNOTS ( ( 4, 4 ),
 ( 0.000000000000000000, 1.570796326794896558 ),
 .UNSPECIFIED. ) 
 CURVE ( )  GEOMETRIC_REPRESENTATION_ITEM ( )  RATIONAL_B_SPLINE_CURVE ( ( 1.000000000000000000, 0.8047378541243649375, 0.8047378541243649375, 1.000000000000000000 ) ) 
 REPRESENTATION_ITEM ( '' )  );
#368 = CARTESIAN_POINT ( 'NONE',  ( 11.31261843528553435, 67.40000000000000568, 2.418211663346640430E-16 ) ) ;
#369 = CARTESIAN_POINT ( 'NONE',  ( 15.05453387609420624, -4.000000000000000888, 1.000000000000000222 ) ) ;
#370 = PLANE ( 'NONE',  #306 ) ;
#371 = CARTESIAN_POINT ( 'NONE',  ( -3.764003191354605704, 70.88614373879812547, 0.1662646025331242505 ) ) ;
#372 = VERTEX_POINT ( 'NONE', #917 ) ;
#373 = DIRECTION ( 'NONE',  ( 1.700709290173340409E-17, -0.000000000000000000, 1.000000000000000000 ) ) ;
#374 = LINE ( 'NONE', #203, #499 ) ;
#375 = ADVANCED_FACE ( 'NONE', ( #475 ), #471, .T. ) ;
#376 = CARTESIAN_POINT ( 'NONE',  ( 2.500000000000000000, 70.90000000000000568, 0.000000000000000000 ) ) ;
#377 = CARTESIAN_POINT ( 'NONE',  ( -2.999999999999999556, 67.90000000000000568, -2.500000000000000000 ) ) ;
#378 =( NAMED_UNIT ( * ) PLANE_ANGLE_UNIT ( ) SI_UNIT ( $, .RADIAN. ) );
#379 = PLANE ( 'NONE',  #295 ) ;
#380 = DIRECTION ( 'NONE',  ( 0.000000000000000000, -1.000000000000000000, 0.000000000000000000 ) ) ;
#381 = APPLICATION_PROTOCOL_DEFINITION ( 'draft international standard', 'automotive_design', 1998, #1048 ) ;
#382 = EDGE_CURVE ( 'NONE', #199, #895, #821, .T. ) ;
#383 = EDGE_CURVE ( 'NONE', #545, #1089, #393, .T. ) ;
#384 = VECTOR ( 'NONE', #44, 1000.000000000000000 ) ;
#385 = ORIENTED_EDGE ( 'NONE', *, *, #404, .F. ) ;
#386 = DIRECTION ( 'NONE',  ( -1.000000000000000000, 0.000000000000000000, -0.000000000000000000 ) ) ;
#387 = CARTESIAN_POINT ( 'NONE',  ( 15.50000000000000000, 67.40000000000000568, 2.418211663346640430E-16 ) ) ;
#388 = CARTESIAN_POINT ( 'NONE',  ( -2.499999999999999556, 15.00000000000000000, 19.50000000000000000 ) ) ;
#389 = VECTOR ( 'NONE', #42, 1000.000000000000114 ) ;
#390 = EDGE_CURVE ( 'NONE', #680, #153, #1082, .T. ) ;
#391 = ORIENTED_EDGE ( 'NONE', *, *, #103, .F. ) ;
#392 = CARTESIAN_POINT ( 'NONE',  ( -2.500000000000000000, 70.90000000000000568, 0.000000000000000000 ) ) ;
#393 = LINE ( 'NONE', #299, #11 ) ;
#394 = EDGE_LOOP ( 'NONE', ( #56, #565, #17, #764, #829 ) ) ;
#395 = EDGE_CURVE ( 'NONE', #519, #1040, #734, .T. ) ;
#396 = DIRECTION ( 'NONE',  ( 0.000000000000000000, 0.000000000000000000, -1.000000000000000000 ) ) ;
#397 = LINE ( 'NONE', #507, #384 ) ;
#398 = CARTESIAN_POINT ( 'NONE',  ( -2.499999999999999556, 63.40000000000001279, 21.75000000000000000 ) ) ;
#399 = AXIS2_PLACEMENT_3D ( 'NONE', #1133, #276, #691 ) ;
#400 = EDGE_LOOP ( 'NONE', ( #687, #1134 ) ) ;
#401 =( GEOMETRIC_REPRESENTATION_CONTEXT ( 3 ) GLOBAL_UNCERTAINTY_ASSIGNED_CONTEXT ( ( #816 ) ) GLOBAL_UNIT_ASSIGNED_CONTEXT ( ( #753, #1105, #46 ) ) REPRESENTATION_CONTEXT ( 'NONE', 'WORKASPACE' ) );
#402 = AXIS2_PLACEMENT_3D ( 'NONE', #703, #537, #881 ) ;
#403 = CARTESIAN_POINT ( 'NONE',  ( 15.50000000000000000, -12.50000000000000000, 25.50000000000000000 ) ) ;
#404 = EDGE_CURVE ( 'NONE', #652, #514, #640, .T. ) ;
#405 = CARTESIAN_POINT ( 'NONE',  ( -5.000000000000000000, 70.72842712474619020, -0.5000000000000004441 ) ) ;
#406 = DIRECTION ( 'NONE',  ( -0.05233595624293726351, 0.9986295347545742773, 1.805074146758927949E-16 ) ) ;
#407 =( BOUNDED_CURVE ( )  B_SPLINE_CURVE ( 3, ( #632, #452, #892, #369 ),
 .UNSPECIFIED., .F., .T. ) 
 B_SPLINE_CURVE_WITH_KNOTS ( ( 4, 4 ),
 ( 0.000000000000000000, 1.570796326794896780 ),
 .UNSPECIFIED. ) 
 CURVE ( )  GEOMETRIC_REPRESENTATION_ITEM ( )  RATIONAL_B_SPLINE_CURVE ( ( 1.000000000000000000, 0.8047378541243649375, 0.8047378541243649375, 1.000000000000000000 ) ) 
 REPRESENTATION_ITEM ( '' )  );
#408 = ORIENTED_EDGE ( 'NONE', *, *, #281, .T. ) ;
#409 = DIRECTION ( 'NONE',  ( 1.000000000000000000, 7.703719777548943412E-34, 1.264933817329266432E-17 ) ) ;
#410 = CYLINDRICAL_SURFACE ( 'NONE', #43, 2.999999999999999112 ) ;
#411 = SURFACE_STYLE_FILL_AREA ( #218 ) ;
#412 = EDGE_LOOP ( 'NONE', ( #967, #797, #1002, #76, #596 ) ) ;
#413 = DIRECTION ( 'NONE',  ( 1.000000000000000000, 0.000000000000000000, -0.000000000000000000 ) ) ;
#414 = DIRECTION ( 'NONE',  ( -5.730419068485961338E-34, 1.000000000000000000, -1.560003125878423500E-17 ) ) ;
#415 = ORIENTED_EDGE ( 'NONE', *, *, #698, .T. ) ;
#416 = CARTESIAN_POINT ( 'NONE',  ( -2.499999999999999556, 1.500000000000001332, 25.50000000000000000 ) ) ;
#417 = EDGE_CURVE ( 'NONE', #604, #529, #556, .T. ) ;
#418 = ORIENTED_EDGE ( 'NONE', *, *, #1095, .T. ) ;
#419 = CARTESIAN_POINT ( 'NONE',  ( 15.34277666215089475, -9.499999999999994671, -2.499999999999998668 ) ) ;
#420 = ORIENTED_EDGE ( 'NONE', *, *, #1121, .F. ) ;
#421 = LINE ( 'NONE', #765, #478 ) ;
#422 = AXIS2_PLACEMENT_3D ( 'NONE', #796, #958, #173 ) ;
#423 = ORIENTED_EDGE ( 'NONE', *, *, #484, .T. ) ;
#424 = CARTESIAN_POINT ( 'NONE',  ( -4.097115568576274569, 69.25990793841650373, -2.190733923464003308 ) ) ;
#425 = ORIENTED_EDGE ( 'NONE', *, *, #426, .T. ) ;
#426 = EDGE_CURVE ( 'NONE', #437, #981, #204, .T. ) ;
#427 = ORIENTED_EDGE ( 'NONE', *, *, #58, .F. ) ;
#428 = CARTESIAN_POINT ( 'NONE',  ( -2.999999999999999556, 70.90000000000000568, -2.500000000000000000 ) ) ;
#429 = ORIENTED_EDGE ( 'NONE', *, *, #953, .F. ) ;
#430 = DIRECTION ( 'NONE',  ( -1.000000000000000000, 0.000000000000000000, 0.000000000000000000 ) ) ;
#431 = ORIENTED_EDGE ( 'NONE', *, *, #37, .F. ) ;
#432 = CARTESIAN_POINT ( 'NONE',  ( -5.000000000000000000, 0.000000000000000000, -0.5000000000000004441 ) ) ;
#433 = ORIENTED_EDGE ( 'NONE', *, *, #226, .F. ) ;
#434 = DIRECTION ( 'NONE',  ( 1.000000000000000000, -0.000000000000000000, -0.000000000000000000 ) ) ;
#435 = DIRECTION ( 'NONE',  ( -1.000000000000000000, 0.000000000000000000, 1.700709290173341026E-17 ) ) ;
#436 = VECTOR ( 'NONE', #842, 1000.000000000000114 ) ;
#437 = VERTEX_POINT ( 'NONE', #303 ) ;
#438 = EDGE_CURVE ( 'NONE', #514, #372, #779, .T. ) ;
#439 = CARTESIAN_POINT ( 'NONE',  ( -4.999999999999999112, 63.40000000000001279, 19.50000000000000000 ) ) ;
#440 = CARTESIAN_POINT ( 'NONE',  ( 5.000000000000000000, -9.499999999999994671, -2.499999999999998668 ) ) ;
#441 = AXIS2_PLACEMENT_3D ( 'NONE', #1006, #304, #840 ) ;
#442 = VERTEX_POINT ( 'NONE', #998 ) ;
#443 = AXIS2_PLACEMENT_3D ( 'NONE', #1081, #396, #117 ) ;
#444 = CARTESIAN_POINT ( 'NONE',  ( 8.673617379884035472E-16, 15.00000000000000000, 21.75000000000000000 ) ) ;
#445 = DIRECTION ( 'NONE',  ( -1.000000000000000000, 0.000000000000000000, 1.734723475976807094E-17 ) ) ;
#446 = DIRECTION ( 'NONE',  ( 0.000000000000000000, 0.000000000000000000, 1.000000000000000000 ) ) ;
#447 = DIRECTION ( 'NONE',  ( -0.000000000000000000, -1.000000000000000000, -0.000000000000000000 ) ) ;
#448 = EDGE_CURVE ( 'NONE', #519, #940, #648, .T. ) ;
#449 = ORIENTED_EDGE ( 'NONE', *, *, #945, .F. ) ;
#450 =( BOUNDED_CURVE ( )  B_SPLINE_CURVE ( 3, ( #29, #653, #717, #983 ),
 .UNSPECIFIED., .F., .T. ) 
 B_SPLINE_CURVE_WITH_KNOTS ( ( 4, 4 ),
 ( 4.712388980384689674, 6.283185307179586232 ),
 .UNSPECIFIED. ) 
 CURVE ( )  GEOMETRIC_REPRESENTATION_ITEM ( )  RATIONAL_B_SPLINE_CURVE ( ( 1.000000000000000000, 0.8047378541243649375, 0.8047378541243649375, 1.000000000000000000 ) ) 
 REPRESENTATION_ITEM ( '' )  );
#451 = CARTESIAN_POINT ( 'NONE',  ( -4.000000000000000000, 0.000000000000000000, 25.50000000000000000 ) ) ;
#452 = CARTESIAN_POINT ( 'NONE',  ( 15.31657277250937987, -9.000000000000003553, 3.071067811865475505 ) ) ;
#453 = LINE ( 'NONE', #785, #253 ) ;
#454 = EDGE_CURVE ( 'NONE', #930, #354, #174, .T. ) ;
#455 = ORIENTED_EDGE ( 'NONE', *, *, #704, .T. ) ;
#456 = ORIENTED_EDGE ( 'NONE', *, *, #68, .T. ) ;
#457 = CARTESIAN_POINT ( 'NONE',  ( 5.000000000000000000, -9.000000000000000000, -6.802062274093115168E-16 ) ) ;
#458 = CARTESIAN_POINT ( 'NONE',  ( 11.12919120779491244, 70.90000000000000568, 22.49999999999999289 ) ) ;
#459 = AXIS2_PLACEMENT_3D ( 'NONE', #979, #617, #187 ) ;
#460 = VECTOR ( 'NONE', #434, 1000.000000000000000 ) ;
#461 = EDGE_CURVE ( 'NONE', #903, #500, #397, .T. ) ;
#462 = ORIENTED_EDGE ( 'NONE', *, *, #769, .F. ) ;
#463 = CARTESIAN_POINT ( 'NONE',  ( 15.31657277250937810, -9.000000000000000000, 5.999999999999999112 ) ) ;
#464 = FACE_OUTER_BOUND ( 'NONE', #613, .T. ) ;
#465 = DIRECTION ( 'NONE',  ( -0.000000000000000000, -1.000000000000000000, -0.000000000000000000 ) ) ;
#466 = DIRECTION ( 'NONE',  ( 0.000000000000000000, -3.238150488490040120E-14, -1.000000000000000000 ) ) ;
#467 = DIRECTION ( 'NONE',  ( -1.000000000000000000, 0.000000000000000000, 0.000000000000000000 ) ) ;
#468 = VERTEX_POINT ( 'NONE', #928 ) ;
#469 = DIRECTION ( 'NONE',  ( 0.000000000000000000, 0.000000000000000000, -1.000000000000000000 ) ) ;
#470 = ADVANCED_FACE ( 'NONE', ( #497 ), #512, .F. ) ;
#471 = PLANE ( 'NONE',  #271 ) ;
#472 = CARTESIAN_POINT ( 'NONE',  ( -2.999999999999999556, 0.000000000000000000, -0.5000000000000004441 ) ) ;
#473 = EDGE_LOOP ( 'NONE', ( #175, #365, #915, #693, #591, #789, #645, #776 ) ) ;
#474 = CYLINDRICAL_SURFACE ( 'NONE', #1021, 2.999999999999999112 ) ;
#475 = FACE_OUTER_BOUND ( 'NONE', #879, .T. ) ;
#476 = ADVANCED_FACE ( 'NONE', ( #1109 ), #1104, .T. ) ;
#477 = DIRECTION ( 'NONE',  ( 0.000000000000000000, 0.000000000000000000, -1.000000000000000000 ) ) ;
#478 = VECTOR ( 'NONE', #1117, 1000.000000000000000 ) ;
#479 = AXIS2_PLACEMENT_3D ( 'NONE', #1064, #673, #224 ) ;
#480 = ORIENTED_EDGE ( 'NONE', *, *, #851, .T. ) ;
#481 = DIRECTION ( 'NONE',  ( 0.000000000000000000, 0.000000000000000000, 1.000000000000000000 ) ) ;
#482 = CARTESIAN_POINT ( 'NONE',  ( 11.12919120779491244, 70.90000000000000568, -2.499999999999998668 ) ) ;
#483 = VECTOR ( 'NONE', #1062, 1000.000000000000000 ) ;
#484 = EDGE_CURVE ( 'NONE', #468, #334, #770, .T. ) ;
#485 = AXIS2_PLACEMENT_3D ( 'NONE', #813, #211, #550 ) ;
#486 = ORIENTED_EDGE ( 'NONE', *, *, #1045, .F. ) ;
#487 = LINE ( 'NONE', #728, #929 ) ;
#488 = CARTESIAN_POINT ( 'NONE',  ( 5.000000000000000000, 0.000000000000000000, 4.251773225433351024E-17 ) ) ;
#489 = CARTESIAN_POINT ( 'NONE',  ( 8.673617379884035472E-16, 15.00000000000000000, 21.75000000000000000 ) ) ;
#490 = ORIENTED_EDGE ( 'NONE', *, *, #975, .F. ) ;
#491 = CARTESIAN_POINT ( 'NONE',  ( 5.000000000000000000, 3.851859888774471706E-33, 6.324669086646331852E-17 ) ) ;
#492 = DIRECTION ( 'NONE',  ( 0.000000000000000000, -0.000000000000000000, -1.000000000000000000 ) ) ;
#493 = VECTOR ( 'NONE', #1047, 1000.000000000000000 ) ;
#494 = ORIENTED_EDGE ( 'NONE', *, *, #1106, .F. ) ;
#495 = AXIS2_PLACEMENT_3D ( 'NONE', #195, #16, #547 ) ;
#496 = CARTESIAN_POINT ( 'NONE',  ( -2.499999999999999556, 69.40000000000000568, 25.50000000000000000 ) ) ;
#497 = FACE_OUTER_BOUND ( 'NONE', #111, .T. ) ;
#498 = DIRECTION ( 'NONE',  ( -0.000000000000000000, -1.000000000000000000, -0.000000000000000000 ) ) ;
#499 = VECTOR ( 'NONE', #566, 1000.000000000000000 ) ;
#500 = VERTEX_POINT ( 'NONE', #323 ) ;
#501 = CYLINDRICAL_SURFACE ( 'NONE', #188, 2.249999999999998668 ) ;
#502 = CARTESIAN_POINT ( 'NONE',  ( 5.000000000000000000, 0.000000000000000000, 1.000000000000000000 ) ) ;
#503 = ORIENTED_EDGE ( 'NONE', *, *, #383, .T. ) ;
#504 = ORIENTED_EDGE ( 'NONE', *, *, #1128, .T. ) ;
#505 = DIRECTION ( 'NONE',  ( 0.000000000000000000, -0.000000000000000000, 1.000000000000000000 ) ) ;
#506 = EDGE_LOOP ( 'NONE', ( #1127, #126 ) ) ;
#507 = CARTESIAN_POINT ( 'NONE',  ( 2.500000000000000000, 0.000000000000000000, 0.000000000000000000 ) ) ;
#508 = EDGE_LOOP ( 'NONE', ( #273, #700, #254, #1123, #926, #239, #494, #80, #290 ) ) ;
#509 = ORIENTED_EDGE ( 'NONE', *, *, #852, .F. ) ;
#510 = VECTOR ( 'NONE', #561, 1000.000000000000000 ) ;
#511 = VERTEX_POINT ( 'NONE', #236 ) ;
#512 = CYLINDRICAL_SURFACE ( 'NONE', #742, 2.249999999999998668 ) ;
#513 = VECTOR ( 'NONE', #231, 1000.000000000000000 ) ;
#514 = VERTEX_POINT ( 'NONE', #676 ) ;
#515 = CARTESIAN_POINT ( 'NONE',  ( -4.848466816396265422, 70.32273477155132468, -1.277015347384380384 ) ) ;
#516 = ORIENTED_EDGE ( 'NONE', *, *, #383, .F. ) ;
#517 = B_SPLINE_CURVE_WITH_KNOTS ( 'NONE', 3,
 ( #731, #371, #115, #985 ),
 .UNSPECIFIED., .F., .F.,
 ( 4, 4 ),
 ( 0.000000000000000000, 0.0006131160441195654528 ),
 .UNSPECIFIED. ) ;
#518 = CARTESIAN_POINT ( 'NONE',  ( 5.000000000000000000, -3.900007814696055976E-17, -2.499999999999998668 ) ) ;
#519 = VERTEX_POINT ( 'NONE', #502 ) ;
#520 = CARTESIAN_POINT ( 'NONE',  ( 4.999999999999999112, 0.000000000000000000, 25.50000000000000000 ) ) ;
#521 = ADVANCED_FACE ( 'NONE', ( #331 ), #410, .T. ) ;
#522 = CARTESIAN_POINT ( 'NONE',  ( 5.000000000000000000, -9.000000000000000000, 5.999999999999999112 ) ) ;
#523 = ORIENTED_EDGE ( 'NONE', *, *, #395, .T. ) ;
#524 = DIRECTION ( 'NONE',  ( -0.000000000000000000, -1.000000000000000000, -0.000000000000000000 ) ) ;
#525 = CARTESIAN_POINT ( 'NONE',  ( 5.000000000000000000, -3.996221620051281269E-15, 21.99999999999999289 ) ) ;
#526 = VERTEX_POINT ( 'NONE', #405 ) ;
#527 = DIRECTION ( 'NONE',  ( -1.000000000000000000, 0.000000000000000000, -1.700709290173340409E-17 ) ) ;
#528 = AXIS2_PLACEMENT_3D ( 'NONE', #144, #53, #413 ) ;
#529 = VERTEX_POINT ( 'NONE', #843 ) ;
#530 = CARTESIAN_POINT ( 'NONE',  ( 15.31657277250937810, -9.000000000000001776, 16.99999999999999289 ) ) ;
#531 = FACE_OUTER_BOUND ( 'NONE', #919, .T. ) ;
#532 = VECTOR ( 'NONE', #15, 1000.000000000000000 ) ;
#533 = ORIENTED_EDGE ( 'NONE', *, *, #1034, .F. ) ;
#534 = AXIS2_PLACEMENT_3D ( 'NONE', #234, #1108, #916 ) ;
#535 = DIRECTION ( 'NONE',  ( -0.000000000000000000, -1.000000000000000000, -0.000000000000000000 ) ) ;
#536 = CARTESIAN_POINT ( 'NONE',  ( -5.000000000000000000, 70.72842712474619020, -0.5000000000000004441 ) ) ;
#537 = DIRECTION ( 'NONE',  ( 0.000000000000000000, 0.000000000000000000, -1.000000000000000000 ) ) ;
#538 = ADVANCED_FACE ( 'NONE', ( #318 ), #665, .T. ) ;
#539 = ORIENTED_EDGE ( 'NONE', *, *, #662, .F. ) ;
#540 = LINE ( 'NONE', #193, #970 ) ;
#541 = DIRECTION ( 'NONE',  ( 1.000000000000000000, -4.657047620516661674E-50, 1.700709290173340409E-17 ) ) ;
#542 = DIRECTION ( 'NONE',  ( 0.000000000000000000, -0.000000000000000000, 1.000000000000000000 ) ) ;
#543 = EDGE_CURVE ( 'NONE', #1118, #1035, #1015, .T. ) ;
#544 = ORIENTED_EDGE ( 'NONE', *, *, #874, .F. ) ;
#545 = VERTEX_POINT ( 'NONE', #241 ) ;
#546 = DIRECTION ( 'NONE',  ( -1.000000000000000000, 0.000000000000000000, 1.734723475976807094E-17 ) ) ;
#547 = DIRECTION ( 'NONE',  ( 0.000000000000000000, 0.000000000000000000, -1.000000000000000000 ) ) ;
#548 = AXIS2_PLACEMENT_3D ( 'NONE', #270, #1056, #5 ) ;
#549 = ORIENTED_EDGE ( 'NONE', *, *, #461, .T. ) ;
#550 = DIRECTION ( 'NONE',  ( 1.000000000000000000, 0.000000000000000000, -0.000000000000000000 ) ) ;
#551 = DIRECTION ( 'NONE',  ( 0.000000000000000000, 0.000000000000000000, 1.000000000000000000 ) ) ;
#552 = DIRECTION ( 'NONE',  ( 1.700709290173340409E-17, -0.000000000000000000, 1.000000000000000000 ) ) ;
#553 = EDGE_LOOP ( 'NONE', ( #559, #278, #1032, #1085 ) ) ;
#554 = EDGE_CURVE ( 'NONE', #1035, #235, #223, .T. ) ;
#555 = CARTESIAN_POINT ( 'NONE',  ( -2.500000000000000000, 70.90000000000000568, -2.500000000000000000 ) ) ;
#556 = LINE ( 'NONE', #723, #138 ) ;
#557 =( BOUNDED_CURVE ( )  B_SPLINE_CURVE ( 3, ( #977, #1054, #274, #626 ),
 .UNSPECIFIED., .F., .T. ) 
 B_SPLINE_CURVE_WITH_KNOTS ( ( 4, 4 ),
 ( 1.570796326794897002, 3.141592653589793116 ),
 .UNSPECIFIED. ) 
 CURVE ( )  GEOMETRIC_REPRESENTATION_ITEM ( )  RATIONAL_B_SPLINE_CURVE ( ( 1.000000000000000000, 0.8047378541243650485, 0.8047378541243650485, 1.000000000000000000 ) ) 
 REPRESENTATION_ITEM ( '' )  );
#558 = DIRECTION ( 'NONE',  ( 0.000000000000000000, 0.000000000000000000, -1.000000000000000000 ) ) ;
#559 = ORIENTED_EDGE ( 'NONE', *, *, #1027, .F. ) ;
#560 = FACE_OUTER_BOUND ( 'NONE', #324, .T. ) ;
#561 = DIRECTION ( 'NONE',  ( 0.05233595624293726351, -0.9986295347545742773, 8.900824699246884438E-19 ) ) ;
#562 = CARTESIAN_POINT ( 'NONE',  ( -2.499999999999999556, 69.40000000000000568, 25.50000000000000000 ) ) ;
#563 = CIRCLE ( 'NONE', #159, 2.999999999999999112 ) ;
#564 = CIRCLE ( 'NONE', #441, 3.000000000000000000 ) ;
#565 = ORIENTED_EDGE ( 'NONE', *, *, #346, .T. ) ;
#566 = DIRECTION ( 'NONE',  ( -1.000000000000000000, 0.000000000000000000, 0.000000000000000000 ) ) ;
#567 = DIRECTION ( 'NONE',  ( -1.000000000000000000, 0.000000000000000000, 0.000000000000000000 ) ) ;
#568 = CIRCLE ( 'NONE', #1019, 2.249999999999998668 ) ;
#569 = DIRECTION ( 'NONE',  ( 1.000000000000000000, 0.000000000000000000, 0.000000000000000000 ) ) ;
#570 = EDGE_CURVE ( 'NONE', #817, #825, #54, .T. ) ;
#571 = ORIENTED_EDGE ( 'NONE', *, *, #185, .T. ) ;
#572 = DIRECTION ( 'NONE',  ( -1.000000000000000000, -0.000000000000000000, 1.734723475976807094E-17 ) ) ;
#573 = DIRECTION ( 'NONE',  ( 1.700709290173340409E-17, 0.000000000000000000, 1.000000000000000000 ) ) ;
#574 = SURFACE_SIDE_STYLE ('',( #411 ) ) ;
#575 = EDGE_CURVE ( 'NONE', #878, #142, #922, .T. ) ;
#576 = ORIENTED_EDGE ( 'NONE', *, *, #244, .T. ) ;
#577 = FACE_OUTER_BOUND ( 'NONE', #951, .T. ) ;
#578 = DIRECTION ( 'NONE',  ( -1.000000000000000000, -0.000000000000000000, 1.734723475976807094E-17 ) ) ;
#579 = VECTOR ( 'NONE', #1091, 1000.000000000000000 ) ;
#580 = VERTEX_POINT ( 'NONE', #1122 ) ;
#581 = VECTOR ( 'NONE', #1036, 1000.000000000000000 ) ;
#582 = EDGE_CURVE ( 'NONE', #1, #85, #935, .T. ) ;
#583 = PLANE ( 'NONE',  #233 ) ;
#584 = DIRECTION ( 'NONE',  ( -1.000000000000000000, -0.000000000000000000, 1.734723475976807094E-17 ) ) ;
#585 = CARTESIAN_POINT ( 'NONE',  ( -2.500000000000000000, 0.000000000000000000, 0.000000000000000000 ) ) ;
#586 = ORIENTED_EDGE ( 'NONE', *, *, #980, .T. ) ;
#587 = CYLINDRICAL_SURFACE ( 'NONE', #534, 5.000000000000000000 ) ;
#588 = ORIENTED_EDGE ( 'NONE', *, *, #185, .F. ) ;
#589 = EDGE_CURVE ( 'NONE', #85, #664, #421, .T. ) ;
#590 = DIRECTION ( 'NONE',  ( 1.000000000000000000, -0.000000000000000000, 1.700709290173340409E-17 ) ) ;
#591 = ORIENTED_EDGE ( 'NONE', *, *, #336, .T. ) ;
#592 = DIRECTION ( 'NONE',  ( -1.000000000000000000, 0.000000000000000000, 0.000000000000000000 ) ) ;
#593 = ORIENTED_EDGE ( 'NONE', *, *, #90, .T. ) ;
#594 = ORIENTED_EDGE ( 'NONE', *, *, #438, .F. ) ;
#595 = DIRECTION ( 'NONE',  ( 1.734723475976805246E-17, 0.000000000000000000, 1.000000000000000000 ) ) ;
#596 = ORIENTED_EDGE ( 'NONE', *, *, #58, .T. ) ;
#597 = PLANE ( 'NONE',  #1039 ) ;
#598 = EDGE_CURVE ( 'NONE', #1052, #736, #1028, .T. ) ;
#599 = EDGE_LOOP ( 'NONE', ( #1132, #808, #59, #882 ) ) ;
#600 = AXIS2_PLACEMENT_3D ( 'NONE', #30, #1005, #551 ) ;
#601 = ORIENTED_EDGE ( 'NONE', *, *, #1114, .T. ) ;
#602 = CARTESIAN_POINT ( 'NONE',  ( 11.31261843528553435, 67.40000000000000568, 19.92893218813451739 ) ) ;
#603 = AXIS2_PLACEMENT_3D ( 'NONE', #398, #931, #1111 ) ;
#604 = VERTEX_POINT ( 'NONE', #681 ) ;
#605 = CARTESIAN_POINT ( 'NONE',  ( -4.000000000000000000, 1.500000000000001332, 25.50000000000000000 ) ) ;
#606 = EDGE_CURVE ( 'NONE', #580, #153, #746, .T. ) ;
#607 = AXIS2_PLACEMENT_3D ( 'NONE', #279, #794, #360 ) ;
#608 = VERTEX_POINT ( 'NONE', #660 ) ;
#609 = DIRECTION ( 'NONE',  ( -1.000000000000000000, 0.000000000000000000, 1.700709290173340409E-17 ) ) ;
#610 = ORIENTED_EDGE ( 'NONE', *, *, #747, .T. ) ;
#611 = LINE ( 'NONE', #718, #532 ) ;
#612 = DIRECTION ( 'NONE',  ( 1.700709290173340409E-17, 0.000000000000000000, 1.000000000000000000 ) ) ;
#613 = EDGE_LOOP ( 'NONE', ( #1125, #1046, #97, #956, #1008, #47 ) ) ;
#614 = CARTESIAN_POINT ( 'NONE',  ( 15.50000000000000000, -4.000000000000000888, 1.000000000000000222 ) ) ;
#615 = LINE ( 'NONE', #962, #986 ) ;
#616 = LINE ( 'NONE', #520, #1097 ) ;
#617 = DIRECTION ( 'NONE',  ( 1.000000000000000000, -5.597413005428682852E-49, 1.700709290173340409E-17 ) ) ;
#618 = ORIENTED_EDGE ( 'NONE', *, *, #988, .F. ) ;
#619 = EDGE_CURVE ( 'NONE', #1052, #437, #121, .T. ) ;
#620 = VECTOR ( 'NONE', #313, 1000.000000000000000 ) ;
#621 = CARTESIAN_POINT ( 'NONE',  ( -4.999999999999999112, 0.000000000000000000, 25.50000000000000000 ) ) ;
#622 = DIRECTION ( 'NONE',  ( -7.703719777548943412E-34, 1.000000000000000000, -1.310178779456958743E-50 ) ) ;
#623 = CARTESIAN_POINT ( 'NONE',  ( 2.499999999999999556, 70.90000000000000568, 25.50000000000000000 ) ) ;
#624 = AXIS2_PLACEMENT_3D ( 'NONE', #884, #541, #558 ) ;
#625 = ORIENTED_EDGE ( 'NONE', *, *, #920, .F. ) ;
#626 = CARTESIAN_POINT ( 'NONE',  ( 11.31261843528553435, 67.40000000000000568, 5.999999999999999112 ) ) ;
#627 = EDGE_CURVE ( 'NONE', #359, #13, #1041, .T. ) ;
#628 = DIRECTION ( 'NONE',  ( 1.000000000000000000, 0.000000000000000000, 0.000000000000000000 ) ) ;
#629 = CYLINDRICAL_SURFACE ( 'NONE', #459, 5.000000000000000888 ) ;
#630 = ORIENTED_EDGE ( 'NONE', *, *, #448, .F. ) ;
#631 = LINE ( 'NONE', #873, #894 ) ;
#632 = CARTESIAN_POINT ( 'NONE',  ( 15.31657277250937810, -9.000000000000000000, 5.999999999999999112 ) ) ;
#633 = ORIENTED_EDGE ( 'NONE', *, *, #102, .T. ) ;
#634 = DIRECTION ( 'NONE',  ( 0.000000000000000000, 0.000000000000000000, -1.000000000000000000 ) ) ;
#635 = CARTESIAN_POINT ( 'NONE',  ( 5.000000000000000000, -12.50000000000000000, 6.324669086646331852E-17 ) ) ;
#636 = AXIS2_PLACEMENT_3D ( 'NONE', #229, #1020, #139 ) ;
#637 = EDGE_CURVE ( 'NONE', #7, #1025, #340, .T. ) ;
#638 = ORIENTED_EDGE ( 'NONE', *, *, #336, .F. ) ;
#639 = CARTESIAN_POINT ( 'NONE',  ( -2.499999999999999556, 15.00000000000000000, 21.75000000000000000 ) ) ;
#640 = LINE ( 'NONE', #24, #965 ) ;
#641 = APPLICATION_PROTOCOL_DEFINITION ( 'draft international standard', 'automotive_design', 1998, #692 ) ;
#642 = ORIENTED_EDGE ( 'NONE', *, *, #382, .T. ) ;
#643 = CARTESIAN_POINT ( 'NONE',  ( 4.999999999999999112, 67.90000000000000568, 22.50000000000000000 ) ) ;
#644 = DIRECTION ( 'NONE',  ( 1.000000000000000000, -0.000000000000000000, -0.000000000000000000 ) ) ;
#645 = ORIENTED_EDGE ( 'NONE', *, *, #103, .T. ) ;
#646 = CARTESIAN_POINT ( 'NONE',  ( 0.000000000000000000, 70.90000000000000568, 0.000000000000000000 ) ) ;
#647 = ADVANCED_FACE ( 'NONE', ( #701 ), #355, .F. ) ;
#648 = LINE ( 'NONE', #488, #724 ) ;
#649 = LINE ( 'NONE', #735, #1131 ) ;
#650 = VECTOR ( 'NONE', #902, 1000.000000000000000 ) ;
#651 = CIRCLE ( 'NONE', #603, 2.249999999999998668 ) ;
#652 = VERTEX_POINT ( 'NONE', #79 ) ;
#653 = CARTESIAN_POINT ( 'NONE',  ( 11.19431524665357536, 69.65735931288072891, -2.500000000000000444 ) ) ;
#654 = CARTESIAN_POINT ( 'NONE',  ( 14.84669710457724712, -0.03423815394828304964, 1.000000000000000222 ) ) ;
#655 = ADVANCED_FACE ( 'NONE', ( #955 ), #75, .T. ) ;
#656 = AXIS2_PLACEMENT_3D ( 'NONE', #392, #634, #386 ) ;
#657 = CARTESIAN_POINT ( 'NONE',  ( 2.500000000000000000, 70.90000000000000568, 0.5000000000000000000 ) ) ;
#658 = EDGE_LOOP ( 'NONE', ( #586, #408, #455, #232, #1042, #941, #593, #208 ) ) ;
#659 = CARTESIAN_POINT ( 'NONE',  ( 15.50000000000000000, -12.50000000000000000, -2.499999999999998668 ) ) ;
#660 = CARTESIAN_POINT ( 'NONE',  ( -4.000000000000000000, 70.90000000000000568, 25.50000000000000000 ) ) ;
#661 = DIRECTION ( 'NONE',  ( -1.000000000000000000, -0.000000000000000000, 1.734723475976807094E-17 ) ) ;
#662 = EDGE_CURVE ( 'NONE', #526, #664, #86, .T. ) ;
#663 = EDGE_CURVE ( 'NONE', #895, #529, #862, .T. ) ;
#664 = VERTEX_POINT ( 'NONE', #432 ) ;
#665 = PLANE ( 'NONE',  #196 ) ;
#666 = VECTOR ( 'NONE', #590, 1000.000000000000000 ) ;
#667 = EDGE_LOOP ( 'NONE', ( #1059, #601, #642, #841 ) ) ;
#668 = EDGE_CURVE ( 'NONE', #1089, #155, #563, .T. ) ;
#669 = VECTOR ( 'NONE', #467, 1000.000000000000000 ) ;
#670 = LINE ( 'NONE', #659, #389 ) ;
#671 = CARTESIAN_POINT ( 'NONE',  ( 15.50000000000000000, 67.40000000000000568, 5.999999999999999112 ) ) ;
#672 = EDGE_LOOP ( 'NONE', ( #867, #1067 ) ) ;
#673 = DIRECTION ( 'NONE',  ( 1.000000000000000000, -0.000000000000000000, 1.700709290173340409E-17 ) ) ;
#674 = ORIENTED_EDGE ( 'NONE', *, *, #619, .F. ) ;
#675 = VERTEX_POINT ( 'NONE', #782 ) ;
#676 = CARTESIAN_POINT ( 'NONE',  ( 5.000000000000000000, -4.000000000000001776, 21.99999999999999289 ) ) ;
#677 = ORIENTED_EDGE ( 'NONE', *, *, #988, .T. ) ;
#678 = DIRECTION ( 'NONE',  ( -1.000000000000000000, 0.000000000000000000, 1.734723475976807094E-17 ) ) ;
#679 = VERTEX_POINT ( 'NONE', #522 ) ;
#680 = VERTEX_POINT ( 'NONE', #866 ) ;
#681 = CARTESIAN_POINT ( 'NONE',  ( -2.500000000000000000, 69.40000000000000568, 0.000000000000000000 ) ) ;
#682 = ORIENTED_EDGE ( 'NONE', *, *, #366, .F. ) ;
#683 = EDGE_CURVE ( 'NONE', #225, #887, #251, .T. ) ;
#684 = CARTESIAN_POINT ( 'NONE',  ( -4.999999999999999112, 15.00000000000000000, 21.75000000000000000 ) ) ;
#685 = VECTOR ( 'NONE', #308, 1000.000000000000000 ) ;
#686 = VECTOR ( 'NONE', #465, 1000.000000000000000 ) ;
#687 = ORIENTED_EDGE ( 'NONE', *, *, #112, .T. ) ;
#688 = DIRECTION ( 'NONE',  ( 0.000000000000000000, 0.000000000000000000, -1.000000000000000000 ) ) ;
#689 = ORIENTED_EDGE ( 'NONE', *, *, #754, .T. ) ;
#690 = CARTESIAN_POINT ( 'NONE',  ( 11.12919120779491244, 70.90000000000000568, 22.49999999999999289 ) ) ;
#691 = DIRECTION ( 'NONE',  ( 0.000000000000000000, 0.000000000000000000, -1.000000000000000000 ) ) ;
#692 = APPLICATION_CONTEXT ( 'automotive_design' ) ;
#693 = ORIENTED_EDGE ( 'NONE', *, *, #50, .F. ) ;
#694 = DIRECTION ( 'NONE',  ( 7.703719777548943412E-34, -1.000000000000000000, 1.310178779456958743E-50 ) ) ;
#695 = ORIENTED_EDGE ( 'NONE', *, *, #73, .F. ) ;
#696 = CARTESIAN_POINT ( 'NONE',  ( 11.28641454564401769, 67.90000000000000568, 25.50000000000000000 ) ) ;
#697 = FACE_OUTER_BOUND ( 'NONE', #246, .T. ) ;
#698 = EDGE_CURVE ( 'NONE', #771, #996, #807, .T. ) ;
#699 = ADVANCED_FACE ( 'NONE', ( #82 ), #629, .F. ) ;
#700 = ORIENTED_EDGE ( 'NONE', *, *, #169, .F. ) ;
#701 = FACE_OUTER_BOUND ( 'NONE', #147, .T. ) ;
#702 = LINE ( 'NONE', #713, #483 ) ;
#703 = CARTESIAN_POINT ( 'NONE',  ( -4.000000000000000000, 1.500000000000001332, 0.000000000000000000 ) ) ;
#704 = EDGE_CURVE ( 'NONE', #442, #580, #168, .T. ) ;
#705 = ORIENTED_EDGE ( 'NONE', *, *, #683, .T. ) ;
#706 = VECTOR ( 'NONE', #719, 1000.000000000000000 ) ;
#707 = FACE_OUTER_BOUND ( 'NONE', #658, .T. ) ;
#708 = CARTESIAN_POINT ( 'NONE',  ( 5.000000000000000000, 62.40000000000000568, 1.000000000000000000 ) ) ;
#709 = DIRECTION ( 'NONE',  ( 0.000000000000000000, -8.260587980841942477E-17, 1.000000000000000000 ) ) ;
#710 = VECTOR ( 'NONE', #978, 1000.000000000000000 ) ;
#711 = AXIS2_PLACEMENT_3D ( 'NONE', #216, #291, #805 ) ;
#712 = EDGE_LOOP ( 'NONE', ( #433, #716, #509, #449 ) ) ;
#713 = CARTESIAN_POINT ( 'NONE',  ( -4.999999999999999112, 70.90000000000000568, 25.50000000000000000 ) ) ;
#714 = CARTESIAN_POINT ( 'NONE',  ( -2.499999999999999556, 63.40000000000001279, 23.99999999999999645 ) ) ;
#715 = DIRECTION ( 'NONE',  ( 1.000000000000000000, 0.000000000000000000, 0.000000000000000000 ) ) ;
#716 = ORIENTED_EDGE ( 'NONE', *, *, #390, .F. ) ;
#717 = CARTESIAN_POINT ( 'NONE',  ( 11.12919120779491067, 70.90000000000000568, -1.257359312880714564 ) ) ;
#718 = CARTESIAN_POINT ( 'NONE',  ( 8.283304597789254862E-16, 15.00000000000000000, 19.50000000000000000 ) ) ;
#719 = DIRECTION ( 'NONE',  ( -0.000000000000000000, -1.000000000000000000, -0.000000000000000000 ) ) ;
#720 = ADVANCED_FACE ( 'NONE', ( #1044, #791, #259 ), #180, .F. ) ;
#721 =( NAMED_UNIT ( * ) SI_UNIT ( $, .STERADIAN. ) SOLID_ANGLE_UNIT ( ) );
#722 = DIRECTION ( 'NONE',  ( -1.000000000000000000, 0.000000000000000000, 0.000000000000000000 ) ) ;
#723 = CARTESIAN_POINT ( 'NONE',  ( -2.500000000000000000, 70.90000000000000568, 0.000000000000000000 ) ) ;
#724 = VECTOR ( 'NONE', #827, 1000.000000000000000 ) ;
#725 = CIRCLE ( 'NONE', #230, 2.249999999999998668 ) ;
#726 = ADVANCED_FACE ( 'NONE', ( #531 ), #370, .T. ) ;
#727 = ORIENTED_EDGE ( 'NONE', *, *, #627, .F. ) ;
#728 = CARTESIAN_POINT ( 'NONE',  ( 15.49999999999999822, 67.90000000000000568, -2.500000000000000000 ) ) ;
#729 = VECTOR ( 'NONE', #837, 1000.000000000000000 ) ;
#730 = CARTESIAN_POINT ( 'NONE',  ( -2.499999999999999556, 70.90000000000000568, 25.50000000000000000 ) ) ;
#731 = CARTESIAN_POINT ( 'NONE',  ( -3.647693777163323325, 70.85803989154980798, 0.000000000000000000 ) ) ;
#732 = ORIENTED_EDGE ( 'NONE', *, *, #169, .T. ) ;
#733 = DIRECTION ( 'NONE',  ( -1.000000000000000000, 0.000000000000000000, 1.700709290173340409E-17 ) ) ;
#734 = LINE ( 'NONE', #292, #946 ) ;
#735 = CARTESIAN_POINT ( 'NONE',  ( 14.84669710457724712, -0.03423815394828703257, 21.99999999999999289 ) ) ;
#736 = VERTEX_POINT ( 'NONE', #22 ) ;
#737 = EDGE_CURVE ( 'NONE', #199, #608, #101, .T. ) ;
#738 = LINE ( 'NONE', #123, #1084 ) ;
#739 = LINE ( 'NONE', #482, #1079 ) ;
#740 = FACE_OUTER_BOUND ( 'NONE', #812, .T. ) ;
#741 = AXIS2_PLACEMENT_3D ( 'NONE', #352, #542, #715 ) ;
#742 = AXIS2_PLACEMENT_3D ( 'NONE', #752, #578, #595 ) ;
#743 = AXIS2_PLACEMENT_3D ( 'NONE', #605, #258, #952 ) ;
#744 = ORIENTED_EDGE ( 'NONE', *, *, #851, .F. ) ;
#745 = LINE ( 'NONE', #137, #729 ) ;
#746 = LINE ( 'NONE', #1101, #620 ) ;
#747 = EDGE_CURVE ( 'NONE', #887, #940, #893, .T. ) ;
#748 = PRODUCT_DEFINITION ( 'UNKNOWN', '', #31, #72 ) ;
#749 = FACE_OUTER_BOUND ( 'NONE', #508, .T. ) ;
#750 = ORIENTED_EDGE ( 'NONE', *, *, #1060, .T. ) ;
#751 = DIRECTION ( 'NONE',  ( -0.000000000000000000, 1.000000000000000000, 0.000000000000000000 ) ) ;
#752 = CARTESIAN_POINT ( 'NONE',  ( 8.673617379884035472E-16, 63.40000000000001279, 21.75000000000000000 ) ) ;
#753 =( LENGTH_UNIT ( ) NAMED_UNIT ( * ) SI_UNIT ( .MILLI., .METRE. ) );
#754 = EDGE_CURVE ( 'NONE', #1089, #500, #280, .T. ) ;
#755 = ORIENTED_EDGE ( 'NONE', *, *, #1007, .T. ) ;
#756 = CARTESIAN_POINT ( 'NONE',  ( -4.999999999999999112, 15.00000000000000000, 19.50000000000000000 ) ) ;
#757 = CARTESIAN_POINT ( 'NONE',  ( 11.42115850004997846, 65.32893218813453018, 22.00000000000000355 ) ) ;
#758 = ORIENTED_EDGE ( 'NONE', *, *, #980, .F. ) ;
#759 = CARTESIAN_POINT ( 'NONE',  ( 5.000000000000000000, 67.40000000000000568, 5.999999999999999112 ) ) ;
#760 = VECTOR ( 'NONE', #170, 1000.000000000000000 ) ;
#761 = ORIENTED_EDGE ( 'NONE', *, *, #484, .F. ) ;
#762 = CIRCLE ( 'NONE', #182, 2.000000000000000000 ) ;
#763 = FACE_OUTER_BOUND ( 'NONE', #282, .T. ) ;
#764 = ORIENTED_EDGE ( 'NONE', *, *, #589, .F. ) ;
#765 = CARTESIAN_POINT ( 'NONE',  ( -4.999999999999999112, 0.000000000000000000, 25.50000000000000000 ) ) ;
#766 = EDGE_LOOP ( 'NONE', ( #576, #1113, #1116, #802, #423, #732 ) ) ;
#767 = DIRECTION ( 'NONE',  ( 0.000000000000000000, 0.000000000000000000, -1.000000000000000000 ) ) ;
#768 = ORIENTED_EDGE ( 'NONE', *, *, #852, .T. ) ;
#769 = EDGE_CURVE ( 'NONE', #679, #359, #924, .T. ) ;
#770 = LINE ( 'NONE', #428, #1057 ) ;
#771 = VERTEX_POINT ( 'NONE', #969 ) ;
#772 = CARTESIAN_POINT ( 'NONE',  ( -2.999999999999999556, 67.90000000000000568, -2.500000000000000000 ) ) ;
#773 = ORIENTED_EDGE ( 'NONE', *, *, #668, .F. ) ;
#774 = EDGE_CURVE ( 'NONE', #1040, #878, #925, .T. ) ;
#775 = CARTESIAN_POINT ( 'NONE',  ( 5.000000000000000000, 3.851859888774471706E-33, 25.50000000000000000 ) ) ;
#776 = ORIENTED_EDGE ( 'NONE', *, *, #914, .F. ) ;
#777 = CARTESIAN_POINT ( 'NONE',  ( -4.478847317826296859, 69.76422791295735237, -1.869399277538289716 ) ) ;
#778 = PRODUCT ( 'final_a2_blockJaw_Contact_Block_A', 'final_a2_blockJaw_Contact_Block_A', '', ( #1065 ) ) ;
#779 = CIRCLE ( 'NONE', #322, 5.000000000000000888 ) ;
#780 = VECTOR ( 'NONE', #1055, 1000.000000000000000 ) ;
#781 = ORIENTED_EDGE ( 'NONE', *, *, #50, .T. ) ;
#782 = CARTESIAN_POINT ( 'NONE',  ( -4.999999999999999112, 70.90000000000000568, 25.50000000000000000 ) ) ;
#783 = ORIENTED_EDGE ( 'NONE', *, *, #582, .F. ) ;
#784 = DIRECTION ( 'NONE',  ( -1.000000000000000000, 0.000000000000000000, 0.000000000000000000 ) ) ;
#785 = CARTESIAN_POINT ( 'NONE',  ( 5.000000000000000000, 67.40000000000000568, 6.324669086646331852E-17 ) ) ;
#786 = EDGE_CURVE ( 'NONE', #863, #1029, #45, .T. ) ;
#787 = VERTEX_POINT ( 'NONE', #458 ) ;
#788 = DIRECTION ( 'NONE',  ( 1.734723475976805246E-17, 0.000000000000000000, 1.000000000000000000 ) ) ;
#789 = ORIENTED_EDGE ( 'NONE', *, *, #1077, .F. ) ;
#790 = CARTESIAN_POINT ( 'NONE',  ( 5.000000000000000000, -12.50000000000000000, 22.50000000000000000 ) ) ;
#791 = FACE_BOUND ( 'NONE', #506, .T. ) ;
#792 = ADVANCED_FACE ( 'NONE', ( #869 ), #358, .T. ) ;
#793 = ORIENTED_EDGE ( 'NONE', *, *, #937, .T. ) ;
#794 = DIRECTION ( 'NONE',  ( -0.9986295347545742773, -0.05233595624293726351, 0.000000000000000000 ) ) ;
#795 = CARTESIAN_POINT ( 'NONE',  ( -4.000000000000000000, 1.500000000000001332, 25.50000000000000000 ) ) ;
#796 = CARTESIAN_POINT ( 'NONE',  ( 15.50000000000000000, -3.996221620051281269E-15, 21.99999999999999289 ) ) ;
#797 = ORIENTED_EDGE ( 'NONE', *, *, #404, .T. ) ;
#798 = CARTESIAN_POINT ( 'NONE',  ( -4.000000000000000000, 0.000000000000000000, 25.50000000000000000 ) ) ;
#799 = LINE ( 'NONE', #457, #83 ) ;
#800 = DIRECTION ( 'NONE',  ( 3.068079190820900971E-33, -1.000000000000000000, -1.816464372750583135E-16 ) ) ;
#801 = MECHANICAL_DESIGN_GEOMETRIC_PRESENTATION_REPRESENTATION (  '', ( #66 ), #401 ) ;
#802 = ORIENTED_EDGE ( 'NONE', *, *, #315, .F. ) ;
#803 = EDGE_CURVE ( 'NONE', #529, #221, #1058, .T. ) ;
#804 = FACE_BOUND ( 'NONE', #473, .T. ) ;
#805 = DIRECTION ( 'NONE',  ( 0.000000000000000000, 0.000000000000000000, 1.000000000000000000 ) ) ;
#806 = CARTESIAN_POINT ( 'NONE',  ( -4.999999999999999112, 63.40000000000001279, 21.75000000000000000 ) ) ;
#807 = LINE ( 'NONE', #265, #834 ) ;
#808 = ORIENTED_EDGE ( 'NONE', *, *, #266, .T. ) ;
#809 = CARTESIAN_POINT ( 'NONE',  ( 15.50000000000000000, -12.50000000000000000, 0.5000000000000000000 ) ) ;
#810 = FACE_OUTER_BOUND ( 'NONE', #394, .T. ) ;
#811 = DIRECTION ( 'NONE',  ( 0.000000000000000000, -1.000000000000000000, -0.000000000000000000 ) ) ;
#812 = EDGE_LOOP ( 'NONE', ( #936, #844, #249, #418, #846, #992, #677, #205, #947, #61, #157 ) ) ;
#813 = CARTESIAN_POINT ( 'NONE',  ( -2.499999999999999556, 70.90000000000000568, 25.50000000000000000 ) ) ;
#814 = DIRECTION ( 'NONE',  ( 0.000000000000000000, 0.000000000000000000, -1.000000000000000000 ) ) ;
#815 = CIRCLE ( 'NONE', #600, 3.000000000000000000 ) ;
#816 = UNCERTAINTY_MEASURE_WITH_UNIT (LENGTH_MEASURE( 1.000000000000000082E-05 ), #753, 'distance_accuracy_value', 'NONE');
#817 = VERTEX_POINT ( 'NONE', #440 ) ;
#818 = VECTOR ( 'NONE', #373, 1000.000000000000000 ) ;
#819 = DIRECTION ( 'NONE',  ( 1.000000000000000000, 0.000000000000000000, 0.000000000000000000 ) ) ;
#820 = VECTOR ( 'NONE', #921, 1000.000000000000000 ) ;
#821 = LINE ( 'NONE', #730, #706 ) ;
#822 = DIRECTION ( 'NONE',  ( 1.000000000000000000, 0.000000000000000000, 0.000000000000000000 ) ) ;
#823 = EDGE_CURVE ( 'NONE', #878, #225, #453, .T. ) ;
#824 =( BOUNDED_CURVE ( )  B_SPLINE_CURVE ( 3, ( #845, #923, #1023, #530 ),
 .UNSPECIFIED., .F., .T. ) 
 B_SPLINE_CURVE_WITH_KNOTS ( ( 4, 4 ),
 ( 4.712388980384689674, 6.283185307179586232 ),
 .UNSPECIFIED. ) 
 CURVE ( )  GEOMETRIC_REPRESENTATION_ITEM ( )  RATIONAL_B_SPLINE_CURVE ( ( 1.000000000000000000, 0.8047378541243649375, 0.8047378541243649375, 1.000000000000000000 ) ) 
 REPRESENTATION_ITEM ( '' )  );
#825 = VERTEX_POINT ( 'NONE', #10 ) ;
#826 = DIRECTION ( 'NONE',  ( 1.000000000000000000, 0.000000000000000000, 0.000000000000000000 ) ) ;
#827 = DIRECTION ( 'NONE',  ( -1.700709290173340409E-17, 0.000000000000000000, 1.000000000000000000 ) ) ;
#828 = CARTESIAN_POINT ( 'NONE',  ( -2.500000000000000000, 67.90000000000000568, 0.5000000000000000000 ) ) ;
#829 = ORIENTED_EDGE ( 'NONE', *, *, #1037, .F. ) ;
#830 = ADVANCED_FACE ( 'NONE', ( #697 ), #1051, .F. ) ;
#831 = ADVANCED_FACE ( 'NONE', ( #1014 ), #850, .F. ) ;
#832 = CARTESIAN_POINT ( 'NONE',  ( 5.000000000000000000, 67.40000000000000568, 17.00000000000000000 ) ) ;
#833 = FACE_BOUND ( 'NONE', #672, .T. ) ;
#834 = VECTOR ( 'NONE', #94, 1000.000000000000000 ) ;
#835 = AXIS2_PLACEMENT_3D ( 'NONE', #109, #100, #466 ) ;
#836 = ORIENTED_EDGE ( 'NONE', *, *, #575, .F. ) ;
#837 = DIRECTION ( 'NONE',  ( 1.000000000000000000, -0.000000000000000000, -0.000000000000000000 ) ) ;
#838 = EDGE_CURVE ( 'NONE', #221, #903, #238, .T. ) ;
#839 = DIRECTION ( 'NONE',  ( 1.700709290173340409E-17, 0.000000000000000000, -1.000000000000000000 ) ) ;
#840 = DIRECTION ( 'NONE',  ( 0.000000000000000000, 0.000000000000000000, -1.000000000000000000 ) ) ;
#841 = ORIENTED_EDGE ( 'NONE', *, *, #663, .T. ) ;
#842 = DIRECTION ( 'NONE',  ( 0.05233595624293726351, -0.9986295347545742773, -0.000000000000000000 ) ) ;
#843 = CARTESIAN_POINT ( 'NONE',  ( -2.500000000000000000, 1.500000000000001332, 0.000000000000000000 ) ) ;
#844 = ORIENTED_EDGE ( 'NONE', *, *, #1121, .T. ) ;
#845 = CARTESIAN_POINT ( 'NONE',  ( 15.05453387609420446, -4.000000000000001776, 21.99999999999999289 ) ) ;
#846 = ORIENTED_EDGE ( 'NONE', *, *, #448, .T. ) ;
#847 = FACE_OUTER_BOUND ( 'NONE', #954, .T. ) ;
#848 = CARTESIAN_POINT ( 'NONE',  ( -2.499999999999999556, 0.000000000000000000, 25.50000000000000000 ) ) ;
#849 = ORIENTED_EDGE ( 'NONE', *, *, #266, .F. ) ;
#850 = CYLINDRICAL_SURFACE ( 'NONE', #966, 2.249999999999998668 ) ;
#851 = EDGE_CURVE ( 'NONE', #608, #771, #309, .T. ) ;
#852 = EDGE_CURVE ( 'NONE', #817, #680, #564, .T. ) ;
#853 = VECTOR ( 'NONE', #694, 1000.000000000000000 ) ;
#854 = VERTEX_POINT ( 'NONE', #148 ) ;
#855 = ORIENTED_EDGE ( 'NONE', *, *, #68, .F. ) ;
#856 = DIRECTION ( 'NONE',  ( 1.000000000000000000, -0.000000000000000000, 1.700709290173340409E-17 ) ) ;
#857 = ORIENTED_EDGE ( 'NONE', *, *, #454, .T. ) ;
#858 = FACE_OUTER_BOUND ( 'NONE', #712, .T. ) ;
#859 = EDGE_LOOP ( 'NONE', ( #385, #52, #588, #594 ) ) ;
#860 = EDGE_CURVE ( 'NONE', #652, #354, #649, .T. ) ;
#861 = ORIENTED_EDGE ( 'NONE', *, *, #395, .F. ) ;
#862 = LINE ( 'NONE', #961, #999 ) ;
#863 = VERTEX_POINT ( 'NONE', #657 ) ;
#864 = DIRECTION ( 'NONE',  ( -1.000000000000000000, 0.000000000000000000, 0.000000000000000000 ) ) ;
#865 = ADVANCED_FACE ( 'NONE', ( #740 ), #325, .T. ) ;
#866 = CARTESIAN_POINT ( 'NONE',  ( 5.000000000000000000, -12.50000000000000000, 0.5000000000000000000 ) ) ;
#867 = ORIENTED_EDGE ( 'NONE', *, *, #135, .F. ) ;
#868 = CARTESIAN_POINT ( 'NONE',  ( 15.50000000000000000, 70.90000000000000568, 22.50000000000000000 ) ) ;
#869 = FACE_OUTER_BOUND ( 'NONE', #412, .T. ) ;
#870 = VECTOR ( 'NONE', #644, 1000.000000000000000 ) ;
#871 = ORIENTED_EDGE ( 'NONE', *, *, #823, .T. ) ;
#872 = DIRECTION ( 'NONE',  ( -1.000000000000000000, -0.000000000000000000, 1.734723475976807094E-17 ) ) ;
#873 = CARTESIAN_POINT ( 'NONE',  ( 2.500000000000000000, 70.90000000000000568, 0.000000000000000000 ) ) ;
#874 = EDGE_CURVE ( 'NONE', #930, #225, #1001, .T. ) ;
#875 = FACE_OUTER_BOUND ( 'NONE', #120, .T. ) ;
#876 = DIRECTION ( 'NONE',  ( -1.404885872131212786E-33, 1.000000000000000000, 8.260587980841942477E-17 ) ) ;
#877 = AXIS2_PLACEMENT_3D ( 'NONE', #227, #751, #505 ) ;
#878 = VERTEX_POINT ( 'NONE', #759 ) ;
#879 = EDGE_LOOP ( 'NONE', ( #431, #70, #263, #32 ) ) ;
#880 = CARTESIAN_POINT ( 'NONE',  ( -4.978594282455823361, 70.59419491983769035, -0.8310842202525009492 ) ) ;
#881 = DIRECTION ( 'NONE',  ( -1.000000000000000000, 0.000000000000000000, 0.000000000000000000 ) ) ;
#882 = ORIENTED_EDGE ( 'NONE', *, *, #390, .T. ) ;
#883 = CARTESIAN_POINT ( 'NONE',  ( 5.000000000000000000, 0.000000000000000000, 25.50000000000000000 ) ) ;
#884 = CARTESIAN_POINT ( 'NONE',  ( 15.50000000000000000, -4.000000000000000888, 16.99999999999999289 ) ) ;
#885 = CARTESIAN_POINT ( 'NONE',  ( 15.34277666215089475, -9.500000000000001776, 25.50000000000000000 ) ) ;
#886 = CARTESIAN_POINT ( 'NONE',  ( 2.500000000000000000, 70.85803989154980798, 0.000000000000000000 ) ) ;
#887 = VERTEX_POINT ( 'NONE', #214 ) ;
#888 = VECTOR ( 'NONE', #447, 1000.000000000000000 ) ;
#889 = PRESENTATION_LAYER_ASSIGNMENT (  '', '', ( #66 ) ) ;
#890 = DIRECTION ( 'NONE',  ( 0.000000000000000000, 0.000000000000000000, -1.000000000000000000 ) ) ;
#891 = DIRECTION ( 'NONE',  ( -1.000000000000000000, 0.000000000000000000, -1.700709290173340409E-17 ) ) ;
#892 = CARTESIAN_POINT ( 'NONE',  ( 15.20803270774493576, -6.928932188134528047, 0.9999999999999995559 ) ) ;
#893 = LINE ( 'NONE', #525, #248 ) ;
#894 = VECTOR ( 'NONE', #535, 1000.000000000000000 ) ;
#895 = VERTEX_POINT ( 'NONE', #416 ) ;
#896 = DIRECTION ( 'NONE',  ( 0.000000000000000000, -1.000000000000000000, 0.000000000000000000 ) ) ;
#897 = LINE ( 'NONE', #635, #579 ) ;
#898 = CARTESIAN_POINT ( 'NONE',  ( 2.499999999999999556, 67.90000000000000568, 25.50000000000000000 ) ) ;
#899 = ORIENTED_EDGE ( 'NONE', *, *, #345, .F. ) ;
#900 = FACE_OUTER_BOUND ( 'NONE', #338, .T. ) ;
#901 = ADVANCED_FACE ( 'NONE', ( #749 ), #51, .T. ) ;
#902 = DIRECTION ( 'NONE',  ( -1.000000000000000000, -0.000000000000000000, 1.734723475976807094E-17 ) ) ;
#903 = VERTEX_POINT ( 'NONE', #129 ) ;
#904 = CARTESIAN_POINT ( 'NONE',  ( -3.647693777163323325, 70.85803989154980798, 0.000000000000000000 ) ) ;
#905 = FACE_BOUND ( 'NONE', #1049, .T. ) ;
#906 = EDGE_CURVE ( 'NONE', #437, #1052, #651, .T. ) ;
#907 = AXIS2_PLACEMENT_3D ( 'NONE', #684, #678, #446 ) ;
#908 = DIRECTION ( 'NONE',  ( 0.000000000000000000, 0.000000000000000000, 1.000000000000000000 ) ) ;
#909 = ORIENTED_EDGE ( 'NONE', *, *, #737, .T. ) ;
#910 = DIRECTION ( 'NONE',  ( -0.000000000000000000, -1.000000000000000000, -0.000000000000000000 ) ) ;
#911 = DIRECTION ( 'NONE',  ( -1.000000000000000000, 6.842277657836022373E-49, -1.700709290173340409E-17 ) ) ;
#912 = DIRECTION ( 'NONE',  ( -1.000000000000000000, 0.000000000000000000, 0.000000000000000000 ) ) ;
#913 = MANIFOLD_SOLID_BREP ( 'Cut-Extrude2', #310 ) ;
#914 = EDGE_CURVE ( 'NONE', #652, #511, #824, .T. ) ;
#915 = ORIENTED_EDGE ( 'NONE', *, *, #37, .T. ) ;
#916 = DIRECTION ( 'NONE',  ( 0.000000000000000000, 0.000000000000000000, -1.000000000000000000 ) ) ;
#917 = CARTESIAN_POINT ( 'NONE',  ( 5.000000000000000000, -9.000000000000001776, 16.99999999999999289 ) ) ;
#918 = PRESENTATION_STYLE_ASSIGNMENT (( #939 ) ) ;
#919 = EDGE_LOOP ( 'NONE', ( #391, #456, #1017, #571 ) ) ;
#920 = EDGE_CURVE ( 'NONE', #943, #1025, #948, .T. ) ;
#921 = DIRECTION ( 'NONE',  ( -1.000000000000000000, 0.000000000000000000, 0.000000000000000000 ) ) ;
#922 = LINE ( 'NONE', #671, #666 ) ;
#923 = CARTESIAN_POINT ( 'NONE',  ( 15.20803270774493576, -6.928932188134524495, 21.99999999999999645 ) ) ;
#924 = CIRCLE ( 'NONE', #548, 5.000000000000000000 ) ;
#925 = CIRCLE ( 'NONE', #495, 5.000000000000000000 ) ;
#926 = ORIENTED_EDGE ( 'NONE', *, *, #698, .F. ) ;
#927 = FACE_OUTER_BOUND ( 'NONE', #1120, .T. ) ;
#928 = CARTESIAN_POINT ( 'NONE',  ( -2.999999999999999556, 0.000000000000000000, -2.500000000000000000 ) ) ;
#929 = VECTOR ( 'NONE', #826, 1000.000000000000000 ) ;
#930 = VERTEX_POINT ( 'NONE', #88 ) ;
#931 = DIRECTION ( 'NONE',  ( -1.000000000000000000, 0.000000000000000000, 1.700709290173340409E-17 ) ) ;
#932 = ORIENTED_EDGE ( 'NONE', *, *, #1077, .T. ) ;
#933 = CARTESIAN_POINT ( 'NONE',  ( 5.000000000000000888, -12.50000000000000000, 22.50000000000000000 ) ) ;
#934 = ORIENTED_EDGE ( 'NONE', *, *, #1069, .T. ) ;
#935 = LINE ( 'NONE', #848, #181 ) ;
#936 = ORIENTED_EDGE ( 'NONE', *, *, #589, .T. ) ;
#937 = EDGE_CURVE ( 'NONE', #300, #235, #140, .T. ) ;
#938 = ADVANCED_FACE ( 'NONE', ( #875 ), #597, .F. ) ;
#939 = SURFACE_STYLE_USAGE ( .BOTH. , #574 ) ;
#940 = VERTEX_POINT ( 'NONE', #1136 ) ;
#941 = ORIENTED_EDGE ( 'NONE', *, *, #244, .F. ) ;
#942 = DIRECTION ( 'NONE',  ( -0.000000000000000000, 1.000000000000000000, -0.000000000000000000 ) ) ;
#943 = VERTEX_POINT ( 'NONE', #790 ) ;
#944 = CARTESIAN_POINT ( 'NONE',  ( -4.653721820859910707, 70.00725151701024629, -1.660833245891871535 ) ) ;
#945 = EDGE_CURVE ( 'NONE', #305, #817, #77, .T. ) ;
#946 = VECTOR ( 'NONE', #984, 1000.000000000000000 ) ;
#947 = ORIENTED_EDGE ( 'NONE', *, *, #838, .F. ) ;
#948 = CIRCLE ( 'NONE', #122, 2.999999999999999112 ) ;
#949 = ORIENTED_EDGE ( 'NONE', *, *, #786, .T. ) ;
#950 = CARTESIAN_POINT ( 'NONE',  ( 11.57465733170070799, 62.40000000000000568, 22.00000000000000355 ) ) ;
#951 = EDGE_LOOP ( 'NONE', ( #1093, #674, #215, #934 ) ) ;
#952 = DIRECTION ( 'NONE',  ( 1.000000000000000000, 0.000000000000000000, 0.000000000000000000 ) ) ;
#953 = EDGE_CURVE ( 'NONE', #359, #519, #269, .T. ) ;
#954 = EDGE_LOOP ( 'NONE', ( #1099, #781, #836, #1072 ) ) ;
#955 = FACE_OUTER_BOUND ( 'NONE', #1026, .T. ) ;
#956 = ORIENTED_EDGE ( 'NONE', *, *, #417, .T. ) ;
#957 = CARTESIAN_POINT ( 'NONE',  ( 11.12919120779491244, 70.90000000000000568, 24.25735931288071612 ) ) ;
#958 = DIRECTION ( 'NONE',  ( 1.700709290173340101E-17, 1.816464372750583628E-16, -1.000000000000000000 ) ) ;
#959 = EDGE_CURVE ( 'NONE', #131, #863, #968, .T. ) ;
#960 = ORIENTED_EDGE ( 'NONE', *, *, #906, .F. ) ;
#961 = CARTESIAN_POINT ( 'NONE',  ( -2.500000000000000000, 1.500000000000001332, -2.551063935260010614E-17 ) ) ;
#962 = CARTESIAN_POINT ( 'NONE',  ( 5.000000000000000888, -9.000000000000000000, 5.999999999999999112 ) ) ;
#963 = CARTESIAN_POINT ( 'NONE',  ( -3.884651667782116569, 68.99154895029673185, -2.308466096083436891 ) ) ;
#964 = CARTESIAN_POINT ( 'NONE',  ( 15.50000000000000000, -12.50000000000000178, 22.50000000000000000 ) ) ;
#965 = VECTOR ( 'NONE', #911, 1000.000000000000000 ) ;
#966 = AXIS2_PLACEMENT_3D ( 'NONE', #489, #661, #1092 ) ;
#967 = ORIENTED_EDGE ( 'NONE', *, *, #860, .F. ) ;
#968 = LINE ( 'NONE', #357, #780 ) ;
#969 = CARTESIAN_POINT ( 'NONE',  ( -4.000000000000000000, 70.90000000000000568, 0.5000000000000000000 ) ) ;
#970 = VECTOR ( 'NONE', #106, 1000.000000000000000 ) ;
#971 = EDGE_LOOP ( 'NONE', ( #1031, #503, #689, #618, #192, #240 ) ) ;
#972 = DIRECTION ( 'NONE',  ( 1.000000000000000000, 0.000000000000000000, 1.700709290173340409E-17 ) ) ;
#973 = FACE_OUTER_BOUND ( 'NONE', #859, .T. ) ;
#974 = CARTESIAN_POINT ( 'NONE',  ( 15.49999999999999822, -12.50000000000000000, 24.25735931288071257 ) ) ;
#975 = EDGE_CURVE ( 'NONE', #155, #787, #158, .T. ) ;
#976 = ORIENTED_EDGE ( 'NONE', *, *, #704, .F. ) ;
#977 = CARTESIAN_POINT ( 'NONE',  ( 11.57465733170070799, 62.40000000000000568, 1.000000000000000000 ) ) ;
#978 = DIRECTION ( 'NONE',  ( -1.700709290173340409E-17, 0.000000000000000000, 1.000000000000000000 ) ) ;
#979 = CARTESIAN_POINT ( 'NONE',  ( 15.50000000000000000, 62.40000000000000568, 17.00000000000000000 ) ) ;
#980 = EDGE_CURVE ( 'NONE', #787, #545, #283, .T. ) ;
#981 = VERTEX_POINT ( 'NONE', #439 ) ;
#982 = COLOUR_RGB ( '',0.7921568627450980005, 0.8196078431372548767, 0.9333333333333333481 ) ;
#983 = CARTESIAN_POINT ( 'NONE',  ( 11.12919120779491244, 70.90000000000000568, 0.4999999999999991673 ) ) ;
#984 = DIRECTION ( 'NONE',  ( -7.703719777548943412E-34, 1.000000000000000000, -1.310178779456958743E-50 ) ) ;
#985 = CARTESIAN_POINT ( 'NONE',  ( -4.000000000000000000, 70.90000000000000568, 0.5000000000000000000 ) ) ;
#986 = VECTOR ( 'NONE', #178, 1000.000000000000000 ) ;
#987 = ORIENTED_EDGE ( 'NONE', *, *, #993, .T. ) ;
#988 = EDGE_CURVE ( 'NONE', #7, #500, #616, .T. ) ;
#989 = ADVANCED_FACE ( 'NONE', ( #858 ), #186, .T. ) ;
#990 = CARTESIAN_POINT ( 'NONE',  ( -2.999999999999999556, 70.90000000000000568, -0.5000000000000004441 ) ) ;
#991 = DIRECTION ( 'NONE',  ( -0.000000000000000000, -1.000000000000000000, -0.000000000000000000 ) ) ;
#992 = ORIENTED_EDGE ( 'NONE', *, *, #1045, .T. ) ;
#993 = EDGE_CURVE ( 'NONE', #526, #334, #20, .T. ) ;
#994 = PLANE ( 'NONE',  #656 ) ;
#995 = DIRECTION ( 'NONE',  ( 0.000000000000000000, 0.000000000000000000, -1.000000000000000000 ) ) ;
#996 = VERTEX_POINT ( 'NONE', #179 ) ;
#997 = CARTESIAN_POINT ( 'NONE',  ( 11.28641454564401769, 67.90000000000000568, -2.499999999999998668 ) ) ;
#998 = CARTESIAN_POINT ( 'NONE',  ( 15.34277666215089475, -9.500000000000001776, 25.50000000000000000 ) ) ;
#999 = VECTOR ( 'NONE', #262, 1000.000000000000000 ) ;
#1000 = AXIS2_PLACEMENT_3D ( 'NONE', #264, #1124, #767 ) ;
#1001 = LINE ( 'NONE', #57, #513 ) ;
#1002 = ORIENTED_EDGE ( 'NONE', *, *, #1007, .F. ) ;
#1003 = AXIS2_PLACEMENT_3D ( 'NONE', #990, #896, #1004 ) ;
#1004 = DIRECTION ( 'NONE',  ( 0.000000000000000000, 0.000000000000000000, -1.000000000000000000 ) ) ;
#1005 = DIRECTION ( 'NONE',  ( -1.000000000000000000, 0.000000000000000000, 1.700709290173340409E-17 ) ) ;
#1006 = CARTESIAN_POINT ( 'NONE',  ( 4.999999999999999112, -9.499999999999994671, 0.5000000000000000000 ) ) ;
#1007 = EDGE_CURVE ( 'NONE', #940, #514, #1043, .T. ) ;
#1008 = ORIENTED_EDGE ( 'NONE', *, *, #803, .T. ) ;
#1009 = CARTESIAN_POINT ( 'NONE',  ( -4.000000000000000000, 0.000000000000000000, 0.000000000000000000 ) ) ;
#1010 = DIRECTION ( 'NONE',  ( -1.700709290173340409E-17, 0.000000000000000000, 1.000000000000000000 ) ) ;
#1011 = EDGE_LOOP ( 'NONE', ( #871, #705, #610, #630, #523, #1102 ) ) ;
#1012 = FACE_OUTER_BOUND ( 'NONE', #599, .T. ) ;
#1013 = CARTESIAN_POINT ( 'NONE',  ( 15.50000000000000000, 3.851859888774471706E-33, 1.000000000000000222 ) ) ;
#1014 = FACE_OUTER_BOUND ( 'NONE', #335, .T. ) ;
#1015 = CIRCLE ( 'NONE', #636, 2.249999999999998668 ) ;
#1016 = AXIS2_PLACEMENT_3D ( 'NONE', #795, #275, #628 ) ;
#1017 = ORIENTED_EDGE ( 'NONE', *, *, #1061, .F. ) ;
#1018 = PLANE ( 'NONE',  #528 ) ;
#1019 = AXIS2_PLACEMENT_3D ( 'NONE', #639, #733, #481 ) ;
#1020 = DIRECTION ( 'NONE',  ( -1.000000000000000000, 0.000000000000000000, 1.700709290173340409E-17 ) ) ;
#1021 = AXIS2_PLACEMENT_3D ( 'NONE', #643, #819, #33 ) ;
#1022 = ORIENTED_EDGE ( 'NONE', *, *, #1034, .T. ) ;
#1023 = CARTESIAN_POINT ( 'NONE',  ( 15.31657277250937987, -9.000000000000000000, 19.92893218813451739 ) ) ;
#1024 = PRODUCT_DEFINITION_SHAPE ( 'NONE', 'NONE',  #748 ) ;
#1025 = VERTEX_POINT ( 'NONE', #250 ) ;
#1026 = EDGE_LOOP ( 'NONE', ( #320, #504, #744, #342, #3 ) ) ;
#1027 = EDGE_CURVE ( 'NONE', #1, #895, #104, .T. ) ;
#1028 = LINE ( 'NONE', #69, #363 ) ;
#1029 = VERTEX_POINT ( 'NONE', #167 ) ;
#1030 = CARTESIAN_POINT ( 'NONE',  ( -3.225833238034886641, 68.17658824922202143, -2.490415370562954145 ) ) ;
#1031 = ORIENTED_EDGE ( 'NONE', *, *, #281, .F. ) ;
#1032 = ORIENTED_EDGE ( 'NONE', *, *, #803, .F. ) ;
#1033 = CARTESIAN_POINT ( 'NONE',  ( 15.50000000000000000, -9.500000000000001776, 22.50000000000000000 ) ) ;
#1034 = EDGE_CURVE ( 'NONE', #1118, #300, #611, .T. ) ;
#1035 = VERTEX_POINT ( 'NONE', #1070 ) ;
#1036 = DIRECTION ( 'NONE',  ( 3.068079190820900971E-33, -1.000000000000000000, -1.816464372750583135E-16 ) ) ;
#1037 = EDGE_CURVE ( 'NONE', #675, #85, #361, .T. ) ;
#1038 = AXIS2_PLACEMENT_3D ( 'NONE', #89, #191, #612 ) ;
#1039 = AXIS2_PLACEMENT_3D ( 'NONE', #81, #524, #430 ) ;
#1040 = VERTEX_POINT ( 'NONE', #708 ) ;
#1041 = LINE ( 'NONE', #614, #760 ) ;
#1042 = ORIENTED_EDGE ( 'NONE', *, *, #226, .T. ) ;
#1043 = LINE ( 'NONE', #71, #581 ) ;
#1044 = FACE_BOUND ( 'NONE', #400, .T. ) ;
#1045 = EDGE_CURVE ( 'NONE', #940, #7, #21, .T. ) ;
#1046 = ORIENTED_EDGE ( 'NONE', *, *, #1106, .T. ) ;
#1047 = DIRECTION ( 'NONE',  ( 0.000000000000000000, -1.000000000000000000, 0.000000000000000000 ) ) ;
#1048 = APPLICATION_CONTEXT ( 'automotive_design' ) ;
#1049 = EDGE_LOOP ( 'NONE', ( #40, #695 ) ) ;
#1050 = CARTESIAN_POINT ( 'NONE',  ( -5.000000000000000000, 70.66810622656225860, -0.6706132646124267627 ) ) ;
#1051 = PLANE ( 'NONE',  #479 ) ;
#1052 = VERTEX_POINT ( 'NONE', #714 ) ;
#1053 = CARTESIAN_POINT ( 'NONE',  ( -4.000000000000000000, 69.40000000000000568, 6.802837160693362871E-17 ) ) ;
#1054 = CARTESIAN_POINT ( 'NONE',  ( 11.42115850004997668, 65.32893218813451597, 0.9999999999999993339 ) ) ;
#1055 = DIRECTION ( 'NONE',  ( -1.000000000000000000, -0.000000000000000000, -0.000000000000000000 ) ) ;
#1056 = DIRECTION ( 'NONE',  ( 1.000000000000000000, 7.703719777548943412E-34, 1.264933817329266432E-17 ) ) ;
#1057 = VECTOR ( 'NONE', #942, 1000.000000000000000 ) ;
#1058 = CIRCLE ( 'NONE', #402, 1.499999999999999556 ) ;
#1059 = ORIENTED_EDGE ( 'NONE', *, *, #417, .F. ) ;
#1060 = EDGE_CURVE ( 'NONE', #863, #155, #1063, .T. ) ;
#1061 = EDGE_CURVE ( 'NONE', #372, #679, #799, .T. ) ;
#1062 = DIRECTION ( 'NONE',  ( -1.700709290173340409E-17, 0.000000000000000000, -1.000000000000000000 ) ) ;
#1063 = LINE ( 'NONE', #376, #198 ) ;
#1064 = CARTESIAN_POINT ( 'NONE',  ( 2.500000000000000000, 70.90000000000000568, 0.000000000000000000 ) ) ;
#1065 = PRODUCT_CONTEXT ( 'NONE', #1048, 'mechanical' ) ;
#1066 = AXIS2_PLACEMENT_3D ( 'NONE', #87, #445, #268 ) ;
#1067 = ORIENTED_EDGE ( 'NONE', *, *, #937, .F. ) ;
#1068 = LINE ( 'NONE', #368, #347 ) ;
#1069 = EDGE_CURVE ( 'NONE', #736, #981, #725, .T. ) ;
#1070 = CARTESIAN_POINT ( 'NONE',  ( -2.499999999999999556, 15.00000000000000000, 23.99999999999999645 ) ) ;
#1071 = CARTESIAN_POINT ( 'NONE',  ( 15.43487596114133176, -11.25735931288071612, 25.50000000000000000 ) ) ;
#1072 = ORIENTED_EDGE ( 'NONE', *, *, #774, .F. ) ;
#1073 = CYLINDRICAL_SURFACE ( 'NONE', #1003, 2.000000000000000000 ) ;
#1074 = DIRECTION ( 'NONE',  ( 1.264933817329266432E-17, 8.260587980841942477E-17, -1.000000000000000000 ) ) ;
#1075 = CARTESIAN_POINT ( 'NONE',  ( 15.49999999999999822, -12.50000000000000000, 0.5000000000000000000 ) ) ;
#1076 =( LENGTH_UNIT ( ) NAMED_UNIT ( * ) SI_UNIT ( .MILLI., .METRE. ) );
#1077 = EDGE_CURVE ( 'NONE', #67, #13, #407, .T. ) ;
#1078 = ADVANCED_FACE ( 'NONE', ( #108 ), #93, .T. ) ;
#1079 = VECTOR ( 'NONE', #286, 1000.000000000000000 ) ;
#1080 = VECTOR ( 'NONE', #784, 1000.000000000000000 ) ;
#1081 = CARTESIAN_POINT ( 'NONE',  ( -4.000000000000000000, 69.40000000000000568, 0.000000000000000000 ) ) ;
#1082 = LINE ( 'NONE', #1075, #870 ) ;
#1083 = ADVANCED_FACE ( 'NONE', ( #973 ), #190, .F. ) ;
#1084 = VECTOR ( 'NONE', #1094, 1000.000000000000000 ) ;
#1085 = ORIENTED_EDGE ( 'NONE', *, *, #663, .F. ) ;
#1086 = FACE_OUTER_BOUND ( 'NONE', #149, .T. ) ;
#1087 = CARTESIAN_POINT ( 'NONE',  ( 5.000000000000000888, -4.000000000000000888, 16.99999999999999289 ) ) ;
#1088 = LINE ( 'NONE', #886, #669 ) ;
#1089 = VERTEX_POINT ( 'NONE', #898 ) ;
#1090 = DIRECTION ( 'NONE',  ( -1.000000000000000000, 0.000000000000000000, -0.000000000000000000 ) ) ;
#1091 = DIRECTION ( 'NONE',  ( 1.264933817329266432E-17, 0.000000000000000000, -1.000000000000000000 ) ) ;
#1092 = DIRECTION ( 'NONE',  ( 1.734723475976805246E-17, 0.000000000000000000, 1.000000000000000000 ) ) ;
#1093 = ORIENTED_EDGE ( 'NONE', *, *, #426, .F. ) ;
#1094 = DIRECTION ( 'NONE',  ( 1.000000000000000000, 1.710569414459005593E-49, 1.700709290173340409E-17 ) ) ;
#1095 = EDGE_CURVE ( 'NONE', #825, #519, #119, .T. ) ;
#1096 = LINE ( 'NONE', #654, #510 ) ;
#1097 = VECTOR ( 'NONE', #864, 1000.000000000000000 ) ;
#1098 = FILL_AREA_STYLE_COLOUR ( '', #982 ) ;
#1099 = ORIENTED_EDGE ( 'NONE', *, *, #102, .F. ) ;
#1100 = PLANE ( 'NONE',  #877 ) ;
#1101 = CARTESIAN_POINT ( 'NONE',  ( 15.50000000000000000, -12.50000000000000000, 2.418211663346640430E-16 ) ) ;
#1102 = ORIENTED_EDGE ( 'NONE', *, *, #774, .T. ) ;
#1103 = LINE ( 'NONE', #403, #436 ) ;
#1104 = PLANE ( 'NONE',  #288 ) ;
#1105 =( NAMED_UNIT ( * ) PLANE_ANGLE_UNIT ( ) SI_UNIT ( $, .RADIAN. ) );
#1106 = EDGE_CURVE ( 'NONE', #1029, #151, #1088, .T. ) ;
#1107 = ORIENTED_EDGE ( 'NONE', *, *, #438, .T. ) ;
#1108 = DIRECTION ( 'NONE',  ( 1.000000000000000000, 3.421138828918011187E-49, 1.700709290173340409E-17 ) ) ;
#1109 = FACE_OUTER_BOUND ( 'NONE', #1011, .T. ) ;
#1110 = ORIENTED_EDGE ( 'NONE', *, *, #1095, .F. ) ;
#1111 = DIRECTION ( 'NONE',  ( 0.000000000000000000, 0.000000000000000000, 1.000000000000000000 ) ) ;
#1112 = VECTOR ( 'NONE', #584, 1000.000000000000000 ) ;
#1113 = ORIENTED_EDGE ( 'NONE', *, *, #945, .T. ) ;
#1114 = EDGE_CURVE ( 'NONE', #604, #199, #110, .T. ) ;
#1115 = CARTESIAN_POINT ( 'NONE',  ( 15.49999999999999822, -12.49999999999999467, -1.257359312880714564 ) ) ;
#1116 = ORIENTED_EDGE ( 'NONE', *, *, #570, .T. ) ;
#1117 = DIRECTION ( 'NONE',  ( -1.700709290173340409E-17, 0.000000000000000000, -1.000000000000000000 ) ) ;
#1118 = VERTEX_POINT ( 'NONE', #388 ) ;
#1119 = CARTESIAN_POINT ( 'NONE',  ( -4.903093245452011750, 70.42163219310553757, -1.134577177797950753 ) ) ;
#1120 = EDGE_LOOP ( 'NONE', ( #855, #932, #727, #462 ) ) ;
#1121 = EDGE_CURVE ( 'NONE', #664, #468, #762, .T. ) ;
#1122 = CARTESIAN_POINT ( 'NONE',  ( 15.50000000000000000, -12.50000000000000178, 22.50000000000000000 ) ) ;
#1123 = ORIENTED_EDGE ( 'NONE', *, *, #346, .F. ) ;
#1124 = DIRECTION ( 'NONE',  ( 1.000000000000000000, 0.000000000000000000, 0.000000000000000000 ) ) ;
#1125 = ORIENTED_EDGE ( 'NONE', *, *, #12, .F. ) ;
#1126 = CARTESIAN_POINT ( 'NONE',  ( 2.499999999999999556, 67.90000000000000568, 22.50000000000000000 ) ) ;
#1127 = ORIENTED_EDGE ( 'NONE', *, *, #619, .T. ) ;
#1128 = EDGE_CURVE ( 'NONE', #151, #771, #517, .T. ) ;
#1129 = DIRECTION ( 'NONE',  ( -1.000000000000000000, -7.703719777548943412E-34, -1.264933817329266432E-17 ) ) ;
#1130 = AXIS2_PLACEMENT_3D ( 'NONE', #256, #609, #349 ) ;
#1131 = VECTOR ( 'NONE', #406, 1000.000000000000000 ) ;
#1132 = ORIENTED_EDGE ( 'NONE', *, *, #606, .F. ) ;
#1133 = CARTESIAN_POINT ( 'NONE',  ( 5.000000000000000888, 62.40000000000000568, 17.00000000000000000 ) ) ;
#1134 = ORIENTED_EDGE ( 'NONE', *, *, #543, .T. ) ;
#1135 = CIRCLE ( 'NONE', #1066, 2.249999999999998668 ) ;
#1136 = CARTESIAN_POINT ( 'NONE',  ( 5.000000000000000000, 1.540743955509788682E-30, 21.99999999999999289 ) ) ;
#1137 = DIRECTION ( 'NONE',  ( -1.264933817329266432E-17, 0.000000000000000000, 1.000000000000000000 ) ) ;
ENDSEC;
END-ISO-10303-21;
