ISO-10303-21;
HEADER;
FILE_DESCRIPTION (( 'STEP AP214' ),
    '1' );
FILE_NAME ('Gripper_Jaw_Plate.STEP',
    '2026-09-19T12:55:08',
    ( '' ),
    ( '' ),
    'SwSTEP 2.0',
    'SolidWorks 2025',
    '' );
FILE_SCHEMA (( 'AUTOMOTIVE_DESIGN' ));
ENDSEC;

DATA;
#1 = ORIENTED_EDGE ( 'NONE', *, *, #651, .T. ) ;
#2 = DIRECTION ( 'NONE',  ( 7.309661901652530912E-17, 0.7118920901450974670, 0.7022888664850415186 ) ) ;
#3 = EDGE_CURVE ( 'NONE', #59, #575, #909, .T. ) ;
#4 = AXIS2_PLACEMENT_3D ( 'NONE', #162, #1228, #358 ) ;
#5 = DIRECTION ( 'NONE',  ( -0.2644732620533331025, -0.000000000000000000, 0.9643930182549378394 ) ) ;
#6 = AXIS2_PLACEMENT_3D ( 'NONE', #1131, #1031, #254 ) ;
#7 = ADVANCED_FACE ( 'NONE', ( #511 ), #400, .T. ) ;
#8 = CIRCLE ( 'NONE', #607, 2.500000000000002220 ) ;
#9 = CARTESIAN_POINT ( 'NONE',  ( 2.999999999999999112, 18.00000000000000000, -85.14486490616359049 ) ) ;
#10 = VECTOR ( 'NONE', #342, 1000.000000000000000 ) ;
#11 = CARTESIAN_POINT ( 'NONE',  ( -15.51771948742469398, 18.00000000000000000, 21.78844835938497226 ) ) ;
#12 = AXIS2_PLACEMENT_3D ( 'NONE', #23, #692, #517 ) ;
#13 = DIRECTION ( 'NONE',  ( 0.000000000000000000, 0.000000000000000000, -1.000000000000000000 ) ) ;
#14 = DIRECTION ( 'NONE',  ( -0.8425558180458874169, 0.000000000000000000, 0.5386090358293531555 ) ) ;
#15 = DIRECTION ( 'NONE',  ( 8.591214980214289756E-18, -0.7118920901450974670, -0.7022888664850415186 ) ) ;
#16 = FACE_OUTER_BOUND ( 'NONE', #681, .T. ) ;
#17 = DIRECTION ( 'NONE',  ( 0.000000000000000000, 1.000000000000000000, 0.000000000000000000 ) ) ;
#18 = PLANE ( 'NONE',  #28 ) ;
#19 = DIRECTION ( 'NONE',  ( -7.309661901652530912E-17, -0.7118920901450974670, -0.7022888664850415186 ) ) ;
#20 = EDGE_CURVE ( 'NONE', #1151, #487, #323, .T. ) ;
#21 = EDGE_CURVE ( 'NONE', #575, #59, #283, .T. ) ;
#22 = DIRECTION ( 'NONE',  ( -1.387778780781445676E-15, 0.000000000000000000, 1.000000000000000000 ) ) ;
#23 = CARTESIAN_POINT ( 'NONE',  ( -30.54774002826776425, 18.00000000000000000, 10.71815755839265094 ) ) ;
#24 = CARTESIAN_POINT ( 'NONE',  ( -20.90380984571846312, 0.000000000000000000, 11.11289017892626063 ) ) ;
#25 = CARTESIAN_POINT ( 'NONE',  ( 4.999999999999998224, 18.00000000000000000, -85.14486490616359049 ) ) ;
#26 = ORIENTED_EDGE ( 'NONE', *, *, #748, .F. ) ;
#27 = CARTESIAN_POINT ( 'NONE',  ( 4.999999999999989342, 18.00000000000000000, -100.0000000000000000 ) ) ;
#28 = AXIS2_PLACEMENT_3D ( 'NONE', #207, #788, #14 ) ;
#29 = EDGE_CURVE ( 'NONE', #1037, #485, #415, .T. ) ;
#30 = DIRECTION ( 'NONE',  ( -0.000000000000000000, -1.000000000000000000, 0.000000000000000000 ) ) ;
#31 = DIRECTION ( 'NONE',  ( 0.000000000000000000, 0.000000000000000000, 1.000000000000000000 ) ) ;
#32 = ORIENTED_EDGE ( 'NONE', *, *, #1086, .T. ) ;
#33 = LINE ( 'NONE', #1196, #1081 ) ;
#34 = CYLINDRICAL_SURFACE ( 'NONE', #1175, 2.250000000000000000 ) ;
#35 = EDGE_CURVE ( 'NONE', #558, #1237, #206, .T. ) ;
#36 = DIRECTION ( 'NONE',  ( 0.000000000000000000, 1.000000000000000000, -0.000000000000000000 ) ) ;
#37 = DIRECTION ( 'NONE',  ( -1.223316414399868618E-17, 0.000000000000000000, 1.000000000000000000 ) ) ;
#38 = ORIENTED_EDGE ( 'NONE', *, *, #256, .T. ) ;
#39 = FACE_OUTER_BOUND ( 'NONE', #590, .T. ) ;
#40 = DIRECTION ( 'NONE',  ( 0.000000000000000000, 0.000000000000000000, 1.000000000000000000 ) ) ;
#41 = CIRCLE ( 'NONE', #237, 2.500000000000000000 ) ;
#42 = FACE_OUTER_BOUND ( 'NONE', #425, .T. ) ;
#43 = CARTESIAN_POINT ( 'NONE',  ( 0.000000000000000000, 0.000000000000000000, 0.000000000000000000 ) ) ;
#44 = AXIS2_PLACEMENT_3D ( 'NONE', #330, #622, #40 ) ;
#45 = EDGE_CURVE ( 'NONE', #1268, #453, #41, .T. ) ;
#46 = ORIENTED_EDGE ( 'NONE', *, *, #311, .F. ) ;
#47 = AXIS2_PLACEMENT_3D ( 'NONE', #247, #630, #516 ) ;
#48 = DIRECTION ( 'NONE',  ( -0.2644732620533331025, -0.000000000000000000, 0.9643930182549378394 ) ) ;
#49 = CIRCLE ( 'NONE', #687, 5.000000000000000888 ) ;
#50 = AXIS2_PLACEMENT_3D ( 'NONE', #619, #790, #987 ) ;
#51 = DIRECTION ( 'NONE',  ( -0.000000000000000000, -1.000000000000000000, -0.000000000000000000 ) ) ;
#52 = AXIS2_PLACEMENT_3D ( 'NONE', #297, #458, #489 ) ;
#53 = VECTOR ( 'NONE', #135, 1000.000000000000000 ) ;
#54 = DIRECTION ( 'NONE',  ( 0.000000000000000000, 0.000000000000000000, 1.000000000000000000 ) ) ;
#55 = ORIENTED_EDGE ( 'NONE', *, *, #1251, .T. ) ;
#56 = DIRECTION ( 'NONE',  ( 8.591214980214289756E-18, -0.7118920901450974670, -0.7022888664850415186 ) ) ;
#57 = DIRECTION ( 'NONE',  ( -0.000000000000000000, -1.000000000000000000, -0.000000000000000000 ) ) ;
#58 = FACE_OUTER_BOUND ( 'NONE', #1073, .T. ) ;
#59 = VERTEX_POINT ( 'NONE', #504 ) ;
#60 = DIRECTION ( 'NONE',  ( 0.000000000000000000, 1.000000000000000000, 0.000000000000000000 ) ) ;
#61 = EDGE_CURVE ( 'NONE', #476, #78, #523, .T. ) ;
#62 = PRODUCT_DEFINITION_CONTEXT ( 'detailed design', #642, 'design' ) ;
#63 = PRESENTATION_STYLE_ASSIGNMENT (( #655 ) ) ;
#64 = EDGE_CURVE ( 'NONE', #962, #749, #394, .T. ) ;
#65 = EDGE_LOOP ( 'NONE', ( #1083, #442, #1156, #216 ) ) ;
#66 = CARTESIAN_POINT ( 'NONE',  ( 7.499999999999996447, 0.000000000000000000, -49.99999999999955236 ) ) ;
#67 = ORIENTED_EDGE ( 'NONE', *, *, #615, .F. ) ;
#68 = DIRECTION ( 'NONE',  ( -0.000000000000000000, -1.000000000000000000, -0.000000000000000000 ) ) ;
#69 =( LENGTH_UNIT ( ) NAMED_UNIT ( * ) SI_UNIT ( .MILLI., .METRE. ) );
#70 = CIRCLE ( 'NONE', #871, 2.500000000000002220 ) ;
#71 = ORIENTED_EDGE ( 'NONE', *, *, #21, .F. ) ;
#72 = ORIENTED_EDGE ( 'NONE', *, *, #428, .F. ) ;
#73 = EDGE_CURVE ( 'NONE', #1057, #1247, #728, .T. ) ;
#74 = CIRCLE ( 'NONE', #713, 2.250000000000000000 ) ;
#75 = PLANE ( 'NONE',  #1238 ) ;
#76 = ORIENTED_EDGE ( 'NONE', *, *, #1086, .F. ) ;
#77 = DIRECTION ( 'NONE',  ( -1.040834085586094610E-16, -0.000000000000000000, -1.000000000000000000 ) ) ;
#78 = VERTEX_POINT ( 'NONE', #143 ) ;
#79 = EDGE_LOOP ( 'NONE', ( #852, #204, #278, #403 ) ) ;
#80 = EDGE_CURVE ( 'NONE', #1158, #868, #716, .T. ) ;
#81 = ORIENTED_EDGE ( 'NONE', *, *, #1105, .T. ) ;
#82 = CARTESIAN_POINT ( 'NONE',  ( -23.33682390399132700, 9.000000000000000000, -4.203843954410611872 ) ) ;
#83 = EDGE_LOOP ( 'NONE', ( #296, #381, #171, #757 ) ) ;
#84 = ORIENTED_EDGE ( 'NONE', *, *, #1126, .F. ) ;
#85 = DIRECTION ( 'NONE',  ( 0.000000000000000000, 0.000000000000000000, -1.000000000000000000 ) ) ;
#86 = EDGE_CURVE ( 'NONE', #453, #881, #129, .T. ) ;
#87 = EDGE_LOOP ( 'NONE', ( #289, #1042, #927, #1240 ) ) ;
#88 = CARTESIAN_POINT ( 'NONE',  ( -30.54774002826776425, 18.00000000000000000, 10.71815755839265094 ) ) ;
#89 =( BOUNDED_CURVE ( )  B_SPLINE_CURVE ( 3, ( #924, #831, #1135, #854 ),
 .UNSPECIFIED., .F., .F. ) 
 B_SPLINE_CURVE_WITH_KNOTS ( ( 4, 4 ),
 ( 1.462067214953817538E-16, 1.570796326794896780 ),
 .UNSPECIFIED. ) 
 CURVE ( )  GEOMETRIC_REPRESENTATION_ITEM ( )  RATIONAL_B_SPLINE_CURVE ( ( 1.000000000000000000, 0.8047378541243649375, 0.8047378541243649375, 1.000000000000000000 ) ) 
 REPRESENTATION_ITEM ( '' )  );
#90 = AXIS2_PLACEMENT_3D ( 'NONE', #138, #541, #617 ) ;
#91 = VERTEX_POINT ( 'NONE', #149 ) ;
#92 = VECTOR ( 'NONE', #483, 1000.000000000000000 ) ;
#93 = ORIENTED_EDGE ( 'NONE', *, *, #498, .T. ) ;
#94 = CARTESIAN_POINT ( 'NONE',  ( -27.09561478503026777, 18.00000000000000000, -1.869903166054074140 ) ) ;
#95 = ORIENTED_EDGE ( 'NONE', *, *, #1001, .T. ) ;
#96 = LINE ( 'NONE', #1252, #707 ) ;
#97 = EDGE_CURVE ( 'NONE', #102, #1182, #584, .T. ) ;
#98 = EDGE_LOOP ( 'NONE', ( #435, #116 ) ) ;
#99 = EDGE_LOOP ( 'NONE', ( #959, #600, #1155, #1164 ) ) ;
#100 = LINE ( 'NONE', #499, #1181 ) ;
#101 = LINE ( 'NONE', #172, #92 ) ;
#102 = VERTEX_POINT ( 'NONE', #535 ) ;
#103 = VERTEX_POINT ( 'NONE', #347 ) ;
#104 = EDGE_CURVE ( 'NONE', #657, #970, #1127, .T. ) ;
#105 = CARTESIAN_POINT ( 'NONE',  ( 5.386090358293497360, 0.000000000000000000, 8.425558180458891044 ) ) ;
#106 = LINE ( 'NONE', #112, #773 ) ;
#107 = LINE ( 'NONE', #598, #53 ) ;
#108 = DIRECTION ( 'NONE',  ( 0.2644732620533331025, -0.000000000000000000, -0.9643930182549378394 ) ) ;
#109 = EDGE_CURVE ( 'NONE', #910, #1183, #501, .T. ) ;
#110 = CARTESIAN_POINT ( 'NONE',  ( 2.755455298081544285E-16, 18.00000000000000000, 2.250000000000000000 ) ) ;
#111 = VECTOR ( 'NONE', #1049, 1000.000000000000227 ) ;
#112 = CARTESIAN_POINT ( 'NONE',  ( -20.98969858723280879, 9.000000000000000000, -5.229422174922485844 ) ) ;
#113 = VECTOR ( 'NONE', #1146, 1000.000000000000000 ) ;
#114 = CARTESIAN_POINT ( 'NONE',  ( 4.999999999999989342, 0.000000000000000000, -100.0000000000000000 ) ) ;
#115 = AXIS2_PLACEMENT_3D ( 'NONE', #11, #1092, #502 ) ;
#116 = ORIENTED_EDGE ( 'NONE', *, *, #1221, .F. ) ;
#117 = CARTESIAN_POINT ( 'NONE',  ( -13.47468831681135271, 18.00000000000000000, 0.3057232255736196391 ) ) ;
#118 = ADVANCED_FACE ( 'NONE', ( #1103 ), #251, .T. ) ;
#119 = CARTESIAN_POINT ( 'NONE',  ( 9.999999999999992895, 18.00000000000000000, -81.58229419209513367 ) ) ;
#120 = EDGE_CURVE ( 'NONE', #872, #210, #686, .T. ) ;
#121 = CARTESIAN_POINT ( 'NONE',  ( -23.33682390399132700, 18.00000000000000000, -4.203843954410611872 ) ) ;
#122 = CARTESIAN_POINT ( 'NONE',  ( 9.999999999999991118, 18.00000000000000000, -99.99999999999906208 ) ) ;
#123 = DIRECTION ( 'NONE',  ( -0.000000000000000000, -1.000000000000000000, -0.000000000000000000 ) ) ;
#124 = ADVANCED_FACE ( 'NONE', ( #341 ), #230, .T. ) ;
#125 = CARTESIAN_POINT ( 'NONE',  ( 9.999999999999991118, 0.000000000000000000, -99.99999999999906208 ) ) ;
#126 = VERTEX_POINT ( 'NONE', #635 ) ;
#127 = DIRECTION ( 'NONE',  ( 0.000000000000000000, 0.000000000000000000, -1.000000000000000000 ) ) ;
#128 = DIRECTION ( 'NONE',  ( 0.000000000000000000, 0.000000000000000000, -1.000000000000000000 ) ) ;
#129 = CIRCLE ( 'NONE', #950, 2.500000000000000000 ) ;
#130 =( BOUNDED_CURVE ( )  B_SPLINE_CURVE ( 3, ( #1160, #680, #1172, #391 ),
 .UNSPECIFIED., .F., .F. ) 
 B_SPLINE_CURVE_WITH_KNOTS ( ( 4, 4 ),
 ( 1.718401470299429520E-17, 1.570796326794896558 ),
 .UNSPECIFIED. ) 
 CURVE ( )  GEOMETRIC_REPRESENTATION_ITEM ( )  RATIONAL_B_SPLINE_CURVE ( ( 1.000000000000000000, 0.8047378541243649375, 0.8047378541243649375, 1.000000000000000000 ) ) 
 REPRESENTATION_ITEM ( '' )  );
#131 = CYLINDRICAL_SURFACE ( 'NONE', #734, 2.499999999999999556 ) ;
#132 = DIRECTION ( 'NONE',  ( 0.000000000000000000, 1.000000000000000000, -0.000000000000000000 ) ) ;
#133 = CARTESIAN_POINT ( 'NONE',  ( -24.19888394073830185, 9.000000000000000000, -4.050512335977082934 ) ) ;
#134 = EDGE_LOOP ( 'NONE', ( #1020, #726, #639, #372 ) ) ;
#135 = DIRECTION ( 'NONE',  ( -0.000000000000000000, -1.000000000000000000, -0.000000000000000000 ) ) ;
#136 = AXIS2_PLACEMENT_3D ( 'NONE', #785, #870, #1171 ) ;
#137 = ADVANCED_FACE ( 'NONE', ( #832 ), #1026, .T. ) ;
#138 = CARTESIAN_POINT ( 'NONE',  ( 7.499999999999998224, 18.00000000000000000, -81.58229419209513367 ) ) ;
#139 = FACE_OUTER_BOUND ( 'NONE', #665, .T. ) ;
#140 = DIRECTION ( 'NONE',  ( 1.000000000000000000, 0.000000000000000000, 0.000000000000000000 ) ) ;
#141 = ORIENTED_EDGE ( 'NONE', *, *, #413, .F. ) ;
#142 = CARTESIAN_POINT ( 'NONE',  ( 0.000000000000000000, 0.000000000000000000, 0.000000000000000000 ) ) ;
#143 = CARTESIAN_POINT ( 'NONE',  ( 0.1780349087250471252, 18.00000000000000000, -101.3223663102657497 ) ) ;
#144 = EDGE_CURVE ( 'NONE', #379, #840, #284, .T. ) ;
#145 = CYLINDRICAL_SURFACE ( 'NONE', #813, 10.00000000000000000 ) ;
#146 = DIRECTION ( 'NONE',  ( -0.000000000000000000, -1.000000000000000000, -0.000000000000000000 ) ) ;
#147 = ORIENTED_EDGE ( 'NONE', *, *, #737, .T. ) ;
#148 = CARTESIAN_POINT ( 'NONE',  ( -24.68463223939292561, 18.00000000000000000, -1.208720010920740995 ) ) ;
#149 = CARTESIAN_POINT ( 'NONE',  ( -20.98969858723280879, 0.000000000000000000, -5.229422174922485844 ) ) ;
#150 = EDGE_CURVE ( 'NONE', #720, #1262, #729, .T. ) ;
#151 = CARTESIAN_POINT ( 'NONE',  ( -20.90380984571845602, 0.000000000000000000, 13.36289017892624464 ) ) ;
#152 = ORIENTED_EDGE ( 'NONE', *, *, #352, .T. ) ;
#153 = VECTOR ( 'NONE', #549, 1000.000000000000000 ) ;
#154 = CARTESIAN_POINT ( 'NONE',  ( 4.999999999999998224, -10.20430779190339265, -56.55488636134291625 ) ) ;
#155 = AXIS2_PLACEMENT_3D ( 'NONE', #839, #238, #625 ) ;
#156 = DIRECTION ( 'NONE',  ( -0.000000000000000000, -1.000000000000000000, -0.000000000000000000 ) ) ;
#157 = CARTESIAN_POINT ( 'NONE',  ( 4.999999999999989342, 0.000000000000000000, -100.0000000000000000 ) ) ;
#158 = EDGE_CURVE ( 'NONE', #527, #679, #1170, .T. ) ;
#159 = VERTEX_POINT ( 'NONE', #427 ) ;
#160 = CYLINDRICAL_SURFACE ( 'NONE', #731, 2.500000000000002220 ) ;
#161 = ADVANCED_FACE ( 'NONE', ( #1119 ), #820, .F. ) ;
#162 = CARTESIAN_POINT ( 'NONE',  ( 4.999999999999998224, 18.00000000000000000, -85.14486490616359049 ) ) ;
#163 = ORIENTED_EDGE ( 'NONE', *, *, #888, .F. ) ;
#164 = DIRECTION ( 'NONE',  ( 0.000000000000000000, 0.000000000000000000, -1.000000000000000000 ) ) ;
#165 = ORIENTED_EDGE ( 'NONE', *, *, #897, .F. ) ;
#166 = CARTESIAN_POINT ( 'NONE',  ( -23.33682390399132700, 18.00000000000000000, -4.203843954410611872 ) ) ;
#167 = FACE_OUTER_BOUND ( 'NONE', #134, .T. ) ;
#168 = ORIENTED_EDGE ( 'NONE', *, *, #829, .F. ) ;
#169 = ORIENTED_EDGE ( 'NONE', *, *, #1269, .T. ) ;
#170 = DIRECTION ( 'NONE',  ( 0.000000000000000000, 0.000000000000000000, -1.000000000000000000 ) ) ;
#171 = ORIENTED_EDGE ( 'NONE', *, *, #80, .T. ) ;
#172 = CARTESIAN_POINT ( 'NONE',  ( -20.90380984571846312, 18.00000000000000000, 11.11289017892626063 ) ) ;
#173 = AXIS2_PLACEMENT_3D ( 'NONE', #838, #1132, #1210 ) ;
#174 =( GEOMETRIC_REPRESENTATION_CONTEXT ( 3 ) GLOBAL_UNCERTAINTY_ASSIGNED_CONTEXT ( ( #555 ) ) GLOBAL_UNIT_ASSIGNED_CONTEXT ( ( #69, #755, #1234 ) ) REPRESENTATION_CONTEXT ( 'NONE', 'WORKASPACE' ) );
#175 = VECTOR ( 'NONE', #736, 1000.000000000000114 ) ;
#176 = EDGE_CURVE ( 'NONE', #1158, #980, #730, .T. ) ;
#177 = VERTEX_POINT ( 'NONE', #336 ) ;
#178 = AXIS2_PLACEMENT_3D ( 'NONE', #509, #19, #898 ) ;
#179 = ORIENTED_EDGE ( 'NONE', *, *, #888, .T. ) ;
#180 = CIRCLE ( 'NONE', #915, 10.00000000000000178 ) ;
#181 = AXIS2_PLACEMENT_3D ( 'NONE', #616, #1204, #419 ) ;
#182 = DIRECTION ( 'NONE',  ( 0.000000000000000000, 1.000000000000000000, -0.000000000000000000 ) ) ;
#183 = ORIENTED_EDGE ( 'NONE', *, *, #593, .T. ) ;
#184 = DIRECTION ( 'NONE',  ( 0.000000000000000000, 1.000000000000000000, -0.000000000000000000 ) ) ;
#185 = ORIENTED_EDGE ( 'NONE', *, *, #29, .T. ) ;
#186 = ORIENTED_EDGE ( 'NONE', *, *, #536, .F. ) ;
#187 = EDGE_CURVE ( 'NONE', #674, #159, #810, .T. ) ;
#188 = CARTESIAN_POINT ( 'NONE',  ( -16.16773349595811737, 18.00000000000000000, -3.907055864655816890 ) ) ;
#189 = EDGE_LOOP ( 'NONE', ( #964, #570, #1045, #198, #373, #307, #478, #275, #1265, #460, #918, #267, #183, #334, #76, #946, #249, #1040, #95, #761 ) ) ;
#190 = CARTESIAN_POINT ( 'NONE',  ( 4.999999999999989342, 0.000000000000000000, -100.0000000000000000 ) ) ;
#191 = ORIENTED_EDGE ( 'NONE', *, *, #97, .F. ) ;
#192 = EDGE_LOOP ( 'NONE', ( #1163, #1173 ) ) ;
#193 = CARTESIAN_POINT ( 'NONE',  ( -1.924702886938330026, 18.00000000000000000, -84.20205095511482796 ) ) ;
#194 = MANIFOLD_SOLID_BREP ( 'Fillet2', #1075 ) ;
#195 = ORIENTED_EDGE ( 'NONE', *, *, #651, .F. ) ;
#196 = CARTESIAN_POINT ( 'NONE',  ( 4.999999999999989342, 18.00000000000000000, -105.0000000000000142 ) ) ;
#197 = MECHANICAL_DESIGN_GEOMETRIC_PRESENTATION_REPRESENTATION (  '', ( #849 ), #174 ) ;
#198 = ORIENTED_EDGE ( 'NONE', *, *, #395, .F. ) ;
#199 = VERTEX_POINT ( 'NONE', #271 ) ;
#200 = CIRCLE ( 'NONE', #288, 2.500000000000002220 ) ;
#201 = CARTESIAN_POINT ( 'NONE',  ( -24.68463223939292561, 9.000000000000000000, -1.208720010920740995 ) ) ;
#202 = LINE ( 'NONE', #477, #891 ) ;
#203 = ADVANCED_FACE ( 'NONE', ( #167 ), #34, .F. ) ;
#204 = ORIENTED_EDGE ( 'NONE', *, *, #441, .F. ) ;
#205 = PRODUCT ( 'Gripper_Jaw_Plate', 'Gripper_Jaw_Plate', '', ( #514 ) ) ;
#206 = LINE ( 'NONE', #595, #438 ) ;
#207 = CARTESIAN_POINT ( 'NONE',  ( -13.47468831681135271, 18.00000000000000000, 0.3057232255736196391 ) ) ;
#208 = CARTESIAN_POINT ( 'NONE',  ( -20.98969858723280879, 9.000000000000000000, -5.229422174922485844 ) ) ;
#209 = DIRECTION ( 'NONE',  ( 0.000000000000000000, -0.000000000000000000, -1.000000000000000000 ) ) ;
#210 = VERTEX_POINT ( 'NONE', #1143 ) ;
#211 = VERTEX_POINT ( 'NONE', #1033 ) ;
#212 = DIRECTION ( 'NONE',  ( 0.000000000000000000, 1.000000000000000000, -0.000000000000000000 ) ) ;
#213 = DIRECTION ( 'NONE',  ( 0.000000000000000000, 0.000000000000000000, -1.000000000000000000 ) ) ;
#214 = DIRECTION ( 'NONE',  ( 8.673617379884027583E-16, 0.000000000000000000, 1.000000000000000000 ) ) ;
#215 = AXIS2_PLACEMENT_3D ( 'NONE', #876, #894, #13 ) ;
#216 = ORIENTED_EDGE ( 'NONE', *, *, #304, .T. ) ;
#217 = EDGE_CURVE ( 'NONE', #1024, #103, #560, .T. ) ;
#218 = CIRCLE ( 'NONE', #1177, 2.500000000000002220 ) ;
#219 = EDGE_CURVE ( 'NONE', #159, #1037, #1039, .T. ) ;
#220 = DIRECTION ( 'NONE',  ( 0.000000000000000000, -1.000000000000000000, 0.000000000000000000 ) ) ;
#221 = VECTOR ( 'NONE', #1071, 1000.000000000000000 ) ;
#222 = DIRECTION ( 'NONE',  ( 0.9386673526265887357, -0.000000000000000000, -0.3448240146987898713 ) ) ;
#223 = AXIS2_PLACEMENT_3D ( 'NONE', #193, #182, #1157 ) ;
#224 = CARTESIAN_POINT ( 'NONE',  ( -1.924702886938330026, 9.000000000000000000, -84.20205095511482796 ) ) ;
#225 = AXIS2_PLACEMENT_3D ( 'NONE', #229, #1009, #1097 ) ;
#226 = DIRECTION ( 'NONE',  ( 0.000000000000000000, 0.000000000000000000, 1.000000000000000000 ) ) ;
#227 = CARTESIAN_POINT ( 'NONE',  ( 1.734723475976807094E-15, 0.000000000000000000, -6.938893903907228378E-15 ) ) ;
#228 = DIRECTION ( 'NONE',  ( -0.000000000000000000, -1.000000000000000000, 0.000000000000000000 ) ) ;
#229 = CARTESIAN_POINT ( 'NONE',  ( -20.90380984571846312, 18.00000000000000000, 13.36289017892626063 ) ) ;
#230 = CYLINDRICAL_SURFACE ( 'NONE', #44, 2.500000000000002220 ) ;
#231 = CARTESIAN_POINT ( 'NONE',  ( 0.1780349087250471252, 0.000000000000000000, -101.3223663102657497 ) ) ;
#232 = CARTESIAN_POINT ( 'NONE',  ( 7.499999999999998224, 0.000000000000000000, -81.58229419209513367 ) ) ;
#233 = ADVANCED_FACE ( 'NONE', ( #843 ), #747, .F. ) ;
#234 = ORIENTED_EDGE ( 'NONE', *, *, #1027, .T. ) ;
#235 = CARTESIAN_POINT ( 'NONE',  ( 9.999999999999998224, 18.00000000000000000, -28.73104673259540931 ) ) ;
#236 = CARTESIAN_POINT ( 'NONE',  ( -23.33682390399132700, 18.00000000000000000, -1.703843954410612094 ) ) ;
#237 = AXIS2_PLACEMENT_3D ( 'NONE', #806, #1099, #226 ) ;
#238 = DIRECTION ( 'NONE',  ( 0.000000000000000000, 1.000000000000000000, 0.000000000000000000 ) ) ;
#239 = VECTOR ( 'NONE', #861, 1000.000000000000000 ) ;
#240 =( LENGTH_UNIT ( ) NAMED_UNIT ( * ) SI_UNIT ( .MILLI., .METRE. ) );
#241 = ORIENTED_EDGE ( 'NONE', *, *, #711, .F. ) ;
#242 = ADVANCED_FACE ( 'NONE', ( #265 ), #554, .F. ) ;
#243 = DIRECTION ( 'NONE',  ( 0.000000000000000000, 0.000000000000000000, 1.000000000000000000 ) ) ;
#244 = VECTOR ( 'NONE', #434, 1000.000000000000227 ) ;
#245 = ADVANCED_FACE ( 'NONE', ( #39 ), #454, .T. ) ;
#246 = VECTOR ( 'NONE', #992, 1000.000000000000227 ) ;
#247 = CARTESIAN_POINT ( 'NONE',  ( 4.999999999999998224, 18.00000000000000000, -85.14486490616359049 ) ) ;
#248 = DIRECTION ( 'NONE',  ( 0.000000000000000000, 0.000000000000000000, -1.000000000000000000 ) ) ;
#249 = ORIENTED_EDGE ( 'NONE', *, *, #352, .F. ) ;
#250 = DIRECTION ( 'NONE',  ( 0.000000000000000000, 1.000000000000000000, 0.000000000000000000 ) ) ;
#251 = CYLINDRICAL_SURFACE ( 'NONE', #1115, 2.499999999999999556 ) ;
#252 = CARTESIAN_POINT ( 'NONE',  ( 7.499999999999992895, 18.00000000000000000, -81.58229419209513367 ) ) ;
#253 = ORIENTED_EDGE ( 'NONE', *, *, #784, .T. ) ;
#254 = DIRECTION ( 'NONE',  ( 0.000000000000000000, 0.000000000000000000, 1.000000000000000000 ) ) ;
#255 = DIRECTION ( 'NONE',  ( -1.387778780781445873E-15, 0.000000000000000000, -1.000000000000000000 ) ) ;
#256 = EDGE_CURVE ( 'NONE', #1114, #1145, #540, .T. ) ;
#257 = VECTOR ( 'NONE', #1188, 1000.000000000000227 ) ;
#258 = ADVANCED_FACE ( 'NONE', ( #1025 ), #1222, .F. ) ;
#259 = CARTESIAN_POINT ( 'NONE',  ( 4.999999999999998224, 0.000000000000000000, -85.14486490616359049 ) ) ;
#260 = COLOUR_RGB ( '',0.7921568627450980005, 0.8196078431372548767, 0.9333333333333333481 ) ;
#261 = EDGE_LOOP ( 'NONE', ( #981, #1236, #582, #1203 ) ) ;
#262 = CIRCLE ( 'NONE', #421, 2.250000000000001776 ) ;
#263 = LINE ( 'NONE', #1038, #1055 ) ;
#264 = AXIS2_PLACEMENT_3D ( 'NONE', #664, #683, #389 ) ;
#265 = FACE_OUTER_BOUND ( 'NONE', #83, .T. ) ;
#266 = AXIS2_PLACEMENT_3D ( 'NONE', #318, #146, #809 ) ;
#267 = ORIENTED_EDGE ( 'NONE', *, *, #444, .T. ) ;
#268 = DIRECTION ( 'NONE',  ( 0.000000000000000000, 1.000000000000000000, 0.000000000000000000 ) ) ;
#269 = ORIENTED_EDGE ( 'NONE', *, *, #73, .F. ) ;
#270 = DIRECTION ( 'NONE',  ( -0.000000000000000000, -1.000000000000000000, -0.000000000000000000 ) ) ;
#271 = CARTESIAN_POINT ( 'NONE',  ( 4.999999999999989342, 0.000000000000000000, -105.0000000000000142 ) ) ;
#272 = ORIENTED_EDGE ( 'NONE', *, *, #469, .T. ) ;
#273 = ORIENTED_EDGE ( 'NONE', *, *, #842, .T. ) ;
#274 = CARTESIAN_POINT ( 'NONE',  ( -20.98969858723280879, 9.000000000000000000, -5.229422174922485844 ) ) ;
#275 = ORIENTED_EDGE ( 'NONE', *, *, #256, .F. ) ;
#276 = EDGE_CURVE ( 'NONE', #606, #492, #1044, .T. ) ;
#277 = DIRECTION ( 'NONE',  ( 0.000000000000000000, 0.000000000000000000, -1.000000000000000000 ) ) ;
#278 = ORIENTED_EDGE ( 'NONE', *, *, #1043, .T. ) ;
#279 = ORIENTED_EDGE ( 'NONE', *, *, #433, .T. ) ;
#280 = LINE ( 'NONE', #380, #1197 ) ;
#281 = VERTEX_POINT ( 'NONE', #653 ) ;
#282 = LINE ( 'NONE', #1154, #1215 ) ;
#283 = CIRCLE ( 'NONE', #704, 2.249999999999998668 ) ;
#284 = CIRCLE ( 'NONE', #604, 2.000000000000001776 ) ;
#285 = CIRCLE ( 'NONE', #974, 2.500000000000002220 ) ;
#286 = EDGE_CURVE ( 'NONE', #558, #881, #383, .T. ) ;
#287 = ORIENTED_EDGE ( 'NONE', *, *, #921, .F. ) ;
#288 = AXIS2_PLACEMENT_3D ( 'NONE', #1185, #132, #316 ) ;
#289 = ORIENTED_EDGE ( 'NONE', *, *, #61, .F. ) ;
#290 = CIRCLE ( 'NONE', #155, 10.00000000000000178 ) ;
#291 = DIRECTION ( 'NONE',  ( -7.309661901652530912E-17, -0.7118920901450974670, -0.7022888664850415186 ) ) ;
#292 = VERTEX_POINT ( 'NONE', #1142 ) ;
#293 = CARTESIAN_POINT ( 'NONE',  ( 4.332851387010890676, 0.000000000000000000, -92.79470861319066444 ) ) ;
#294 = ADVANCED_BREP_SHAPE_REPRESENTATION ( 'Gripper_Jaw_Plate', ( #194, #1060 ), #488 ) ;
#295 = ORIENTED_EDGE ( 'NONE', *, *, #897, .T. ) ;
#296 = ORIENTED_EDGE ( 'NONE', *, *, #1200, .F. ) ;
#297 = CARTESIAN_POINT ( 'NONE',  ( 1.734723475976807094E-15, 18.00000000000000000, -6.938893903907228378E-15 ) ) ;
#298 = EDGE_LOOP ( 'NONE', ( #942, #529, #696, #466 ) ) ;
#299 = DIRECTION ( 'NONE',  ( -0.000000000000000000, -1.000000000000000000, 0.000000000000000000 ) ) ;
#300 = EDGE_LOOP ( 'NONE', ( #185, #771, #360, #1013 ) ) ;
#301 = ORIENTED_EDGE ( 'NONE', *, *, #338, .T. ) ;
#302 = EDGE_CURVE ( 'NONE', #872, #471, #754, .T. ) ;
#303 = DIRECTION ( 'NONE',  ( -0.000000000000000000, -1.000000000000000000, 0.000000000000000000 ) ) ;
#304 = EDGE_CURVE ( 'NONE', #1082, #1145, #640, .T. ) ;
#305 = LINE ( 'NONE', #573, #461 ) ;
#306 = VECTOR ( 'NONE', #437, 1000.000000000000000 ) ;
#307 = ORIENTED_EDGE ( 'NONE', *, *, #784, .F. ) ;
#308 = VECTOR ( 'NONE', #928, 1000.000000000000000 ) ;
#309 = CARTESIAN_POINT ( 'NONE',  ( 9.999999999999994671, -17.63119035439492421, -63.88158237122078020 ) ) ;
#310 = DIRECTION ( 'NONE',  ( 0.000000000000000000, -1.000000000000000000, 0.000000000000000000 ) ) ;
#311 = EDGE_CURVE ( 'NONE', #1183, #453, #357, .T. ) ;
#312 = CYLINDRICAL_SURFACE ( 'NONE', #1079, 2.000000000000001776 ) ;
#313 = ORIENTED_EDGE ( 'NONE', *, *, #668, .T. ) ;
#314 = VERTEX_POINT ( 'NONE', #1232 ) ;
#315 = LINE ( 'NONE', #1006, #246 ) ;
#316 = DIRECTION ( 'NONE',  ( -1.734723475976805517E-15, 0.000000000000000000, -1.000000000000000000 ) ) ;
#317 = EDGE_CURVE ( 'NONE', #1231, #720, #49, .T. ) ;
#318 = CARTESIAN_POINT ( 'NONE',  ( 0.000000000000000000, 18.00000000000000000, -14.24237984354700615 ) ) ;
#319 = CARTESIAN_POINT ( 'NONE',  ( -24.68463223939292561, 9.000000000000000000, -1.208720010920740995 ) ) ;
#320 = CARTESIAN_POINT ( 'NONE',  ( 9.999999999999991118, 18.00000000000000000, -99.99999999999906208 ) ) ;
#321 = LINE ( 'NONE', #423, #893 ) ;
#322 = CARTESIAN_POINT ( 'NONE',  ( 9.999999999999992895, 18.00000000000000000, -30.78819291295087979 ) ) ;
#323 = LINE ( 'NONE', #309, #929 ) ;
#324 = CIRCLE ( 'NONE', #996, 5.000000000000004441 ) ;
#325 = CARTESIAN_POINT ( 'NONE',  ( -30.54774002826776425, 18.00000000000000000, 10.71815755839265094 ) ) ;
#326 = AXIS2_PLACEMENT_3D ( 'NONE', #966, #303, #1069 ) ;
#327 = DIRECTION ( 'NONE',  ( 0.000000000000000000, 0.000000000000000000, 1.000000000000000000 ) ) ;
#328 = AXIS2_PLACEMENT_3D ( 'NONE', #512, #310, #1084 ) ;
#329 = FACE_OUTER_BOUND ( 'NONE', #99, .T. ) ;
#330 = CARTESIAN_POINT ( 'NONE',  ( -1.924702886938330026, 9.000000000000000000, -84.20205095511482796 ) ) ;
#331 = EDGE_CURVE ( 'NONE', #657, #762, #346, .T. ) ;
#332 = FACE_BOUND ( 'NONE', #98, .T. ) ;
#333 = LINE ( 'NONE', #1271, #913 ) ;
#334 = ORIENTED_EDGE ( 'NONE', *, *, #29, .F. ) ;
#335 = DIRECTION ( 'NONE',  ( 0.000000000000000000, 1.000000000000000000, 0.000000000000000000 ) ) ;
#336 = CARTESIAN_POINT ( 'NONE',  ( 10.00000000000000178, 18.00000000000000000, -5.196013828848716574E-14 ) ) ;
#337 = CARTESIAN_POINT ( 'NONE',  ( 2.693045179146764223, 18.00000000000000000, -10.02960075331756862 ) ) ;
#338 = EDGE_CURVE ( 'NONE', #1052, #656, #285, .T. ) ;
#339 = ORIENTED_EDGE ( 'NONE', *, *, #20, .T. ) ;
#340 = CARTESIAN_POINT ( 'NONE',  ( -1.924702886938330026, 9.000000000000000000, -84.20205095511482796 ) ) ;
#341 = FACE_OUTER_BOUND ( 'NONE', #850, .T. ) ;
#342 = DIRECTION ( 'NONE',  ( -1.223316414399868618E-17, 0.000000000000000000, 1.000000000000000000 ) ) ;
#343 = AXIS2_PLACEMENT_3D ( 'NONE', #142, #727, #1117 ) ;
#344 = ORIENTED_EDGE ( 'NONE', *, *, #613, .T. ) ;
#345 = EDGE_CURVE ( 'NONE', #917, #1151, #89, .T. ) ;
#346 = LINE ( 'NONE', #534, #770 ) ;
#347 = CARTESIAN_POINT ( 'NONE',  ( -13.47468831681135271, 0.000000000000000000, 0.3057232255736196391 ) ) ;
#348 = LINE ( 'NONE', #526, #464 ) ;
#349 = CARTESIAN_POINT ( 'NONE',  ( -25.54669227613990046, 18.00000000000000000, -3.555388392487212723 ) ) ;
#350 = ORIENTED_EDGE ( 'NONE', *, *, #406, .F. ) ;
#351 = DIRECTION ( 'NONE',  ( 0.000000000000000000, 0.000000000000000000, -1.000000000000000000 ) ) ;
#352 = EDGE_CURVE ( 'NONE', #91, #379, #742, .T. ) ;
#353 = DIRECTION ( 'NONE',  ( 0.000000000000000000, 0.000000000000000000, -1.000000000000000000 ) ) ;
#354 = EDGE_CURVE ( 'NONE', #656, #574, #263, .T. ) ;
#355 = CARTESIAN_POINT ( 'NONE',  ( 2.999999999999999112, 18.00000000000000000, -85.14486490616359049 ) ) ;
#356 = EDGE_LOOP ( 'NONE', ( #588, #780, #1150, #1213, #152, #1192 ) ) ;
#357 = LINE ( 'NONE', #166, #153 ) ;
#358 = DIRECTION ( 'NONE',  ( 1.223316414399868464E-17, 0.000000000000000000, -1.000000000000000000 ) ) ;
#359 = ADVANCED_FACE ( 'NONE', ( #462 ), #160, .T. ) ;
#360 = ORIENTED_EDGE ( 'NONE', *, *, #668, .F. ) ;
#361 = CARTESIAN_POINT ( 'NONE',  ( -13.47468831681135271, 18.00000000000000000, 0.3057232255736196391 ) ) ;
#362 = ORIENTED_EDGE ( 'NONE', *, *, #187, .T. ) ;
#363 = AXIS2_PLACEMENT_3D ( 'NONE', #848, #364, #647 ) ;
#364 = DIRECTION ( 'NONE',  ( -0.9643930182549379504, 0.000000000000000000, -0.2644732620533332135 ) ) ;
#365 = CIRCLE ( 'NONE', #774, 2.500000000000002220 ) ;
#366 = ORIENTED_EDGE ( 'NONE', *, *, #1116, .T. ) ;
#367 = ORIENTED_EDGE ( 'NONE', *, *, #844, .T. ) ;
#368 = EDGE_CURVE ( 'NONE', #292, #868, #544, .T. ) ;
#369 = DIRECTION ( 'NONE',  ( 0.000000000000000000, 1.000000000000000000, -0.000000000000000000 ) ) ;
#370 = ORIENTED_EDGE ( 'NONE', *, *, #104, .F. ) ;
#371 = DIRECTION ( 'NONE',  ( -0.000000000000000000, -1.000000000000000000, -0.000000000000000000 ) ) ;
#372 = ORIENTED_EDGE ( 'NONE', *, *, #80, .F. ) ;
#373 = ORIENTED_EDGE ( 'NONE', *, *, #1027, .F. ) ;
#374 = CYLINDRICAL_SURFACE ( 'NONE', #136, 2.249999999999998668 ) ;
#375 = ORIENTED_EDGE ( 'NONE', *, *, #521, .T. ) ;
#376 = DIRECTION ( 'NONE',  ( 0.000000000000000000, 1.000000000000000000, -0.000000000000000000 ) ) ;
#377 = EDGE_CURVE ( 'NONE', #1256, #1153, #1015, .T. ) ;
#378 = ORIENTED_EDGE ( 'NONE', *, *, #636, .T. ) ;
#379 = VERTEX_POINT ( 'NONE', #586 ) ;
#380 = CARTESIAN_POINT ( 'NONE',  ( 7.499999999999998224, 18.00000000000000000, -32.24281492697222973 ) ) ;
#381 = ORIENTED_EDGE ( 'NONE', *, *, #1221, .T. ) ;
#382 = DIRECTION ( 'NONE',  ( 0.000000000000000000, 0.000000000000000000, 1.000000000000000000 ) ) ;
#383 = CIRCLE ( 'NONE', #6, 5.000000000000001776 ) ;
#384 = ADVANCED_FACE ( 'NONE', ( #1168 ), #772, .F. ) ;
#385 = ORIENTED_EDGE ( 'NONE', *, *, #829, .T. ) ;
#386 = ORIENTED_EDGE ( 'NONE', *, *, #86, .T. ) ;
#387 = CIRCLE ( 'NONE', #1098, 5.000000000000001776 ) ;
#388 = VECTOR ( 'NONE', #1219, 1000.000000000000000 ) ;
#389 = DIRECTION ( 'NONE',  ( 0.000000000000000000, 0.000000000000000000, 1.000000000000000000 ) ) ;
#390 = ORIENTED_EDGE ( 'NONE', *, *, #64, .F. ) ;
#391 = CARTESIAN_POINT ( 'NONE',  ( 4.999999999999997335, 18.00000000000000000, -28.73104673259540931 ) ) ;
#392 = EDGE_CURVE ( 'NONE', #177, #487, #282, .T. ) ;
#393 = ORIENTED_EDGE ( 'NONE', *, *, #1043, .F. ) ;
#394 = LINE ( 'NONE', #410, #257 ) ;
#395 = EDGE_CURVE ( 'NONE', #126, #1151, #305, .T. ) ;
#396 = CARTESIAN_POINT ( 'NONE',  ( 4.999999999999998224, 18.00000000000000000, -81.58229419209513367 ) ) ;
#397 = ORIENTED_EDGE ( 'NONE', *, *, #217, .F. ) ;
#398 = CARTESIAN_POINT ( 'NONE',  ( 7.499999999999992895, 0.000000000000000000, -81.58229419209513367 ) ) ;
#399 = VERTEX_POINT ( 'NONE', #978 ) ;
#400 = PLANE ( 'NONE',  #1113 ) ;
#401 = CARTESIAN_POINT ( 'NONE',  ( 1.071213963490121435, 18.00000000000000000, -85.67381143027024848 ) ) ;
#402 = CARTESIAN_POINT ( 'NONE',  ( -1.924702886938330026, 9.000000000000000000, -81.70205095511482796 ) ) ;
#403 = ORIENTED_EDGE ( 'NONE', *, *, #724, .T. ) ;
#404 = ORIENTED_EDGE ( 'NONE', *, *, #144, .T. ) ;
#405 = CARTESIAN_POINT ( 'NONE',  ( 9.999999999999991118, 18.00000000000000000, -99.99999999999906208 ) ) ;
#406 = EDGE_CURVE ( 'NONE', #656, #1237, #202, .T. ) ;
#407 = CIRCLE ( 'NONE', #467, 2.000000000000001776 ) ;
#408 = CARTESIAN_POINT ( 'NONE',  ( 2.999999999999999112, 18.00000000000000000, -85.14486490616359049 ) ) ;
#409 = DIRECTION ( 'NONE',  ( 0.000000000000000000, 0.000000000000000000, 1.000000000000000000 ) ) ;
#410 = CARTESIAN_POINT ( 'NONE',  ( -15.51771948742469398, 18.00000000000000000, 21.78844835938497226 ) ) ;
#411 = FACE_OUTER_BOUND ( 'NONE', #741, .T. ) ;
#412 = DIRECTION ( 'NONE',  ( 0.000000000000000000, -1.000000000000000000, 0.000000000000000000 ) ) ;
#413 = EDGE_CURVE ( 'NONE', #1141, #281, #96, .T. ) ;
#414 = FACE_BOUND ( 'NONE', #786, .T. ) ;
#415 = LINE ( 'NONE', #697, #971 ) ;
#416 = FACE_OUTER_BOUND ( 'NONE', #1229, .T. ) ;
#417 = LINE ( 'NONE', #1194, #463 ) ;
#418 = CARTESIAN_POINT ( 'NONE',  ( -24.19888394073830185, 9.000000000000000000, -4.050512335977082934 ) ) ;
#419 = DIRECTION ( 'NONE',  ( 1.040834085586094610E-16, 0.000000000000000000, 1.000000000000000000 ) ) ;
#420 = DIRECTION ( 'NONE',  ( 1.387778780781445676E-15, 0.000000000000000000, 1.000000000000000000 ) ) ;
#421 = AXIS2_PLACEMENT_3D ( 'NONE', #902, #412, #213 ) ;
#422 = DIRECTION ( 'NONE',  ( -0.000000000000000000, -1.000000000000000000, -0.000000000000000000 ) ) ;
#423 = CARTESIAN_POINT ( 'NONE',  ( 9.999999999999991118, 0.000000000000000000, -99.99999999999906208 ) ) ;
#424 = PRODUCT_DEFINITION_FORMATION_WITH_SPECIFIED_SOURCE ( 'ANY', '', #205, .NOT_KNOWN. ) ;
#425 = EDGE_LOOP ( 'NONE', ( #186, #1250, #1030, #404 ) ) ;
#426 = CARTESIAN_POINT ( 'NONE',  ( 9.999999999999996447, 0.000000000000000000, -46.48823180562271773 ) ) ;
#427 = CARTESIAN_POINT ( 'NONE',  ( 4.999999999999998224, 18.00000000000000000, -85.14486490616359049 ) ) ;
#428 = EDGE_CURVE ( 'NONE', #527, #657, #218, .T. ) ;
#429 = LINE ( 'NONE', #259, #10 ) ;
#430 = ORIENTED_EDGE ( 'NONE', *, *, #949, .T. ) ;
#431 = LINE ( 'NONE', #510, #1261 ) ;
#432 = CARTESIAN_POINT ( 'NONE',  ( -23.33682390399132700, 18.00000000000000000, -1.703843954410612094 ) ) ;
#433 = EDGE_CURVE ( 'NONE', #1153, #1082, #766, .T. ) ;
#434 = DIRECTION ( 'NONE',  ( 0.8425558180458874169, 0.000000000000000000, -0.5386090358293531555 ) ) ;
#435 = ORIENTED_EDGE ( 'NONE', *, *, #176, .F. ) ;
#436 = CARTESIAN_POINT ( 'NONE',  ( -30.54774002826776425, 18.00000000000000000, 10.71815755839265094 ) ) ;
#437 = DIRECTION ( 'NONE',  ( -1.040834085586094610E-16, -0.000000000000000000, -1.000000000000000000 ) ) ;
#438 = VECTOR ( 'NONE', #108, 1000.000000000000114 ) ;
#439 = CYLINDRICAL_SURFACE ( 'NONE', #853, 2.000000000000001776 ) ;
#440 = CIRCLE ( 'NONE', #791, 2.249999999999998668 ) ;
#441 = EDGE_CURVE ( 'NONE', #970, #476, #503, .T. ) ;
#442 = ORIENTED_EDGE ( 'NONE', *, *, #484, .F. ) ;
#443 = CARTESIAN_POINT ( 'NONE',  ( -1.924702886938325141, 18.00000000000000000, -84.20205095511482796 ) ) ;
#444 = EDGE_CURVE ( 'NONE', #762, #679, #70, .T. ) ;
#445 = CIRCLE ( 'NONE', #1120, 5.000000000000004441 ) ;
#446 = CIRCLE ( 'NONE', #328, 2.250000000000001776 ) ;
#447 = DIRECTION ( 'NONE',  ( 0.000000000000000000, 1.000000000000000000, 0.000000000000000000 ) ) ;
#448 = DIRECTION ( 'NONE',  ( 0.8425558180458874169, 0.000000000000000000, -0.5386090358293532665 ) ) ;
#449 = ORIENTED_EDGE ( 'NONE', *, *, #1078, .F. ) ;
#450 = PRODUCT_RELATED_PRODUCT_CATEGORY ( 'part', '', ( #205 ) ) ;
#451 = CARTESIAN_POINT ( 'NONE',  ( 0.000000000000000000, 18.00000000000000000, 0.000000000000000000 ) ) ;
#452 = CARTESIAN_POINT ( 'NONE',  ( 0.1780349087250471252, 18.00000000000000000, -101.3223663102657497 ) ) ;
#453 = VERTEX_POINT ( 'NONE', #82 ) ;
#454 = CYLINDRICAL_SURFACE ( 'NONE', #565, 2.500000000000002220 ) ;
#455 = SURFACE_SIDE_STYLE ('',( #641 ) ) ;
#456 = EDGE_CURVE ( 'NONE', #1182, #102, #440, .T. ) ;
#457 = ORIENTED_EDGE ( 'NONE', *, *, #345, .F. ) ;
#458 = DIRECTION ( 'NONE',  ( 0.000000000000000000, 1.000000000000000000, -0.000000000000000000 ) ) ;
#459 = VECTOR ( 'NONE', #156, 1000.000000000000000 ) ;
#460 = ORIENTED_EDGE ( 'NONE', *, *, #724, .F. ) ;
#461 = VECTOR ( 'NONE', #77, 1000.000000000000000 ) ;
#462 = FACE_OUTER_BOUND ( 'NONE', #824, .T. ) ;
#463 = VECTOR ( 'NONE', #609, 1000.000000000000000 ) ;
#464 = VECTOR ( 'NONE', #268, 1000.000000000000000 ) ;
#465 = DIRECTION ( 'NONE',  ( -0.000000000000000000, -1.000000000000000000, -0.000000000000000000 ) ) ;
#466 = ORIENTED_EDGE ( 'NONE', *, *, #1269, .F. ) ;
#467 = AXIS2_PLACEMENT_3D ( 'NONE', #1270, #608, #982 ) ;
#468 = ORIENTED_EDGE ( 'NONE', *, *, #521, .F. ) ;
#469 = EDGE_CURVE ( 'NONE', #581, #606, #130, .T. ) ;
#470 = CARTESIAN_POINT ( 'NONE',  ( -1.924702886938330026, 9.000000000000000000, -84.20205095511482796 ) ) ;
#471 = VERTEX_POINT ( 'NONE', #293 ) ;
#472 = CARTESIAN_POINT ( 'NONE',  ( 7.499999999999992895, 18.00000000000000000, -81.58229419209513367 ) ) ;
#473 = EDGE_LOOP ( 'NONE', ( #847, #1088, #1226, #366 ) ) ;
#474 = ORIENTED_EDGE ( 'NONE', *, *, #672, .T. ) ;
#475 = DIRECTION ( 'NONE',  ( 0.000000000000000000, 1.000000000000000000, 0.000000000000000000 ) ) ;
#476 = VERTEX_POINT ( 'NONE', #196 ) ;
#477 = CARTESIAN_POINT ( 'NONE',  ( 0.4862796586990181247, 18.00000000000000000, -83.54086779998148415 ) ) ;
#478 = ORIENTED_EDGE ( 'NONE', *, *, #805, .F. ) ;
#479 = ORIENTED_EDGE ( 'NONE', *, *, #217, .T. ) ;
#480 = CARTESIAN_POINT ( 'NONE',  ( 6.035533905932735976, 0.000000000000000000, -49.99999999999957367 ) ) ;
#481 = ORIENTED_EDGE ( 'NONE', *, *, #960, .T. ) ;
#482 = EDGE_CURVE ( 'NONE', #102, #575, #101, .T. ) ;
#483 = DIRECTION ( 'NONE',  ( -0.000000000000000000, -1.000000000000000000, -0.000000000000000000 ) ) ;
#484 = EDGE_CURVE ( 'NONE', #962, #594, #1241, .T. ) ;
#485 = VERTEX_POINT ( 'NONE', #495 ) ;
#486 = CIRCLE ( 'NONE', #264, 2.250000000000000000 ) ;
#487 = VERTEX_POINT ( 'NONE', #1148 ) ;
#488 =( GEOMETRIC_REPRESENTATION_CONTEXT ( 3 ) GLOBAL_UNCERTAINTY_ASSIGNED_CONTEXT ( ( #1050 ) ) GLOBAL_UNIT_ASSIGNED_CONTEXT ( ( #240, #725, #1112 ) ) REPRESENTATION_CONTEXT ( 'NONE', 'WORKASPACE' ) );
#489 = DIRECTION ( 'NONE',  ( 0.000000000000000000, 0.000000000000000000, -1.000000000000000000 ) ) ;
#490 = ORIENTED_EDGE ( 'NONE', *, *, #158, .F. ) ;
#491 = CARTESIAN_POINT ( 'NONE',  ( 4.332851387010890676, 18.00000000000000000, -95.04470861319066444 ) ) ;
#492 = VERTEX_POINT ( 'NONE', #667 ) ;
#493 = ORIENTED_EDGE ( 'NONE', *, *, #579, .T. ) ;
#494 = FACE_BOUND ( 'NONE', #496, .T. ) ;
#495 = CARTESIAN_POINT ( 'NONE',  ( 4.999999999999998224, 0.000000000000000000, -81.58229419209513367 ) ) ;
#496 = EDGE_LOOP ( 'NONE', ( #191, #1220 ) ) ;
#497 = EDGE_LOOP ( 'NONE', ( #662, #533, #490, #168 ) ) ;
#498 = EDGE_CURVE ( 'NONE', #1256, #211, #675, .T. ) ;
#499 = CARTESIAN_POINT ( 'NONE',  ( -26.75513206539151057, 9.000000000000000000, -3.111462161873686849 ) ) ;
#500 = CYLINDRICAL_SURFACE ( 'NONE', #178, 2.499999999999999112 ) ;
#501 = CIRCLE ( 'NONE', #993, 2.499999999999999556 ) ;
#502 = DIRECTION ( 'NONE',  ( -0.8425558180458874169, 0.000000000000000000, 0.5386090358293532665 ) ) ;
#503 = CIRCLE ( 'NONE', #666, 5.000000000000004441 ) ;
#504 = CARTESIAN_POINT ( 'NONE',  ( -20.90380984571846312, 0.000000000000000000, 15.61289017892625886 ) ) ;
#505 = FACE_OUTER_BOUND ( 'NONE', #1248, .T. ) ;
#506 = VECTOR ( 'NONE', #1056, 1000.000000000000114 ) ;
#507 = EDGE_CURVE ( 'NONE', #199, #1114, #324, .T. ) ;
#508 = VECTOR ( 'NONE', #123, 1000.000000000000000 ) ;
#509 = CARTESIAN_POINT ( 'NONE',  ( 7.499999999999998224, 16.24427783378739321, -30.46308470160948545 ) ) ;
#510 = CARTESIAN_POINT ( 'NONE',  ( 2.755455298081544285E-16, 18.00000000000000000, 2.250000000000000000 ) ) ;
#511 = FACE_OUTER_BOUND ( 'NONE', #768, .T. ) ;
#512 = CARTESIAN_POINT ( 'NONE',  ( 4.332851387010890676, 18.00000000000000000, -95.04470861319066444 ) ) ;
#513 = DIRECTION ( 'NONE',  ( -1.223316414399868618E-17, 0.000000000000000000, 1.000000000000000000 ) ) ;
#514 = PRODUCT_CONTEXT ( 'NONE', #1255, 'mechanical' ) ;
#515 = DIRECTION ( 'NONE',  ( 0.000000000000000000, -1.000000000000000000, 0.000000000000000000 ) ) ;
#516 = DIRECTION ( 'NONE',  ( 1.223316414399868464E-17, 0.000000000000000000, -1.000000000000000000 ) ) ;
#517 = DIRECTION ( 'NONE',  ( 0.2644732620533331580, 0.000000000000000000, -0.9643930182549378394 ) ) ;
#518 = DIRECTION ( 'NONE',  ( 0.000000000000000000, 1.000000000000000000, -0.000000000000000000 ) ) ;
#519 = CARTESIAN_POINT ( 'NONE',  ( 4.999999999999997335, 18.00000000000000000, -14.24237984354700970 ) ) ;
#520 = EDGE_LOOP ( 'NONE', ( #745, #449, #778, #1067 ) ) ;
#521 = EDGE_CURVE ( 'NONE', #572, #1052, #1059, .T. ) ;
#522 = CARTESIAN_POINT ( 'NONE',  ( 0.000000000000000000, 18.00000000000000000, 0.000000000000000000 ) ) ;
#523 = CIRCLE ( 'NONE', #215, 5.000000000000004441 ) ;
#524 = DIRECTION ( 'NONE',  ( -0.000000000000000000, -1.000000000000000000, -0.000000000000000000 ) ) ;
#525 = VECTOR ( 'NONE', #475, 1000.000000000000000 ) ;
#526 = CARTESIAN_POINT ( 'NONE',  ( -25.54669227613990046, 9.000000000000000000, -3.555388392487212279 ) ) ;
#527 = VERTEX_POINT ( 'NONE', #968 ) ;
#528 = VECTOR ( 'NONE', #422, 1000.000000000000000 ) ;
#529 = ORIENTED_EDGE ( 'NONE', *, *, #311, .T. ) ;
#530 = DIRECTION ( 'NONE',  ( -0.000000000000000000, -1.000000000000000000, -0.000000000000000000 ) ) ;
#531 = DIRECTION ( 'NONE',  ( 0.000000000000000000, 0.000000000000000000, -1.000000000000000000 ) ) ;
#532 = DIRECTION ( 'NONE',  ( 0.000000000000000000, 1.000000000000000000, 0.000000000000000000 ) ) ;
#533 = ORIENTED_EDGE ( 'NONE', *, *, #593, .F. ) ;
#534 = CARTESIAN_POINT ( 'NONE',  ( 9.999999999999992895, 18.00000000000000000, -81.58229419209513367 ) ) ;
#535 = CARTESIAN_POINT ( 'NONE',  ( -20.90380984571846312, 18.00000000000000000, 11.11289017892626063 ) ) ;
#536 = EDGE_CURVE ( 'NONE', #674, #840, #873, .T. ) ;
#537 = CYLINDRICAL_SURFACE ( 'NONE', #1018, 2.500000000000002220 ) ;
#538 = LINE ( 'NONE', #25, #895 ) ;
#539 = ORIENTED_EDGE ( 'NONE', *, *, #302, .T. ) ;
#540 = LINE ( 'NONE', #947, #1118 ) ;
#541 = DIRECTION ( 'NONE',  ( 0.000000000000000000, 1.000000000000000000, 0.000000000000000000 ) ) ;
#542 = AXIS2_PLACEMENT_3D ( 'NONE', #999, #887, #611 ) ;
#543 = PRODUCT_DEFINITION ( 'UNKNOWN', '', #424, #62 ) ;
#544 = CIRCLE ( 'NONE', #343, 2.250000000000000000 ) ;
#545 = CARTESIAN_POINT ( 'NONE',  ( 4.332851387010890676, 18.00000000000000000, -95.04470861319066444 ) ) ;
#546 = EDGE_CURVE ( 'NONE', #471, #756, #262, .T. ) ;
#547 = ORIENTED_EDGE ( 'NONE', *, *, #883, .F. ) ;
#548 = AXIS2_PLACEMENT_3D ( 'NONE', #545, #1128, #248 ) ;
#549 = DIRECTION ( 'NONE',  ( -0.000000000000000000, -1.000000000000000000, -0.000000000000000000 ) ) ;
#550 = CARTESIAN_POINT ( 'NONE',  ( 0.000000000000000000, 18.00000000000000000, 0.000000000000000000 ) ) ;
#551 = CARTESIAN_POINT ( 'NONE',  ( 1.734723475976807094E-15, 18.00000000000000000, -6.938893903907228378E-15 ) ) ;
#552 = EDGE_LOOP ( 'NONE', ( #568, #295, #547, #671 ) ) ;
#553 = EDGE_CURVE ( 'NONE', #399, #1141, #200, .T. ) ;
#554 = CYLINDRICAL_SURFACE ( 'NONE', #932, 2.250000000000000000 ) ;
#555 = UNCERTAINTY_MEASURE_WITH_UNIT (LENGTH_MEASURE( 1.000000000000000082E-05 ), #69, 'distance_accuracy_value', 'NONE');
#556 = ORIENTED_EDGE ( 'NONE', *, *, #587, .T. ) ;
#557 = DIRECTION ( 'NONE',  ( 0.3448240146987899268, 0.000000000000000000, 0.9386673526265888468 ) ) ;
#558 = VERTEX_POINT ( 'NONE', #208 ) ;
#559 = DIRECTION ( 'NONE',  ( 0.000000000000000000, -1.000000000000000000, 0.000000000000000000 ) ) ;
#560 = LINE ( 'NONE', #948, #459 ) ;
#561 = ORIENTED_EDGE ( 'NONE', *, *, #73, .T. ) ;
#562 = ORIENTED_EDGE ( 'NONE', *, *, #880, .T. ) ;
#563 = CARTESIAN_POINT ( 'NONE',  ( 7.499999999999998224, 18.00000000000000000, -81.58229419209513367 ) ) ;
#564 = ORIENTED_EDGE ( 'NONE', *, *, #441, .T. ) ;
#565 = AXIS2_PLACEMENT_3D ( 'NONE', #443, #60, #1214 ) ;
#566 = DIRECTION ( 'NONE',  ( 0.000000000000000000, 0.000000000000000000, -1.000000000000000000 ) ) ;
#567 = AXIS2_PLACEMENT_3D ( 'NONE', #941, #744, #637 ) ;
#568 = ORIENTED_EDGE ( 'NONE', *, *, #469, .F. ) ;
#569 = AXIS2_PLACEMENT_3D ( 'NONE', #712, #596, #1193 ) ;
#570 = ORIENTED_EDGE ( 'NONE', *, *, #883, .T. ) ;
#571 = CARTESIAN_POINT ( 'NONE',  ( 0.000000000000000000, 0.000000000000000000, -2.250000000000000000 ) ) ;
#572 = VERTEX_POINT ( 'NONE', #402 ) ;
#573 = CARTESIAN_POINT ( 'NONE',  ( 9.999999999999991118, 0.000000000000000000, -99.99999999999906208 ) ) ;
#574 = VERTEX_POINT ( 'NONE', #1101 ) ;
#575 = VERTEX_POINT ( 'NONE', #24 ) ;
#576 = ADVANCED_FACE ( 'NONE', ( #719 ), #312, .F. ) ;
#577 = DIRECTION ( 'NONE',  ( -0.000000000000000000, -1.000000000000000000, -0.000000000000000000 ) ) ;
#578 = ORIENTED_EDGE ( 'NONE', *, *, #1126, .T. ) ;
#579 = EDGE_CURVE ( 'NONE', #881, #910, #417, .T. ) ;
#580 = CARTESIAN_POINT ( 'NONE',  ( -1.924702886938330026, 9.000000000000000000, -81.70205095511482796 ) ) ;
#581 = VERTEX_POINT ( 'NONE', #907 ) ;
#582 = ORIENTED_EDGE ( 'NONE', *, *, #789, .T. ) ;
#583 = CYLINDRICAL_SURFACE ( 'NONE', #646, 5.000000000000002665 ) ;
#584 = CIRCLE ( 'NONE', #173, 2.249999999999998668 ) ;
#585 = ORIENTED_EDGE ( 'NONE', *, *, #187, .F. ) ;
#586 = CARTESIAN_POINT ( 'NONE',  ( 1.071213963490121435, 0.000000000000000000, -85.67381143027024848 ) ) ;
#587 = EDGE_CURVE ( 'NONE', #574, #674, #1035, .T. ) ;
#588 = ORIENTED_EDGE ( 'NONE', *, *, #354, .F. ) ;
#589 = AXIS2_PLACEMENT_3D ( 'NONE', #470, #859, #1176 ) ;
#590 = EDGE_LOOP ( 'NONE', ( #195, #818, #141, #875 ) ) ;
#591 = PLANE ( 'NONE',  #957 ) ;
#592 = CARTESIAN_POINT ( 'NONE',  ( 4.999999999999989342, 18.00000000000000000, -100.0000000000000000 ) ) ;
#593 = EDGE_CURVE ( 'NONE', #679, #485, #8, .T. ) ;
#594 = VERTEX_POINT ( 'NONE', #802 ) ;
#595 = CARTESIAN_POINT ( 'NONE',  ( -0.1749034964343165188, 9.000000000000000000, -81.12988525434414555 ) ) ;
#596 = DIRECTION ( 'NONE',  ( -1.000000000000000000, 0.000000000000000000, 1.040834085586094610E-16 ) ) ;
#597 = DIRECTION ( 'NONE',  ( -0.000000000000000000, -1.000000000000000000, -0.000000000000000000 ) ) ;
#598 = CARTESIAN_POINT ( 'NONE',  ( 4.999999999999997335, 18.00000000000000000, -14.24237984354700615 ) ) ;
#599 = ORIENTED_EDGE ( 'NONE', *, *, #750, .T. ) ;
#600 = ORIENTED_EDGE ( 'NONE', *, *, #456, .T. ) ;
#601 = EDGE_CURVE ( 'NONE', #756, #471, #624, .T. ) ;
#602 = CARTESIAN_POINT ( 'NONE',  ( 5.386090358293497360, 18.00000000000000000, 8.425558180458891044 ) ) ;
#603 = DIRECTION ( 'NONE',  ( 0.000000000000000000, 0.000000000000000000, -1.000000000000000000 ) ) ;
#604 = AXIS2_PLACEMENT_3D ( 'NONE', #931, #920, #128 ) ;
#605 = CARTESIAN_POINT ( 'NONE',  ( -30.54774002826776425, 0.000000000000000000, 10.71815755839265094 ) ) ;
#606 = VERTEX_POINT ( 'NONE', #1085 ) ;
#607 = AXIS2_PLACEMENT_3D ( 'NONE', #232, #228, #1180 ) ;
#608 = DIRECTION ( 'NONE',  ( 0.000000000000000000, -1.000000000000000000, 0.000000000000000000 ) ) ;
#609 = DIRECTION ( 'NONE',  ( 0.000000000000000000, 1.000000000000000000, 0.000000000000000000 ) ) ;
#610 = CARTESIAN_POINT ( 'NONE',  ( 7.499999999999998224, 18.00000000000000000, -32.24281492697222973 ) ) ;
#611 = DIRECTION ( 'NONE',  ( 0.000000000000000000, 0.000000000000000000, 1.000000000000000000 ) ) ;
#612 = PLANE ( 'NONE',  #569 ) ;
#613 = EDGE_CURVE ( 'NONE', #1247, #1268, #106, .T. ) ;
#614 = DIRECTION ( 'NONE',  ( 0.000000000000000000, 0.000000000000000000, -1.000000000000000000 ) ) ;
#615 = EDGE_CURVE ( 'NONE', #910, #1024, #792, .T. ) ;
#616 = CARTESIAN_POINT ( 'NONE',  ( 9.999999999999991118, 18.00000000000000000, -99.99999999999906208 ) ) ;
#617 = DIRECTION ( 'NONE',  ( 0.000000000000000000, 0.000000000000000000, 1.000000000000000000 ) ) ;
#618 = FACE_OUTER_BOUND ( 'NONE', #298, .T. ) ;
#619 = CARTESIAN_POINT ( 'NONE',  ( 4.332851387010890676, 0.000000000000000000, -95.04470861319066444 ) ) ;
#620 = ORIENTED_EDGE ( 'NONE', *, *, #613, .F. ) ;
#621 = CARTESIAN_POINT ( 'NONE',  ( 8.964466094067256918, 18.00000000000000000, -32.24281492697222973 ) ) ;
#622 = DIRECTION ( 'NONE',  ( 0.000000000000000000, 1.000000000000000000, 0.000000000000000000 ) ) ;
#623 = VECTOR ( 'NONE', #1080, 1000.000000000000114 ) ;
#624 = CIRCLE ( 'NONE', #50, 2.250000000000001776 ) ;
#625 = DIRECTION ( 'NONE',  ( 0.000000000000000000, 0.000000000000000000, 1.000000000000000000 ) ) ;
#626 = AXIS2_PLACEMENT_3D ( 'NONE', #1209, #911, #127 ) ;
#627 = ORIENTED_EDGE ( 'NONE', *, *, #377, .F. ) ;
#628 = CARTESIAN_POINT ( 'NONE',  ( 4.332851387010890676, 18.00000000000000000, -92.79470861319066444 ) ) ;
#629 = ADVANCED_FACE ( 'NONE', ( #1095 ), #500, .T. ) ;
#630 = DIRECTION ( 'NONE',  ( 1.000000000000000000, -0.000000000000000000, 1.223316414399868464E-17 ) ) ;
#631 = CARTESIAN_POINT ( 'NONE',  ( 4.332851387010890676, 0.000000000000000000, -97.29470861319067865 ) ) ;
#632 = CARTESIAN_POINT ( 'NONE',  ( 2.693045179146764223, 0.000000000000000000, -10.02960075331756862 ) ) ;
#633 = ORIENTED_EDGE ( 'NONE', *, *, #1186, .F. ) ;
#634 = CARTESIAN_POINT ( 'NONE',  ( -20.98969858723281234, 0.000000000000000000, -5.229422174922484068 ) ) ;
#635 = CARTESIAN_POINT ( 'NONE',  ( 10.00000000000000178, 0.000000000000000000, -5.196013828848716574E-14 ) ) ;
#636 = EDGE_CURVE ( 'NONE', #762, #677, #321, .T. ) ;
#637 = DIRECTION ( 'NONE',  ( 0.000000000000000000, 0.000000000000000000, -1.000000000000000000 ) ) ;
#638 = DIRECTION ( 'NONE',  ( -0.000000000000000000, -1.000000000000000000, -0.000000000000000000 ) ) ;
#639 = ORIENTED_EDGE ( 'NONE', *, *, #949, .F. ) ;
#640 = LINE ( 'NONE', #436, #308 ) ;
#641 = SURFACE_STYLE_FILL_AREA ( #826 ) ;
#642 = APPLICATION_CONTEXT ( 'automotive_design' ) ;
#643 = DIRECTION ( 'NONE',  ( 0.000000000000000000, 0.000000000000000000, -1.000000000000000000 ) ) ;
#644 = AXIS2_PLACEMENT_3D ( 'NONE', #835, #846, #1111 ) ;
#645 = ORIENTED_EDGE ( 'NONE', *, *, #368, .T. ) ;
#646 = AXIS2_PLACEMENT_3D ( 'NONE', #188, #577, #170 ) ;
#647 = DIRECTION ( 'NONE',  ( -0.2644732620533331580, 0.000000000000000000, 0.9643930182549378394 ) ) ;
#648 = AXIS2_PLACEMENT_3D ( 'NONE', #201, #212, #896 ) ;
#649 = EDGE_LOOP ( 'NONE', ( #1245, #272, #882, #767, #830, #67, #923, #474, #1137, #967, #279, #147, #1124, #562, #1064 ) ) ;
#650 = LINE ( 'NONE', #361, #244 ) ;
#651 = EDGE_CURVE ( 'NONE', #314, #399, #817, .T. ) ;
#652 = EDGE_LOOP ( 'NONE', ( #984, #367, #862, #1, #661, #676, #38, #659 ) ) ;
#653 = CARTESIAN_POINT ( 'NONE',  ( -2.585886042071672275, 9.000000000000000000, -81.79106840947748935 ) ) ;
#654 = ADVANCED_FACE ( 'NONE', ( #699 ), #1190, .T. ) ;
#655 = SURFACE_STYLE_USAGE ( .BOTH. , #455 ) ;
#656 = VERTEX_POINT ( 'NONE', #1002 ) ;
#657 = VERTEX_POINT ( 'NONE', #119 ) ;
#658 = CARTESIAN_POINT ( 'NONE',  ( -16.16773349595811737, 0.000000000000000000, -3.907055864655816890 ) ) ;
#659 = ORIENTED_EDGE ( 'NONE', *, *, #304, .F. ) ;
#660 = CARTESIAN_POINT ( 'NONE',  ( -20.98969858723280879, 18.00000000000000000, -5.229422174922485844 ) ) ;
#661 = ORIENTED_EDGE ( 'NONE', *, *, #827, .F. ) ;
#662 = ORIENTED_EDGE ( 'NONE', *, *, #821, .F. ) ;
#663 = AXIS2_PLACEMENT_3D ( 'NONE', #319, #783, #420 ) ;
#664 = CARTESIAN_POINT ( 'NONE',  ( 0.000000000000000000, 0.000000000000000000, 0.000000000000000000 ) ) ;
#665 = EDGE_LOOP ( 'NONE', ( #234, #708, #1144, #1048 ) ) ;
#666 = AXIS2_PLACEMENT_3D ( 'NONE', #592, #1266, #277 ) ;
#667 = CARTESIAN_POINT ( 'NONE',  ( 4.999999999999997335, 0.000000000000000000, -46.48823180562273194 ) ) ;
#668 = EDGE_CURVE ( 'NONE', #159, #845, #333, .T. ) ;
#669 = ORIENTED_EDGE ( 'NONE', *, *, #20, .F. ) ;
#670 = AXIS2_PLACEMENT_3D ( 'NONE', #227, #884, #807 ) ;
#671 = ORIENTED_EDGE ( 'NONE', *, *, #276, .F. ) ;
#672 = EDGE_CURVE ( 'NONE', #1183, #211, #976, .T. ) ;
#673 = CARTESIAN_POINT ( 'NONE',  ( 7.499999999999996447, 0.000000000000000000, -49.99999999999955236 ) ) ;
#674 = VERTEX_POINT ( 'NONE', #885 ) ;
#675 = LINE ( 'NONE', #660, #111 ) ;
#676 = ORIENTED_EDGE ( 'NONE', *, *, #803, .T. ) ;
#677 = VERTEX_POINT ( 'NONE', #125 ) ;
#678 = DIRECTION ( 'NONE',  ( -0.000000000000000000, 1.000000000000000000, -0.000000000000000000 ) ) ;
#679 = VERTEX_POINT ( 'NONE', #1036 ) ;
#680 = CARTESIAN_POINT ( 'NONE',  ( 6.035533905932735976, 18.00000000000000000, -32.24281492697224394 ) ) ;
#681 = EDGE_LOOP ( 'NONE', ( #385, #682, #951, #564, #701, #787, #752, #179, #301, #1258, #556, #362, #313 ) ) ;
#682 = ORIENTED_EDGE ( 'NONE', *, *, #428, .T. ) ;
#683 = DIRECTION ( 'NONE',  ( 0.000000000000000000, 1.000000000000000000, 0.000000000000000000 ) ) ;
#684 = ADVANCED_FACE ( 'NONE', ( #733 ), #926, .T. ) ;
#685 = DIRECTION ( 'NONE',  ( -0.000000000000000000, -1.000000000000000000, -0.000000000000000000 ) ) ;
#686 = CIRCLE ( 'NONE', #1076, 2.250000000000001776 ) ;
#687 = AXIS2_PLACEMENT_3D ( 'NONE', #1021, #559, #351 ) ;
#688 = ORIENTED_EDGE ( 'NONE', *, *, #1001, .F. ) ;
#689 = CIRCLE ( 'NONE', #52, 10.00000000000000000 ) ;
#690 = DIRECTION ( 'NONE',  ( -1.223316414399868618E-17, 0.000000000000000000, 1.000000000000000000 ) ) ;
#691 =( BOUNDED_CURVE ( )  B_SPLINE_CURVE ( 3, ( #945, #961, #480, #66 ),
 .UNSPECIFIED., .F., .F. ) 
 B_SPLINE_CURVE_WITH_KNOTS ( ( 4, 4 ),
 ( 4.712388980384689674, 6.283185307179585344 ),
 .UNSPECIFIED. ) 
 CURVE ( )  GEOMETRIC_REPRESENTATION_ITEM ( )  RATIONAL_B_SPLINE_CURVE ( ( 1.000000000000000000, 0.8047378541243649375, 0.8047378541243649375, 1.000000000000000000 ) ) 
 REPRESENTATION_ITEM ( '' )  );
#692 = DIRECTION ( 'NONE',  ( 0.9643930182549379504, -0.000000000000000000, 0.2644732620533332135 ) ) ;
#693 = DIRECTION ( 'NONE',  ( 0.000000000000000000, -1.000000000000000000, 0.000000000000000000 ) ) ;
#694 = ADVANCED_FACE ( 'NONE', ( #139 ), #145, .T. ) ;
#695 = FACE_BOUND ( 'NONE', #937, .T. ) ;
#696 = ORIENTED_EDGE ( 'NONE', *, *, #45, .F. ) ;
#697 = CARTESIAN_POINT ( 'NONE',  ( 4.999999999999998224, 0.000000000000000000, -85.14486490616359049 ) ) ;
#698 = FACE_OUTER_BOUND ( 'NONE', #652, .T. ) ;
#699 = FACE_OUTER_BOUND ( 'NONE', #552, .T. ) ;
#700 = FACE_OUTER_BOUND ( 'NONE', #944, .T. ) ;
#701 = ORIENTED_EDGE ( 'NONE', *, *, #61, .T. ) ;
#702 = CARTESIAN_POINT ( 'NONE',  ( -27.09561478503027132, 9.000000000000000000, -1.869903166054073695 ) ) ;
#703 = DIRECTION ( 'NONE',  ( 0.000000000000000000, 0.7022888664850418516, -0.7118920901450972449 ) ) ;
#704 = AXIS2_PLACEMENT_3D ( 'NONE', #1089, #17, #795 ) ;
#705 = AXIS2_PLACEMENT_3D ( 'NONE', #1205, #447, #1022 ) ;
#706 = CARTESIAN_POINT ( 'NONE',  ( -20.90380984571846312, 18.00000000000000000, 15.61289017892625886 ) ) ;
#707 = VECTOR ( 'NONE', #685, 1000.000000000000000 ) ;
#708 = ORIENTED_EDGE ( 'NONE', *, *, #842, .F. ) ;
#709 = ADVANCED_FACE ( 'NONE', ( #42 ), #439, .F. ) ;
#710 = CIRCLE ( 'NONE', #326, 2.500000000000002220 ) ;
#711 = EDGE_CURVE ( 'NONE', #558, #91, #1140, .T. ) ;
#712 = CARTESIAN_POINT ( 'NONE',  ( 9.999999999999991118, 18.00000000000000000, -99.99999999999906208 ) ) ;
#713 = AXIS2_PLACEMENT_3D ( 'NONE', #522, #335, #409 ) ;
#714 = CARTESIAN_POINT ( 'NONE',  ( 7.499999999999998224, -10.20430779190339265, -56.55488636134291625 ) ) ;
#715 = CARTESIAN_POINT ( 'NONE',  ( 0.000000000000000000, 18.00000000000000000, -2.250000000000000000 ) ) ;
#716 = LINE ( 'NONE', #722, #1233 ) ;
#717 = ADVANCED_FACE ( 'NONE', ( #1122 ), #537, .T. ) ;
#718 = DIRECTION ( 'NONE',  ( 0.000000000000000000, 0.000000000000000000, -1.000000000000000000 ) ) ;
#719 = FACE_OUTER_BOUND ( 'NONE', #1130, .T. ) ;
#720 = VERTEX_POINT ( 'NONE', #337 ) ;
#721 = FACE_OUTER_BOUND ( 'NONE', #989, .T. ) ;
#722 = CARTESIAN_POINT ( 'NONE',  ( 0.000000000000000000, 18.00000000000000000, -2.250000000000000000 ) ) ;
#723 = DIRECTION ( 'NONE',  ( -0.000000000000000000, -1.000000000000000000, -0.000000000000000000 ) ) ;
#724 = EDGE_CURVE ( 'NONE', #677, #199, #445, .T. ) ;
#725 =( NAMED_UNIT ( * ) PLANE_ANGLE_UNIT ( ) SI_UNIT ( $, .RADIAN. ) );
#726 = ORIENTED_EDGE ( 'NONE', *, *, #1200, .T. ) ;
#727 = DIRECTION ( 'NONE',  ( 0.000000000000000000, 1.000000000000000000, 0.000000000000000000 ) ) ;
#728 = CIRCLE ( 'NONE', #663, 2.500000000000000000 ) ;
#729 = LINE ( 'NONE', #814, #930 ) ;
#730 = CIRCLE ( 'NONE', #705, 2.250000000000000000 ) ;
#731 = AXIS2_PLACEMENT_3D ( 'NONE', #340, #250, #243 ) ;
#732 = VECTOR ( 'NONE', #1029, 1000.000000000000000 ) ;
#733 = FACE_OUTER_BOUND ( 'NONE', #87, .T. ) ;
#734 = AXIS2_PLACEMENT_3D ( 'NONE', #1011, #1104, #718 ) ;
#735 = EDGE_LOOP ( 'NONE', ( #165, #1174, #669, #457 ) ) ;
#736 = DIRECTION ( 'NONE',  ( 0.2644732620533331025, 0.000000000000000000, -0.9643930182549378394 ) ) ;
#737 = EDGE_CURVE ( 'NONE', #1082, #962, #290, .T. ) ;
#738 = DIRECTION ( 'NONE',  ( -0.000000000000000000, -1.000000000000000000, -0.000000000000000000 ) ) ;
#739 = CARTESIAN_POINT ( 'NONE',  ( 9.999999999999992895, 0.000000000000000000, -81.58229419209513367 ) ) ;
#740 = APPLICATION_PROTOCOL_DEFINITION ( 'draft international standard', 'automotive_design', 1998, #1255 ) ;
#741 = EDGE_LOOP ( 'NONE', ( #688, #397, #599, #1243 ) ) ;
#742 = LINE ( 'NONE', #634, #175 ) ;
#743 = DIRECTION ( 'NONE',  ( 0.000000000000000000, -1.000000000000000000, 0.000000000000000000 ) ) ;
#744 = DIRECTION ( 'NONE',  ( -0.000000000000000000, -1.000000000000000000, -0.000000000000000000 ) ) ;
#745 = ORIENTED_EDGE ( 'NONE', *, *, #302, .F. ) ;
#746 = DIRECTION ( 'NONE',  ( -0.000000000000000000, -1.000000000000000000, -0.000000000000000000 ) ) ;
#747 = PLANE ( 'NONE',  #4 ) ;
#748 = EDGE_CURVE ( 'NONE', #1247, #1256, #348, .T. ) ;
#749 = VERTEX_POINT ( 'NONE', #1019 ) ;
#750 = EDGE_CURVE ( 'NONE', #1024, #720, #650, .T. ) ;
#751 = CYLINDRICAL_SURFACE ( 'NONE', #548, 2.250000000000001776 ) ;
#752 = ORIENTED_EDGE ( 'NONE', *, *, #553, .T. ) ;
#753 = VECTOR ( 'NONE', #797, 1000.000000000000000 ) ;
#754 = LINE ( 'NONE', #628, #833 ) ;
#755 =( NAMED_UNIT ( * ) PLANE_ANGLE_UNIT ( ) SI_UNIT ( $, .RADIAN. ) );
#756 = VERTEX_POINT ( 'NONE', #631 ) ;
#757 = ORIENTED_EDGE ( 'NONE', *, *, #368, .F. ) ;
#758 = LINE ( 'NONE', #763, #506 ) ;
#759 = VERTEX_POINT ( 'NONE', #1211 ) ;
#760 = DIRECTION ( 'NONE',  ( 0.000000000000000000, 0.000000000000000000, -1.000000000000000000 ) ) ;
#761 = ORIENTED_EDGE ( 'NONE', *, *, #858, .F. ) ;
#762 = VERTEX_POINT ( 'NONE', #739 ) ;
#763 = CARTESIAN_POINT ( 'NONE',  ( -30.54774002826776425, 18.00000000000000000, 10.71815755839265094 ) ) ;
#764 = ORIENTED_EDGE ( 'NONE', *, *, #3, .T. ) ;
#765 = ADVANCED_FACE ( 'NONE', ( #916 ), #828, .T. ) ;
#766 = LINE ( 'NONE', #88, #623 ) ;
#767 = ORIENTED_EDGE ( 'NONE', *, *, #317, .T. ) ;
#768 = EDGE_LOOP ( 'NONE', ( #793, #578, #481, #1242, #81, #561, #344, #1167, #386, #886 ) ) ;
#769 = CARTESIAN_POINT ( 'NONE',  ( 0.000000000000000000, 0.000000000000000000, -14.24237984354700615 ) ) ;
#770 = VECTOR ( 'NONE', #746, 1000.000000000000000 ) ;
#771 = ORIENTED_EDGE ( 'NONE', *, *, #821, .T. ) ;
#772 = CYLINDRICAL_SURFACE ( 'NONE', #1136, 2.250000000000001776 ) ;
#773 = VECTOR ( 'NONE', #222, 1000.000000000000227 ) ;
#774 = AXIS2_PLACEMENT_3D ( 'NONE', #563, #369, #164 ) ;
#775 = ADVANCED_FACE ( 'NONE', ( #58 ), #751, .F. ) ;
#776 = EDGE_LOOP ( 'NONE', ( #241, #1208, #493, #1147, #479, #287 ) ) ;
#777 = AXIS2_PLACEMENT_3D ( 'NONE', #224, #919, #214 ) ;
#778 = ORIENTED_EDGE ( 'NONE', *, *, #1186, .T. ) ;
#779 = CARTESIAN_POINT ( 'NONE',  ( 4.332851387010890676, 18.00000000000000000, -92.79470861319066444 ) ) ;
#780 = ORIENTED_EDGE ( 'NONE', *, *, #406, .T. ) ;
#781 = CARTESIAN_POINT ( 'NONE',  ( -15.51771948742469043, 18.00000000000000000, 21.78844835938496871 ) ) ;
#782 = ORIENTED_EDGE ( 'NONE', *, *, #331, .T. ) ;
#783 = DIRECTION ( 'NONE',  ( -0.000000000000000000, -1.000000000000000000, 0.000000000000000000 ) ) ;
#784 = EDGE_CURVE ( 'NONE', #594, #1046, #1133, .T. ) ;
#785 = CARTESIAN_POINT ( 'NONE',  ( -20.90380984571846312, 18.00000000000000000, 13.36289017892626063 ) ) ;
#786 = EDGE_LOOP ( 'NONE', ( #430, #645 ) ) ;
#787 = ORIENTED_EDGE ( 'NONE', *, *, #827, .T. ) ;
#788 = DIRECTION ( 'NONE',  ( -0.5386090358293531555, 0.000000000000000000, -0.8425558180458874169 ) ) ;
#789 = EDGE_CURVE ( 'NONE', #492, #759, #429, .T. ) ;
#790 = DIRECTION ( 'NONE',  ( 0.000000000000000000, -1.000000000000000000, 0.000000000000000000 ) ) ;
#791 = AXIS2_PLACEMENT_3D ( 'NONE', #983, #963, #382 ) ;
#792 = CIRCLE ( 'NONE', #954, 5.000000000000001776 ) ;
#793 = ORIENTED_EDGE ( 'NONE', *, *, #35, .T. ) ;
#794 = VECTOR ( 'NONE', #822, 1000.000000000000000 ) ;
#795 = DIRECTION ( 'NONE',  ( 0.000000000000000000, 0.000000000000000000, 1.000000000000000000 ) ) ;
#796 = VECTOR ( 'NONE', #638, 1000.000000000000000 ) ;
#797 = DIRECTION ( 'NONE',  ( -0.000000000000000000, -1.000000000000000000, -0.000000000000000000 ) ) ;
#798 = CARTESIAN_POINT ( 'NONE',  ( -4.335685432575668408, 18.00000000000000000, -84.86323411024815755 ) ) ;
#799 = CYLINDRICAL_SURFACE ( 'NONE', #626, 5.000000000000004441 ) ;
#800 = ORIENTED_EDGE ( 'NONE', *, *, #338, .F. ) ;
#801 = CARTESIAN_POINT ( 'NONE',  ( 4.999999999999989342, 18.00000000000000000, -105.0000000000000142 ) ) ;
#802 = CARTESIAN_POINT ( 'NONE',  ( -15.51771948742469043, 0.000000000000000000, 21.78844835938496871 ) ) ;
#803 = EDGE_CURVE ( 'NONE', #78, #1114, #1023, .T. ) ;
#804 = PLANE ( 'NONE',  #181 ) ;
#805 = EDGE_CURVE ( 'NONE', #1145, #594, #180, .T. ) ;
#806 = CARTESIAN_POINT ( 'NONE',  ( -23.33682390399132700, 9.000000000000000000, -1.703843954410612094 ) ) ;
#807 = DIRECTION ( 'NONE',  ( 0.000000000000000000, 0.000000000000000000, -1.000000000000000000 ) ) ;
#808 = CARTESIAN_POINT ( 'NONE',  ( -23.33682390399132700, 18.00000000000000000, -1.703843954410612094 ) ) ;
#809 = DIRECTION ( 'NONE',  ( 0.000000000000000000, 0.000000000000000000, -1.000000000000000000 ) ) ;
#810 = CIRCLE ( 'NONE', #1032, 2.000000000000001776 ) ;
#811 = DIRECTION ( 'NONE',  ( 0.000000000000000000, -0.000000000000000000, -1.000000000000000000 ) ) ;
#812 = AXIS2_PLACEMENT_3D ( 'NONE', #148, #1246, #1260 ) ;
#813 = AXIS2_PLACEMENT_3D ( 'NONE', #551, #723, #922 ) ;
#814 = CARTESIAN_POINT ( 'NONE',  ( 2.693045179146764223, 18.00000000000000000, -10.02960075331756862 ) ) ;
#815 = CIRCLE ( 'NONE', #223, 2.500000000000002220 ) ;
#816 = CARTESIAN_POINT ( 'NONE',  ( -1.924702886938330026, 18.00000000000000000, -81.70205095511482796 ) ) ;
#817 = LINE ( 'NONE', #798, #934 ) ;
#818 = ORIENTED_EDGE ( 'NONE', *, *, #936, .F. ) ;
#819 = FACE_OUTER_BOUND ( 'NONE', #189, .T. ) ;
#820 = PLANE ( 'NONE',  #47 ) ;
#821 = EDGE_CURVE ( 'NONE', #485, #845, #1225, .T. ) ;
#822 = DIRECTION ( 'NONE',  ( -0.000000000000000000, -1.000000000000000000, -0.000000000000000000 ) ) ;
#823 = LINE ( 'NONE', #1129, #796 ) ;
#824 = EDGE_LOOP ( 'NONE', ( #865, #375, #163, #1254 ) ) ;
#825 = DIRECTION ( 'NONE',  ( -0.000000000000000000, -1.000000000000000000, -0.000000000000000000 ) ) ;
#826 = FILL_AREA_STYLE ('',( #905 ) ) ;
#827 = EDGE_CURVE ( 'NONE', #78, #399, #758, .T. ) ;
#828 = CYLINDRICAL_SURFACE ( 'NONE', #567, 10.00000000000000000 ) ;
#829 = EDGE_CURVE ( 'NONE', #845, #527, #365, .T. ) ;
#830 = ORIENTED_EDGE ( 'NONE', *, *, #750, .F. ) ;
#831 = CARTESIAN_POINT ( 'NONE',  ( 8.964466094067258695, 0.000000000000000000, -49.99999999999955236 ) ) ;
#832 = FACE_OUTER_BOUND ( 'NONE', #497, .T. ) ;
#833 = VECTOR ( 'NONE', #270, 1000.000000000000000 ) ;
#834 = VECTOR ( 'NONE', #1152, 1000.000000000000000 ) ;
#835 = CARTESIAN_POINT ( 'NONE',  ( 4.999999999999989342, 18.00000000000000000, -100.0000000000000000 ) ) ;
#836 = DIRECTION ( 'NONE',  ( 0.000000000000000000, 0.000000000000000000, 1.000000000000000000 ) ) ;
#837 = ORIENTED_EDGE ( 'NONE', *, *, #444, .F. ) ;
#838 = CARTESIAN_POINT ( 'NONE',  ( -20.90380984571846312, 18.00000000000000000, 13.36289017892626063 ) ) ;
#839 = CARTESIAN_POINT ( 'NONE',  ( -20.90380984571845602, 18.00000000000000000, 13.36289017892624464 ) ) ;
#840 = VERTEX_POINT ( 'NONE', #953 ) ;
#841 = DIRECTION ( 'NONE',  ( 0.000000000000000000, 1.000000000000000000, -0.000000000000000000 ) ) ;
#842 = EDGE_CURVE ( 'NONE', #177, #126, #1257, .T. ) ;
#843 = FACE_OUTER_BOUND ( 'NONE', #261, .T. ) ;
#844 = EDGE_CURVE ( 'NONE', #1153, #1057, #1264, .T. ) ;
#845 = VERTEX_POINT ( 'NONE', #396 ) ;
#846 = DIRECTION ( 'NONE',  ( -0.000000000000000000, -1.000000000000000000, -0.000000000000000000 ) ) ;
#847 = ORIENTED_EDGE ( 'NONE', *, *, #858, .T. ) ;
#848 = CARTESIAN_POINT ( 'NONE',  ( -20.98969858723281234, 18.00000000000000000, -5.229422174922484068 ) ) ;
#849 = STYLED_ITEM ( 'NONE', ( #63 ), #194 ) ;
#850 = EDGE_LOOP ( 'NONE', ( #468, #84, #350, #800 ) ) ;
#851 = CARTESIAN_POINT ( 'NONE',  ( -20.94712710131359046, 18.00000000000000000, -2.438247924492347618 ) ) ;
#852 = ORIENTED_EDGE ( 'NONE', *, *, #979, .F. ) ;
#853 = AXIS2_PLACEMENT_3D ( 'NONE', #355, #1218, #1206 ) ;
#854 = CARTESIAN_POINT ( 'NONE',  ( 9.999999999999996447, 0.000000000000000000, -46.48823180562271773 ) ) ;
#855 = DIRECTION ( 'NONE',  ( 0.000000000000000000, 0.000000000000000000, -1.000000000000000000 ) ) ;
#856 = ORIENTED_EDGE ( 'NONE', *, *, #120, .F. ) ;
#857 = ORIENTED_EDGE ( 'NONE', *, *, #120, .T. ) ;
#858 = EDGE_CURVE ( 'NONE', #759, #1262, #998, .T. ) ;
#859 = DIRECTION ( 'NONE',  ( -0.000000000000000000, -1.000000000000000000, 0.000000000000000000 ) ) ;
#860 = ORIENTED_EDGE ( 'NONE', *, *, #1051, .F. ) ;
#861 = DIRECTION ( 'NONE',  ( -0.000000000000000000, -1.000000000000000000, -0.000000000000000000 ) ) ;
#862 = ORIENTED_EDGE ( 'NONE', *, *, #1105, .F. ) ;
#863 = ORIENTED_EDGE ( 'NONE', *, *, #536, .T. ) ;
#864 = DIRECTION ( 'NONE',  ( 0.9386673526265887357, 0.000000000000000000, -0.3448240146987898713 ) ) ;
#865 = ORIENTED_EDGE ( 'NONE', *, *, #960, .F. ) ;
#866 = DIRECTION ( 'NONE',  ( 0.000000000000000000, 0.000000000000000000, -1.000000000000000000 ) ) ;
#867 = ADVANCED_FACE ( 'NONE', ( #1166 ), #75, .F. ) ;
#868 = VERTEX_POINT ( 'NONE', #571 ) ;
#869 = ORIENTED_EDGE ( 'NONE', *, *, #546, .T. ) ;
#870 = DIRECTION ( 'NONE',  ( -0.000000000000000000, -1.000000000000000000, -0.000000000000000000 ) ) ;
#871 = AXIS2_PLACEMENT_3D ( 'NONE', #398, #299, #760 ) ;
#872 = VERTEX_POINT ( 'NONE', #779 ) ;
#873 = LINE ( 'NONE', #994, #1034 ) ;
#874 = CIRCLE ( 'NONE', #777, 2.500000000000002220 ) ;
#875 = ORIENTED_EDGE ( 'NONE', *, *, #553, .F. ) ;
#876 = CARTESIAN_POINT ( 'NONE',  ( 4.999999999999989342, 18.00000000000000000, -100.0000000000000000 ) ) ;
#877 = FACE_OUTER_BOUND ( 'NONE', #1062, .T. ) ;
#878 = EDGE_LOOP ( 'NONE', ( #985, #764 ) ) ;
#879 = DIRECTION ( 'NONE',  ( -0.000000000000000000, -1.000000000000000000, -0.000000000000000000 ) ) ;
#880 = EDGE_CURVE ( 'NONE', #749, #177, #689, .T. ) ;
#881 = VERTEX_POINT ( 'NONE', #1249 ) ;
#882 = ORIENTED_EDGE ( 'NONE', *, *, #1253, .T. ) ;
#883 = EDGE_CURVE ( 'NONE', #492, #917, #691, .T. ) ;
#884 = DIRECTION ( 'NONE',  ( 0.000000000000000000, 1.000000000000000000, -0.000000000000000000 ) ) ;
#885 = CARTESIAN_POINT ( 'NONE',  ( 2.999999999999999112, 18.00000000000000000, -87.14486490616359049 ) ) ;
#886 = ORIENTED_EDGE ( 'NONE', *, *, #286, .F. ) ;
#887 = DIRECTION ( 'NONE',  ( 0.000000000000000000, 1.000000000000000000, 0.000000000000000000 ) ) ;
#888 = EDGE_CURVE ( 'NONE', #1141, #1052, #815, .T. ) ;
#889 = DIRECTION ( 'NONE',  ( 0.000000000000000000, -0.000000000000000000, -1.000000000000000000 ) ) ;
#890 = DIRECTION ( 'NONE',  ( -1.040834085586094610E-16, -0.000000000000000000, -1.000000000000000000 ) ) ;
#891 = VECTOR ( 'NONE', #879, 1000.000000000000000 ) ;
#892 = FACE_BOUND ( 'NONE', #192, .T. ) ;
#893 = VECTOR ( 'NONE', #890, 1000.000000000000000 ) ;
#894 = DIRECTION ( 'NONE',  ( 0.000000000000000000, 1.000000000000000000, -0.000000000000000000 ) ) ;
#895 = VECTOR ( 'NONE', #37, 1000.000000000000000 ) ;
#896 = DIRECTION ( 'NONE',  ( 0.000000000000000000, 0.000000000000000000, 1.000000000000000000 ) ) ;
#897 = EDGE_CURVE ( 'NONE', #581, #917, #280, .T. ) ;
#898 = DIRECTION ( 'NONE',  ( 0.000000000000000000, 0.7022888664850418516, -0.7118920901450972449 ) ) ;
#899 = FACE_OUTER_BOUND ( 'NONE', #79, .T. ) ;
#900 = DIRECTION ( 'NONE',  ( 0.000000000000000000, 1.000000000000000000, -0.000000000000000000 ) ) ;
#901 = CARTESIAN_POINT ( 'NONE',  ( -15.51771948742469043, 18.00000000000000000, 21.78844835938496871 ) ) ;
#902 = CARTESIAN_POINT ( 'NONE',  ( 4.332851387010890676, 0.000000000000000000, -95.04470861319066444 ) ) ;
#903 = APPLICATION_PROTOCOL_DEFINITION ( 'draft international standard', 'automotive_design', 1998, #642 ) ;
#904 = PLANE ( 'NONE',  #1121 ) ;
#905 = FILL_AREA_STYLE_COLOUR ( '', #260 ) ;
#906 = LINE ( 'NONE', #401, #508 ) ;
#907 = CARTESIAN_POINT ( 'NONE',  ( 7.499999999999998224, 18.00000000000000000, -32.24281492697222973 ) ) ;
#908 = CARTESIAN_POINT ( 'NONE',  ( -25.54669227613990046, 9.000000000000000000, -3.555388392487212723 ) ) ;
#909 = CIRCLE ( 'NONE', #542, 2.249999999999998668 ) ;
#910 = VERTEX_POINT ( 'NONE', #851 ) ;
#911 = DIRECTION ( 'NONE',  ( -0.000000000000000000, -1.000000000000000000, -0.000000000000000000 ) ) ;
#912 = ADVANCED_FACE ( 'NONE', ( #877 ), #374, .F. ) ;
#913 = VECTOR ( 'NONE', #513, 1000.000000000000000 ) ;
#914 = CARTESIAN_POINT ( 'NONE',  ( 7.499999999999998224, 18.00000000000000000, -79.08229419209513367 ) ) ;
#915 = AXIS2_PLACEMENT_3D ( 'NONE', #151, #935, #54 ) ;
#916 = FACE_OUTER_BOUND ( 'NONE', #65, .T. ) ;
#917 = VERTEX_POINT ( 'NONE', #673 ) ;
#918 = ORIENTED_EDGE ( 'NONE', *, *, #636, .F. ) ;
#919 = DIRECTION ( 'NONE',  ( -0.000000000000000000, -1.000000000000000000, 0.000000000000000000 ) ) ;
#920 = DIRECTION ( 'NONE',  ( 0.000000000000000000, -1.000000000000000000, 0.000000000000000000 ) ) ;
#921 = EDGE_CURVE ( 'NONE', #91, #103, #387, .T. ) ;
#922 = DIRECTION ( 'NONE',  ( 0.000000000000000000, 0.000000000000000000, -1.000000000000000000 ) ) ;
#923 = ORIENTED_EDGE ( 'NONE', *, *, #109, .T. ) ;
#924 = CARTESIAN_POINT ( 'NONE',  ( 7.499999999999996447, 0.000000000000000000, -49.99999999999955236 ) ) ;
#925 = DIRECTION ( 'NONE',  ( 0.000000000000000000, -1.000000000000000000, 0.000000000000000000 ) ) ;
#926 = CYLINDRICAL_SURFACE ( 'NONE', #644, 5.000000000000004441 ) ;
#927 = ORIENTED_EDGE ( 'NONE', *, *, #507, .T. ) ;
#928 = DIRECTION ( 'NONE',  ( -0.000000000000000000, -1.000000000000000000, -0.000000000000000000 ) ) ;
#929 = VECTOR ( 'NONE', #2, 999.9999999999998863 ) ;
#930 = VECTOR ( 'NONE', #524, 1000.000000000000000 ) ;
#931 = CARTESIAN_POINT ( 'NONE',  ( 2.999999999999999112, 0.000000000000000000, -85.14486490616359049 ) ) ;
#932 = AXIS2_PLACEMENT_3D ( 'NONE', #451, #68, #943 ) ;
#933 = AXIS2_PLACEMENT_3D ( 'NONE', #714, #15, #703 ) ;
#934 = VECTOR ( 'NONE', #1202, 1000.000000000000000 ) ;
#935 = DIRECTION ( 'NONE',  ( 0.000000000000000000, 1.000000000000000000, 0.000000000000000000 ) ) ;
#936 = EDGE_CURVE ( 'NONE', #281, #314, #710, .T. ) ;
#937 = EDGE_LOOP ( 'NONE', ( #965, #857 ) ) ;
#938 = CARTESIAN_POINT ( 'NONE',  ( -1.924702886938330026, 18.00000000000000000, -84.20205095511482796 ) ) ;
#939 = ADVANCED_FACE ( 'NONE', ( #1047 ), #583, .F. ) ;
#940 = CARTESIAN_POINT ( 'NONE',  ( 4.999999999999998224, 18.00000000000000000, -85.14486490616359049 ) ) ;
#941 = CARTESIAN_POINT ( 'NONE',  ( -20.90380984571845602, 18.00000000000000000, 13.36289017892624464 ) ) ;
#942 = ORIENTED_EDGE ( 'NONE', *, *, #672, .F. ) ;
#943 = DIRECTION ( 'NONE',  ( 0.000000000000000000, 0.000000000000000000, -1.000000000000000000 ) ) ;
#944 = EDGE_LOOP ( 'NONE', ( #253, #860, #390, #1070 ) ) ;
#945 = CARTESIAN_POINT ( 'NONE',  ( 4.999999999999997335, 0.000000000000000000, -46.48823180562273194 ) ) ;
#946 = ORIENTED_EDGE ( 'NONE', *, *, #144, .F. ) ;
#947 = CARTESIAN_POINT ( 'NONE',  ( -30.54774002826776425, 0.000000000000000000, 10.71815755839265094 ) ) ;
#948 = CARTESIAN_POINT ( 'NONE',  ( -13.47468831681135271, 18.00000000000000000, 0.3057232255736196391 ) ) ;
#949 = EDGE_CURVE ( 'NONE', #868, #292, #486, .T. ) ;
#950 = AXIS2_PLACEMENT_3D ( 'NONE', #1216, #30, #22 ) ;
#951 = ORIENTED_EDGE ( 'NONE', *, *, #104, .T. ) ;
#952 = ORIENTED_EDGE ( 'NONE', *, *, #395, .T. ) ;
#953 = CARTESIAN_POINT ( 'NONE',  ( 2.999999999999999112, 0.000000000000000000, -87.14486490616359049 ) ) ;
#954 = AXIS2_PLACEMENT_3D ( 'NONE', #1091, #1012, #327 ) ;
#955 = ORIENTED_EDGE ( 'NONE', *, *, #97, .T. ) ;
#956 = DIRECTION ( 'NONE',  ( -1.040834085586094610E-16, -0.000000000000000000, -1.000000000000000000 ) ) ;
#957 = AXIS2_PLACEMENT_3D ( 'NONE', #1094, #220, #889 ) ;
#958 = EDGE_LOOP ( 'NONE', ( #93, #169, #620, #1093 ) ) ;
#959 = ORIENTED_EDGE ( 'NONE', *, *, #1251, .F. ) ;
#960 = EDGE_CURVE ( 'NONE', #572, #281, #1138, .T. ) ;
#961 = CARTESIAN_POINT ( 'NONE',  ( 4.999999999999996447, 0.000000000000000000, -48.54537798597820597 ) ) ;
#962 = VERTEX_POINT ( 'NONE', #901 ) ;
#963 = DIRECTION ( 'NONE',  ( 0.000000000000000000, 1.000000000000000000, 0.000000000000000000 ) ) ;
#964 = ORIENTED_EDGE ( 'NONE', *, *, #789, .F. ) ;
#965 = ORIENTED_EDGE ( 'NONE', *, *, #1078, .T. ) ;
#966 = CARTESIAN_POINT ( 'NONE',  ( -1.924702886938325141, 9.000000000000000000, -84.20205095511482796 ) ) ;
#967 = ORIENTED_EDGE ( 'NONE', *, *, #377, .T. ) ;#968 = CARTESIAN_POINT ( 'NONE',  ( 7.499999999999998224, 18.00000000000000000, -79.08229419209513367 ) ) ;
#969 = ORIENTED_EDGE ( 'NONE', *, *, #109, .F. ) ;
#970 = VERTEX_POINT ( 'NONE', #405 ) ;
#971 = VECTOR ( 'NONE', #690, 1000.000000000000000 ) ;
#972 = PRESENTATION_LAYER_ASSIGNMENT (  '', '', ( #849 ) ) ;
#973 = CARTESIAN_POINT ( 'NONE',  ( 10.00000000000000178, 18.00000000000000000, -5.196013828848716574E-14 ) ) ;
#974 = AXIS2_PLACEMENT_3D ( 'NONE', #938, #841, #1227 ) ;
#975 = ORIENTED_EDGE ( 'NONE', *, *, #579, .F. ) ;
#976 = CIRCLE ( 'NONE', #1096, 2.499999999999999556 ) ;
#977 = ADVANCED_FACE ( 'NONE', ( #411 ), #18, .T. ) ;
#978 = CARTESIAN_POINT ( 'NONE',  ( -4.335685432575668408, 18.00000000000000000, -84.86323411024818597 ) ) ;
#979 = EDGE_CURVE ( 'NONE', #476, #199, #1184, .T. ) ;
#980 = VERTEX_POINT ( 'NONE', #110 ) ;
#981 = ORIENTED_EDGE ( 'NONE', *, *, #1253, .F. ) ;
#982 = DIRECTION ( 'NONE',  ( 0.000000000000000000, 0.000000000000000000, -1.000000000000000000 ) ) ;
#983 = CARTESIAN_POINT ( 'NONE',  ( -20.90380984571846312, 18.00000000000000000, 13.36289017892626063 ) ) ;
#984 = ORIENTED_EDGE ( 'NONE', *, *, #433, .F. ) ;
#985 = ORIENTED_EDGE ( 'NONE', *, *, #21, .T. ) ;
#986 = CARTESIAN_POINT ( 'NONE',  ( 4.999999999999998224, 0.000000000000000000, -85.14486490616359049 ) ) ;
#987 = DIRECTION ( 'NONE',  ( 0.000000000000000000, 0.000000000000000000, -1.000000000000000000 ) ) ;
#988 = CARTESIAN_POINT ( 'NONE',  ( -2.585886042071666502, 18.00000000000000000, -81.79106840947748935 ) ) ;
#989 = EDGE_LOOP ( 'NONE', ( #370, #782, #378, #393 ) ) ;
#990 = DIRECTION ( 'NONE',  ( 0.000000000000000000, 0.000000000000000000, 1.000000000000000000 ) ) ;
#991 = ADVANCED_FACE ( 'NONE', ( #416 ), #612, .F. ) ;
#992 = DIRECTION ( 'NONE',  ( 0.8425558180458874169, 0.000000000000000000, -0.5386090358293531555 ) ) ;
#993 = AXIS2_PLACEMENT_3D ( 'NONE', #432, #1224, #255 ) ;
#994 = CARTESIAN_POINT ( 'NONE',  ( 2.999999999999999112, 18.00000000000000000, -87.14486490616359049 ) ) ;
#995 = VECTOR ( 'NONE', #51, 1000.000000000000000 ) ;
#996 = AXIS2_PLACEMENT_3D ( 'NONE', #190, #184, #1065 ) ;
#997 = PLANE ( 'NONE',  #1161 ) ;
#998 = CIRCLE ( 'NONE', #1159, 5.000000000000000888 ) ;
#999 = CARTESIAN_POINT ( 'NONE',  ( -20.90380984571846312, 0.000000000000000000, 13.36289017892626063 ) ) ;
#1000 = CYLINDRICAL_SURFACE ( 'NONE', #648, 2.500000000000000000 ) ;
#1001 = EDGE_CURVE ( 'NONE', #103, #1262, #315, .T. ) ;
#1002 = CARTESIAN_POINT ( 'NONE',  ( 0.4862796586990181247, 18.00000000000000000, -83.54086779998151258 ) ) ;
#1003 =( BOUNDED_CURVE ( )  B_SPLINE_CURVE ( 3, ( #235, #322, #621, #610 ),
 .UNSPECIFIED., .F., .F. ) 
 B_SPLINE_CURVE_WITH_KNOTS ( ( 4, 4 ),
 ( 4.712388980384693227, 6.283185307179586232 ),
 .UNSPECIFIED. ) 
 CURVE ( )  GEOMETRIC_REPRESENTATION_ITEM ( )  RATIONAL_B_SPLINE_CURVE ( ( 1.000000000000000000, 0.8047378541243658256, 0.8047378541243658256, 1.000000000000000000 ) ) 
 REPRESENTATION_ITEM ( '' )  );
#1004 = FACE_BOUND ( 'NONE', #878, .T. ) ;
#1005 = CARTESIAN_POINT ( 'NONE',  ( 0.000000000000000000, 9.000000000000000000, 0.000000000000000000 ) ) ;
#1006 = CARTESIAN_POINT ( 'NONE',  ( -13.47468831681135271, 0.000000000000000000, 0.3057232255736196391 ) ) ;
#1007 = DIRECTION ( 'NONE',  ( -0.000000000000000000, -1.000000000000000000, -0.000000000000000000 ) ) ;
#1008 = EDGE_CURVE ( 'NONE', #574, #379, #906, .T. ) ;
#1009 = DIRECTION ( 'NONE',  ( -0.000000000000000000, -1.000000000000000000, -0.000000000000000000 ) ) ;
#1010 = DIRECTION ( 'NONE',  ( 0.000000000000000000, 0.000000000000000000, -1.000000000000000000 ) ) ;
#1011 = CARTESIAN_POINT ( 'NONE',  ( -23.33682390399132700, 18.00000000000000000, -1.703843954410612094 ) ) ;
#1012 = DIRECTION ( 'NONE',  ( -0.000000000000000000, 1.000000000000000000, -0.000000000000000000 ) ) ;
#1013 = ORIENTED_EDGE ( 'NONE', *, *, #219, .T. ) ;
#1014 = PLANE ( 'NONE',  #115 ) ;
#1015 = CIRCLE ( 'NONE', #812, 2.500000000000000444 ) ;
#1016 = ADVANCED_FACE ( 'NONE', ( #505 ), #1000, .T. ) ;
#1017 = DIRECTION ( 'NONE',  ( -0.000000000000000000, -1.000000000000000000, -0.000000000000000000 ) ) ;
#1018 = AXIS2_PLACEMENT_3D ( 'NONE', #252, #532, #31 ) ;
#1019 = CARTESIAN_POINT ( 'NONE',  ( 5.386090358293497360, 18.00000000000000000, 8.425558180458891044 ) ) ;
#1020 = ORIENTED_EDGE ( 'NONE', *, *, #176, .T. ) ;
#1021 = CARTESIAN_POINT ( 'NONE',  ( 0.000000000000000000, 18.00000000000000000, -14.24237984354700615 ) ) ;
#1022 = DIRECTION ( 'NONE',  ( 0.000000000000000000, 0.000000000000000000, 1.000000000000000000 ) ) ;
#1023 = LINE ( 'NONE', #452, #732 ) ;
#1024 = VERTEX_POINT ( 'NONE', #117 ) ;
#1025 = FACE_OUTER_BOUND ( 'NONE', #356, .T. ) ;
#1026 = CYLINDRICAL_SURFACE ( 'NONE', #90, 2.500000000000002220 ) ;
#1027 = EDGE_CURVE ( 'NONE', #1046, #126, #1217, .T. ) ;
#1028 = ADVANCED_FACE ( 'NONE', ( #698 ), #1077, .F. ) ;
#1029 = DIRECTION ( 'NONE',  ( -0.000000000000000000, -1.000000000000000000, -0.000000000000000000 ) ) ;
#1030 = ORIENTED_EDGE ( 'NONE', *, *, #1008, .T. ) ;
#1031 = DIRECTION ( 'NONE',  ( 0.000000000000000000, 1.000000000000000000, -0.000000000000000000 ) ) ;
#1032 = AXIS2_PLACEMENT_3D ( 'NONE', #1110, #743, #531 ) ;
#1033 = CARTESIAN_POINT ( 'NONE',  ( -24.19888394073830185, 18.00000000000000000, -4.050512335977082934 ) ) ;
#1034 = VECTOR ( 'NONE', #597, 1000.000000000000000 ) ;
#1035 = CIRCLE ( 'NONE', #1179, 2.000000000000001776 ) ;
#1036 = CARTESIAN_POINT ( 'NONE',  ( 7.499999999999998224, 0.000000000000000000, -79.08229419209513367 ) ) ;
#1037 = VERTEX_POINT ( 'NONE', #986 ) ;
#1038 = CARTESIAN_POINT ( 'NONE',  ( -20.98969858723281234, 18.00000000000000000, -5.229422174922484068 ) ) ;
#1039 = LINE ( 'NONE', #940, #1053 ) ;
#1040 = ORIENTED_EDGE ( 'NONE', *, *, #921, .T. ) ;
#1041 = CARTESIAN_POINT ( 'NONE',  ( -15.51771948742469398, 0.000000000000000000, 21.78844835938497226 ) ) ;
#1042 = ORIENTED_EDGE ( 'NONE', *, *, #979, .T. ) ;
#1043 = EDGE_CURVE ( 'NONE', #970, #677, #1189, .T. ) ;
#1044 = LINE ( 'NONE', #154, #1235 ) ;
#1045 = ORIENTED_EDGE ( 'NONE', *, *, #345, .T. ) ;
#1046 = VERTEX_POINT ( 'NONE', #105 ) ;
#1047 = FACE_OUTER_BOUND ( 'NONE', #776, .T. ) ;
#1048 = ORIENTED_EDGE ( 'NONE', *, *, #1051, .T. ) ;
#1049 = DIRECTION ( 'NONE',  ( 0.9386673526265887357, -0.000000000000000000, -0.3448240146987898713 ) ) ;
#1050 = UNCERTAINTY_MEASURE_WITH_UNIT (LENGTH_MEASURE( 1.000000000000000082E-05 ), #240, 'distance_accuracy_value', 'NONE');
#1051 = EDGE_CURVE ( 'NONE', #749, #1046, #1090, .T. ) ;
#1052 = VERTEX_POINT ( 'NONE', #816 ) ;
#1053 = VECTOR ( 'NONE', #57, 1000.000000000000000 ) ;
#1054 = ORIENTED_EDGE ( 'NONE', *, *, #331, .F. ) ;
#1055 = VECTOR ( 'NONE', #1125, 1000.000000000000114 ) ;
#1056 = DIRECTION ( 'NONE',  ( -0.2644732620533331025, -0.000000000000000000, 0.9643930182549378394 ) ) ;
#1057 = VERTEX_POINT ( 'NONE', #702 ) ;
#1058 = VECTOR ( 'NONE', #448, 1000.000000000000227 ) ;
#1059 = LINE ( 'NONE', #580, #221 ) ;
#1060 = AXIS2_PLACEMENT_3D ( 'NONE', #43, #836, #140 ) ;
#1061 = ORIENTED_EDGE ( 'NONE', *, *, #219, .F. ) ;
#1062 = EDGE_LOOP ( 'NONE', ( #955, #55, #71, #1134 ) ) ;
#1063 = DIRECTION ( 'NONE',  ( 0.000000000000000000, 0.000000000000000000, 1.000000000000000000 ) ) ;
#1064 = ORIENTED_EDGE ( 'NONE', *, *, #392, .T. ) ;
#1065 = DIRECTION ( 'NONE',  ( 0.000000000000000000, 0.000000000000000000, -1.000000000000000000 ) ) ;
#1066 = EDGE_LOOP ( 'NONE', ( #46, #969, #975, #1267 ) ) ;
#1067 = ORIENTED_EDGE ( 'NONE', *, *, #601, .T. ) ;
#1068 = ADVANCED_FACE ( 'NONE', ( #1201, #332, #494 ), #591, .F. ) ;
#1069 = DIRECTION ( 'NONE',  ( -1.734723475976805517E-15, 0.000000000000000000, 1.000000000000000000 ) ) ;
#1070 = ORIENTED_EDGE ( 'NONE', *, *, #484, .T. ) ;
#1071 = DIRECTION ( 'NONE',  ( 0.000000000000000000, 1.000000000000000000, 0.000000000000000000 ) ) ;
#1072 = PRODUCT_DEFINITION_SHAPE ( 'NONE', 'NONE',  #543 ) ;
#1073 = EDGE_LOOP ( 'NONE', ( #856, #539, #869, #633 ) ) ;
#1074 = ORIENTED_EDGE ( 'NONE', *, *, #392, .F. ) ;
#1075 = CLOSED_SHELL ( 'NONE', ( #359, #1107, #775, #576, #912, #203, #684, #1139, #1162, #161, #1068, #1149, #1212, #1028, #765, #1178, #694, #991, #242, #1199, #709, #258, #939, #977, #1223, #233, #384, #867, #7, #118, #1016, #245, #124, #629, #654, #137, #717 ) ) ;
#1076 = AXIS2_PLACEMENT_3D ( 'NONE', #1198, #925, #353 ) ;
#1077 = PLANE ( 'NONE',  #12 ) ;
#1078 = EDGE_CURVE ( 'NONE', #210, #872, #446, .T. ) ;
#1079 = AXIS2_PLACEMENT_3D ( 'NONE', #9, #1007, #603 ) ;
#1080 = DIRECTION ( 'NONE',  ( -0.2644732620533331025, -0.000000000000000000, 0.9643930182549378394 ) ) ;
#1081 = VECTOR ( 'NONE', #530, 1000.000000000000000 ) ;
#1082 = VERTEX_POINT ( 'NONE', #325 ) ;
#1083 = ORIENTED_EDGE ( 'NONE', *, *, #805, .T. ) ;
#1084 = DIRECTION ( 'NONE',  ( 0.000000000000000000, 0.000000000000000000, -1.000000000000000000 ) ) ;
#1085 = CARTESIAN_POINT ( 'NONE',  ( 4.999999999999997335, 18.00000000000000000, -28.73104673259540931 ) ) ;
#1086 = EDGE_CURVE ( 'NONE', #840, #1037, #407, .T. ) ;
#1087 = FACE_OUTER_BOUND ( 'NONE', #473, .T. ) ;
#1088 = ORIENTED_EDGE ( 'NONE', *, *, #150, .F. ) ;
#1089 = CARTESIAN_POINT ( 'NONE',  ( -20.90380984571846312, 0.000000000000000000, 13.36289017892626063 ) ) ;
#1090 = LINE ( 'NONE', #602, #1259 ) ;
#1091 = CARTESIAN_POINT ( 'NONE',  ( -16.16773349595811737, 18.00000000000000000, -3.907055864655816890 ) ) ;
#1092 = DIRECTION ( 'NONE',  ( -0.5386090358293532665, 0.000000000000000000, -0.8425558180458874169 ) ) ;
#1093 = ORIENTED_EDGE ( 'NONE', *, *, #748, .T. ) ;
#1094 = CARTESIAN_POINT ( 'NONE',  ( 4.999999999999989342, 18.00000000000000000, -100.0000000000000000 ) ) ;
#1095 = FACE_OUTER_BOUND ( 'NONE', #735, .T. ) ;
#1096 = AXIS2_PLACEMENT_3D ( 'NONE', #808, #518, #614 ) ;
#1097 = DIRECTION ( 'NONE',  ( 0.000000000000000000, 0.000000000000000000, -1.000000000000000000 ) ) ;
#1098 = AXIS2_PLACEMENT_3D ( 'NONE', #658, #678, #1063 ) ;
#1099 = DIRECTION ( 'NONE',  ( -0.000000000000000000, -1.000000000000000000, 0.000000000000000000 ) ) ;
#1100 = DIRECTION ( 'NONE',  ( -0.000000000000000000, -1.000000000000000000, -0.000000000000000000 ) ) ;
#1101 = CARTESIAN_POINT ( 'NONE',  ( 1.071213963490121435, 18.00000000000000000, -85.67381143027024848 ) ) ;
#1102 = CYLINDRICAL_SURFACE ( 'NONE', #225, 2.249999999999998668 ) ;
#1103 = FACE_OUTER_BOUND ( 'NONE', #1066, .T. ) ;
#1104 = DIRECTION ( 'NONE',  ( -0.000000000000000000, -1.000000000000000000, -0.000000000000000000 ) ) ;
#1105 = EDGE_CURVE ( 'NONE', #314, #1057, #100, .T. ) ;
#1106 = DIRECTION ( 'NONE',  ( 0.000000000000000000, 0.000000000000000000, -1.000000000000000000 ) ) ;
#1107 = ADVANCED_FACE ( 'NONE', ( #618 ), #131, .T. ) ;
#1108 = ORIENTED_EDGE ( 'NONE', *, *, #158, .T. ) ;
#1109 = DIRECTION ( 'NONE',  ( 0.000000000000000000, -1.000000000000000000, 0.000000000000000000 ) ) ;
#1110 = CARTESIAN_POINT ( 'NONE',  ( 2.999999999999999112, 18.00000000000000000, -85.14486490616359049 ) ) ;
#1111 = DIRECTION ( 'NONE',  ( 0.000000000000000000, 0.000000000000000000, -1.000000000000000000 ) ) ;
#1112 =( NAMED_UNIT ( * ) SI_UNIT ( $, .STERADIAN. ) SOLID_ANGLE_UNIT ( ) );
#1113 = AXIS2_PLACEMENT_3D ( 'NONE', #1005, #900, #990 ) ;
#1114 = VERTEX_POINT ( 'NONE', #231 ) ;
#1115 = AXIS2_PLACEMENT_3D ( 'NONE', #236, #738, #1010 ) ;
#1116 = EDGE_CURVE ( 'NONE', #1231, #759, #107, .T. ) ;
#1117 = DIRECTION ( 'NONE',  ( 0.000000000000000000, 0.000000000000000000, 1.000000000000000000 ) ) ;
#1118 = VECTOR ( 'NONE', #48, 1000.000000000000114 ) ;
#1119 = FACE_OUTER_BOUND ( 'NONE', #300, .T. ) ;
#1120 = AXIS2_PLACEMENT_3D ( 'NONE', #157, #36, #643 ) ;
#1121 = AXIS2_PLACEMENT_3D ( 'NONE', #114, #1109, #209 ) ;
#1122 = FACE_OUTER_BOUND ( 'NONE', #1169, .T. ) ;
#1123 = SHAPE_DEFINITION_REPRESENTATION ( #1072, #294 ) ;
#1124 = ORIENTED_EDGE ( 'NONE', *, *, #64, .T. ) ;
#1125 = DIRECTION ( 'NONE',  ( 0.2644732620533331025, 0.000000000000000000, -0.9643930182549378394 ) ) ;
#1126 = EDGE_CURVE ( 'NONE', #1237, #572, #874, .T. ) ;
#1127 = LINE ( 'NONE', #122, #306 ) ;
#1128 = DIRECTION ( 'NONE',  ( -0.000000000000000000, -1.000000000000000000, -0.000000000000000000 ) ) ;
#1129 = CARTESIAN_POINT ( 'NONE',  ( -20.90380984571846312, 18.00000000000000000, 15.61289017892625886 ) ) ;
#1130 = EDGE_LOOP ( 'NONE', ( #585, #863, #32, #1061 ) ) ;
#1131 = CARTESIAN_POINT ( 'NONE',  ( -16.16773349595811737, 9.000000000000000000, -3.907055864655816890 ) ) ;
#1132 = DIRECTION ( 'NONE',  ( 0.000000000000000000, 1.000000000000000000, 0.000000000000000000 ) ) ;
#1133 = LINE ( 'NONE', #1041, #1058 ) ;
#1134 = ORIENTED_EDGE ( 'NONE', *, *, #482, .F. ) ;
#1135 = CARTESIAN_POINT ( 'NONE',  ( 9.999999999999992895, 0.000000000000000000, -48.54537798597819886 ) ) ;
#1136 = AXIS2_PLACEMENT_3D ( 'NONE', #491, #371, #566 ) ;
#1137 = ORIENTED_EDGE ( 'NONE', *, *, #498, .F. ) ;
#1138 = CIRCLE ( 'NONE', #589, 2.500000000000002220 ) ;
#1139 = ADVANCED_FACE ( 'NONE', ( #695, #16 ), #997, .F. ) ;
#1140 = LINE ( 'NONE', #1230, #794 ) ;
#1141 = VERTEX_POINT ( 'NONE', #988 ) ;
#1142 = CARTESIAN_POINT ( 'NONE',  ( 2.755455298081544285E-16, 0.000000000000000000, 2.250000000000000000 ) ) ;
#1143 = CARTESIAN_POINT ( 'NONE',  ( 4.332851387010890676, 18.00000000000000000, -97.29470861319067865 ) ) ;
#1144 = ORIENTED_EDGE ( 'NONE', *, *, #880, .F. ) ;
#1145 = VERTEX_POINT ( 'NONE', #605 ) ;
#1146 = DIRECTION ( 'NONE',  ( -0.000000000000000000, -1.000000000000000000, -0.000000000000000000 ) ) ;
#1147 = ORIENTED_EDGE ( 'NONE', *, *, #615, .T. ) ;
#1148 = CARTESIAN_POINT ( 'NONE',  ( 9.999999999999998224, 18.00000000000000000, -28.73104673259540931 ) ) ;
#1149 = ADVANCED_FACE ( 'NONE', ( #819, #892, #414, #1004 ), #904, .T. ) ;
#1150 = ORIENTED_EDGE ( 'NONE', *, *, #35, .F. ) ;
#1151 = VERTEX_POINT ( 'NONE', #426 ) ;
#1152 = DIRECTION ( 'NONE',  ( -0.000000000000000000, -1.000000000000000000, -0.000000000000000000 ) ) ;
#1153 = VERTEX_POINT ( 'NONE', #1191 ) ;
#1154 = CARTESIAN_POINT ( 'NONE',  ( 9.999999999999991118, 18.00000000000000000, -99.99999999999906208 ) ) ;
#1155 = ORIENTED_EDGE ( 'NONE', *, *, #482, .T. ) ;
#1156 = ORIENTED_EDGE ( 'NONE', *, *, #737, .F. ) ;
#1157 = DIRECTION ( 'NONE',  ( 1.066854937725735416E-14, 0.000000000000000000, -1.000000000000000000 ) ) ;
#1158 = VERTEX_POINT ( 'NONE', #715 ) ;
#1159 = AXIS2_PLACEMENT_3D ( 'NONE', #769, #1244, #85 ) ;
#1160 = CARTESIAN_POINT ( 'NONE',  ( 7.499999999999998224, 18.00000000000000000, -32.24281492697222973 ) ) ;
#1161 = AXIS2_PLACEMENT_3D ( 'NONE', #27, #515, #811 ) ;
#1162 = ADVANCED_FACE ( 'NONE', ( #721 ), #804, .F. ) ;
#1163 = ORIENTED_EDGE ( 'NONE', *, *, #601, .F. ) ;
#1164 = ORIENTED_EDGE ( 'NONE', *, *, #3, .F. ) ;
#1165 = EDGE_CURVE ( 'NONE', #487, #581, #1003, .T. ) ;
#1166 = FACE_OUTER_BOUND ( 'NONE', #958, .T. ) ;
#1167 = ORIENTED_EDGE ( 'NONE', *, *, #45, .T. ) ;
#1168 = FACE_OUTER_BOUND ( 'NONE', #520, .T. ) ;
#1169 = EDGE_LOOP ( 'NONE', ( #837, #1054, #72, #1108 ) ) ;
#1170 = LINE ( 'NONE', #914, #995 ) ;
#1171 = DIRECTION ( 'NONE',  ( 0.000000000000000000, 0.000000000000000000, -1.000000000000000000 ) ) ;
#1172 = CARTESIAN_POINT ( 'NONE',  ( 4.999999999999996447, 18.00000000000000000, -30.78819291295088689 ) ) ;
#1173 = ORIENTED_EDGE ( 'NONE', *, *, #546, .F. ) ;
#1174 = ORIENTED_EDGE ( 'NONE', *, *, #1165, .F. ) ;
#1175 = AXIS2_PLACEMENT_3D ( 'NONE', #550, #465, #855 ) ;
#1176 = DIRECTION ( 'NONE',  ( 0.000000000000000000, 0.000000000000000000, 1.000000000000000000 ) ) ;
#1177 = AXIS2_PLACEMENT_3D ( 'NONE', #472, #376, #866 ) ;
#1178 = ADVANCED_FACE ( 'NONE', ( #700 ), #1014, .F. ) ;
#1179 = AXIS2_PLACEMENT_3D ( 'NONE', #408, #693, #1106 ) ;
#1180 = DIRECTION ( 'NONE',  ( 0.000000000000000000, 0.000000000000000000, -1.000000000000000000 ) ) ;
#1181 = VECTOR ( 'NONE', #5, 1000.000000000000114 ) ;
#1182 = VERTEX_POINT ( 'NONE', #706 ) ;
#1183 = VERTEX_POINT ( 'NONE', #121 ) ;
#1184 = LINE ( 'NONE', #801, #753 ) ;
#1185 = CARTESIAN_POINT ( 'NONE',  ( -1.924702886938325141, 18.00000000000000000, -84.20205095511482796 ) ) ;
#1186 = EDGE_CURVE ( 'NONE', #210, #756, #33, .T. ) ;
#1187 = CYLINDRICAL_SURFACE ( 'NONE', #266, 5.000000000000000888 ) ;
#1188 = DIRECTION ( 'NONE',  ( 0.8425558180458874169, 0.000000000000000000, -0.5386090358293532665 ) ) ;
#1189 = LINE ( 'NONE', #320, #528 ) ;
#1190 = CYLINDRICAL_SURFACE ( 'NONE', #933, 2.499999999999999112 ) ;
#1191 = CARTESIAN_POINT ( 'NONE',  ( -27.09561478503026777, 18.00000000000000000, -1.869903166054074140 ) ) ;
#1192 = ORIENTED_EDGE ( 'NONE', *, *, #1008, .F. ) ;
#1193 = DIRECTION ( 'NONE',  ( 1.040834085586094610E-16, 0.000000000000000000, 1.000000000000000000 ) ) ;
#1194 = CARTESIAN_POINT ( 'NONE',  ( -20.94712710131359046, 18.00000000000000000, -2.438247924492347618 ) ) ;
#1195 = LINE ( 'NONE', #418, #388 ) ;
#1196 = CARTESIAN_POINT ( 'NONE',  ( 4.332851387010890676, 18.00000000000000000, -97.29470861319067865 ) ) ;
#1197 = VECTOR ( 'NONE', #291, 999.9999999999998863 ) ;
#1198 = CARTESIAN_POINT ( 'NONE',  ( 4.332851387010890676, 18.00000000000000000, -95.04470861319066444 ) ) ;
#1199 = ADVANCED_FACE ( 'NONE', ( #329 ), #1102, .F. ) ;
#1200 = EDGE_CURVE ( 'NONE', #980, #292, #431, .T. ) ;
#1201 = FACE_OUTER_BOUND ( 'NONE', #649, .T. ) ;
#1202 = DIRECTION ( 'NONE',  ( 0.000000000000000000, 1.000000000000000000, 0.000000000000000000 ) ) ;
#1203 = ORIENTED_EDGE ( 'NONE', *, *, #1116, .F. ) ;
#1204 = DIRECTION ( 'NONE',  ( -1.000000000000000000, 0.000000000000000000, 1.040834085586094610E-16 ) ) ;
#1205 = CARTESIAN_POINT ( 'NONE',  ( 0.000000000000000000, 18.00000000000000000, 0.000000000000000000 ) ) ;
#1206 = DIRECTION ( 'NONE',  ( 0.000000000000000000, 0.000000000000000000, -1.000000000000000000 ) ) ;
#1207 = CARTESIAN_POINT ( 'NONE',  ( 0.4862796586990205117, 9.000000000000000000, -83.54086779998149837 ) ) ;
#1208 = ORIENTED_EDGE ( 'NONE', *, *, #286, .T. ) ;
#1209 = CARTESIAN_POINT ( 'NONE',  ( 4.999999999999989342, 18.00000000000000000, -100.0000000000000000 ) ) ;
#1210 = DIRECTION ( 'NONE',  ( 0.000000000000000000, 0.000000000000000000, 1.000000000000000000 ) ) ;
#1211 = CARTESIAN_POINT ( 'NONE',  ( 4.999999999999997335, 0.000000000000000000, -14.24237984354700615 ) ) ;
#1212 = ADVANCED_FACE ( 'NONE', ( #899 ), #799, .T. ) ;
#1213 = ORIENTED_EDGE ( 'NONE', *, *, #711, .T. ) ;
#1214 = DIRECTION ( 'NONE',  ( 0.000000000000000000, 0.000000000000000000, 1.000000000000000000 ) ) ;
#1215 = VECTOR ( 'NONE', #956, 1000.000000000000000 ) ;
#1216 = CARTESIAN_POINT ( 'NONE',  ( -23.33682390399132700, 9.000000000000000000, -1.703843954410612094 ) ) ;
#1217 = CIRCLE ( 'NONE', #670, 10.00000000000000000 ) ;
#1218 = DIRECTION ( 'NONE',  ( -0.000000000000000000, -1.000000000000000000, -0.000000000000000000 ) ) ;
#1219 = DIRECTION ( 'NONE',  ( -0.000000000000000000, -1.000000000000000000, 0.000000000000000000 ) ) ;
#1220 = ORIENTED_EDGE ( 'NONE', *, *, #456, .F. ) ;
#1221 = EDGE_CURVE ( 'NONE', #980, #1158, #74, .T. ) ;
#1222 = PLANE ( 'NONE',  #363 ) ;
#1223 = ADVANCED_FACE ( 'NONE', ( #1087 ), #1187, .F. ) ;
#1224 = DIRECTION ( 'NONE',  ( 0.000000000000000000, 1.000000000000000000, -0.000000000000000000 ) ) ;
#1225 = LINE ( 'NONE', #1239, #525 ) ;
#1226 = ORIENTED_EDGE ( 'NONE', *, *, #317, .F. ) ;
#1227 = DIRECTION ( 'NONE',  ( -8.673617379884027583E-16, 0.000000000000000000, -1.000000000000000000 ) ) ;
#1228 = DIRECTION ( 'NONE',  ( 1.000000000000000000, -0.000000000000000000, 1.223316414399868464E-17 ) ) ;
#1229 = EDGE_LOOP ( 'NONE', ( #952, #339, #1074, #273 ) ) ;
#1230 = CARTESIAN_POINT ( 'NONE',  ( -20.98969858723280879, 18.00000000000000000, -5.229422174922485844 ) ) ;
#1231 = VERTEX_POINT ( 'NONE', #519 ) ;
#1232 = CARTESIAN_POINT ( 'NONE',  ( -4.335685432575668408, 9.000000000000000000, -84.86323411024817176 ) ) ;
#1233 = VECTOR ( 'NONE', #1017, 1000.000000000000000 ) ;
#1234 =( NAMED_UNIT ( * ) SI_UNIT ( $, .STERADIAN. ) SOLID_ANGLE_UNIT ( ) );
#1235 = VECTOR ( 'NONE', #56, 999.9999999999998863 ) ;
#1236 = ORIENTED_EDGE ( 'NONE', *, *, #276, .T. ) ;
#1237 = VERTEX_POINT ( 'NONE', #1207 ) ;
#1238 = AXIS2_PLACEMENT_3D ( 'NONE', #274, #557, #864 ) ;
#1239 = CARTESIAN_POINT ( 'NONE',  ( 4.999999999999998224, 18.00000000000000000, -81.58229419209513367 ) ) ;
#1240 = ORIENTED_EDGE ( 'NONE', *, *, #803, .F. ) ;
#1241 = LINE ( 'NONE', #781, #239 ) ;
#1242 = ORIENTED_EDGE ( 'NONE', *, *, #936, .T. ) ;
#1243 = ORIENTED_EDGE ( 'NONE', *, *, #150, .T. ) ;
#1244 = DIRECTION ( 'NONE',  ( 0.000000000000000000, -1.000000000000000000, 0.000000000000000000 ) ) ;
#1245 = ORIENTED_EDGE ( 'NONE', *, *, #1165, .T. ) ;
#1246 = DIRECTION ( 'NONE',  ( 0.000000000000000000, 1.000000000000000000, -0.000000000000000000 ) ) ;
#1247 = VERTEX_POINT ( 'NONE', #908 ) ;
#1248 = EDGE_LOOP ( 'NONE', ( #269, #1263, #627, #26 ) ) ;
#1249 = CARTESIAN_POINT ( 'NONE',  ( -20.94712710131359046, 9.000000000000000000, -2.438247924492347618 ) ) ;
#1250 = ORIENTED_EDGE ( 'NONE', *, *, #587, .F. ) ;
#1251 = EDGE_CURVE ( 'NONE', #1182, #59, #823, .T. ) ;
#1252 = CARTESIAN_POINT ( 'NONE',  ( -2.585886042071665614, 9.000000000000000000, -81.79106840947748935 ) ) ;
#1253 = EDGE_CURVE ( 'NONE', #606, #1231, #538, .T. ) ;
#1254 = ORIENTED_EDGE ( 'NONE', *, *, #413, .T. ) ;
#1255 = APPLICATION_CONTEXT ( 'automotive_design' ) ;
#1256 = VERTEX_POINT ( 'NONE', #349 ) ;
#1257 = LINE ( 'NONE', #973, #113 ) ;
#1258 = ORIENTED_EDGE ( 'NONE', *, *, #354, .T. ) ;
#1259 = VECTOR ( 'NONE', #1100, 1000.000000000000000 ) ;
#1260 = DIRECTION ( 'NONE',  ( 0.000000000000000000, 0.000000000000000000, -1.000000000000000000 ) ) ;
#1261 = VECTOR ( 'NONE', #825, 1000.000000000000000 ) ;
#1262 = VERTEX_POINT ( 'NONE', #632 ) ;
#1263 = ORIENTED_EDGE ( 'NONE', *, *, #844, .F. ) ;
#1264 = LINE ( 'NONE', #94, #834 ) ;
#1265 = ORIENTED_EDGE ( 'NONE', *, *, #507, .F. ) ;
#1266 = DIRECTION ( 'NONE',  ( 0.000000000000000000, 1.000000000000000000, -0.000000000000000000 ) ) ;
#1267 = ORIENTED_EDGE ( 'NONE', *, *, #86, .F. ) ;
#1268 = VERTEX_POINT ( 'NONE', #133 ) ;
#1269 = EDGE_CURVE ( 'NONE', #211, #1268, #1195, .T. ) ;
#1270 = CARTESIAN_POINT ( 'NONE',  ( 2.999999999999999112, 0.000000000000000000, -85.14486490616359049 ) ) ;
#1271 = CARTESIAN_POINT ( 'NONE',  ( 4.999999999999998224, 18.00000000000000000, -85.14486490616359049 ) ) ;
ENDSEC;
END-ISO-10303-21;