ISO-10303-21;
HEADER;
FILE_DESCRIPTION (( 'STEP AP214' ),
    '1' );
FILE_NAME ('original_block.STEP',
    '2026-09-20T02:33:04',
    ( '' ),
    ( '' ),
    'SwSTEP 2.0',
    'SolidWorks 2025',
    '' );
FILE_SCHEMA (( 'AUTOMOTIVE_DESIGN' ));
ENDSEC;

DATA;
#1 = CIRCLE ( 'NONE', #249, 5.000000000000000000 ) ;
#2 = AXIS2_PLACEMENT_3D ( 'NONE', #578, #503, #929 ) ;
#3 = VECTOR ( 'NONE', #447, 1000.000000000000000 ) ;
#4 = CARTESIAN_POINT ( 'NONE',  ( 5.000000000000000888, -9.000000000000000000, 5.999999999999999112 ) ) ;
#5 = AXIS2_PLACEMENT_3D ( 'NONE', #145, #657, #134 ) ;
#6 = VECTOR ( 'NONE', #8, 1000.000000000000000 ) ;
#7 = ORIENTED_EDGE ( 'NONE', *, *, #417, .T. ) ;
#8 = DIRECTION ( 'NONE',  ( -1.000000000000000000, 0.000000000000000000, 0.000000000000000000 ) ) ;
#9 = CARTESIAN_POINT ( 'NONE',  ( 15.50000000000000000, -4.000000000000000888, 16.99999999999999289 ) ) ;
#10 = LINE ( 'NONE', #360, #205 ) ;
#11 = VERTEX_POINT ( 'NONE', #839 ) ;
#12 = CARTESIAN_POINT ( 'NONE',  ( 5.000000000000000000, 70.90000000000000568, 4.251773225433351024E-17 ) ) ;
#13 = PRODUCT_RELATED_PRODUCT_CATEGORY ( 'part', '', ( #180 ) ) ;
#14 = CARTESIAN_POINT ( 'NONE',  ( 15.50000000000000000, -4.000000000000000888, 5.999999999999999112 ) ) ;
#15 = FACE_OUTER_BOUND ( 'NONE', #1019, .T. ) ;
#16 = EDGE_LOOP ( 'NONE', ( #742, #727, #763, #361, #998 ) ) ;
#17 = CARTESIAN_POINT ( 'NONE',  ( 5.000000000000000888, 62.40000000000000568, 1.000000000000000000 ) ) ;
#18 = CARTESIAN_POINT ( 'NONE',  ( -2.500000000000000000, 70.90000000000000568, -2.500000000000000000 ) ) ;
#19 = VECTOR ( 'NONE', #452, 1000.000000000000000 ) ;
#20 = AXIS2_PLACEMENT_3D ( 'NONE', #18, #542, #353 ) ;
#21 = VERTEX_POINT ( 'NONE', #74 ) ;
#22 = CARTESIAN_POINT ( 'NONE',  ( 2.500000000000000000, 67.90000000000000568, 0.5000000000000000000 ) ) ;
#23 = AXIS2_PLACEMENT_3D ( 'NONE', #698, #599, #593 ) ;
#24 = CYLINDRICAL_SURFACE ( 'NONE', #757, 5.000000000000000000 ) ;
#25 = ADVANCED_FACE ( 'NONE', ( #50 ), #233, .T. ) ;
#26 = ADVANCED_FACE ( 'NONE', ( #69 ), #418, .F. ) ;
#27 = ORIENTED_EDGE ( 'NONE', *, *, #1008, .F. ) ;
#28 = FACE_OUTER_BOUND ( 'NONE', #582, .T. ) ;
#29 = VERTEX_POINT ( 'NONE', #1104 ) ;
#30 = DIRECTION ( 'NONE',  ( -1.000000000000000000, -0.000000000000000000, 1.734723475976807094E-17 ) ) ;
#31 = VERTEX_POINT ( 'NONE', #933 ) ;
#32 = DIRECTION ( 'NONE',  ( 1.000000000000000000, 0.000000000000000000, 0.000000000000000000 ) ) ;
#33 = DIRECTION ( 'NONE',  ( 1.000000000000000000, 0.000000000000000000, 1.700709290173340409E-17 ) ) ;
#34 = CARTESIAN_POINT ( 'NONE',  ( 2.499999999999999556, 67.90000000000000568, 25.50000000000000000 ) ) ;
#35 = VECTOR ( 'NONE', #307, 1000.000000000000000 ) ;
#36 = ORIENTED_EDGE ( 'NONE', *, *, #1114, .F. ) ;
#37 = DIRECTION ( 'NONE',  ( -1.000000000000000000, -7.703719777548943412E-34, -1.264933817329266432E-17 ) ) ;
#38 = CIRCLE ( 'NONE', #850, 1.500000000000000000 ) ;
#39 = ORIENTED_EDGE ( 'NONE', *, *, #181, .T. ) ;
#40 = CARTESIAN_POINT ( 'NONE',  ( 5.000000000000000000, 62.40000000000000568, 22.00000000000000355 ) ) ;
#41 = VECTOR ( 'NONE', #1043, 1000.000000000000000 ) ;
#42 = CARTESIAN_POINT ( 'NONE',  ( 15.50000000000000000, -12.50000000000000000, 2.418211663346640430E-16 ) ) ;
#43 = EDGE_CURVE ( 'NONE', #156, #350, #412, .T. ) ;
#44 = ORIENTED_EDGE ( 'NONE', *, *, #200, .T. ) ;
#45 = DIRECTION ( 'NONE',  ( 0.000000000000000000, 0.000000000000000000, 1.000000000000000000 ) ) ;
#46 = ORIENTED_EDGE ( 'NONE', *, *, #1002, .T. ) ;
#47 = DIRECTION ( 'NONE',  ( -1.700709290173340409E-17, 0.000000000000000000, 1.000000000000000000 ) ) ;
#48 = DIRECTION ( 'NONE',  ( 1.700709290173340409E-17, -0.000000000000000000, 1.000000000000000000 ) ) ;
#49 = UNCERTAINTY_MEASURE_WITH_UNIT (LENGTH_MEASURE( 1.000000000000000082E-05 ), #487, 'distance_accuracy_value', 'NONE');
#50 = FACE_OUTER_BOUND ( 'NONE', #980, .T. ) ;
#51 = CARTESIAN_POINT ( 'NONE',  ( -5.000000000000000000, 0.000000000000000000, -0.5000000000000004441 ) ) ;
#52 = ORIENTED_EDGE ( 'NONE', *, *, #235, .T. ) ;
#53 = CARTESIAN_POINT ( 'NONE',  ( -4.000000000000000000, 70.90000000000000568, 0.5000000000000000000 ) ) ;
#54 = CARTESIAN_POINT ( 'NONE',  ( 15.49999999999999822, -12.50000000000000000, 0.5000000000000000000 ) ) ;
#55 = AXIS2_PLACEMENT_3D ( 'NONE', #997, #220, #917 ) ;
#56 = DIRECTION ( 'NONE',  ( 1.734723475976805246E-17, 0.000000000000000000, 1.000000000000000000 ) ) ;
#57 = CLOSED_SHELL ( 'NONE', ( #987, #957, #603, #905, #845, #77, #476, #165, #499, #349, #810, #674, #269, #724, #877, #811, #26, #1073, #366, #779, #304, #588, #25, #758, #1092, #280, #925, #463, #812, #254, #741, #1020, #63 ) ) ;
#58 = ORIENTED_EDGE ( 'NONE', *, *, #891, .T. ) ;
#59 = CYLINDRICAL_SURFACE ( 'NONE', #794, 5.000000000000000000 ) ;
#60 = CIRCLE ( 'NONE', #279, 2.249999999999998668 ) ;
#61 = DIRECTION ( 'NONE',  ( -1.700709290173340409E-17, 0.000000000000000000, -1.000000000000000000 ) ) ;
#62 = AXIS2_PLACEMENT_3D ( 'NONE', #769, #1132, #1106 ) ;
#63 = ADVANCED_FACE ( 'NONE', ( #15 ), #539, .T. ) ;
#64 = EDGE_CURVE ( 'NONE', #923, #477, #985, .T. ) ;
#65 = LINE ( 'NONE', #42, #796 ) ;
#66 = ORIENTED_EDGE ( 'NONE', *, *, #435, .F. ) ;
#67 = DIRECTION ( 'NONE',  ( 1.000000000000000000, 7.703719777548943412E-34, 1.264933817329266432E-17 ) ) ;
#68 = CARTESIAN_POINT ( 'NONE',  ( 15.50000000000000000, -4.000000000000000888, 1.000000000000000222 ) ) ;
#69 = FACE_OUTER_BOUND ( 'NONE', #1021, .T. ) ;
#70 = CARTESIAN_POINT ( 'NONE',  ( 0.000000000000000000, 0.000000000000000000, 0.000000000000000000 ) ) ;
#71 = ORIENTED_EDGE ( 'NONE', *, *, #671, .T. ) ;
#72 = DIRECTION ( 'NONE',  ( 0.000000000000000000, 0.000000000000000000, -1.000000000000000000 ) ) ;
#73 = CARTESIAN_POINT ( 'NONE',  ( -4.999999999999999112, 63.40000000000001279, 21.75000000000000000 ) ) ;
#74 = CARTESIAN_POINT ( 'NONE',  ( 2.500000000000000000, 70.85803989154980798, 0.000000000000000000 ) ) ;
#75 = ORIENTED_EDGE ( 'NONE', *, *, #270, .F. ) ;
#76 = CARTESIAN_POINT ( 'NONE',  ( -4.000000000000000000, 69.40000000000000568, 6.802837160693362871E-17 ) ) ;
#77 = ADVANCED_FACE ( 'NONE', ( #872 ), #275, .T. ) ;
#78 = EDGE_CURVE ( 'NONE', #1131, #1100, #513, .T. ) ;
#79 = FACE_BOUND ( 'NONE', #752, .T. ) ;
#80 = VECTOR ( 'NONE', #960, 1000.000000000000000 ) ;
#81 = AXIS2_PLACEMENT_3D ( 'NONE', #1007, #124, #232 ) ;
#82 = VECTOR ( 'NONE', #506, 1000.000000000000000 ) ;
#83 = DIRECTION ( 'NONE',  ( 0.000000000000000000, -0.000000000000000000, 1.000000000000000000 ) ) ;
#84 = DIRECTION ( 'NONE',  ( -1.000000000000000000, -0.000000000000000000, 1.734723475976807094E-17 ) ) ;
#85 = EDGE_CURVE ( 'NONE', #395, #147, #429, .T. ) ;
#86 = ORIENTED_EDGE ( 'NONE', *, *, #401, .F. ) ;
#87 = PLANE ( 'NONE',  #23 ) ;
#88 = DIRECTION ( 'NONE',  ( 7.703719777548943412E-34, -1.000000000000000000, 1.310178779456958743E-50 ) ) ;
#89 = CARTESIAN_POINT ( 'NONE',  ( 2.499999999999999556, 70.90000000000000568, 25.50000000000000000 ) ) ;
#90 = ORIENTED_EDGE ( 'NONE', *, *, #705, .F. ) ;
#91 = DIRECTION ( 'NONE',  ( -1.000000000000000000, 0.000000000000000000, 0.000000000000000000 ) ) ;
#92 = CARTESIAN_POINT ( 'NONE',  ( -4.478847317826296859, 69.76422791295735237, -1.869399277538289716 ) ) ;
#93 = DIRECTION ( 'NONE',  ( 1.000000000000000000, 0.000000000000000000, 0.000000000000000000 ) ) ;
#94 = ORIENTED_EDGE ( 'NONE', *, *, #401, .T. ) ;
#95 = FACE_OUTER_BOUND ( 'NONE', #338, .T. ) ;
#96 = FILL_AREA_STYLE ('',( #981 ) ) ;
#97 = CARTESIAN_POINT ( 'NONE',  ( -4.999999999999999112, 70.90000000000000568, 25.50000000000000000 ) ) ;
#98 = COLOUR_RGB ( '',0.7921568627450980005, 0.8196078431372548767, 0.9333333333333333481 ) ;
#99 = EDGE_CURVE ( 'NONE', #221, #340, #60, .T. ) ;
#100 = VECTOR ( 'NONE', #30, 1000.000000000000000 ) ;
#101 = ORIENTED_EDGE ( 'NONE', *, *, #348, .F. ) ;
#102 = CYLINDRICAL_SURFACE ( 'NONE', #883, 2.249999999999998668 ) ;
#103 = DIRECTION ( 'NONE',  ( 1.000000000000000000, 0.000000000000000000, 0.000000000000000000 ) ) ;
#104 = CARTESIAN_POINT ( 'NONE',  ( -2.499999999999999556, 63.40000000000001279, 21.75000000000000000 ) ) ;
#105 = ORIENTED_EDGE ( 'NONE', *, *, #64, .F. ) ;
#106 = DIRECTION ( 'NONE',  ( -1.000000000000000000, -0.000000000000000000, 1.734723475976807094E-17 ) ) ;
#107 = DIRECTION ( 'NONE',  ( 1.000000000000000000, 1.710569414459005593E-49, 1.700709290173340409E-17 ) ) ;
#108 = ORIENTED_EDGE ( 'NONE', *, *, #200, .F. ) ;
#109 = DIRECTION ( 'NONE',  ( 0.000000000000000000, 0.000000000000000000, 1.000000000000000000 ) ) ;
#110 =( NAMED_UNIT ( * ) PLANE_ANGLE_UNIT ( ) SI_UNIT ( $, .RADIAN. ) );
#111 = EDGE_CURVE ( 'NONE', #566, #142, #884, .T. ) ;
#112 = EDGE_CURVE ( 'NONE', #1054, #573, #618, .T. ) ;
#113 = ORIENTED_EDGE ( 'NONE', *, *, #195, .F. ) ;
#114 = CYLINDRICAL_SURFACE ( 'NONE', #126, 2.999999999999999112 ) ;
#115 = LINE ( 'NONE', #820, #100 ) ;
#116 = ORIENTED_EDGE ( 'NONE', *, *, #1076, .T. ) ;
#117 = CARTESIAN_POINT ( 'NONE',  ( 5.000000000000000000, -9.000000000000001776, 16.99999999999999289 ) ) ;
#118 = ORIENTED_EDGE ( 'NONE', *, *, #238, .F. ) ;
#119 = CARTESIAN_POINT ( 'NONE',  ( 15.50000000000000000, -4.000000000000000888, 5.999999999999999112 ) ) ;
#120 = DIRECTION ( 'NONE',  ( 0.000000000000000000, 0.000000000000000000, -1.000000000000000000 ) ) ;
#121 = ORIENTED_EDGE ( 'NONE', *, *, #569, .F. ) ;
#122 = DIRECTION ( 'NONE',  ( 1.000000000000000000, 0.000000000000000000, 0.000000000000000000 ) ) ;
#123 = DIRECTION ( 'NONE',  ( -1.000000000000000000, 0.000000000000000000, 0.000000000000000000 ) ) ;
#124 = DIRECTION ( 'NONE',  ( 0.000000000000000000, -1.000000000000000000, 0.000000000000000000 ) ) ;
#125 = EDGE_CURVE ( 'NONE', #930, #841, #356, .T. ) ;
#126 = AXIS2_PLACEMENT_3D ( 'NONE', #312, #122, #554 ) ;
#127 = ORIENTED_EDGE ( 'NONE', *, *, #85, .F. ) ;
#128 = DIRECTION ( 'NONE',  ( 0.000000000000000000, 0.000000000000000000, 1.000000000000000000 ) ) ;
#129 = EDGE_CURVE ( 'NONE', #543, #841, #623, .T. ) ;
#130 = AXIS2_PLACEMENT_3D ( 'NONE', #1000, #825, #218 ) ;
#131 = ORIENTED_EDGE ( 'NONE', *, *, #281, .F. ) ;
#132 = FACE_OUTER_BOUND ( 'NONE', #564, .T. ) ;
#133 = CIRCLE ( 'NONE', #799, 3.000000000000000000 ) ;
#134 = DIRECTION ( 'NONE',  ( 0.000000000000000000, 0.000000000000000000, -1.000000000000000000 ) ) ;
#135 = ORIENTED_EDGE ( 'NONE', *, *, #315, .T. ) ;
#136 = DIRECTION ( 'NONE',  ( -1.000000000000000000, 0.000000000000000000, 1.734723475976807094E-17 ) ) ;
#137 = EDGE_LOOP ( 'NONE', ( #184, #658, #240, #970 ) ) ;
#138 = CARTESIAN_POINT ( 'NONE',  ( -2.499999999999999556, 69.40000000000000568, 25.50000000000000000 ) ) ;
#139 = LINE ( 'NONE', #54, #972 ) ;
#140 = ORIENTED_EDGE ( 'NONE', *, *, #435, .T. ) ;
#141 = LINE ( 'NONE', #1030, #775 ) ;
#142 = VERTEX_POINT ( 'NONE', #441 ) ;
#143 = DIRECTION ( 'NONE',  ( 0.000000000000000000, -1.000000000000000000, -0.000000000000000000 ) ) ;
#144 = EDGE_CURVE ( 'NONE', #221, #31, #166, .T. ) ;
#145 = CARTESIAN_POINT ( 'NONE',  ( 15.50000000000000000, 62.40000000000000568, 17.00000000000000000 ) ) ;
#146 = EDGE_CURVE ( 'NONE', #340, #221, #815, .T. ) ;
#147 = VERTEX_POINT ( 'NONE', #700 ) ;
#148 = CARTESIAN_POINT ( 'NONE',  ( 9.063930161978817068E-16, 15.00000000000000000, 23.99999999999999645 ) ) ;
#149 = VECTOR ( 'NONE', #168, 1000.000000000000000 ) ;
#150 = ORIENTED_EDGE ( 'NONE', *, *, #843, .F. ) ;
#151 = DIRECTION ( 'NONE',  ( -1.000000000000000000, 0.000000000000000000, 1.700709290173341026E-17 ) ) ;
#152 = AXIS2_PLACEMENT_3D ( 'NONE', #765, #595, #326 ) ;
#153 = CARTESIAN_POINT ( 'NONE',  ( -5.000000000000000000, 70.72842712474619020, -0.5000000000000004441 ) ) ;
#154 = CIRCLE ( 'NONE', #352, 2.999999999999999112 ) ;
#155 = ORIENTED_EDGE ( 'NONE', *, *, #129, .T. ) ;
#156 = VERTEX_POINT ( 'NONE', #964 ) ;
#157 = CYLINDRICAL_SURFACE ( 'NONE', #444, 2.000000000000000000 ) ;
#158 = DIRECTION ( 'NONE',  ( 1.264933817329266432E-17, 8.260587980841942477E-17, -1.000000000000000000 ) ) ;
#159 = ORIENTED_EDGE ( 'NONE', *, *, #281, .T. ) ;
#160 = APPLICATION_PROTOCOL_DEFINITION ( 'draft international standard', 'automotive_design', 1998, #735 ) ;
#161 = EDGE_CURVE ( 'NONE', #598, #508, #792, .T. ) ;
#162 = ORIENTED_EDGE ( 'NONE', *, *, #177, .F. ) ;
#163 = CARTESIAN_POINT ( 'NONE',  ( -2.999999999999999556, 70.90000000000000568, -2.500000000000000000 ) ) ;
#164 = LINE ( 'NONE', #511, #355 ) ;
#165 = ADVANCED_FACE ( 'NONE', ( #1047, #530, #521 ), #365, .T. ) ;
#166 = LINE ( 'NONE', #436, #19 ) ;
#167 = ORIENTED_EDGE ( 'NONE', *, *, #602, .F. ) ;
#168 = DIRECTION ( 'NONE',  ( -5.730419068485961338E-34, 1.000000000000000000, -1.560003125878423500E-17 ) ) ;
#169 = LINE ( 'NONE', #587, #1067 ) ;
#170 = VECTOR ( 'NONE', #347, 1000.000000000000000 ) ;
#171 = AXIS2_PLACEMENT_3D ( 'NONE', #1101, #320, #661 ) ;
#172 = DIRECTION ( 'NONE',  ( 0.000000000000000000, 0.000000000000000000, -1.000000000000000000 ) ) ;
#173 = ORIENTED_EDGE ( 'NONE', *, *, #709, .F. ) ;
#174 = PLANE ( 'NONE',  #295 ) ;
#175 = CARTESIAN_POINT ( 'NONE',  ( -3.112489182934855769, 68.03777061876971288, -2.500000000000000444 ) ) ;
#176 = CARTESIAN_POINT ( 'NONE',  ( -4.999999999999999112, 70.90000000000000568, 25.50000000000000000 ) ) ;
#177 = EDGE_CURVE ( 'NONE', #744, #376, #526, .T. ) ;
#178 = ORIENTED_EDGE ( 'NONE', *, *, #911, .T. ) ;
#179 = FACE_OUTER_BOUND ( 'NONE', #448, .T. ) ;
#180 = PRODUCT ( 'original_block', 'original_block', '', ( #597 ) ) ;
#181 = EDGE_CURVE ( 'NONE', #945, #579, #10, .T. ) ;
#182 = EDGE_CURVE ( 'NONE', #821, #11, #38, .T. ) ;
#183 = CARTESIAN_POINT ( 'NONE',  ( 5.000000000000000000, -3.996221620051281269E-15, 21.99999999999999289 ) ) ;
#184 = ORIENTED_EDGE ( 'NONE', *, *, #215, .F. ) ;
#185 = CARTESIAN_POINT ( 'NONE',  ( 2.499999999999999556, 67.90000000000000568, 25.50000000000000000 ) ) ;
#186 = CARTESIAN_POINT ( 'NONE',  ( 15.50000000000000000, -9.000000000000001776, 16.99999999999999289 ) ) ;
#187 = CIRCLE ( 'NONE', #224, 2.249999999999998668 ) ;
#188 = VECTOR ( 'NONE', #865, 1000.000000000000000 ) ;
#189 = DIRECTION ( 'NONE',  ( -1.264933817329266432E-17, 0.000000000000000000, 1.000000000000000000 ) ) ;
#190 = AXIS2_PLACEMENT_3D ( 'NONE', #73, #600, #422 ) ;
#191 = CIRCLE ( 'NONE', #231, 2.249999999999998668 ) ;
#192 = ORIENTED_EDGE ( 'NONE', *, *, #759, .T. ) ;
#193 = DIRECTION ( 'NONE',  ( 0.000000000000000000, 0.000000000000000000, -1.000000000000000000 ) ) ;
#194 = SURFACE_STYLE_FILL_AREA ( #96 ) ;
#195 = EDGE_CURVE ( 'NONE', #216, #930, #669, .T. ) ;
#196 = ORIENTED_EDGE ( 'NONE', *, *, #602, .T. ) ;
#197 = DIRECTION ( 'NONE',  ( 1.700709290173340409E-17, 0.000000000000000000, -1.000000000000000000 ) ) ;
#198 = EDGE_CURVE ( 'NONE', #1086, #350, #322, .T. ) ;
#199 = CARTESIAN_POINT ( 'NONE',  ( 5.000000000000000000, 67.40000000000000568, 6.324669086646331852E-17 ) ) ;
#200 = EDGE_CURVE ( 'NONE', #477, #653, #65, .T. ) ;
#201 = ORIENTED_EDGE ( 'NONE', *, *, #894, .T. ) ;
#202 = CARTESIAN_POINT ( 'NONE',  ( -4.999999999999999112, 63.40000000000001279, 21.75000000000000000 ) ) ;
#203 = ORIENTED_EDGE ( 'NONE', *, *, #710, .T. ) ;
#204 = CARTESIAN_POINT ( 'NONE',  ( 15.50000000000000000, 62.40000000000000568, 22.00000000000000355 ) ) ;
#205 = VECTOR ( 'NONE', #257, 1000.000000000000000 ) ;
#206 = CIRCLE ( 'NONE', #663, 2.249999999999998668 ) ;
#207 = ORIENTED_EDGE ( 'NONE', *, *, #333, .F. ) ;
#208 = FACE_OUTER_BOUND ( 'NONE', #670, .T. ) ;
#209 = AXIS2_PLACEMENT_3D ( 'NONE', #242, #345, #1119 ) ;
#210 = VERTEX_POINT ( 'NONE', #239 ) ;
#211 = CARTESIAN_POINT ( 'NONE',  ( 0.000000000000000000, 70.90000000000000568, 0.000000000000000000 ) ) ;
#212 = CARTESIAN_POINT ( 'NONE',  ( -2.499999999999999556, 63.40000000000001279, 19.50000000000000000 ) ) ;
#213 = ORIENTED_EDGE ( 'NONE', *, *, #1058, .T. ) ;
#214 = DIRECTION ( 'NONE',  ( 0.000000000000000000, 0.000000000000000000, -1.000000000000000000 ) ) ;
#215 = EDGE_CURVE ( 'NONE', #425, #453, #317, .T. ) ;
#216 = VERTEX_POINT ( 'NONE', #468 ) ;
#217 = CARTESIAN_POINT ( 'NONE',  ( -4.999999999999999112, 15.00000000000000000, 23.99999999999999645 ) ) ;
#218 = DIRECTION ( 'NONE',  ( 0.000000000000000000, 0.000000000000000000, -1.000000000000000000 ) ) ;
#219 = ORIENTED_EDGE ( 'NONE', *, *, #399, .F. ) ;
#220 = DIRECTION ( 'NONE',  ( 1.000000000000000000, 7.703719777548943412E-34, 1.264933817329266432E-17 ) ) ;
#221 = VERTEX_POINT ( 'NONE', #212 ) ;
#222 = PLANE ( 'NONE',  #740 ) ;
#223 = CARTESIAN_POINT ( 'NONE',  ( -4.999999999999999112, 0.000000000000000000, 25.50000000000000000 ) ) ;
#224 = AXIS2_PLACEMENT_3D ( 'NONE', #202, #136, #45 ) ;
#225 = EDGE_LOOP ( 'NONE', ( #192, #1074, #747, #1117, #993, #540 ) ) ;
#226 = VECTOR ( 'NONE', #294, 1000.000000000000000 ) ;
#227 = DIRECTION ( 'NONE',  ( 1.734723475976805246E-17, 0.000000000000000000, 1.000000000000000000 ) ) ;
#228 = VECTOR ( 'NONE', #61, 1000.000000000000000 ) ;
#229 = ORIENTED_EDGE ( 'NONE', *, *, #563, .F. ) ;
#230 = CARTESIAN_POINT ( 'NONE',  ( 5.000000000000000888, 67.40000000000000568, 17.00000000000000000 ) ) ;
#231 = AXIS2_PLACEMENT_3D ( 'NONE', #1060, #874, #109 ) ;
#232 = DIRECTION ( 'NONE',  ( 0.000000000000000000, -0.000000000000000000, -1.000000000000000000 ) ) ;
#233 = PLANE ( 'NONE',  #2 ) ;
#234 = CARTESIAN_POINT ( 'NONE',  ( -2.499999999999999556, 0.000000000000000000, 25.50000000000000000 ) ) ;
#235 = EDGE_CURVE ( 'NONE', #546, #841, #1091, .T. ) ;
#236 = ORIENTED_EDGE ( 'NONE', *, *, #1095, .F. ) ;
#237 = PLANE ( 'NONE',  #171 ) ;
#238 = EDGE_CURVE ( 'NONE', #939, #736, #838, .T. ) ;
#239 = CARTESIAN_POINT ( 'NONE',  ( -5.000000000000000000, 70.72842712474619020, -0.5000000000000004441 ) ) ;
#240 = ORIENTED_EDGE ( 'NONE', *, *, #1002, .F. ) ;
#241 = EDGE_LOOP ( 'NONE', ( #378, #1035, #306, #707 ) ) ;
#242 = CARTESIAN_POINT ( 'NONE',  ( -4.999999999999999112, 67.90000000000000568, 0.5000000000000000000 ) ) ;
#243 = LINE ( 'NONE', #1107, #408 ) ;
#244 = ORIENTED_EDGE ( 'NONE', *, *, #502, .F. ) ;
#245 = AXIS2_PLACEMENT_3D ( 'NONE', #383, #565, #753 ) ;
#246 = ORIENTED_EDGE ( 'NONE', *, *, #182, .F. ) ;
#247 = CARTESIAN_POINT ( 'NONE',  ( -4.999999999999999112, 70.90000000000000568, 25.50000000000000000 ) ) ;
#248 = DIRECTION ( 'NONE',  ( -7.703719777548943412E-34, 1.000000000000000000, -1.310178779456958743E-50 ) ) ;
#249 = AXIS2_PLACEMENT_3D ( 'NONE', #119, #467, #561 ) ;
#250 = ORIENTED_EDGE ( 'NONE', *, *, #451, .T. ) ;
#251 =( NAMED_UNIT ( * ) SI_UNIT ( $, .STERADIAN. ) SOLID_ANGLE_UNIT ( ) );
#252 = EDGE_LOOP ( 'NONE', ( #159, #596, #912, #39, #324, #873, #155, #934, #620, #899, #858 ) ) ;
#253 = DIRECTION ( 'NONE',  ( 1.700709290173340101E-17, 1.816464372750583628E-16, -1.000000000000000000 ) ) ;
#254 = ADVANCED_FACE ( 'NONE', ( #844 ), #386, .T. ) ;
#255 = DIRECTION ( 'NONE',  ( 1.000000000000000000, 7.703719777548943412E-34, 1.264933817329266432E-17 ) ) ;
#256 = PRODUCT_DEFINITION ( 'UNKNOWN', '', #607, #1034 ) ;
#257 = DIRECTION ( 'NONE',  ( -1.700709290173340409E-17, 0.000000000000000000, 1.000000000000000000 ) ) ;
#258 = VERTEX_POINT ( 'NONE', #314 ) ;
#259 = CARTESIAN_POINT ( 'NONE',  ( 15.50000000000000000, 67.90000000000000568, -2.499999999999999556 ) ) ;
#260 = LINE ( 'NONE', #695, #1048 ) ;
#261 = DIRECTION ( 'NONE',  ( 0.000000000000000000, 0.000000000000000000, -1.000000000000000000 ) ) ;
#262 = ORIENTED_EDGE ( 'NONE', *, *, #911, .F. ) ;
#263 = FACE_OUTER_BOUND ( 'NONE', #357, .T. ) ;
#264 = CARTESIAN_POINT ( 'NONE',  ( -4.903093245452011750, 70.42163219310553757, -1.134577177797950753 ) ) ;
#265 = VECTOR ( 'NONE', #266, 1000.000000000000000 ) ;
#266 = DIRECTION ( 'NONE',  ( -1.000000000000000000, -1.710569414459005593E-49, -1.700709290173340409E-17 ) ) ;
#267 = ORIENTED_EDGE ( 'NONE', *, *, #958, .F. ) ;
#268 = CARTESIAN_POINT ( 'NONE',  ( 15.49999999999999822, 67.90000000000000568, -2.500000000000000000 ) ) ;
#269 = ADVANCED_FACE ( 'NONE', ( #490 ), #990, .T. ) ;
#270 = EDGE_CURVE ( 'NONE', #477, #566, #581, .T. ) ;
#271 = PRESENTATION_STYLE_ASSIGNMENT (( #369 ) ) ;
#272 = CARTESIAN_POINT ( 'NONE',  ( 5.000000000000000888, -9.500000000000001776, 22.50000000000000000 ) ) ;
#273 = ORIENTED_EDGE ( 'NONE', *, *, #1129, .T. ) ;
#274 = PLANE ( 'NONE',  #646 ) ;
#275 = PLANE ( 'NONE',  #550 ) ;
#276 = ORIENTED_EDGE ( 'NONE', *, *, #517, .F. ) ;
#277 = DIRECTION ( 'NONE',  ( 1.000000000000000000, 0.000000000000000000, 0.000000000000000000 ) ) ;
#278 = DIRECTION ( 'NONE',  ( 0.000000000000000000, 0.000000000000000000, 1.000000000000000000 ) ) ;
#279 = AXIS2_PLACEMENT_3D ( 'NONE', #104, #1053, #953 ) ;
#280 = ADVANCED_FACE ( 'NONE', ( #932 ), #400, .F. ) ;
#281 = EDGE_CURVE ( 'NONE', #376, #1016, #644, .T. ) ;
#282 = ORIENTED_EDGE ( 'NONE', *, *, #333, .T. ) ;
#283 = CARTESIAN_POINT ( 'NONE',  ( 5.000000000000000000, -4.000000000000001776, 21.99999999999999289 ) ) ;
#284 = CARTESIAN_POINT ( 'NONE',  ( 15.50000000000000000, 3.851859888774471706E-33, 1.000000000000000222 ) ) ;
#285 = EDGE_CURVE ( 'NONE', #1036, #615, #411, .T. ) ;
#286 = ORIENTED_EDGE ( 'NONE', *, *, #502, .T. ) ;
#287 = DIRECTION ( 'NONE',  ( -1.000000000000000000, -0.000000000000000000, 1.734723475976807094E-17 ) ) ;
#288 = CARTESIAN_POINT ( 'NONE',  ( -2.499999999999999556, 15.00000000000000000, 21.75000000000000000 ) ) ;
#289 = ORIENTED_EDGE ( 'NONE', *, *, #876, .F. ) ;
#290 = LINE ( 'NONE', #1075, #1062 ) ;
#291 = ORIENTED_EDGE ( 'NONE', *, *, #364, .T. ) ;
#292 = CARTESIAN_POINT ( 'NONE',  ( 5.000000000000000000, -12.50000000000000000, 22.50000000000000000 ) ) ;
#293 = AXIS2_PLACEMENT_3D ( 'NONE', #70, #867, #684 ) ;
#294 = DIRECTION ( 'NONE',  ( 1.000000000000000000, -0.000000000000000000, 1.700709290173340409E-17 ) ) ;
#295 = AXIS2_PLACEMENT_3D ( 'NONE', #790, #714, #197 ) ;
#296 = EDGE_CURVE ( 'NONE', #508, #961, #651, .T. ) ;
#297 = VECTOR ( 'NONE', #1052, 1000.000000000000000 ) ;
#298 = ORIENTED_EDGE ( 'NONE', *, *, #974, .F. ) ;
#299 = FACE_OUTER_BOUND ( 'NONE', #1069, .T. ) ;
#300 = VECTOR ( 'NONE', #679, 1000.000000000000000 ) ;
#301 = ORIENTED_EDGE ( 'NONE', *, *, #479, .T. ) ;
#302 = CARTESIAN_POINT ( 'NONE',  ( 15.50000000000000000, 62.40000000000000568, 1.000000000000000222 ) ) ;
#303 = EDGE_CURVE ( 'NONE', #647, #896, #427, .T. ) ;
#304 = ADVANCED_FACE ( 'NONE', ( #485 ), #1061, .T. ) ;
#305 = DIRECTION ( 'NONE',  ( -1.000000000000000000, 0.000000000000000000, 0.000000000000000000 ) ) ;
#306 = ORIENTED_EDGE ( 'NONE', *, *, #759, .F. ) ;
#307 = DIRECTION ( 'NONE',  ( 1.000000000000000000, -0.000000000000000000, -0.000000000000000000 ) ) ;
#308 = ORIENTED_EDGE ( 'NONE', *, *, #384, .F. ) ;
#309 = LINE ( 'NONE', #650, #664 ) ;
#310 = LINE ( 'NONE', #928, #1084 ) ;
#311 = VERTEX_POINT ( 'NONE', #472 ) ;
#312 = CARTESIAN_POINT ( 'NONE',  ( 15.50000000000000000, -9.500000000000001776, 22.50000000000000000 ) ) ;
#313 = CARTESIAN_POINT ( 'NONE',  ( 5.000000000000000000, -12.50000000000000000, 0.5000000000000000000 ) ) ;
#314 = CARTESIAN_POINT ( 'NONE',  ( -2.499999999999999556, 15.00000000000000000, 19.50000000000000000 ) ) ;
#315 = EDGE_CURVE ( 'NONE', #425, #1125, #310, .T. ) ;
#316 = ORIENTED_EDGE ( 'NONE', *, *, #1041, .F. ) ;
#317 = CIRCLE ( 'NONE', #354, 5.000000000000000888 ) ;
#318 = CIRCLE ( 'NONE', #817, 5.000000000000000000 ) ;
#319 = ORIENTED_EDGE ( 'NONE', *, *, #481, .F. ) ;
#320 = DIRECTION ( 'NONE',  ( -0.000000000000000000, -1.000000000000000000, -0.000000000000000000 ) ) ;
#321 = VECTOR ( 'NONE', #123, 1000.000000000000000 ) ;
#322 = LINE ( 'NONE', #833, #720 ) ;
#323 = VERTEX_POINT ( 'NONE', #746 ) ;
#324 = ORIENTED_EDGE ( 'NONE', *, *, #636, .T. ) ;
#325 = CYLINDRICAL_SURFACE ( 'NONE', #552, 1.499999999999999556 ) ;
#326 = DIRECTION ( 'NONE',  ( 0.000000000000000000, -0.000000000000000000, 1.000000000000000000 ) ) ;
#327 = ORIENTED_EDGE ( 'NONE', *, *, #689, .T. ) ;
#328 = ORIENTED_EDGE ( 'NONE', *, *, #909, .F. ) ;
#329 = FACE_OUTER_BOUND ( 'NONE', #241, .T. ) ;
#330 = LINE ( 'NONE', #943, #551 ) ;
#331 = VECTOR ( 'NONE', #666, 1000.000000000000000 ) ;
#332 = ORIENTED_EDGE ( 'NONE', *, *, #690, .T. ) ;
#333 = EDGE_CURVE ( 'NONE', #630, #653, #139, .T. ) ;
#334 = ORIENTED_EDGE ( 'NONE', *, *, #381, .F. ) ;
#335 = LINE ( 'NONE', #163, #82 ) ;
#336 = AXIS2_PLACEMENT_3D ( 'NONE', #995, #562, #915 ) ;
#337 = DIRECTION ( 'NONE',  ( 0.000000000000000000, 0.000000000000000000, -1.000000000000000000 ) ) ;
#338 = EDGE_LOOP ( 'NONE', ( #1093, #548, #94, #319 ) ) ;
#339 = LINE ( 'NONE', #1110, #331 ) ;
#340 = VERTEX_POINT ( 'NONE', #428 ) ;
#341 = FACE_OUTER_BOUND ( 'NONE', #853, .T. ) ;
#342 = PLANE ( 'NONE',  #152 ) ;
#343 = DIRECTION ( 'NONE',  ( 1.000000000000000000, 7.703719777548943412E-34, 1.264933817329266432E-17 ) ) ;
#344 = ORIENTED_EDGE ( 'NONE', *, *, #633, .T. ) ;
#345 = DIRECTION ( 'NONE',  ( -1.000000000000000000, 0.000000000000000000, 1.700709290173340409E-17 ) ) ;
#346 = CARTESIAN_POINT ( 'NONE',  ( -4.978594282455823361, 70.59419491983769035, -0.8310842202525009492 ) ) ;
#347 = DIRECTION ( 'NONE',  ( -1.000000000000000000, 0.000000000000000000, 0.000000000000000000 ) ) ;
#348 = EDGE_CURVE ( 'NONE', #210, #785, #1057, .T. ) ;
#349 = ADVANCED_FACE ( 'NONE', ( #79, #1133, #613 ), #699, .F. ) ;
#350 = VERTEX_POINT ( 'NONE', #1127 ) ;
#351 = LINE ( 'NONE', #1051, #492 ) ;
#352 = AXIS2_PLACEMENT_3D ( 'NONE', #962, #362, #532 ) ;
#353 = DIRECTION ( 'NONE',  ( -1.000000000000000000, 0.000000000000000000, -0.000000000000000000 ) ) ;
#354 = AXIS2_PLACEMENT_3D ( 'NONE', #1085, #406, #120 ) ;
#355 = VECTOR ( 'NONE', #88, 1000.000000000000000 ) ;
#356 = LINE ( 'NONE', #89, #1122 ) ;
#357 = EDGE_LOOP ( 'NONE', ( #298, #836, #903, #289, #101, #173, #918, #1071, #649 ) ) ;
#358 = FACE_OUTER_BOUND ( 'NONE', #1065, .T. ) ;
#359 = CARTESIAN_POINT ( 'NONE',  ( 5.000000000000000000, 1.540743955509788682E-30, 21.99999999999999289 ) ) ;
#360 = CARTESIAN_POINT ( 'NONE',  ( 5.000000000000000000, 0.000000000000000000, 4.251773225433351024E-17 ) ) ;
#361 = ORIENTED_EDGE ( 'NONE', *, *, #522, .F. ) ;
#362 = DIRECTION ( 'NONE',  ( 1.000000000000000000, 7.703719777548943412E-34, 1.264933817329266432E-17 ) ) ;
#363 = LINE ( 'NONE', #284, #297 ) ;
#364 = EDGE_CURVE ( 'NONE', #1077, #579, #243, .T. ) ;
#365 = PLANE ( 'NONE',  #952 ) ;
#366 = ADVANCED_FACE ( 'NONE', ( #500 ), #342, .F. ) ;
#367 = ORIENTED_EDGE ( 'NONE', *, *, #501, .T. ) ;
#368 = LINE ( 'NONE', #893, #446 ) ;
#369 = SURFACE_STYLE_USAGE ( .BOTH. , #715 ) ;
#370 = AXIS2_PLACEMENT_3D ( 'NONE', #761, #1116, #56 ) ;
#371 = CIRCLE ( 'NONE', #190, 2.249999999999998668 ) ;
#372 = AXIS2_PLACEMENT_3D ( 'NONE', #686, #859, #515 ) ;
#373 = ORIENTED_EDGE ( 'NONE', *, *, #99, .T. ) ;
#374 = CARTESIAN_POINT ( 'NONE',  ( -2.999999999999999556, 70.90000000000000568, 0.5000000000000000000 ) ) ;
#375 = FACE_OUTER_BOUND ( 'NONE', #225, .T. ) ;
#376 = VERTEX_POINT ( 'NONE', #1018 ) ;
#377 = LINE ( 'NONE', #748, #35 ) ;
#378 = ORIENTED_EDGE ( 'NONE', *, *, #1129, .F. ) ;
#379 = CARTESIAN_POINT ( 'NONE',  ( -2.999999999999999556, 70.90000000000000568, 0.5000000000000000000 ) ) ;
#380 = EDGE_CURVE ( 'NONE', #1088, #156, #260, .T. ) ;
#381 = EDGE_CURVE ( 'NONE', #382, #147, #1038, .T. ) ;
#382 = VERTEX_POINT ( 'NONE', #675 ) ;
#383 = CARTESIAN_POINT ( 'NONE',  ( 8.673617379884035472E-16, 15.00000000000000000, 21.75000000000000000 ) ) ;
#384 = EDGE_CURVE ( 'NONE', #21, #546, #169, .T. ) ;
#385 = DIRECTION ( 'NONE',  ( -1.000000000000000000, 0.000000000000000000, -1.700709290173340409E-17 ) ) ;
#386 = CYLINDRICAL_SURFACE ( 'NONE', #130, 2.999999999999999112 ) ;
#387 = CIRCLE ( 'NONE', #777, 5.000000000000000000 ) ;
#388 = VECTOR ( 'NONE', #973, 1000.000000000000000 ) ;
#389 = ORIENTED_EDGE ( 'NONE', *, *, #43, .T. ) ;
#390 = LINE ( 'NONE', #734, #1026 ) ;
#391 = AXIS2_PLACEMENT_3D ( 'NONE', #870, #143, #782 ) ;
#392 = VERTEX_POINT ( 'NONE', #68 ) ;
#393 = CARTESIAN_POINT ( 'NONE',  ( 15.50000000000000000, -12.50000000000000000, 0.5000000000000000000 ) ) ;
#394 = DIRECTION ( 'NONE',  ( 3.068079190820900971E-33, -1.000000000000000000, -1.816464372750583135E-16 ) ) ;
#395 = VERTEX_POINT ( 'NONE', #770 ) ;
#396 = CARTESIAN_POINT ( 'NONE',  ( -4.000000000000000000, 70.90000000000000568, 25.50000000000000000 ) ) ;
#397 = EDGE_LOOP ( 'NONE', ( #862, #1135, #456, #996 ) ) ;
#398 = LINE ( 'NONE', #1089, #760 ) ;
#399 = EDGE_CURVE ( 'NONE', #1077, #392, #330, .T. ) ;
#400 = CYLINDRICAL_SURFACE ( 'NONE', #5, 5.000000000000000888 ) ;
#401 = EDGE_CURVE ( 'NONE', #31, #610, #371, .T. ) ;
#402 = EDGE_LOOP ( 'NONE', ( #105, #771, #983, #75 ) ) ;
#403 = DIRECTION ( 'NONE',  ( -1.700709290173340409E-17, 0.000000000000000000, 1.000000000000000000 ) ) ;
#404 = ORIENTED_EDGE ( 'NONE', *, *, #399, .T. ) ;
#405 = CARTESIAN_POINT ( 'NONE',  ( 5.000000000000000000, 0.000000000000000000, 1.000000000000000000 ) ) ;
#406 = DIRECTION ( 'NONE',  ( -1.000000000000000000, -7.703719777548943412E-34, -1.264933817329266432E-17 ) ) ;
#407 = ORIENTED_EDGE ( 'NONE', *, *, #1090, .T. ) ;
#408 = VECTOR ( 'NONE', #248, 1000.000000000000000 ) ;
#409 = EDGE_LOOP ( 'NONE', ( #301, #46, #813, #667, #1124, #781 ) ) ;
#410 = CARTESIAN_POINT ( 'NONE',  ( 15.50000000000000000, -3.900007814696055976E-17, -2.499999999999998668 ) ) ;
#411 = LINE ( 'NONE', #739, #537 ) ;
#412 = LINE ( 'NONE', #4, #265 ) ;
#413 = DIRECTION ( 'NONE',  ( 1.264933817329266432E-17, 0.000000000000000000, -1.000000000000000000 ) ) ;
#414 = EDGE_LOOP ( 'NONE', ( #731, #590, #127, #847 ) ) ;
#415 = FACE_OUTER_BOUND ( 'NONE', #488, .T. ) ;
#416 = CARTESIAN_POINT ( 'NONE',  ( -3.884651667782116569, 68.99154895029673185, -2.308466096083436891 ) ) ;
#417 = EDGE_CURVE ( 'NONE', #823, #395, #133, .T. ) ;
#418 = CYLINDRICAL_SURFACE ( 'NONE', #370, 2.249999999999998668 ) ;
#419 = DIRECTION ( 'NONE',  ( -1.000000000000000000, 0.000000000000000000, 0.000000000000000000 ) ) ;
#420 = EDGE_LOOP ( 'NONE', ( #27, #118, #885, #1109 ) ) ;
#421 = FACE_OUTER_BOUND ( 'NONE', #420, .T. ) ;
#422 = DIRECTION ( 'NONE',  ( 0.000000000000000000, 0.000000000000000000, 1.000000000000000000 ) ) ;
#423 = ORIENTED_EDGE ( 'NONE', *, *, #942, .F. ) ;
#424 = CIRCLE ( 'NONE', #55, 5.000000000000000888 ) ;
#425 = VERTEX_POINT ( 'NONE', #606 ) ;
#426 = PLANE ( 'NONE',  #888 ) ;
#427 = CIRCLE ( 'NONE', #336, 2.249999999999998668 ) ;
#428 = CARTESIAN_POINT ( 'NONE',  ( -2.499999999999999556, 63.40000000000001279, 23.99999999999999645 ) ) ;
#429 = LINE ( 'NONE', #788, #1063 ) ;
#430 = LINE ( 'NONE', #677, #829 ) ;
#431 = ORIENTED_EDGE ( 'NONE', *, *, #182, .T. ) ;
#432 = DIRECTION ( 'NONE',  ( -1.700709290173340409E-17, 0.000000000000000000, -1.000000000000000000 ) ) ;
#433 = CARTESIAN_POINT ( 'NONE',  ( 15.50000000000000000, 67.40000000000000568, 17.00000000000000000 ) ) ;
#434 = EDGE_CURVE ( 'NONE', #29, #1036, #922, .T. ) ;
#435 = EDGE_CURVE ( 'NONE', #653, #323, #1006, .T. ) ;
#436 = CARTESIAN_POINT ( 'NONE',  ( 8.283304597789253876E-16, 63.40000000000001279, 19.50000000000000000 ) ) ;
#437 = PRODUCT_DEFINITION_SHAPE ( 'NONE', 'NONE',  #256 ) ;
#438 = ORIENTED_EDGE ( 'NONE', *, *, #723, .T. ) ;
#439 = DIRECTION ( 'NONE',  ( 1.700709290173340409E-17, 0.000000000000000000, 1.000000000000000000 ) ) ;
#440 =( NAMED_UNIT ( * ) SI_UNIT ( $, .STERADIAN. ) SOLID_ANGLE_UNIT ( ) );
#441 = CARTESIAN_POINT ( 'NONE',  ( 5.000000000000000000, -9.500000000000001776, 25.50000000000000000 ) ) ;
#442 = ORIENTED_EDGE ( 'NONE', *, *, #303, .T. ) ;
#443 = CARTESIAN_POINT ( 'NONE',  ( 2.499999999999999556, 0.000000000000000000, 25.50000000000000000 ) ) ;
#444 = AXIS2_PLACEMENT_3D ( 'NONE', #941, #863, #72 ) ;
#445 = CIRCLE ( 'NONE', #1123, 1.500000000000000000 ) ;
#446 = VECTOR ( 'NONE', #1070, 1000.000000000000000 ) ;
#447 = DIRECTION ( 'NONE',  ( -0.000000000000000000, -1.000000000000000000, -0.000000000000000000 ) ) ;
#448 = EDGE_LOOP ( 'NONE', ( #754, #944, #236, #940 ) ) ;
#449 = CARTESIAN_POINT ( 'NONE',  ( 8.673617379884035472E-16, 63.40000000000001279, 21.75000000000000000 ) ) ;
#450 =( LENGTH_UNIT ( ) NAMED_UNIT ( * ) SI_UNIT ( .MILLI., .METRE. ) );
#451 = EDGE_CURVE ( 'NONE', #543, #142, #164, .T. ) ;
#452 = DIRECTION ( 'NONE',  ( -1.000000000000000000, -0.000000000000000000, 1.734723475976807094E-17 ) ) ;
#453 = VERTEX_POINT ( 'NONE', #433 ) ;
#454 = FACE_OUTER_BOUND ( 'NONE', #1015, .T. ) ;
#455 = DIRECTION ( 'NONE',  ( -1.264933817329266432E-17, 0.000000000000000000, 1.000000000000000000 ) ) ;
#456 = ORIENTED_EDGE ( 'NONE', *, *, #633, .F. ) ;
#457 = LINE ( 'NONE', #268, #989 ) ;
#458 = PLANE ( 'NONE',  #20 ) ;
#459 = AXIS2_PLACEMENT_3D ( 'NONE', #849, #557, #305 ) ;
#460 = ORIENTED_EDGE ( 'NONE', *, *, #1128, .F. ) ;
#461 = DIRECTION ( 'NONE',  ( -7.703719777548943412E-34, 1.000000000000000000, -1.310178779456958743E-50 ) ) ;
#462 = CARTESIAN_POINT ( 'NONE',  ( 5.000000000000000000, 67.40000000000000568, 17.00000000000000000 ) ) ;
#463 = ADVANCED_FACE ( 'NONE', ( #967 ), #24, .F. ) ;
#464 = EDGE_CURVE ( 'NONE', #1086, #1088, #816, .T. ) ;
#465 = EDGE_LOOP ( 'NONE', ( #729, #949, #213, #834, #44, #140, #438, #7 ) ) ;
#466 = DIRECTION ( 'NONE',  ( -1.000000000000000000, 0.000000000000000000, 1.700709290173340409E-17 ) ) ;
#467 = DIRECTION ( 'NONE',  ( -1.000000000000000000, -7.703719777548943412E-34, -1.264933817329266432E-17 ) ) ;
#468 = CARTESIAN_POINT ( 'NONE',  ( 15.50000000000000000, 67.90000000000000568, 25.50000000000000000 ) ) ;
#469 = ORIENTED_EDGE ( 'NONE', *, *, #384, .T. ) ;
#470 = DIRECTION ( 'NONE',  ( 0.000000000000000000, 0.000000000000000000, -1.000000000000000000 ) ) ;
#471 = LINE ( 'NONE', #1032, #149 ) ;
#472 = CARTESIAN_POINT ( 'NONE',  ( 2.500000000000000000, 70.90000000000000568, 0.5000000000000000000 ) ) ;
#473 = AXIS2_PLACEMENT_3D ( 'NONE', #22, #611, #1004 ) ;
#474 = ORIENTED_EDGE ( 'NONE', *, *, #215, .T. ) ;
#475 = CARTESIAN_POINT ( 'NONE',  ( -4.000000000000000000, 0.000000000000000000, 0.000000000000000000 ) ) ;
#476 = ADVANCED_FACE ( 'NONE', ( #375 ), #458, .T. ) ;
#477 = VERTEX_POINT ( 'NONE', #617 ) ;
#478 = PLANE ( 'NONE',  #1028 ) ;
#479 = EDGE_CURVE ( 'NONE', #939, #637, #534, .T. ) ;
#480 = DIRECTION ( 'NONE',  ( 1.264933817329266432E-17, 0.000000000000000000, -1.000000000000000000 ) ) ;
#481 = EDGE_CURVE ( 'NONE', #340, #610, #545, .T. ) ;
#482 = ORIENTED_EDGE ( 'NONE', *, *, #285, .T. ) ;
#483 = CARTESIAN_POINT ( 'NONE',  ( -2.500000000000000000, 69.40000000000000568, 0.000000000000000000 ) ) ;
#484 = DIRECTION ( 'NONE',  ( -1.700709290173340409E-17, 0.000000000000000000, 1.000000000000000000 ) ) ;
#485 = FACE_OUTER_BOUND ( 'NONE', #991, .T. ) ;
#486 = ORIENTED_EDGE ( 'NONE', *, *, #195, .T. ) ;
#487 =( LENGTH_UNIT ( ) NAMED_UNIT ( * ) SI_UNIT ( .MILLI., .METRE. ) );
#488 = EDGE_LOOP ( 'NONE', ( #749, #367, #135, #203, #496 ) ) ;
#489 = DIRECTION ( 'NONE',  ( 1.264933817329266432E-17, 0.000000000000000000, -1.000000000000000000 ) ) ;
#490 = FACE_OUTER_BOUND ( 'NONE', #252, .T. ) ;
#491 = B_SPLINE_CURVE_WITH_KNOTS ( 'NONE', 3,
 ( #835, #547, #840, #574 ),
 .UNSPECIFIED., .F., .F.,
 ( 4, 4 ),
 ( 0.000000000000000000, 0.0006131160441195654528 ),
 .UNSPECIFIED. ) ;
#492 = VECTOR ( 'NONE', #91, 1000.000000000000000 ) ;
#493 = ORIENTED_EDGE ( 'NONE', *, *, #518, .T. ) ;
#494 = AXIS2_PLACEMENT_3D ( 'NONE', #802, #512, #806 ) ;
#495 = MECHANICAL_DESIGN_GEOMETRIC_PRESENTATION_REPRESENTATION (  '', ( #1102 ), #629 ) ;
#496 = ORIENTED_EDGE ( 'NONE', *, *, #296, .F. ) ;
#497 = LINE ( 'NONE', #1113, #41 ) ;
#498 = AXIS2_PLACEMENT_3D ( 'NONE', #808, #439, #625 ) ;
#499 = ADVANCED_FACE ( 'NONE', ( #704 ), #728, .T. ) ;
#500 = FACE_OUTER_BOUND ( 'NONE', #768, .T. ) ;
#501 = EDGE_CURVE ( 'NONE', #598, #425, #1137, .T. ) ;
#502 = EDGE_CURVE ( 'NONE', #861, #258, #206, .T. ) ;
#503 = DIRECTION ( 'NONE',  ( -1.404885872131212786E-33, 1.000000000000000000, 8.260587980841942477E-17 ) ) ;
#504 = SHAPE_DEFINITION_REPRESENTATION ( #437, #652 ) ;
#505 = ORIENTED_EDGE ( 'NONE', *, *, #380, .F. ) ;
#506 = DIRECTION ( 'NONE',  ( -0.000000000000000000, 1.000000000000000000, -0.000000000000000000 ) ) ;
#507 = CARTESIAN_POINT ( 'NONE',  ( -3.448468008754537628, 68.45025015461352780, -2.452339735778156893 ) ) ;
#508 = VERTEX_POINT ( 'NONE', #359 ) ;
#509 = EDGE_LOOP ( 'NONE', ( #691, #486, #713, #685, #250, #116 ) ) ;
#510 = CARTESIAN_POINT ( 'NONE',  ( 15.50000000000000000, -3.996221620051281269E-15, 21.99999999999999289 ) ) ;
#511 = CARTESIAN_POINT ( 'NONE',  ( 5.000000000000000000, 3.851859888774471706E-33, 25.50000000000000000 ) ) ;
#512 = DIRECTION ( 'NONE',  ( -1.000000000000000000, 0.000000000000000000, 1.700709290173340409E-17 ) ) ;
#513 = CIRCLE ( 'NONE', #832, 1.499999999999999556 ) ;
#514 = ORIENTED_EDGE ( 'NONE', *, *, #549, .T. ) ;
#515 = DIRECTION ( 'NONE',  ( 0.000000000000000000, 0.000000000000000000, 1.000000000000000000 ) ) ;
#516 = VECTOR ( 'NONE', #107, 1000.000000000000000 ) ;
#517 = EDGE_CURVE ( 'NONE', #1100, #821, #638, .T. ) ;
#518 = EDGE_CURVE ( 'NONE', #392, #553, #363, .T. ) ;
#519 = AXIS2_PLACEMENT_3D ( 'NONE', #510, #253, #848 ) ;
#520 = DIRECTION ( 'NONE',  ( -1.000000000000000000, 0.000000000000000000, 0.000000000000000000 ) ) ;
#521 = FACE_OUTER_BOUND ( 'NONE', #1050, .T. ) ;
#522 = EDGE_CURVE ( 'NONE', #615, #1054, #445, .T. ) ;
#523 = ORIENTED_EDGE ( 'NONE', *, *, #795, .F. ) ;
#524 = CARTESIAN_POINT ( 'NONE',  ( 2.500000000000000000, 70.85803989154980798, 0.000000000000000000 ) ) ;
#525 = CARTESIAN_POINT ( 'NONE',  ( -4.848466816396265422, 70.32273477155132468, -1.277015347384380384 ) ) ;
#526 = LINE ( 'NONE', #97, #3 ) ;
#527 = ORIENTED_EDGE ( 'NONE', *, *, #1008, .T. ) ;
#528 = CYLINDRICAL_SURFACE ( 'NONE', #982, 5.000000000000000888 ) ;
#529 = DIRECTION ( 'NONE',  ( 0.000000000000000000, 0.000000000000000000, -1.000000000000000000 ) ) ;
#530 = FACE_BOUND ( 'NONE', #725, .T. ) ;
#531 = ORIENTED_EDGE ( 'NONE', *, *, #563, .T. ) ;
#532 = DIRECTION ( 'NONE',  ( 0.000000000000000000, 0.000000000000000000, -1.000000000000000000 ) ) ;
#533 = AXIS2_PLACEMENT_3D ( 'NONE', #822, #287, #227 ) ;
#534 = LINE ( 'NONE', #199, #887 ) ;
#535 = AXIS2_PLACEMENT_3D ( 'NONE', #272, #706, #172 ) ;
#536 = EDGE_CURVE ( 'NONE', #682, #939, #318, .T. ) ;
#537 = VECTOR ( 'NONE', #48, 1000.000000000000000 ) ;
#538 = MANIFOLD_SOLID_BREP ( 'Fillet4', #57 ) ;
#539 = CYLINDRICAL_SURFACE ( 'NONE', #1045, 3.000000000000000000 ) ;
#540 = ORIENTED_EDGE ( 'NONE', *, *, #619, .F. ) ;
#541 = DIRECTION ( 'NONE',  ( 0.000000000000000000, 0.000000000000000000, -1.000000000000000000 ) ) ;
#542 = DIRECTION ( 'NONE',  ( 0.000000000000000000, 0.000000000000000000, -1.000000000000000000 ) ) ;
#543 = VERTEX_POINT ( 'NONE', #622 ) ;
#544 = DIRECTION ( 'NONE',  ( 1.734723475976805246E-17, 0.000000000000000000, 1.000000000000000000 ) ) ;
#545 = LINE ( 'NONE', #809, #591 ) ;
#546 = VERTEX_POINT ( 'NONE', #755 ) ;
#547 = CARTESIAN_POINT ( 'NONE',  ( -3.764003191354605704, 70.88614373879812547, 0.1662646025331242505 ) ) ;
#548 = ORIENTED_EDGE ( 'NONE', *, *, #144, .T. ) ;
#549 = EDGE_CURVE ( 'NONE', #1088, #1125, #643, .T. ) ;
#550 = AXIS2_PLACEMENT_3D ( 'NONE', #614, #83, #948 ) ;
#551 = VECTOR ( 'NONE', #1044, 1000.000000000000000 ) ;
#552 = AXIS2_PLACEMENT_3D ( 'NONE', #76, #432, #151 ) ;
#553 = VERTEX_POINT ( 'NONE', #302 ) ;
#554 = DIRECTION ( 'NONE',  ( 0.000000000000000000, 0.000000000000000000, -1.000000000000000000 ) ) ;
#555 = ORIENTED_EDGE ( 'NONE', *, *, #795, .T. ) ;
#556 = DIRECTION ( 'NONE',  ( -1.000000000000000000, 0.000000000000000000, 0.000000000000000000 ) ) ;
#557 = DIRECTION ( 'NONE',  ( -0.000000000000000000, -1.000000000000000000, -0.000000000000000000 ) ) ;
#558 = ORIENTED_EDGE ( 'NONE', *, *, #942, .T. ) ;
#559 = CARTESIAN_POINT ( 'NONE',  ( 15.50000000000000000, 3.851859888774471706E-33, 25.50000000000000000 ) ) ;
#560 = ORIENTED_EDGE ( 'NONE', *, *, #709, .T. ) ;
#561 = DIRECTION ( 'NONE',  ( 0.000000000000000000, 0.000000000000000000, -1.000000000000000000 ) ) ;
#562 = DIRECTION ( 'NONE',  ( -1.000000000000000000, 0.000000000000000000, 1.734723475976807094E-17 ) ) ;
#563 = EDGE_CURVE ( 'NONE', #930, #382, #1009, .T. ) ;
#564 = EDGE_LOOP ( 'NONE', ( #965, #404, #493, #906, #879 ) ) ;
#565 = DIRECTION ( 'NONE',  ( -1.000000000000000000, -0.000000000000000000, 1.734723475976807094E-17 ) ) ;
#566 = VERTEX_POINT ( 'NONE', #292 ) ;
#567 = DIRECTION ( 'NONE',  ( -1.000000000000000000, -0.000000000000000000, -0.000000000000000000 ) ) ;
#568 = DIRECTION ( 'NONE',  ( 3.068079190820900971E-33, -1.000000000000000000, -1.816464372750583135E-16 ) ) ;
#569 = EDGE_CURVE ( 'NONE', #311, #382, #309, .T. ) ;
#570 = CIRCLE ( 'NONE', #831, 2.249999999999998668 ) ;
#571 = PRESENTATION_LAYER_ASSIGNMENT (  '', '', ( #1102 ) ) ;
#572 = AXIS2_PLACEMENT_3D ( 'NONE', #871, #255, #947 ) ;
#573 = VERTEX_POINT ( 'NONE', #53 ) ;
#574 = CARTESIAN_POINT ( 'NONE',  ( -4.000000000000000000, 70.90000000000000568, 0.5000000000000000000 ) ) ;
#575 = ORIENTED_EDGE ( 'NONE', *, *, #1108, .T. ) ;
#576 = DIRECTION ( 'NONE',  ( -1.700709290173340409E-17, 0.000000000000000000, -1.000000000000000000 ) ) ;
#577 = DIRECTION ( 'NONE',  ( -1.000000000000000000, 0.000000000000000000, 0.000000000000000000 ) ) ;
#578 = CARTESIAN_POINT ( 'NONE',  ( 15.50000000000000000, -9.000000000000000000, -5.016317519411106937E-16 ) ) ;
#579 = VERTEX_POINT ( 'NONE', #405 ) ;
#580 = LINE ( 'NONE', #1097, #954 ) ;
#581 = LINE ( 'NONE', #921, #609 ) ;
#582 = EDGE_LOOP ( 'NONE', ( #733, #244, #575, #442 ) ) ;
#583 = EDGE_CURVE ( 'NONE', #453, #637, #999, .T. ) ;
#584 = ORIENTED_EDGE ( 'NONE', *, *, #198, .F. ) ;
#585 = CYLINDRICAL_SURFACE ( 'NONE', #372, 3.000000000000000000 ) ;
#586 = EDGE_CURVE ( 'NONE', #395, #311, #919, .T. ) ;
#587 = CARTESIAN_POINT ( 'NONE',  ( 2.500000000000000000, 70.90000000000000568, 0.000000000000000000 ) ) ;
#588 = ADVANCED_FACE ( 'NONE', ( #132 ), #478, .T. ) ;
#589 = VECTOR ( 'NONE', #971, 1000.000000000000000 ) ;
#590 = ORIENTED_EDGE ( 'NONE', *, *, #381, .T. ) ;
#591 = VECTOR ( 'NONE', #1068, 1000.000000000000000 ) ;
#592 = ORIENTED_EDGE ( 'NONE', *, *, #522, .T. ) ;
#593 = DIRECTION ( 'NONE',  ( -1.000000000000000000, 0.000000000000000000, -0.000000000000000000 ) ) ;
#594 = VECTOR ( 'NONE', #1066, 1000.000000000000000 ) ;
#595 = DIRECTION ( 'NONE',  ( -0.000000000000000000, 1.000000000000000000, 0.000000000000000000 ) ) ;
#596 = ORIENTED_EDGE ( 'NONE', *, *, #793, .T. ) ;
#597 = PRODUCT_CONTEXT ( 'NONE', #910, 'mechanical' ) ;
#598 = VERTEX_POINT ( 'NONE', #40 ) ;
#599 = DIRECTION ( 'NONE',  ( 0.000000000000000000, 0.000000000000000000, -1.000000000000000000 ) ) ;
#600 = DIRECTION ( 'NONE',  ( -1.000000000000000000, 0.000000000000000000, 1.734723475976807094E-17 ) ) ;
#601 = CARTESIAN_POINT ( 'NONE',  ( -4.000000000000000000, 1.500000000000001332, 25.50000000000000000 ) ) ;
#602 = EDGE_CURVE ( 'NONE', #736, #453, #398, .T. ) ;
#603 = ADVANCED_FACE ( 'NONE', ( #642 ), #237, .F. ) ;
#604 = ORIENTED_EDGE ( 'NONE', *, *, #1095, .T. ) ;
#605 = LINE ( 'NONE', #17, #851 ) ;
#606 = CARTESIAN_POINT ( 'NONE',  ( 15.50000000000000000, 62.40000000000000568, 22.00000000000000355 ) ) ;
#607 = PRODUCT_DEFINITION_FORMATION_WITH_SPECIFIED_SOURCE ( 'ANY', '', #180, .NOT_KNOWN. ) ;
#608 = CARTESIAN_POINT ( 'NONE',  ( 15.50000000000000000, -9.500000000000001776, 22.50000000000000000 ) ) ;
#609 = VECTOR ( 'NONE', #908, 1000.000000000000000 ) ;
#610 = VERTEX_POINT ( 'NONE', #737 ) ;
#611 = DIRECTION ( 'NONE',  ( -1.000000000000000000, 0.000000000000000000, -1.700709290173340409E-17 ) ) ;
#612 = CIRCLE ( 'NONE', #209, 3.000000000000000000 ) ;
#613 = FACE_OUTER_BOUND ( 'NONE', #852, .T. ) ;
#614 = CARTESIAN_POINT ( 'NONE',  ( 4.999999999999999112, 70.90000000000000568, 25.50000000000000000 ) ) ;
#615 = VERTEX_POINT ( 'NONE', #138 ) ;
#616 = CARTESIAN_POINT ( 'NONE',  ( -4.999999999999999112, 15.00000000000000000, 19.50000000000000000 ) ) ;
#617 = CARTESIAN_POINT ( 'NONE',  ( 15.50000000000000000, -12.50000000000000000, 22.50000000000000000 ) ) ;
#618 = LINE ( 'NONE', #1039, #188 ) ;
#619 = EDGE_CURVE ( 'NONE', #818, #945, #580, .T. ) ;
#620 = ORIENTED_EDGE ( 'NONE', *, *, #1090, .F. ) ;
#621 = DIRECTION ( 'NONE',  ( 1.000000000000000000, -0.000000000000000000, 1.700709290173340409E-17 ) ) ;
#622 = CARTESIAN_POINT ( 'NONE',  ( 5.000000000000000000, 0.000000000000000000, 25.50000000000000000 ) ) ;
#623 = LINE ( 'NONE', #1130, #170 ) ;
#624 = ORIENTED_EDGE ( 'NONE', *, *, #481, .T. ) ;
#625 = DIRECTION ( 'NONE',  ( 1.000000000000000000, 0.000000000000000000, 0.000000000000000000 ) ) ;
#626 = CIRCLE ( 'NONE', #1121, 5.000000000000000888 ) ;
#627 = DIRECTION ( 'NONE',  ( 1.000000000000000000, 3.421138828918011187E-49, 1.700709290173340409E-17 ) ) ;
#628 = VECTOR ( 'NONE', #1098, 1000.000000000000000 ) ;
#629 =( GEOMETRIC_REPRESENTATION_CONTEXT ( 3 ) GLOBAL_UNCERTAINTY_ASSIGNED_CONTEXT ( ( #1046 ) ) GLOBAL_UNIT_ASSIGNED_CONTEXT ( ( #450, #110, #440 ) ) REPRESENTATION_CONTEXT ( 'NONE', 'WORKASPACE' ) );
#630 = VERTEX_POINT ( 'NONE', #313 ) ;
#631 = CARTESIAN_POINT ( 'NONE',  ( 15.50000000000000000, -4.000000000000000888, 16.99999999999999289 ) ) ;
#632 = DIRECTION ( 'NONE',  ( 0.000000000000000000, 0.000000000000000000, -1.000000000000000000 ) ) ;
#633 = EDGE_CURVE ( 'NONE', #744, #717, #668, .T. ) ;
#634 = ORIENTED_EDGE ( 'NONE', *, *, #303, .F. ) ;
#635 = CARTESIAN_POINT ( 'NONE',  ( 15.50000000000000000, -9.000000000000001776, 16.99999999999999289 ) ) ;
#636 = EDGE_CURVE ( 'NONE', #579, #508, #927, .T. ) ;
#637 = VERTEX_POINT ( 'NONE', #462 ) ;
#638 = LINE ( 'NONE', #711, #388 ) ;
#639 = ORIENTED_EDGE ( 'NONE', *, *, #689, .F. ) ;
#640 = CARTESIAN_POINT ( 'NONE',  ( 15.50000000000000000, 62.40000000000000568, 5.999999999999999112 ) ) ;
#641 = ORIENTED_EDGE ( 'NONE', *, *, #1111, .F. ) ;
#642 = FACE_OUTER_BOUND ( 'NONE', #414, .T. ) ;
#643 = CIRCLE ( 'NONE', #703, 5.000000000000000888 ) ;
#644 = LINE ( 'NONE', #223, #228 ) ;
#645 = VECTOR ( 'NONE', #568, 1000.000000000000000 ) ;
#646 = AXIS2_PLACEMENT_3D ( 'NONE', #12, #621, #956 ) ;
#647 = VERTEX_POINT ( 'NONE', #217 ) ;
#648 = CARTESIAN_POINT ( 'NONE',  ( 5.000000000000000000, 3.851859888774471706E-33, 6.324669086646331852E-17 ) ) ;
#649 = ORIENTED_EDGE ( 'NONE', *, *, #891, .F. ) ;
#650 = CARTESIAN_POINT ( 'NONE',  ( 2.500000000000000000, 70.90000000000000568, 0.000000000000000000 ) ) ;
#651 = LINE ( 'NONE', #662, #645 ) ;
#652 = ADVANCED_BREP_SHAPE_REPRESENTATION ( 'original_block', ( #538, #293 ), #1022 ) ;
#653 = VERTEX_POINT ( 'NONE', #393 ) ;
#654 = DIRECTION ( 'NONE',  ( 7.703719777548943412E-34, -1.000000000000000000, 1.310178779456958743E-50 ) ) ;
#655 = ORIENTED_EDGE ( 'NONE', *, *, #144, .F. ) ;
#656 = CARTESIAN_POINT ( 'NONE',  ( 2.499999999999999556, 67.90000000000000568, 22.50000000000000000 ) ) ;
#657 = DIRECTION ( 'NONE',  ( 1.000000000000000000, -5.597413005428682852E-49, 1.700709290173340409E-17 ) ) ;
#658 = ORIENTED_EDGE ( 'NONE', *, *, #501, .F. ) ;
#659 = CYLINDRICAL_SURFACE ( 'NONE', #533, 2.249999999999998668 ) ;
#660 = EDGE_LOOP ( 'NONE', ( #634, #1010 ) ) ;
#661 = DIRECTION ( 'NONE',  ( -1.000000000000000000, 0.000000000000000000, 0.000000000000000000 ) ) ;
#662 = CARTESIAN_POINT ( 'NONE',  ( 5.000000000000000000, -3.996221620051281269E-15, 21.99999999999999289 ) ) ;
#663 = AXIS2_PLACEMENT_3D ( 'NONE', #288, #801, #278 ) ;
#664 = VECTOR ( 'NONE', #484, 1000.000000000000000 ) ;
#665 = ORIENTED_EDGE ( 'NONE', *, *, #974, .T. ) ;
#666 = DIRECTION ( 'NONE',  ( 0.000000000000000000, -1.000000000000000000, 0.000000000000000000 ) ) ;
#667 = ORIENTED_EDGE ( 'NONE', *, *, #636, .F. ) ;
#668 = LINE ( 'NONE', #1083, #868 ) ;
#669 = LINE ( 'NONE', #34, #683 ) ;
#670 = EDGE_LOOP ( 'NONE', ( #641, #955, #846, #1082, #1099, #604, #807, #555, #291, #1042, #90, #178 ) ) ;
#671 = EDGE_CURVE ( 'NONE', #258, #896, #115, .T. ) ;
#672 = ORIENTED_EDGE ( 'NONE', *, *, #583, .T. ) ;
#673 = CARTESIAN_POINT ( 'NONE',  ( 15.50000000000000000, 62.40000000000000568, 5.999999999999999112 ) ) ;
#674 = ADVANCED_FACE ( 'NONE', ( #732 ), #222, .F. ) ;
#675 = CARTESIAN_POINT ( 'NONE',  ( 2.499999999999999556, 70.90000000000000568, 22.50000000000000000 ) ) ;
#676 = EDGE_LOOP ( 'NONE', ( #926, #373 ) ) ;
#677 = CARTESIAN_POINT ( 'NONE',  ( 5.000000000000000000, -12.50000000000000000, 6.324669086646331852E-17 ) ) ;
#678 = ORIENTED_EDGE ( 'NONE', *, *, #78, .F. ) ;
#679 = DIRECTION ( 'NONE',  ( -5.730419068485961338E-34, 1.000000000000000000, -1.560003125878423500E-17 ) ) ;
#680 = DIRECTION ( 'NONE',  ( 1.000000000000000000, -0.000000000000000000, -0.000000000000000000 ) ) ;
#681 = VECTOR ( 'NONE', #32, 1000.000000000000000 ) ;
#682 = VERTEX_POINT ( 'NONE', #907 ) ;
#683 = VECTOR ( 'NONE', #577, 1000.000000000000000 ) ;
#684 = DIRECTION ( 'NONE',  ( 1.000000000000000000, 0.000000000000000000, 0.000000000000000000 ) ) ;
#685 = ORIENTED_EDGE ( 'NONE', *, *, #129, .F. ) ;
#686 = CARTESIAN_POINT ( 'NONE',  ( -2.500000000000000000, 67.90000000000000568, 0.5000000000000000000 ) ) ;
#687 = CIRCLE ( 'NONE', #391, 2.000000000000000000 ) ;
#688 = CARTESIAN_POINT ( 'NONE',  ( -2.499999999999999556, 70.90000000000000568, 25.50000000000000000 ) ) ;
#689 = EDGE_CURVE ( 'NONE', #392, #156, #1, .T. ) ;
#690 = EDGE_CURVE ( 'NONE', #1054, #744, #824, .T. ) ;
#691 = ORIENTED_EDGE ( 'NONE', *, *, #1058, .F. ) ;
#692 = APPLICATION_PROTOCOL_DEFINITION ( 'draft international standard', 'automotive_design', 1998, #910 ) ;
#693 = ORIENTED_EDGE ( 'NONE', *, *, #146, .F. ) ;
#694 = CARTESIAN_POINT ( 'NONE',  ( -2.999999999999999556, 0.000000000000000000, -2.500000000000000000 ) ) ;
#695 = CARTESIAN_POINT ( 'NONE',  ( 15.50000000000000000, -9.000000000000000000, -5.016317519411106937E-16 ) ) ;
#696 = CARTESIAN_POINT ( 'NONE',  ( -4.000000000000000000, 1.500000000000001332, 0.000000000000000000 ) ) ;
#697 = ORIENTED_EDGE ( 'NONE', *, *, #1114, .T. ) ;
#698 = CARTESIAN_POINT ( 'NONE',  ( -2.500000000000000000, 70.90000000000000568, 0.000000000000000000 ) ) ;
#699 = PLANE ( 'NONE',  #866 ) ;
#700 = CARTESIAN_POINT ( 'NONE',  ( 15.50000000000000000, 70.90000000000000568, 22.50000000000000000 ) ) ;
#701 = EDGE_LOOP ( 'NONE', ( #328, #334, #229, #113 ) ) ;
#702 = DIRECTION ( 'NONE',  ( -1.000000000000000000, 0.000000000000000000, -1.700709290173340409E-17 ) ) ;
#703 = AXIS2_PLACEMENT_3D ( 'NONE', #9, #1005, #750 ) ;
#704 = FACE_OUTER_BOUND ( 'NONE', #827, .T. ) ;
#705 = EDGE_CURVE ( 'NONE', #978, #945, #471, .T. ) ;
#706 = DIRECTION ( 'NONE',  ( -1.000000000000000000, -7.703719777548943412E-34, -1.264933817329266432E-17 ) ) ;
#707 = ORIENTED_EDGE ( 'NONE', *, *, #793, .F. ) ;
#708 = CARTESIAN_POINT ( 'NONE',  ( -2.499999999999999556, 15.00000000000000000, 23.99999999999999645 ) ) ;
#709 = EDGE_CURVE ( 'NONE', #717, #210, #612, .T. ) ;
#710 = EDGE_CURVE ( 'NONE', #1125, #961, #497, .T. ) ;
#711 = CARTESIAN_POINT ( 'NONE',  ( -4.000000000000000000, 0.000000000000000000, 25.50000000000000000 ) ) ;
#712 = DIRECTION ( 'NONE',  ( 0.000000000000000000, -0.000000000000000000, 1.000000000000000000 ) ) ;
#713 = ORIENTED_EDGE ( 'NONE', *, *, #125, .T. ) ;
#714 = DIRECTION ( 'NONE',  ( 1.000000000000000000, -0.000000000000000000, 1.700709290173340409E-17 ) ) ;
#715 = SURFACE_SIDE_STYLE ('',( #194 ) ) ;
#716 = DIRECTION ( 'NONE',  ( -1.000000000000000000, 0.000000000000000000, 1.700709290173340409E-17 ) ) ;
#717 = VERTEX_POINT ( 'NONE', #854 ) ;
#718 = CARTESIAN_POINT ( 'NONE',  ( -2.500000000000000000, 1.500000000000001332, -2.551063935260010614E-17 ) ) ;
#719 = VECTOR ( 'NONE', #654, 1000.000000000000000 ) ;
#720 = VECTOR ( 'NONE', #751, 1000.000000000000000 ) ;
#721 = AXIS2_PLACEMENT_3D ( 'NONE', #951, #1033, #520 ) ;
#722 = AXIS2_PLACEMENT_3D ( 'NONE', #656, #385, #842 ) ;
#723 = EDGE_CURVE ( 'NONE', #323, #823, #1023, .T. ) ;
#724 = ADVANCED_FACE ( 'NONE', ( #931 ), #325, .T. ) ;
#725 = EDGE_LOOP ( 'NONE', ( #1031, #86 ) ) ;
#726 = DIRECTION ( 'NONE',  ( 1.000000000000000000, -4.657047620516661674E-50, 1.700709290173340409E-17 ) ) ;
#727 = ORIENTED_EDGE ( 'NONE', *, *, #1001, .T. ) ;
#728 = PLANE ( 'NONE',  #901 ) ;
#729 = ORIENTED_EDGE ( 'NONE', *, *, #85, .T. ) ;
#730 = LINE ( 'NONE', #743, #681 ) ;
#731 = ORIENTED_EDGE ( 'NONE', *, *, #569, .T. ) ;
#732 = FACE_OUTER_BOUND ( 'NONE', #397, .T. ) ;
#733 = ORIENTED_EDGE ( 'NONE', *, *, #671, .F. ) ;
#734 = CARTESIAN_POINT ( 'NONE',  ( 5.000000000000000000, 0.000000000000000000, 4.251773225433351024E-17 ) ) ;
#735 = APPLICATION_CONTEXT ( 'automotive_design' ) ;
#736 = VERTEX_POINT ( 'NONE', #946 ) ;
#737 = CARTESIAN_POINT ( 'NONE',  ( -4.999999999999999112, 63.40000000000001279, 23.99999999999999645 ) ) ;
#738 = VECTOR ( 'NONE', #567, 1000.000000000000000 ) ;
#739 = CARTESIAN_POINT ( 'NONE',  ( -2.499999999999999556, 69.40000000000000568, 25.50000000000000000 ) ) ;
#740 = AXIS2_PLACEMENT_3D ( 'NONE', #211, #745, #556 ) ;
#741 = ADVANCED_FACE ( 'NONE', ( #263 ), #585, .T. ) ;
#742 = ORIENTED_EDGE ( 'NONE', *, *, #434, .F. ) ;
#743 = CARTESIAN_POINT ( 'NONE',  ( -2.500000000000000000, 0.000000000000000000, 0.000000000000000000 ) ) ;
#744 = VERTEX_POINT ( 'NONE', #247 ) ;
#745 = DIRECTION ( 'NONE',  ( -0.000000000000000000, -1.000000000000000000, -0.000000000000000000 ) ) ;
#746 = CARTESIAN_POINT ( 'NONE',  ( 15.50000000000000000, -9.499999999999994671, -2.499999999999998668 ) ) ;
#747 = ORIENTED_EDGE ( 'NONE', *, *, #723, .F. ) ;
#748 = CARTESIAN_POINT ( 'NONE',  ( 15.50000000000000000, -9.500000000000001776, 25.50000000000000000 ) ) ;
#749 = ORIENTED_EDGE ( 'NONE', *, *, #161, .F. ) ;
#750 = DIRECTION ( 'NONE',  ( 0.000000000000000000, 0.000000000000000000, -1.000000000000000000 ) ) ;
#751 = DIRECTION ( 'NONE',  ( 1.264933817329266432E-17, 8.260587980841942477E-17, -1.000000000000000000 ) ) ;
#752 = EDGE_LOOP ( 'NONE', ( #286, #1080 ) ) ;
#753 = DIRECTION ( 'NONE',  ( 1.734723475976805246E-17, 0.000000000000000000, 1.000000000000000000 ) ) ;
#754 = ORIENTED_EDGE ( 'NONE', *, *, #549, .F. ) ;
#755 = CARTESIAN_POINT ( 'NONE',  ( 2.500000000000000000, 0.000000000000000000, 0.000000000000000000 ) ) ;
#756 = DIRECTION ( 'NONE',  ( 1.000000000000000000, -0.000000000000000000, -0.000000000000000000 ) ) ;
#757 = AXIS2_PLACEMENT_3D ( 'NONE', #14, #627, #529 ) ;
#758 = ADVANCED_FACE ( 'NONE', ( #764, #936 ), #426, .T. ) ;
#759 = EDGE_CURVE ( 'NONE', #818, #785, #335, .T. ) ;
#760 = VECTOR ( 'NONE', #830, 1000.000000000000000 ) ;
#761 = CARTESIAN_POINT ( 'NONE',  ( 8.673617379884035472E-16, 63.40000000000001279, 21.75000000000000000 ) ) ;
#762 = CARTESIAN_POINT ( 'NONE',  ( -2.500000000000000000, 1.500000000000001332, 0.000000000000000000 ) ) ;
#763 = ORIENTED_EDGE ( 'NONE', *, *, #112, .F. ) ;
#764 = FACE_BOUND ( 'NONE', #856, .T. ) ;
#765 = CARTESIAN_POINT ( 'NONE',  ( 15.50000000000000000, -12.50000000000000000, 2.418211663346640430E-16 ) ) ;
#766 = ORIENTED_EDGE ( 'NONE', *, *, #315, .F. ) ;
#767 =( NAMED_UNIT ( * ) PLANE_ANGLE_UNIT ( ) SI_UNIT ( $, .RADIAN. ) );
#768 = EDGE_LOOP ( 'NONE', ( #108, #975, #1112, #282 ) ) ;
#769 = CARTESIAN_POINT ( 'NONE',  ( 5.000000000000000888, -4.000000000000000888, 5.999999999999999112 ) ) ;
#770 = CARTESIAN_POINT ( 'NONE',  ( 15.50000000000000000, 70.90000000000000568, 0.5000000000000000000 ) ) ;
#771 = ORIENTED_EDGE ( 'NONE', *, *, #1076, .F. ) ;
#772 = LINE ( 'NONE', #234, #1118 ) ;
#773 = ORIENTED_EDGE ( 'NONE', *, *, #464, .T. ) ;
#774 = DIRECTION ( 'NONE',  ( 1.000000000000000000, 0.000000000000000000, 1.700709290173340409E-17 ) ) ;
#775 = VECTOR ( 'NONE', #857, 1000.000000000000000 ) ;
#776 = CARTESIAN_POINT ( 'NONE',  ( 15.49999999999999822, 67.90000000000000568, 0.5000000000000000000 ) ) ;
#777 = AXIS2_PLACEMENT_3D ( 'NONE', #640, #37, #214 ) ;
#778 = ORIENTED_EDGE ( 'NONE', *, *, #238, .T. ) ;
#779 = ADVANCED_FACE ( 'NONE', ( #415 ), #950, .T. ) ;
#780 = VECTOR ( 'NONE', #680, 1000.000000000000000 ) ;
#781 = ORIENTED_EDGE ( 'NONE', *, *, #536, .T. ) ;
#782 = DIRECTION ( 'NONE',  ( 0.000000000000000000, 0.000000000000000000, -1.000000000000000000 ) ) ;
#783 = DIRECTION ( 'NONE',  ( 1.700709290173340409E-17, 0.000000000000000000, 1.000000000000000000 ) ) ;
#784 = DIRECTION ( 'NONE',  ( -0.000000000000000000, -1.000000000000000000, -0.000000000000000000 ) ) ;
#785 = VERTEX_POINT ( 'NONE', #1017 ) ;
#786 = CARTESIAN_POINT ( 'NONE',  ( 15.50000000000000000, 3.851859888774471706E-33, 2.418211663346640430E-16 ) ) ;
#787 = CARTESIAN_POINT ( 'NONE',  ( -3.558628652502385581, 68.58615143127131830, -2.423856433599349547 ) ) ;
#788 = CARTESIAN_POINT ( 'NONE',  ( 15.50000000000000000, 70.90000000000000568, 2.418211663346640430E-16 ) ) ;
#789 = ORIENTED_EDGE ( 'NONE', *, *, #380, .T. ) ;
#790 = CARTESIAN_POINT ( 'NONE',  ( 2.500000000000000000, 70.90000000000000568, 0.000000000000000000 ) ) ;
#791 = DIRECTION ( 'NONE',  ( 0.000000000000000000, -0.000000000000000000, 1.000000000000000000 ) ) ;
#792 = LINE ( 'NONE', #183, #80 ) ;
#793 = EDGE_CURVE ( 'NONE', #1016, #818, #687, .T. ) ;
#794 = AXIS2_PLACEMENT_3D ( 'NONE', #673, #774, #1126 ) ;
#795 = EDGE_CURVE ( 'NONE', #350, #1077, #1079, .T. ) ;
#796 = VECTOR ( 'NONE', #480, 1000.000000000000000 ) ;
#797 = ORIENTED_EDGE ( 'NONE', *, *, #1024, .T. ) ;
#798 = LINE ( 'NONE', #374, #589 ) ;
#799 = AXIS2_PLACEMENT_3D ( 'NONE', #776, #1120, #337 ) ;
#800 = CIRCLE ( 'NONE', #938, 3.000000000000000000 ) ;
#801 = DIRECTION ( 'NONE',  ( -1.000000000000000000, 0.000000000000000000, 1.700709290173340409E-17 ) ) ;
#802 = CARTESIAN_POINT ( 'NONE',  ( -2.499999999999999556, 63.40000000000001279, 21.75000000000000000 ) ) ;
#803 = ORIENTED_EDGE ( 'NONE', *, *, #78, .T. ) ;
#804 = DIRECTION ( 'NONE',  ( -1.000000000000000000, -7.703719777548943412E-34, -1.264933817329266432E-17 ) ) ;
#805 = DIRECTION ( 'NONE',  ( 1.000000000000000000, 0.000000000000000000, -0.000000000000000000 ) ) ;
#806 = DIRECTION ( 'NONE',  ( 0.000000000000000000, 0.000000000000000000, 1.000000000000000000 ) ) ;
#807 = ORIENTED_EDGE ( 'NONE', *, *, #198, .T. ) ;
#808 = CARTESIAN_POINT ( 'NONE',  ( -4.000000000000000000, 1.500000000000001332, 25.50000000000000000 ) ) ;
#809 = CARTESIAN_POINT ( 'NONE',  ( 9.063930161978817068E-16, 63.40000000000001279, 23.99999999999999645 ) ) ;
#810 = ADVANCED_FACE ( 'NONE', ( #341 ), #87, .F. ) ;
#811 = ADVANCED_FACE ( 'NONE', ( #329 ), #157, .T. ) ;
#812 = ADVANCED_FACE ( 'NONE', ( #421 ), #59, .F. ) ;
#813 = ORIENTED_EDGE ( 'NONE', *, *, #161, .T. ) ;
#814 = CARTESIAN_POINT ( 'NONE',  ( 4.999999999999999112, -9.499999999999994671, 0.5000000000000000000 ) ) ;
#815 = CIRCLE ( 'NONE', #494, 2.249999999999998668 ) ;
#816 = LINE ( 'NONE', #186, #516 ) ;
#817 = AXIS2_PLACEMENT_3D ( 'NONE', #898, #963, #632 ) ;
#818 = VERTEX_POINT ( 'NONE', #694 ) ;
#819 = CARTESIAN_POINT ( 'NONE',  ( -2.499999999999999556, 15.00000000000000000, 21.75000000000000000 ) ) ;
#820 = CARTESIAN_POINT ( 'NONE',  ( 8.283304597789254862E-16, 15.00000000000000000, 19.50000000000000000 ) ) ;
#821 = VERTEX_POINT ( 'NONE', #1037 ) ;
#822 = CARTESIAN_POINT ( 'NONE',  ( 8.673617379884035472E-16, 15.00000000000000000, 21.75000000000000000 ) ) ;
#823 = VERTEX_POINT ( 'NONE', #259 ) ;
#824 = LINE ( 'NONE', #914, #321 ) ;
#825 = DIRECTION ( 'NONE',  ( 1.000000000000000000, 0.000000000000000000, 0.000000000000000000 ) ) ;
#826 = EDGE_CURVE ( 'NONE', #553, #682, #605, .T. ) ;
#827 = EDGE_LOOP ( 'NONE', ( #36, #592, #332, #892, #460, #431 ) ) ;
#828 = DIRECTION ( 'NONE',  ( 1.264933817329266432E-17, 0.000000000000000000, -1.000000000000000000 ) ) ;
#829 = VECTOR ( 'NONE', #413, 1000.000000000000000 ) ;
#830 = DIRECTION ( 'NONE',  ( -1.264933817329266432E-17, 0.000000000000000000, 1.000000000000000000 ) ) ;
#831 = AXIS2_PLACEMENT_3D ( 'NONE', #819, #466, #128 ) ;
#832 = AXIS2_PLACEMENT_3D ( 'NONE', #696, #968, #890 ) ;
#833 = CARTESIAN_POINT ( 'NONE',  ( 5.000000000000000000, -9.000000000000000000, -6.802062274093115168E-16 ) ) ;
#834 = ORIENTED_EDGE ( 'NONE', *, *, #64, .T. ) ;
#835 = CARTESIAN_POINT ( 'NONE',  ( -3.647693777163323325, 70.85803989154980798, 0.000000000000000000 ) ) ;
#836 = ORIENTED_EDGE ( 'NONE', *, *, #586, .F. ) ;
#837 = CARTESIAN_POINT ( 'NONE',  ( 15.50000000000000000, 3.851859888774471706E-33, 1.000000000000000222 ) ) ;
#838 = LINE ( 'NONE', #1014, #226 ) ;
#839 = CARTESIAN_POINT ( 'NONE',  ( -2.499999999999999556, 1.500000000000001332, 25.50000000000000000 ) ) ;
#840 = CARTESIAN_POINT ( 'NONE',  ( -3.882005762289774786, 70.90000000000000568, 0.3331307633470061424 ) ) ;
#841 = VERTEX_POINT ( 'NONE', #443 ) ;
#842 = DIRECTION ( 'NONE',  ( 0.000000000000000000, 0.000000000000000000, -1.000000000000000000 ) ) ;
#843 = EDGE_CURVE ( 'NONE', #323, #978, #351, .T. ) ;
#844 = FACE_OUTER_BOUND ( 'NONE', #701, .T. ) ;
#845 = ADVANCED_FACE ( 'NONE', ( #454 ), #174, .F. ) ;
#846 = ORIENTED_EDGE ( 'NONE', *, *, #451, .F. ) ;
#847 = ORIENTED_EDGE ( 'NONE', *, *, #586, .T. ) ;
#848 = DIRECTION ( 'NONE',  ( 0.000000000000000000, 1.000000000000000000, 1.816464372750583628E-16 ) ) ;
#849 = CARTESIAN_POINT ( 'NONE',  ( 0.000000000000000000, 0.000000000000000000, 0.000000000000000000 ) ) ;
#850 = AXIS2_PLACEMENT_3D ( 'NONE', #601, #712, #1056 ) ;
#851 = VECTOR ( 'NONE', #702, 1000.000000000000000 ) ;
#852 = EDGE_LOOP ( 'NONE', ( #423, #482, #697, #869 ) ) ;
#853 = EDGE_LOOP ( 'NONE', ( #308, #58, #1105, #558, #803, #407 ) ) ;
#854 = CARTESIAN_POINT ( 'NONE',  ( -4.999999999999999112, 70.90000000000000568, 0.5000000000000004441 ) ) ;
#855 = CARTESIAN_POINT ( 'NONE',  ( -5.000000000000000000, 70.66810622656225860, -0.6706132646124267627 ) ) ;
#856 = EDGE_LOOP ( 'NONE', ( #766, #474, #167, #527, #1029, #327, #505, #514 ) ) ;
#857 = DIRECTION ( 'NONE',  ( -0.000000000000000000, -1.000000000000000000, -0.000000000000000000 ) ) ;
#858 = ORIENTED_EDGE ( 'NONE', *, *, #1128, .T. ) ;
#859 = DIRECTION ( 'NONE',  ( -1.000000000000000000, 0.000000000000000000, 0.000000000000000000 ) ) ;
#860 = CARTESIAN_POINT ( 'NONE',  ( -4.097115568576274569, 69.25990793841650373, -2.190733923464003308 ) ) ;
#861 = VERTEX_POINT ( 'NONE', #708 ) ;
#862 = ORIENTED_EDGE ( 'NONE', *, *, #112, .T. ) ;
#863 = DIRECTION ( 'NONE',  ( 0.000000000000000000, -1.000000000000000000, 0.000000000000000000 ) ) ;
#864 = CARTESIAN_POINT ( 'NONE',  ( -3.225833238034886641, 68.17658824922202143, -2.490415370562954145 ) ) ;
#865 = DIRECTION ( 'NONE',  ( -1.700709290173340409E-17, 0.000000000000000000, -1.000000000000000000 ) ) ;
#866 = AXIS2_PLACEMENT_3D ( 'NONE', #688, #959, #783 ) ;
#867 = DIRECTION ( 'NONE',  ( 0.000000000000000000, 0.000000000000000000, 1.000000000000000000 ) ) ;
#868 = VECTOR ( 'NONE', #576, 1000.000000000000000 ) ;
#869 = ORIENTED_EDGE ( 'NONE', *, *, #958, .T. ) ;
#870 = CARTESIAN_POINT ( 'NONE',  ( -2.999999999999999556, 0.000000000000000000, -0.5000000000000004441 ) ) ;
#871 = CARTESIAN_POINT ( 'NONE',  ( 15.49999999999999822, -9.499999999999994671, 0.5000000000000000000 ) ) ;
#872 = FACE_OUTER_BOUND ( 'NONE', #509, .T. ) ;
#873 = ORIENTED_EDGE ( 'NONE', *, *, #1040, .T. ) ;
#874 = DIRECTION ( 'NONE',  ( -1.000000000000000000, 0.000000000000000000, 1.734723475976807094E-17 ) ) ;
#875 = CARTESIAN_POINT ( 'NONE',  ( -4.653721820859910707, 70.00725151701024629, -1.660833245891871535 ) ) ;
#876 = EDGE_CURVE ( 'NONE', #785, #823, #457, .T. ) ;
#877 = ADVANCED_FACE ( 'NONE', ( #358 ), #880, .T. ) ;
#878 = CARTESIAN_POINT ( 'NONE',  ( -2.500000000000000000, -9.499999999999994671, 0.5000000000000000000 ) ) ;
#879 = ORIENTED_EDGE ( 'NONE', *, *, #988, .F. ) ;
#880 = CYLINDRICAL_SURFACE ( 'NONE', #498, 1.500000000000000000 ) ;
#881 = DIRECTION ( 'NONE',  ( 1.000000000000000000, -1.368455531567204475E-48, 1.700709290173340409E-17 ) ) ;
#882 = DIRECTION ( 'NONE',  ( 1.700709290173340409E-17, 0.000000000000000000, 1.000000000000000000 ) ) ;
#883 = AXIS2_PLACEMENT_3D ( 'NONE', #449, #106, #544 ) ;
#884 = CIRCLE ( 'NONE', #535, 2.999999999999999112 ) ;
#885 = ORIENTED_EDGE ( 'NONE', *, *, #536, .F. ) ;
#886 = CARTESIAN_POINT ( 'NONE',  ( 5.000000000000000000, 67.40000000000000568, 5.999999999999999112 ) ) ;
#887 = VECTOR ( 'NONE', #455, 1000.000000000000000 ) ;
#888 = AXIS2_PLACEMENT_3D ( 'NONE', #786, #67, #489 ) ;
#889 = CARTESIAN_POINT ( 'NONE',  ( -4.000000000000000000, 69.40000000000000568, 25.50000000000000000 ) ) ;
#890 = DIRECTION ( 'NONE',  ( -1.000000000000000000, 0.000000000000000000, 0.000000000000000000 ) ) ;
#891 = EDGE_CURVE ( 'NONE', #21, #29, #966, .T. ) ;
#892 = ORIENTED_EDGE ( 'NONE', *, *, #177, .T. ) ;
#893 = CARTESIAN_POINT ( 'NONE',  ( -2.500000000000000000, 70.90000000000000568, 0.000000000000000000 ) ) ;
#894 = EDGE_CURVE ( 'NONE', #896, #647, #191, .T. ) ;
#895 = EDGE_CURVE ( 'NONE', #573, #717, #798, .T. ) ;
#896 = VERTEX_POINT ( 'NONE', #616 ) ;
#897 = LINE ( 'NONE', #718, #594 ) ;
#898 = CARTESIAN_POINT ( 'NONE',  ( 5.000000000000000888, 62.40000000000000568, 5.999999999999999112 ) ) ;
#899 = ORIENTED_EDGE ( 'NONE', *, *, #517, .T. ) ;
#900 = FACE_OUTER_BOUND ( 'NONE', #402, .T. ) ;
#901 = AXIS2_PLACEMENT_3D ( 'NONE', #977, #1072, #805 ) ;
#902 = VECTOR ( 'NONE', #994, 1000.000000000000000 ) ;
#903 = ORIENTED_EDGE ( 'NONE', *, *, #417, .F. ) ;
#904 = CARTESIAN_POINT ( 'NONE',  ( 5.000000000000000000, -4.000000000000000888, 1.000000000000000000 ) ) ;
#905 = ADVANCED_FACE ( 'NONE', ( #1055 ), #274, .T. ) ;
#906 = ORIENTED_EDGE ( 'NONE', *, *, #826, .T. ) ;
#907 = CARTESIAN_POINT ( 'NONE',  ( 5.000000000000000000, 62.40000000000000568, 1.000000000000000000 ) ) ;
#908 = DIRECTION ( 'NONE',  ( -1.000000000000000000, 0.000000000000000000, 0.000000000000000000 ) ) ;
#909 = EDGE_CURVE ( 'NONE', #147, #216, #154, .T. ) ;
#910 = APPLICATION_CONTEXT ( 'automotive_design' ) ;
#911 = EDGE_CURVE ( 'NONE', #978, #630, #800, .T. ) ;
#912 = ORIENTED_EDGE ( 'NONE', *, *, #619, .T. ) ;
#913 = DIRECTION ( 'NONE',  ( 1.000000000000000000, 7.703719777548943412E-34, 1.264933817329266432E-17 ) ) ;
#914 = CARTESIAN_POINT ( 'NONE',  ( -2.499999999999999556, 70.90000000000000568, 25.50000000000000000 ) ) ;
#915 = DIRECTION ( 'NONE',  ( 0.000000000000000000, 0.000000000000000000, 1.000000000000000000 ) ) ;
#916 = ORIENTED_EDGE ( 'NONE', *, *, #479, .F. ) ;
#917 = DIRECTION ( 'NONE',  ( 0.000000000000000000, 0.000000000000000000, -1.000000000000000000 ) ) ;
#918 = ORIENTED_EDGE ( 'NONE', *, *, #895, .F. ) ;
#919 = LINE ( 'NONE', #379, #738 ) ;
#920 = AXIS2_PLACEMENT_3D ( 'NONE', #648, #913, #828 ) ;
#921 = CARTESIAN_POINT ( 'NONE',  ( 5.000000000000000888, -12.50000000000000000, 22.50000000000000000 ) ) ;
#922 = CIRCLE ( 'NONE', #721, 1.499999999999999556 ) ;
#923 = VERTEX_POINT ( 'NONE', #1136 ) ;
#924 = CARTESIAN_POINT ( 'NONE',  ( 5.000000000000000888, 62.40000000000000568, 17.00000000000000000 ) ) ;
#925 = ADVANCED_FACE ( 'NONE', ( #179 ), #528, .F. ) ;
#926 = ORIENTED_EDGE ( 'NONE', *, *, #146, .T. ) ;
#927 = LINE ( 'NONE', #986, #902 ) ;
#928 = CARTESIAN_POINT ( 'NONE',  ( 15.50000000000000000, -3.996221620051281269E-15, 21.99999999999999289 ) ) ;
#929 = DIRECTION ( 'NONE',  ( 0.000000000000000000, -8.260587980841942477E-17, 1.000000000000000000 ) ) ;
#930 = VERTEX_POINT ( 'NONE', #185 ) ;
#931 = FACE_OUTER_BOUND ( 'NONE', #16, .T. ) ;
#932 = FACE_OUTER_BOUND ( 'NONE', #137, .T. ) ;
#933 = CARTESIAN_POINT ( 'NONE',  ( -4.999999999999999112, 63.40000000000001279, 19.50000000000000000 ) ) ;
#934 = ORIENTED_EDGE ( 'NONE', *, *, #235, .F. ) ;
#935 = VECTOR ( 'NONE', #84, 1000.000000000000000 ) ;
#936 = FACE_OUTER_BOUND ( 'NONE', #465, .T. ) ;
#937 = DIRECTION ( 'NONE',  ( -0.000000000000000000, -1.000000000000000000, -0.000000000000000000 ) ) ;
#938 = AXIS2_PLACEMENT_3D ( 'NONE', #814, #804, #193 ) ;
#939 = VERTEX_POINT ( 'NONE', #886 ) ;
#940 = ORIENTED_EDGE ( 'NONE', *, *, #710, .F. ) ;
#941 = CARTESIAN_POINT ( 'NONE',  ( -2.999999999999999556, 70.90000000000000568, -0.5000000000000004441 ) ) ;
#942 = EDGE_CURVE ( 'NONE', #1036, #1131, #368, .T. ) ;
#943 = CARTESIAN_POINT ( 'NONE',  ( 15.50000000000000000, -4.000000000000000888, 1.000000000000000222 ) ) ;
#944 = ORIENTED_EDGE ( 'NONE', *, *, #464, .F. ) ;
#945 = VERTEX_POINT ( 'NONE', #976 ) ;
#946 = CARTESIAN_POINT ( 'NONE',  ( 15.50000000000000000, 67.40000000000000568, 5.999999999999999112 ) ) ;
#947 = DIRECTION ( 'NONE',  ( 0.000000000000000000, 0.000000000000000000, -1.000000000000000000 ) ) ;
#948 = DIRECTION ( 'NONE',  ( 1.000000000000000000, 0.000000000000000000, -0.000000000000000000 ) ) ;
#949 = ORIENTED_EDGE ( 'NONE', *, *, #909, .T. ) ;
#950 = PLANE ( 'NONE',  #519 ) ;
#951 = CARTESIAN_POINT ( 'NONE',  ( -4.000000000000000000, 69.40000000000000568, 0.000000000000000000 ) ) ;
#952 = AXIS2_PLACEMENT_3D ( 'NONE', #176, #716, #882 ) ;
#953 = DIRECTION ( 'NONE',  ( 0.000000000000000000, 0.000000000000000000, 1.000000000000000000 ) ) ;
#954 = VECTOR ( 'NONE', #1078, 1000.000000000000000 ) ;
#955 = ORIENTED_EDGE ( 'NONE', *, *, #111, .T. ) ;
#956 = DIRECTION ( 'NONE',  ( 1.700709290173340409E-17, 0.000000000000000000, -1.000000000000000000 ) ) ;
#957 = ADVANCED_FACE ( 'NONE', ( #95 ), #102, .F. ) ;
#958 = EDGE_CURVE ( 'NONE', #11, #1131, #897, .T. ) ;
#959 = DIRECTION ( 'NONE',  ( -1.000000000000000000, 0.000000000000000000, 1.700709290173340409E-17 ) ) ;
#960 = DIRECTION ( 'NONE',  ( 3.068079190820900971E-33, -1.000000000000000000, -1.816464372750583135E-16 ) ) ;
#961 = VERTEX_POINT ( 'NONE', #283 ) ;
#962 = CARTESIAN_POINT ( 'NONE',  ( 15.50000000000000000, 67.90000000000000568, 22.50000000000000000 ) ) ;
#963 = DIRECTION ( 'NONE',  ( 1.000000000000000000, -0.000000000000000000, 1.700709290173340409E-17 ) ) ;
#964 = CARTESIAN_POINT ( 'NONE',  ( 15.50000000000000000, -9.000000000000000000, 5.999999999999999112 ) ) ;
#965 = ORIENTED_EDGE ( 'NONE', *, *, #364, .F. ) ;
#966 = LINE ( 'NONE', #524, #6 ) ;
#967 = FACE_OUTER_BOUND ( 'NONE', #1059, .T. ) ;
#968 = DIRECTION ( 'NONE',  ( 0.000000000000000000, 0.000000000000000000, -1.000000000000000000 ) ) ;
#969 = CIRCLE ( 'NONE', #473, 3.000000000000000000 ) ;
#970 = ORIENTED_EDGE ( 'NONE', *, *, #583, .F. ) ;
#971 = DIRECTION ( 'NONE',  ( -1.000000000000000000, -0.000000000000000000, -0.000000000000000000 ) ) ;
#972 = VECTOR ( 'NONE', #756, 1000.000000000000000 ) ;
#973 = DIRECTION ( 'NONE',  ( 1.700709290173340409E-17, -0.000000000000000000, 1.000000000000000000 ) ) ;
#974 = EDGE_CURVE ( 'NONE', #311, #21, #969, .T. ) ;
#975 = ORIENTED_EDGE ( 'NONE', *, *, #270, .T. ) ;
#976 = CARTESIAN_POINT ( 'NONE',  ( 5.000000000000000000, 1.203706215242022408E-32, -2.499999999999998668 ) ) ;
#977 = CARTESIAN_POINT ( 'NONE',  ( -2.499999999999999556, 70.90000000000000568, 25.50000000000000000 ) ) ;
#978 = VERTEX_POINT ( 'NONE', #979 ) ;
#979 = CARTESIAN_POINT ( 'NONE',  ( 5.000000000000000000, -9.499999999999994671, -2.499999999999998668 ) ) ;
#980 = EDGE_LOOP ( 'NONE', ( #584, #773, #789, #389 ) ) ;
#981 = FILL_AREA_STYLE_COLOUR ( '', #98 ) ;
#982 = AXIS2_PLACEMENT_3D ( 'NONE', #631, #726, #541 ) ;
#983 = ORIENTED_EDGE ( 'NONE', *, *, #111, .F. ) ;
#984 = LINE ( 'NONE', #559, #719 ) ;
#985 = CIRCLE ( 'NONE', #1027, 2.999999999999999112 ) ;
#986 = CARTESIAN_POINT ( 'NONE',  ( 5.000000000000000000, 0.000000000000000000, 4.251773225433351024E-17 ) ) ;
#987 = ADVANCED_FACE ( 'NONE', ( #299 ), #659, .F. ) ;
#988 = EDGE_CURVE ( 'NONE', #579, #682, #290, .T. ) ;
#989 = VECTOR ( 'NONE', #277, 1000.000000000000000 ) ;
#990 = PLANE ( 'NONE',  #459 ) ;
#991 = EDGE_LOOP ( 'NONE', ( #196, #672, #916, #778 ) ) ;
#992 = DIRECTION ( 'NONE',  ( 1.000000000000000000, -0.000000000000000000, 1.700709290173340409E-17 ) ) ;
#993 = ORIENTED_EDGE ( 'NONE', *, *, #705, .T. ) ;
#994 = DIRECTION ( 'NONE',  ( -1.700709290173340409E-17, 0.000000000000000000, 1.000000000000000000 ) ) ;
#995 = CARTESIAN_POINT ( 'NONE',  ( -4.999999999999999112, 15.00000000000000000, 21.75000000000000000 ) ) ;
#996 = ORIENTED_EDGE ( 'NONE', *, *, #690, .F. ) ;
#997 = CARTESIAN_POINT ( 'NONE',  ( 5.000000000000000888, -4.000000000000000888, 16.99999999999999289 ) ) ;
#998 = ORIENTED_EDGE ( 'NONE', *, *, #285, .F. ) ;
#999 = LINE ( 'NONE', #230, #1049 ) ;
#1000 = CARTESIAN_POINT ( 'NONE',  ( 4.999999999999999112, 67.90000000000000568, 22.50000000000000000 ) ) ;
#1001 = EDGE_CURVE ( 'NONE', #29, #573, #491, .T. ) ;
#1002 = EDGE_CURVE ( 'NONE', #637, #598, #626, .T. ) ;
#1003 = ORIENTED_EDGE ( 'NONE', *, *, #1108, .F. ) ;
#1004 = DIRECTION ( 'NONE',  ( 0.000000000000000000, -3.238150488490040120E-14, -1.000000000000000000 ) ) ;
#1005 = DIRECTION ( 'NONE',  ( -1.000000000000000000, -7.703719777548943412E-34, -1.264933817329266432E-17 ) ) ;
#1006 = CIRCLE ( 'NONE', #572, 3.000000000000000000 ) ;
#1007 = CARTESIAN_POINT ( 'NONE',  ( 15.50000000000000000, 67.40000000000000568, 2.418211663346640430E-16 ) ) ;
#1008 = EDGE_CURVE ( 'NONE', #736, #553, #387, .T. ) ;
#1009 = CIRCLE ( 'NONE', #722, 2.999999999999999112 ) ;
#1010 = ORIENTED_EDGE ( 'NONE', *, *, #894, .F. ) ;
#1011 = CARTESIAN_POINT ( 'NONE',  ( 15.50000000000000000, -4.000000000000001776, 21.99999999999999289 ) ) ;
#1012 = ORIENTED_EDGE ( 'NONE', *, *, #125, .F. ) ;
#1013 = DIRECTION ( 'NONE',  ( -1.000000000000000000, 0.000000000000000000, -1.700709290173340409E-17 ) ) ;
#1014 = CARTESIAN_POINT ( 'NONE',  ( 15.50000000000000000, 67.40000000000000568, 5.999999999999999112 ) ) ;
#1015 = EDGE_LOOP ( 'NONE', ( #1012, #531, #121, #665, #469, #52 ) ) ;
#1016 = VERTEX_POINT ( 'NONE', #51 ) ;
#1017 = CARTESIAN_POINT ( 'NONE',  ( -2.999999999999999556, 67.90000000000000568, -2.500000000000000000 ) ) ;
#1018 = CARTESIAN_POINT ( 'NONE',  ( -4.999999999999999112, 0.000000000000000000, 25.50000000000000000 ) ) ;
#1019 = EDGE_LOOP ( 'NONE', ( #66, #207, #262, #150 ) ) ;
#1020 = ADVANCED_FACE ( 'NONE', ( #900 ), #114, .T. ) ;
#1021 = EDGE_LOOP ( 'NONE', ( #655, #693, #624, #797 ) ) ;
#1022 =( GEOMETRIC_REPRESENTATION_CONTEXT ( 3 ) GLOBAL_UNCERTAINTY_ASSIGNED_CONTEXT ( ( #49 ) ) GLOBAL_UNIT_ASSIGNED_CONTEXT ( ( #487, #767, #251 ) ) REPRESENTATION_CONTEXT ( 'NONE', 'WORKASPACE' ) );
#1023 = LINE ( 'NONE', #410, #300 ) ;
#1024 = EDGE_CURVE ( 'NONE', #610, #31, #187, .T. ) ;
#1025 = CARTESIAN_POINT ( 'NONE',  ( -2.999999999999999556, 67.90000000000000568, -2.500000000000000000 ) ) ;
#1026 = VECTOR ( 'NONE', #403, 1000.000000000000000 ) ;
#1027 = AXIS2_PLACEMENT_3D ( 'NONE', #608, #343, #1134 ) ;
#1028 = AXIS2_PLACEMENT_3D ( 'NONE', #837, #47, #33 ) ;
#1029 = ORIENTED_EDGE ( 'NONE', *, *, #518, .F. ) ;
#1030 = CARTESIAN_POINT ( 'NONE',  ( -2.499999999999999556, 70.90000000000000568, 25.50000000000000000 ) ) ;
#1031 = ORIENTED_EDGE ( 'NONE', *, *, #1024, .F. ) ;
#1032 = CARTESIAN_POINT ( 'NONE',  ( 5.000000000000000000, -3.900007814696055976E-17, -2.499999999999998668 ) ) ;
#1033 = DIRECTION ( 'NONE',  ( 0.000000000000000000, 0.000000000000000000, -1.000000000000000000 ) ) ;
#1034 = PRODUCT_DEFINITION_CONTEXT ( 'detailed design', #735, 'design' ) ;
#1035 = ORIENTED_EDGE ( 'NONE', *, *, #348, .T. ) ;
#1036 = VERTEX_POINT ( 'NONE', #483 ) ;
#1037 = CARTESIAN_POINT ( 'NONE',  ( -4.000000000000000000, 0.000000000000000000, 25.50000000000000000 ) ) ;
#1038 = LINE ( 'NONE', #1115, #780 ) ;
#1039 = CARTESIAN_POINT ( 'NONE',  ( -4.000000000000000000, 70.90000000000000568, 6.802837160693362871E-17 ) ) ;
#1040 = EDGE_CURVE ( 'NONE', #508, #543, #390, .T. ) ;
#1041 = EDGE_CURVE ( 'NONE', #258, #861, #570, .T. ) ;
#1042 = ORIENTED_EDGE ( 'NONE', *, *, #181, .F. ) ;
#1043 = DIRECTION ( 'NONE',  ( -1.000000000000000000, 6.842277657836022373E-49, -1.700709290173340409E-17 ) ) ;
#1044 = DIRECTION ( 'NONE',  ( 1.000000000000000000, 3.421138828918011187E-49, 1.700709290173340409E-17 ) ) ;
#1045 = AXIS2_PLACEMENT_3D ( 'NONE', #878, #93, #261 ) ;
#1046 = UNCERTAINTY_MEASURE_WITH_UNIT (LENGTH_MEASURE( 1.000000000000000082E-05 ), #450, 'distance_accuracy_value', 'NONE');
#1047 = FACE_BOUND ( 'NONE', #660, .T. ) ;
#1048 = VECTOR ( 'NONE', #158, 1000.000000000000000 ) ;
#1049 = VECTOR ( 'NONE', #1013, 1000.000000000000000 ) ;
#1050 = EDGE_LOOP ( 'NONE', ( #344, #560, #273, #131, #162 ) ) ;
#1051 = CARTESIAN_POINT ( 'NONE',  ( 4.999999999999999112, -9.499999999999994671, -2.500000000000000000 ) ) ;
#1052 = DIRECTION ( 'NONE',  ( -7.703719777548943412E-34, 1.000000000000000000, -1.310178779456958743E-50 ) ) ;
#1053 = DIRECTION ( 'NONE',  ( -1.000000000000000000, 0.000000000000000000, 1.700709290173340409E-17 ) ) ;
#1054 = VERTEX_POINT ( 'NONE', #396 ) ;
#1055 = FACE_OUTER_BOUND ( 'NONE', #409, .T. ) ;
#1056 = DIRECTION ( 'NONE',  ( 1.000000000000000000, 0.000000000000000000, 0.000000000000000000 ) ) ;
#1057 = B_SPLINE_CURVE_WITH_KNOTS ( 'NONE', 3,
 ( #153, #855, #346, #264, #525, #875, #92, #860, #416, #787, #507, #864, #175, #1025 ),
 .UNSPECIFIED., .F., .F.,
 ( 4, 2, 2, 2, 2, 2, 4 ),
 ( 0.000000000000000000, 0.0005335828852272577090, 0.001067165770454515418, 0.002134331540909031703, 0.003201497311363547555, 0.003735080196590806131, 0.004268663081818064274 ),
 .UNSPECIFIED. ) ;
#1058 = EDGE_CURVE ( 'NONE', #216, #923, #984, .T. ) ;
#1059 = EDGE_LOOP ( 'NONE', ( #639, #219, #523, #1096 ) ) ;
#1060 = CARTESIAN_POINT ( 'NONE',  ( -4.999999999999999112, 15.00000000000000000, 21.75000000000000000 ) ) ;
#1061 = PLANE ( 'NONE',  #81 ) ;
#1062 = VECTOR ( 'NONE', #461, 1000.000000000000000 ) ;
#1063 = VECTOR ( 'NONE', #189, 1000.000000000000000 ) ;
#1064 = VECTOR ( 'NONE', #881, 1000.000000000000000 ) ;
#1065 = EDGE_LOOP ( 'NONE', ( #246, #276, #678, #267 ) ) ;
#1066 = DIRECTION ( 'NONE',  ( -1.700709290173340409E-17, 0.000000000000000000, -1.000000000000000000 ) ) ;
#1067 = VECTOR ( 'NONE', #937, 1000.000000000000000 ) ;
#1068 = DIRECTION ( 'NONE',  ( -1.000000000000000000, -0.000000000000000000, 1.734723475976807094E-17 ) ) ;
#1069 = EDGE_LOOP ( 'NONE', ( #316, #71, #201, #1003 ) ) ;
#1070 = DIRECTION ( 'NONE',  ( -0.000000000000000000, -1.000000000000000000, -0.000000000000000000 ) ) ;
#1071 = ORIENTED_EDGE ( 'NONE', *, *, #1001, .F. ) ;
#1072 = DIRECTION ( 'NONE',  ( 0.000000000000000000, -0.000000000000000000, 1.000000000000000000 ) ) ;
#1073 = ADVANCED_FACE ( 'NONE', ( #28 ), #1087, .F. ) ;
#1074 = ORIENTED_EDGE ( 'NONE', *, *, #876, .T. ) ;
#1075 = CARTESIAN_POINT ( 'NONE',  ( 5.000000000000000000, 3.851859888774471706E-33, 1.000000000000000000 ) ) ;
#1076 = EDGE_CURVE ( 'NONE', #142, #923, #377, .T. ) ;
#1077 = VERTEX_POINT ( 'NONE', #904 ) ;
#1078 = DIRECTION ( 'NONE',  ( 1.000000000000000000, 0.000000000000000000, 0.000000000000000000 ) ) ;
#1079 = CIRCLE ( 'NONE', #62, 5.000000000000000000 ) ;
#1080 = ORIENTED_EDGE ( 'NONE', *, *, #1041, .T. ) ;
#1081 = PLANE ( 'NONE',  #920 ) ;
#1082 = ORIENTED_EDGE ( 'NONE', *, *, #1040, .F. ) ;
#1083 = CARTESIAN_POINT ( 'NONE',  ( -4.999999999999999112, 70.90000000000000568, 25.50000000000000000 ) ) ;
#1084 = VECTOR ( 'NONE', #394, 1000.000000000000000 ) ;
#1085 = CARTESIAN_POINT ( 'NONE',  ( 15.50000000000000000, 62.40000000000000568, 17.00000000000000000 ) ) ;
#1086 = VERTEX_POINT ( 'NONE', #117 ) ;
#1087 = CYLINDRICAL_SURFACE ( 'NONE', #245, 2.249999999999998668 ) ;
#1088 = VERTEX_POINT ( 'NONE', #635 ) ;
#1089 = CARTESIAN_POINT ( 'NONE',  ( 15.50000000000000000, 67.40000000000000568, 2.418211663346640430E-16 ) ) ;
#1090 = EDGE_CURVE ( 'NONE', #1100, #546, #730, .T. ) ;
#1091 = LINE ( 'NONE', #1103, #628 ) ;
#1092 = ADVANCED_FACE ( 'NONE', ( #208 ), #1081, .F. ) ;
#1093 = ORIENTED_EDGE ( 'NONE', *, *, #99, .F. ) ;
#1094 = LINE ( 'NONE', #148, #935 ) ;
#1095 = EDGE_CURVE ( 'NONE', #961, #1086, #424, .T. ) ;
#1096 = ORIENTED_EDGE ( 'NONE', *, *, #43, .F. ) ;
#1097 = CARTESIAN_POINT ( 'NONE',  ( -2.500000000000000000, 0.000000000000000000, -2.500000000000000000 ) ) ;
#1098 = DIRECTION ( 'NONE',  ( -1.700709290173340409E-17, 0.000000000000000000, 1.000000000000000000 ) ) ;
#1099 = ORIENTED_EDGE ( 'NONE', *, *, #296, .T. ) ;
#1100 = VERTEX_POINT ( 'NONE', #475 ) ;
#1101 = CARTESIAN_POINT ( 'NONE',  ( 0.000000000000000000, 70.90000000000000568, 0.000000000000000000 ) ) ;
#1102 = STYLED_ITEM ( 'NONE', ( #271 ), #538 ) ;
#1103 = CARTESIAN_POINT ( 'NONE',  ( 2.500000000000000000, 0.000000000000000000, 0.000000000000000000 ) ) ;
#1104 = CARTESIAN_POINT ( 'NONE',  ( -3.647693777163323325, 70.85803989154980798, 0.000000000000000000 ) ) ;
#1105 = ORIENTED_EDGE ( 'NONE', *, *, #434, .T. ) ;
#1106 = DIRECTION ( 'NONE',  ( 0.000000000000000000, 0.000000000000000000, -1.000000000000000000 ) ) ;
#1107 = CARTESIAN_POINT ( 'NONE',  ( 5.000000000000000000, 3.851859888774471706E-33, 1.000000000000000000 ) ) ;
#1108 = EDGE_CURVE ( 'NONE', #861, #647, #1094, .T. ) ;
#1109 = ORIENTED_EDGE ( 'NONE', *, *, #826, .F. ) ;
#1110 = CARTESIAN_POINT ( 'NONE',  ( -5.000000000000000000, 70.90000000000000568, -0.5000000000000004441 ) ) ;
#1111 = EDGE_CURVE ( 'NONE', #566, #630, #430, .T. ) ;
#1112 = ORIENTED_EDGE ( 'NONE', *, *, #1111, .T. ) ;
#1113 = CARTESIAN_POINT ( 'NONE',  ( 5.000000000000000888, -4.000000000000001776, 21.99999999999999289 ) ) ;
#1114 = EDGE_CURVE ( 'NONE', #615, #11, #141, .T. ) ;
#1115 = CARTESIAN_POINT ( 'NONE',  ( 15.50000000000000000, 70.90000000000000568, 22.50000000000000000 ) ) ;
#1116 = DIRECTION ( 'NONE',  ( -1.000000000000000000, -0.000000000000000000, 1.734723475976807094E-17 ) ) ;
#1117 = ORIENTED_EDGE ( 'NONE', *, *, #843, .T. ) ;
#1118 = VECTOR ( 'NONE', #419, 1000.000000000000000 ) ;
#1119 = DIRECTION ( 'NONE',  ( 0.000000000000000000, 0.000000000000000000, 1.000000000000000000 ) ) ;
#1120 = DIRECTION ( 'NONE',  ( 1.000000000000000000, 7.703719777548943412E-34, 1.264933817329266432E-17 ) ) ;
#1121 = AXIS2_PLACEMENT_3D ( 'NONE', #924, #992, #470 ) ;
#1122 = VECTOR ( 'NONE', #784, 1000.000000000000000 ) ;
#1123 = AXIS2_PLACEMENT_3D ( 'NONE', #889, #791, #103 ) ;
#1124 = ORIENTED_EDGE ( 'NONE', *, *, #988, .T. ) ;
#1125 = VERTEX_POINT ( 'NONE', #1011 ) ;
#1126 = DIRECTION ( 'NONE',  ( 0.000000000000000000, 0.000000000000000000, -1.000000000000000000 ) ) ;
#1127 = CARTESIAN_POINT ( 'NONE',  ( 5.000000000000000000, -9.000000000000000000, 5.999999999999999112 ) ) ;
#1128 = EDGE_CURVE ( 'NONE', #821, #376, #772, .T. ) ;
#1129 = EDGE_CURVE ( 'NONE', #210, #1016, #339, .T. ) ;
#1130 = CARTESIAN_POINT ( 'NONE',  ( 4.999999999999999112, 0.000000000000000000, 25.50000000000000000 ) ) ;
#1131 = VERTEX_POINT ( 'NONE', #762 ) ;
#1132 = DIRECTION ( 'NONE',  ( 1.000000000000000000, 7.703719777548943412E-34, 1.264933817329266432E-17 ) ) ;
#1133 = FACE_BOUND ( 'NONE', #676, .T. ) ;
#1134 = DIRECTION ( 'NONE',  ( 0.000000000000000000, 0.000000000000000000, -1.000000000000000000 ) ) ;
#1135 = ORIENTED_EDGE ( 'NONE', *, *, #895, .T. ) ;
#1136 = CARTESIAN_POINT ( 'NONE',  ( 15.50000000000000000, -9.500000000000001776, 25.50000000000000000 ) ) ;
#1137 = LINE ( 'NONE', #204, #1064 ) ;
ENDSEC;
END-ISO-10303-21;
