ISO-10303-21;
HEADER;
FILE_DESCRIPTION (( 'STEP AP214' ),
    '1' );
FILE_NAME ('Gripper_Jaw_Plate.STEP',
    '2026-09-19T12:57:43',
    ( '' ),
    ( '' ),
    'SwSTEP 2.0',
    'SolidWorks 2025',
    '' );
FILE_SCHEMA (( 'AUTOMOTIVE_DESIGN' ));
ENDSEC;

DATA;
#1 = UNCERTAINTY_MEASURE_WITH_UNIT (LENGTH_MEASURE( 1.000000000000000082E-05 ), #270, 'distance_accuracy_value', 'NONE');
#2 = CARTESIAN_POINT ( 'NONE',  ( 9.999999999999991118, 18.00000000000000000, -99.99999999999906208 ) ) ;
#3 = CARTESIAN_POINT ( 'NONE',  ( 0.1780349087250471252, 0.000000000000000000, -101.3223663102657497 ) ) ;
#4 = VERTEX_POINT ( 'NONE', #353 ) ;
#5 = CARTESIAN_POINT ( 'NONE',  ( 2.755455298081544285E-16, 18.00000000000000000, 2.250000000000000000 ) ) ;
#6 = DIRECTION ( 'NONE',  ( -0.000000000000000000, -1.000000000000000000, -0.000000000000000000 ) ) ;
#7 = DIRECTION ( 'NONE',  ( 0.000000000000000000, -1.000000000000000000, 0.000000000000000000 ) ) ;
#8 = CLOSED_SHELL ( 'NONE', ( #367, #125, #564, #191, #335, #426, #149, #742, #219, #631, #687, #48, #603, #361, #208, #439, #750, #18, #147, #622, #531, #290 ) ) ;
#9 = CIRCLE ( 'NONE', #471, 2.250000000000000000 ) ;
#10 = EDGE_CURVE ( 'NONE', #374, #731, #572, .T. ) ;
#11 = LINE ( 'NONE', #354, #424 ) ;
#12 = ORIENTED_EDGE ( 'NONE', *, *, #414, .F. ) ;
#13 = FACE_BOUND ( 'NONE', #712, .T. ) ;
#14 = CARTESIAN_POINT ( 'NONE',  ( 4.999999999999989342, 0.000000000000000000, -100.0000000000000000 ) ) ;
#15 = ORIENTED_EDGE ( 'NONE', *, *, #265, .T. ) ;
#16 = CYLINDRICAL_SURFACE ( 'NONE', #613, 5.000000000000004441 ) ;
#17 = DIRECTION ( 'NONE',  ( -0.5386090358293531555, 0.000000000000000000, -0.8425558180458874169 ) ) ;
#18 = ADVANCED_FACE ( 'NONE', ( #415 ), #590, .F. ) ;
#19 = ORIENTED_EDGE ( 'NONE', *, *, #698, .T. ) ;
#20 = DIRECTION ( 'NONE',  ( -0.000000000000000000, 1.000000000000000000, -0.000000000000000000 ) ) ;
#21 = DIRECTION ( 'NONE',  ( 0.000000000000000000, 1.000000000000000000, 0.000000000000000000 ) ) ;
#22 = EDGE_CURVE ( 'NONE', #504, #179, #296, .T. ) ;
#23 = AXIS2_PLACEMENT_3D ( 'NONE', #606, #317, #609 ) ;
#24 = AXIS2_PLACEMENT_3D ( 'NONE', #157, #734, #440 ) ;
#25 = EDGE_LOOP ( 'NONE', ( #134, #568, #244, #629 ) ) ;
#26 = CARTESIAN_POINT ( 'NONE',  ( -20.90380984571846312, 18.00000000000000000, 15.61289017892625886 ) ) ;
#27 = DIRECTION ( 'NONE',  ( 0.000000000000000000, 0.000000000000000000, 1.000000000000000000 ) ) ;
#28 = ORIENTED_EDGE ( 'NONE', *, *, #454, .T. ) ;
#29 = DIRECTION ( 'NONE',  ( 0.000000000000000000, 0.000000000000000000, 1.000000000000000000 ) ) ;
#30 = LINE ( 'NONE', #366, #319 ) ;
#31 = VERTEX_POINT ( 'NONE', #70 ) ;
#32 = CIRCLE ( 'NONE', #130, 5.000000000000001776 ) ;
#33 = AXIS2_PLACEMENT_3D ( 'NONE', #526, #464, #589 ) ;
#34 = VERTEX_POINT ( 'NONE', #243 ) ;
#35 = DIRECTION ( 'NONE',  ( 0.8425558180458874169, 0.000000000000000000, -0.5386090358293531555 ) ) ;
#36 = ORIENTED_EDGE ( 'NONE', *, *, #499, .F. ) ;
#37 = VERTEX_POINT ( 'NONE', #480 ) ;
#38 = CARTESIAN_POINT ( 'NONE',  ( 5.386090358293497360, 18.00000000000000000, 8.425558180458891044 ) ) ;
#39 = LINE ( 'NONE', #515, #239 ) ;
#40 = EDGE_LOOP ( 'NONE', ( #611, #736 ) ) ;
#41 = CARTESIAN_POINT ( 'NONE',  ( 2.999999999999999112, 18.00000000000000000, -85.14486490616359049 ) ) ;
#42 = CIRCLE ( 'NONE', #56, 2.249999999999998668 ) ;
#43 = CARTESIAN_POINT ( 'NONE',  ( 2.693045179146764223, 0.000000000000000000, -10.02960075331756862 ) ) ;
#44 = AXIS2_PLACEMENT_3D ( 'NONE', #703, #285, #172 ) ;
#45 = ORIENTED_EDGE ( 'NONE', *, *, #436, .T. ) ;
#46 = CARTESIAN_POINT ( 'NONE',  ( 10.00000000000000178, 18.00000000000000000, -5.196013828848716574E-14 ) ) ;
#47 = ORIENTED_EDGE ( 'NONE', *, *, #559, .F. ) ;
#48 = ADVANCED_FACE ( 'NONE', ( #541 ), #530, .T. ) ;
#49 = CARTESIAN_POINT ( 'NONE',  ( -15.51771948742469043, 0.000000000000000000, 21.78844835938496871 ) ) ;
#50 = ORIENTED_EDGE ( 'NONE', *, *, #470, .F. ) ;
#51 = CARTESIAN_POINT ( 'NONE',  ( 4.999999999999997335, 18.00000000000000000, -14.24237984354700615 ) ) ;
#52 = ORIENTED_EDGE ( 'NONE', *, *, #733, .F. ) ;
#53 = EDGE_CURVE ( 'NONE', #79, #679, #85, .T. ) ;
#54 = DIRECTION ( 'NONE',  ( -0.000000000000000000, -1.000000000000000000, -0.000000000000000000 ) ) ;
#55 = FACE_OUTER_BOUND ( 'NONE', #115, .T. ) ;
#56 = AXIS2_PLACEMENT_3D ( 'NONE', #725, #259, #664 ) ;
#57 = DIRECTION ( 'NONE',  ( -0.000000000000000000, -1.000000000000000000, -0.000000000000000000 ) ) ;
#58 = FACE_OUTER_BOUND ( 'NONE', #254, .T. ) ;
#59 = CARTESIAN_POINT ( 'NONE',  ( -20.90380984571846312, 18.00000000000000000, 11.11289017892626063 ) ) ;
#60 = DIRECTION ( 'NONE',  ( 0.000000000000000000, 0.000000000000000000, -1.000000000000000000 ) ) ;
#61 = ADVANCED_BREP_SHAPE_REPRESENTATION ( 'Gripper_Jaw_Plate', ( #662, #307 ), #539 ) ;
#62 = PRODUCT_DEFINITION_CONTEXT ( 'detailed design', #253, 'design' ) ;
#63 = LINE ( 'NONE', #234, #682 ) ;
#64 = DIRECTION ( 'NONE',  ( 0.000000000000000000, -1.000000000000000000, 0.000000000000000000 ) ) ;
#65 = LINE ( 'NONE', #299, #753 ) ;
#66 = EDGE_CURVE ( 'NONE', #150, #473, #527, .T. ) ;
#67 = LINE ( 'NONE', #121, #377 ) ;
#68 = VERTEX_POINT ( 'NONE', #233 ) ;
#69 = LINE ( 'NONE', #118, #693 ) ;
#70 = CARTESIAN_POINT ( 'NONE',  ( -20.90380984571846312, 0.000000000000000000, 15.61289017892625886 ) ) ;
#71 = CIRCLE ( 'NONE', #273, 10.00000000000000178 ) ;
#72 = AXIS2_PLACEMENT_3D ( 'NONE', #128, #89, #488 ) ;
#73 = VECTOR ( 'NONE', #35, 1000.000000000000227 ) ;
#74 = DIRECTION ( 'NONE',  ( -0.000000000000000000, -1.000000000000000000, -0.000000000000000000 ) ) ;
#75 = VERTEX_POINT ( 'NONE', #108 ) ;
#76 = DIRECTION ( 'NONE',  ( -0.2644732620533331025, -0.000000000000000000, 0.9643930182549378394 ) ) ;
#77 = DIRECTION ( 'NONE',  ( 0.000000000000000000, 1.000000000000000000, 0.000000000000000000 ) ) ;
#78 = EDGE_CURVE ( 'NONE', #731, #430, #287, .T. ) ;
#79 = VERTEX_POINT ( 'NONE', #648 ) ;
#80 = DIRECTION ( 'NONE',  ( -0.000000000000000000, -1.000000000000000000, -0.000000000000000000 ) ) ;
#81 = CARTESIAN_POINT ( 'NONE',  ( 0.1780349087250471252, 18.00000000000000000, -101.3223663102657497 ) ) ;
#82 = EDGE_LOOP ( 'NONE', ( #565, #659, #692, #507 ) ) ;
#83 = LINE ( 'NONE', #375, #202 ) ;
#84 = FACE_OUTER_BOUND ( 'NONE', #441, .T. ) ;
#85 = CIRCLE ( 'NONE', #705, 5.000000000000000888 ) ;
#86 = VECTOR ( 'NONE', #700, 1000.000000000000000 ) ;
#87 = CIRCLE ( 'NONE', #276, 2.250000000000001776 ) ;
#88 = EDGE_LOOP ( 'NONE', ( #385, #211, #378, #595 ) ) ;
#89 = DIRECTION ( 'NONE',  ( -0.000000000000000000, -1.000000000000000000, -0.000000000000000000 ) ) ;
#90 = CARTESIAN_POINT ( 'NONE',  ( 0.000000000000000000, 0.000000000000000000, 0.000000000000000000 ) ) ;
#91 = ORIENTED_EDGE ( 'NONE', *, *, #389, .T. ) ;
#92 = EDGE_CURVE ( 'NONE', #579, #68, #124, .T. ) ;
#93 = ORIENTED_EDGE ( 'NONE', *, *, #733, .T. ) ;
#94 = STYLED_ITEM ( 'NONE', ( #739 ), #662 ) ;
#95 = ORIENTED_EDGE ( 'NONE', *, *, #517, .F. ) ;
#96 = AXIS2_PLACEMENT_3D ( 'NONE', #346, #451, #681 ) ;
#97 = EDGE_CURVE ( 'NONE', #166, #435, #534, .T. ) ;
#98 = EDGE_LOOP ( 'NONE', ( #735, #196, #261, #151 ) ) ;
#99 = FACE_OUTER_BOUND ( 'NONE', #443, .T. ) ;
#100 = ORIENTED_EDGE ( 'NONE', *, *, #748, .F. ) ;
#101 = DIRECTION ( 'NONE',  ( -0.2644732620533331580, 0.000000000000000000, 0.9643930182549378394 ) ) ;
#102 = ORIENTED_EDGE ( 'NONE', *, *, #340, .F. ) ;
#103 = PLANE ( 'NONE',  #645 ) ;
#104 = DIRECTION ( 'NONE',  ( -0.000000000000000000, -1.000000000000000000, -0.000000000000000000 ) ) ;
#105 = EDGE_LOOP ( 'NONE', ( #438, #95, #371, #156 ) ) ;
#106 = DIRECTION ( 'NONE',  ( 0.000000000000000000, 0.000000000000000000, -1.000000000000000000 ) ) ;
#107 = ORIENTED_EDGE ( 'NONE', *, *, #97, .F. ) ;
#108 = CARTESIAN_POINT ( 'NONE',  ( -20.98969858723280879, 18.00000000000000000, -5.229422174922485844 ) ) ;
#109 = EDGE_CURVE ( 'NONE', #625, #558, #301, .T. ) ;
#110 = DIRECTION ( 'NONE',  ( -0.8425558180458874169, 0.000000000000000000, 0.5386090358293532665 ) ) ;
#111 = CARTESIAN_POINT ( 'NONE',  ( 4.999999999999998224, 0.000000000000000000, -85.14486490616359049 ) ) ;
#112 = CARTESIAN_POINT ( 'NONE',  ( 2.755455298081544285E-16, 18.00000000000000000, 2.250000000000000000 ) ) ;
#113 = DIRECTION ( 'NONE',  ( -0.000000000000000000, -1.000000000000000000, -0.000000000000000000 ) ) ;
#114 = DIRECTION ( 'NONE',  ( -0.000000000000000000, -1.000000000000000000, -0.000000000000000000 ) ) ;
#115 = EDGE_LOOP ( 'NONE', ( #683, #193, #325, #620 ) ) ;
#116 =( GEOMETRIC_REPRESENTATION_CONTEXT ( 3 ) GLOBAL_UNCERTAINTY_ASSIGNED_CONTEXT ( ( #690 ) ) GLOBAL_UNIT_ASSIGNED_CONTEXT ( ( #685, #158, #164 ) ) REPRESENTATION_CONTEXT ( 'NONE', 'WORKASPACE' ) );
#117 = DIRECTION ( 'NONE',  ( 1.000000000000000000, -0.000000000000000000, 1.223316414399868464E-17 ) ) ;
#118 = CARTESIAN_POINT ( 'NONE',  ( -30.54774002826776425, 0.000000000000000000, 10.71815755839265094 ) ) ;
#119 = EDGE_CURVE ( 'NONE', #75, #150, #32, .T. ) ;
#120 = CARTESIAN_POINT ( 'NONE',  ( -15.51771948742469398, 18.00000000000000000, 21.78844835938497226 ) ) ;
#121 = CARTESIAN_POINT ( 'NONE',  ( 4.999999999999989342, 18.00000000000000000, -105.0000000000000142 ) ) ;
#122 = ORIENTED_EDGE ( 'NONE', *, *, #657, .T. ) ;
#123 = CARTESIAN_POINT ( 'NONE',  ( 5.386090358293497360, 0.000000000000000000, 8.425558180458891044 ) ) ;
#124 = LINE ( 'NONE', #120, #222 ) ;
#125 = ADVANCED_FACE ( 'NONE', ( #597 ), #701, .F. ) ;
#126 = DIRECTION ( 'NONE',  ( -1.223316414399868618E-17, 0.000000000000000000, 1.000000000000000000 ) ) ;
#127 = ORIENTED_EDGE ( 'NONE', *, *, #420, .T. ) ;
#128 = CARTESIAN_POINT ( 'NONE',  ( 4.332851387010890676, 18.00000000000000000, -95.04470861319066444 ) ) ;
#129 = PLANE ( 'NONE',  #535 ) ;
#130 = AXIS2_PLACEMENT_3D ( 'NONE', #356, #593, #465 ) ;
#131 = AXIS2_PLACEMENT_3D ( 'NONE', #271, #453, #508 ) ;
#132 = EDGE_CURVE ( 'NONE', #676, #399, #65, .T. ) ;
#133 = VECTOR ( 'NONE', #442, 1000.000000000000000 ) ;
#134 = ORIENTED_EDGE ( 'NONE', *, *, #719, .F. ) ;
#135 = DIRECTION ( 'NONE',  ( -0.000000000000000000, -1.000000000000000000, -0.000000000000000000 ) ) ;
#136 = CARTESIAN_POINT ( 'NONE',  ( 4.999999999999989342, 18.00000000000000000, -100.0000000000000000 ) ) ;
#137 = EDGE_CURVE ( 'NONE', #4, #183, #486, .T. ) ;
#138 = ORIENTED_EDGE ( 'NONE', *, *, #485, .F. ) ;
#139 = DIRECTION ( 'NONE',  ( -1.223316414399868618E-17, 0.000000000000000000, 1.000000000000000000 ) ) ;
#140 = CARTESIAN_POINT ( 'NONE',  ( 2.755455298081544285E-16, 0.000000000000000000, 2.250000000000000000 ) ) ;
#141 = EDGE_LOOP ( 'NONE', ( #608, #437, #283, #381 ) ) ;
#142 = DIRECTION ( 'NONE',  ( -0.000000000000000000, -1.000000000000000000, -0.000000000000000000 ) ) ;
#143 = PLANE ( 'NONE',  #560 ) ;
#144 = VECTOR ( 'NONE', #704, 1000.000000000000000 ) ;
#145 = VECTOR ( 'NONE', #6, 1000.000000000000000 ) ;
#146 = VERTEX_POINT ( 'NONE', #81 ) ;
#147 = ADVANCED_FACE ( 'NONE', ( #723 ), #129, .T. ) ;
#148 = ORIENTED_EDGE ( 'NONE', *, *, #462, .T. ) ;
#149 = ADVANCED_FACE ( 'NONE', ( #195, #318, #610, #668, #548 ), #143, .T. ) ;
#150 = VERTEX_POINT ( 'NONE', #718 ) ;
#151 = ORIENTED_EDGE ( 'NONE', *, *, #674, .T. ) ;
#152 = EDGE_CURVE ( 'NONE', #146, #430, #30, .T. ) ;
#153 = AXIS2_PLACEMENT_3D ( 'NONE', #578, #54, #338 ) ;
#154 = ORIENTED_EDGE ( 'NONE', *, *, #137, .F. ) ;
#155 = CARTESIAN_POINT ( 'NONE',  ( 4.332851387010890676, 0.000000000000000000, -97.29470861319067865 ) ) ;
#156 = ORIENTED_EDGE ( 'NONE', *, *, #66, .T. ) ;
#157 = CARTESIAN_POINT ( 'NONE',  ( 4.999999999999989342, 18.00000000000000000, -100.0000000000000000 ) ) ;
#158 =( NAMED_UNIT ( * ) PLANE_ANGLE_UNIT ( ) SI_UNIT ( $, .RADIAN. ) );
#159 = ORIENTED_EDGE ( 'NONE', *, *, #694, .T. ) ;
#160 = ORIENTED_EDGE ( 'NONE', *, *, #186, .T. ) ;
#161 = CIRCLE ( 'NONE', #444, 2.249999999999998668 ) ;
#162 = CARTESIAN_POINT ( 'NONE',  ( 4.999999999999989342, 0.000000000000000000, -105.0000000000000142 ) ) ;
#163 = VECTOR ( 'NONE', #113, 1000.000000000000000 ) ;
#164 =( NAMED_UNIT ( * ) SI_UNIT ( $, .STERADIAN. ) SOLID_ANGLE_UNIT ( ) );
#165 = AXIS2_PLACEMENT_3D ( 'NONE', #41, #397, #746 ) ;
#166 = VERTEX_POINT ( 'NONE', #665 ) ;
#167 = EDGE_CURVE ( 'NONE', #68, #727, #252, .T. ) ;
#168 = DIRECTION ( 'NONE',  ( -0.5386090358293532665, 0.000000000000000000, -0.8425558180458874169 ) ) ;
#169 = LINE ( 'NONE', #655, #145 ) ;
#170 = CARTESIAN_POINT ( 'NONE',  ( 1.734723475976807094E-15, 18.00000000000000000, -6.938893903907228378E-15 ) ) ;
#171 = LINE ( 'NONE', #532, #536 ) ;
#172 = DIRECTION ( 'NONE',  ( 0.000000000000000000, 0.000000000000000000, -1.000000000000000000 ) ) ;
#173 = DIRECTION ( 'NONE',  ( -0.000000000000000000, -1.000000000000000000, -0.000000000000000000 ) ) ;
#174 = CARTESIAN_POINT ( 'NONE',  ( -20.90380984571846312, 18.00000000000000000, 13.36289017892626063 ) ) ;
#175 = CARTESIAN_POINT ( 'NONE',  ( 2.999999999999999112, 18.00000000000000000, -85.14486490616359049 ) ) ;
#176 = CARTESIAN_POINT ( 'NONE',  ( 4.999999999999989342, 0.000000000000000000, -100.0000000000000000 ) ) ;
#177 = AXIS2_PLACEMENT_3D ( 'NONE', #343, #64, #229 ) ;
#178 = FACE_OUTER_BOUND ( 'NONE', #496, .T. ) ;
#179 = VERTEX_POINT ( 'NONE', #140 ) ;
#180 = CARTESIAN_POINT ( 'NONE',  ( 4.332851387010890676, 18.00000000000000000, -95.04470861319066444 ) ) ;
#181 = DIRECTION ( 'NONE',  ( -0.000000000000000000, -1.000000000000000000, -0.000000000000000000 ) ) ;
#182 = CARTESIAN_POINT ( 'NONE',  ( 4.332851387010890676, 0.000000000000000000, -95.04470861319066444 ) ) ;
#183 = VERTEX_POINT ( 'NONE', #373 ) ;
#184 = CARTESIAN_POINT ( 'NONE',  ( 0.000000000000000000, 18.00000000000000000, 0.000000000000000000 ) ) ;
#185 = DIRECTION ( 'NONE',  ( 0.000000000000000000, 1.000000000000000000, -0.000000000000000000 ) ) ;
#186 = EDGE_CURVE ( 'NONE', #166, #579, #237, .T. ) ;
#187 = VERTEX_POINT ( 'NONE', #370 ) ;
#188 = LINE ( 'NONE', #423, #510 ) ;
#189 = DIRECTION ( 'NONE',  ( -0.8425558180458874169, 0.000000000000000000, 0.5386090358293531555 ) ) ;
#190 = AXIS2_PLACEMENT_3D ( 'NONE', #255, #20, #250 ) ;
#191 = ADVANCED_FACE ( 'NONE', ( #726 ), #425, .F. ) ;
#192 = VECTOR ( 'NONE', #678, 1000.000000000000000 ) ;
#193 = ORIENTED_EDGE ( 'NONE', *, *, #414, .T. ) ;
#194 = DIRECTION ( 'NONE',  ( 0.000000000000000000, 0.000000000000000000, -1.000000000000000000 ) ) ;
#195 = FACE_BOUND ( 'NONE', #449, .T. ) ;
#196 = ORIENTED_EDGE ( 'NONE', *, *, #420, .F. ) ;
#197 = DIRECTION ( 'NONE',  ( 0.000000000000000000, 1.000000000000000000, 0.000000000000000000 ) ) ;
#198 = DIRECTION ( 'NONE',  ( -0.000000000000000000, -1.000000000000000000, -0.000000000000000000 ) ) ;
#199 = ORIENTED_EDGE ( 'NONE', *, *, #308, .T. ) ;
#200 = AXIS2_PLACEMENT_3D ( 'NONE', #305, #173, #405 ) ;
#201 = CIRCLE ( 'NONE', #729, 2.000000000000001776 ) ;
#202 = VECTOR ( 'NONE', #76, 1000.000000000000114 ) ;
#203 = VECTOR ( 'NONE', #388, 1000.000000000000000 ) ;
#204 = ORIENTED_EDGE ( 'NONE', *, *, #315, .F. ) ;
#205 = EDGE_CURVE ( 'NONE', #179, #221, #669, .T. ) ;
#206 = EDGE_LOOP ( 'NONE', ( #52, #278, #122, #557 ) ) ;
#207 = ORIENTED_EDGE ( 'NONE', *, *, #389, .F. ) ;
#208 = ADVANCED_FACE ( 'NONE', ( #84 ), #614, .F. ) ;
#209 =( NAMED_UNIT ( * ) SI_UNIT ( $, .STERADIAN. ) SOLID_ANGLE_UNIT ( ) );
#210 = VERTEX_POINT ( 'NONE', #484 ) ;
#211 = ORIENTED_EDGE ( 'NONE', *, *, #759, .F. ) ;
#212 = AXIS2_PLACEMENT_3D ( 'NONE', #612, #601, #194 ) ;
#213 = FACE_OUTER_BOUND ( 'NONE', #235, .T. ) ;
#214 = DIRECTION ( 'NONE',  ( -0.000000000000000000, -1.000000000000000000, -0.000000000000000000 ) ) ;
#215 = ORIENTED_EDGE ( 'NONE', *, *, #53, .F. ) ;
#216 = CARTESIAN_POINT ( 'NONE',  ( 4.999999999999997335, 18.00000000000000000, -14.24237984354700970 ) ) ;
#217 = ORIENTED_EDGE ( 'NONE', *, *, #470, .T. ) ;
#218 = LINE ( 'NONE', #38, #203 ) ;
#219 = ADVANCED_FACE ( 'NONE', ( #432 ), #661, .F. ) ;
#220 = CARTESIAN_POINT ( 'NONE',  ( 4.999999999999998224, 18.00000000000000000, -85.14486490616359049 ) ) ;
#221 = VERTEX_POINT ( 'NONE', #428 ) ;
#222 = VECTOR ( 'NONE', #344, 1000.000000000000227 ) ;
#223 = VECTOR ( 'NONE', #352, 1000.000000000000114 ) ;
#224 = CYLINDRICAL_SURFACE ( 'NONE', #153, 10.00000000000000000 ) ;
#225 = DIRECTION ( 'NONE',  ( 0.000000000000000000, 0.000000000000000000, -1.000000000000000000 ) ) ;
#226 = DIRECTION ( 'NONE',  ( -0.000000000000000000, -1.000000000000000000, -0.000000000000000000 ) ) ;
#227 = EDGE_CURVE ( 'NONE', #500, #576, #201, .T. ) ;
#228 = DIRECTION ( 'NONE',  ( -0.000000000000000000, -1.000000000000000000, -0.000000000000000000 ) ) ;
#229 = DIRECTION ( 'NONE',  ( 0.000000000000000000, -0.000000000000000000, -1.000000000000000000 ) ) ;
#230 = DIRECTION ( 'NONE',  ( 0.000000000000000000, 0.000000000000000000, -1.000000000000000000 ) ) ;
#231 = DIRECTION ( 'NONE',  ( -1.000000000000000000, 0.000000000000000000, 1.040834085586094610E-16 ) ) ;
#232 = DIRECTION ( 'NONE',  ( 0.000000000000000000, 0.000000000000000000, 1.000000000000000000 ) ) ;
#233 = CARTESIAN_POINT ( 'NONE',  ( 5.386090358293497360, 18.00000000000000000, 8.425558180458891044 ) ) ;
#234 = CARTESIAN_POINT ( 'NONE',  ( 2.999999999999999112, 18.00000000000000000, -87.14486490616359049 ) ) ;
#235 = EDGE_LOOP ( 'NONE', ( #138, #154, #363, #427 ) ) ;
#236 = CYLINDRICAL_SURFACE ( 'NONE', #44, 2.250000000000000000 ) ;
#237 = CIRCLE ( 'NONE', #421, 10.00000000000000178 ) ;
#238 = DIRECTION ( 'NONE',  ( 0.8425558180458874169, 0.000000000000000000, -0.5386090358293532665 ) ) ;
#239 = VECTOR ( 'NONE', #341, 1000.000000000000000 ) ;
#240 = CYLINDRICAL_SURFACE ( 'NONE', #730, 2.249999999999998668 ) ;
#241 = VERTEX_POINT ( 'NONE', #483 ) ;
#242 = CARTESIAN_POINT ( 'NONE',  ( -30.54774002826776425, 0.000000000000000000, 10.71815755839265094 ) ) ;
#243 = CARTESIAN_POINT ( 'NONE',  ( 2.693045179146764223, 18.00000000000000000, -10.02960075331756862 ) ) ;
#244 = ORIENTED_EDGE ( 'NONE', *, *, #635, .T. ) ;
#245 = CARTESIAN_POINT ( 'NONE',  ( 4.999999999999989342, 18.00000000000000000, -100.0000000000000000 ) ) ;
#246 = EDGE_CURVE ( 'NONE', #435, #676, #71, .T. ) ;
#247 = DIRECTION ( 'NONE',  ( 0.000000000000000000, 0.000000000000000000, -1.000000000000000000 ) ) ;
#248 = SHAPE_DEFINITION_REPRESENTATION ( #556, #61 ) ;
#249 = ORIENTED_EDGE ( 'NONE', *, *, #714, .F. ) ;
#250 = DIRECTION ( 'NONE',  ( 0.000000000000000000, 0.000000000000000000, 1.000000000000000000 ) ) ;
#251 = CARTESIAN_POINT ( 'NONE',  ( -13.47468831681135271, 18.00000000000000000, 0.3057232255736196391 ) ) ;
#252 = CIRCLE ( 'NONE', #382, 10.00000000000000000 ) ;
#253 = APPLICATION_CONTEXT ( 'automotive_design' ) ;
#254 = EDGE_LOOP ( 'NONE', ( #686, #476, #422, #45 ) ) ;
#255 = CARTESIAN_POINT ( 'NONE',  ( -16.16773349595811737, 0.000000000000000000, -3.907055864655816890 ) ) ;
#256 = DIRECTION ( 'NONE',  ( 0.000000000000000000, 1.000000000000000000, -0.000000000000000000 ) ) ;
#257 = EDGE_CURVE ( 'NONE', #390, #187, #42, .T. ) ;
#258 = EDGE_LOOP ( 'NONE', ( #571, #342 ) ) ;
#259 = DIRECTION ( 'NONE',  ( 0.000000000000000000, 1.000000000000000000, 0.000000000000000000 ) ) ;
#260 = DIRECTION ( 'NONE',  ( -0.000000000000000000, -1.000000000000000000, -0.000000000000000000 ) ) ;
#261 = ORIENTED_EDGE ( 'NONE', *, *, #308, .F. ) ;
#262 = AXIS2_PLACEMENT_3D ( 'NONE', #176, #652, #410 ) ;
#263 = AXIS2_PLACEMENT_3D ( 'NONE', #282, #214, #691 ) ;
#264 = ORIENTED_EDGE ( 'NONE', *, *, #227, .F. ) ;
#265 = EDGE_CURVE ( 'NONE', #183, #146, #630, .T. ) ;
#266 = DIRECTION ( 'NONE',  ( 0.000000000000000000, 0.000000000000000000, -1.000000000000000000 ) ) ;
#267 = ORIENTED_EDGE ( 'NONE', *, *, #345, .T. ) ;
#268 = ORIENTED_EDGE ( 'NONE', *, *, #137, .T. ) ;
#269 = EDGE_CURVE ( 'NONE', #187, #31, #497, .T. ) ;
#270 =( LENGTH_UNIT ( ) NAMED_UNIT ( * ) SI_UNIT ( .MILLI., .METRE. ) );
#271 = CARTESIAN_POINT ( 'NONE',  ( 2.999999999999999112, 0.000000000000000000, -85.14486490616359049 ) ) ;
#272 = EDGE_LOOP ( 'NONE', ( #455, #417, #741, #100 ) ) ;
#273 = AXIS2_PLACEMENT_3D ( 'NONE', #605, #546, #372 ) ;
#274 = VECTOR ( 'NONE', #525, 1000.000000000000227 ) ;
#275 = DIRECTION ( 'NONE',  ( -0.9643930182549379504, 0.000000000000000000, -0.2644732620533332135 ) ) ;
#276 = AXIS2_PLACEMENT_3D ( 'NONE', #392, #633, #106 ) ;
#277 = PLANE ( 'NONE',  #396 ) ;
#278 = ORIENTED_EDGE ( 'NONE', *, *, #505, .T. ) ;
#279 = EDGE_CURVE ( 'NONE', #675, #31, #161, .T. ) ;
#280 = DIRECTION ( 'NONE',  ( 1.000000000000000000, 0.000000000000000000, 0.000000000000000000 ) ) ;
#281 = ORIENTED_EDGE ( 'NONE', *, *, #619, .T. ) ;
#282 = CARTESIAN_POINT ( 'NONE',  ( 0.000000000000000000, 18.00000000000000000, -14.24237984354700615 ) ) ;
#283 = ORIENTED_EDGE ( 'NONE', *, *, #186, .F. ) ;
#284 = EDGE_CURVE ( 'NONE', #579, #676, #188, .T. ) ;
#285 = DIRECTION ( 'NONE',  ( -0.000000000000000000, -1.000000000000000000, -0.000000000000000000 ) ) ;
#286 = DIRECTION ( 'NONE',  ( 0.000000000000000000, -1.000000000000000000, 0.000000000000000000 ) ) ;
#287 = CIRCLE ( 'NONE', #262, 5.000000000000004441 ) ;
#288 = AXIS2_PLACEMENT_3D ( 'NONE', #180, #413, #355 ) ;
#289 = CARTESIAN_POINT ( 'NONE',  ( -20.90380984571846312, 0.000000000000000000, 11.11289017892626063 ) ) ;
#290 = ADVANCED_FACE ( 'NONE', ( #431 ), #313, .F. ) ;
#291 = PRODUCT_DEFINITION_FORMATION_WITH_SPECIFIED_SOURCE ( 'ANY', '', #672, .NOT_KNOWN. ) ;
#292 = CARTESIAN_POINT ( 'NONE',  ( 2.999999999999999112, 18.00000000000000000, -87.14486490616359049 ) ) ;
#293 = DIRECTION ( 'NONE',  ( 0.000000000000000000, 0.000000000000000000, -1.000000000000000000 ) ) ;
#294 = CARTESIAN_POINT ( 'NONE',  ( -20.98969858723280879, 18.00000000000000000, -5.229422174922485844 ) ) ;
#295 = CARTESIAN_POINT ( 'NONE',  ( -20.90380984571846312, 18.00000000000000000, 11.11289017892626063 ) ) ;
#296 = LINE ( 'NONE', #112, #144 ) ;
#297 = LINE ( 'NONE', #466, #658 ) ;
#298 = CYLINDRICAL_SURFACE ( 'NONE', #644, 2.000000000000001776 ) ;
#299 = CARTESIAN_POINT ( 'NONE',  ( -15.51771948742469398, 0.000000000000000000, 21.78844835938497226 ) ) ;
#300 = CARTESIAN_POINT ( 'NONE',  ( 4.999999999999998224, 18.00000000000000000, -85.14486490616359049 ) ) ;
#301 = CIRCLE ( 'NONE', #643, 2.250000000000001776 ) ;
#302 = ORIENTED_EDGE ( 'NONE', *, *, #719, .T. ) ;
#303 = FACE_BOUND ( 'NONE', #323, .T. ) ;
#304 = AXIS2_PLACEMENT_3D ( 'NONE', #409, #647, #460 ) ;
#305 = CARTESIAN_POINT ( 'NONE',  ( 2.999999999999999112, 18.00000000000000000, -85.14486490616359049 ) ) ;
#306 = VECTOR ( 'NONE', #139, 1000.000000000000000 ) ;
#307 = AXIS2_PLACEMENT_3D ( 'NONE', #391, #627, #280 ) ;
#308 = EDGE_CURVE ( 'NONE', #331, #716, #660, .T. ) ;
#309 = ORIENTED_EDGE ( 'NONE', *, *, #324, .F. ) ;
#310 = CARTESIAN_POINT ( 'NONE',  ( 4.999999999999998224, 18.00000000000000000, -85.14486490616359049 ) ) ;
#311 = DIRECTION ( 'NONE',  ( 0.000000000000000000, 0.000000000000000000, 1.000000000000000000 ) ) ;
#312 = EDGE_LOOP ( 'NONE', ( #91, #107, #309, #715 ) ) ;
#313 = CYLINDRICAL_SURFACE ( 'NONE', #72, 2.250000000000001776 ) ;
#314 = DIRECTION ( 'NONE',  ( 0.000000000000000000, -1.000000000000000000, 0.000000000000000000 ) ) ;
#315 = EDGE_CURVE ( 'NONE', #716, #34, #326, .T. ) ;
#316 = ORIENTED_EDGE ( 'NONE', *, *, #657, .F. ) ;
#317 = DIRECTION ( 'NONE',  ( 0.9643930182549379504, -0.000000000000000000, 0.2644732620533332135 ) ) ;
#318 = FACE_BOUND ( 'NONE', #634, .T. ) ;
#319 = VECTOR ( 'NONE', #260, 1000.000000000000000 ) ;
#320 = ORIENTED_EDGE ( 'NONE', *, *, #132, .F. ) ;
#321 = DIRECTION ( 'NONE',  ( 0.000000000000000000, 1.000000000000000000, -0.000000000000000000 ) ) ;
#322 = CARTESIAN_POINT ( 'NONE',  ( 4.999999999999989342, 0.000000000000000000, -100.0000000000000000 ) ) ;
#323 = EDGE_LOOP ( 'NONE', ( #19, #28 ) ) ;
#324 = EDGE_CURVE ( 'NONE', #146, #166, #83, .T. ) ;
#325 = ORIENTED_EDGE ( 'NONE', *, *, #577, .T. ) ;
#326 = CIRCLE ( 'NONE', #212, 5.000000000000000888 ) ;
#327 = EDGE_CURVE ( 'NONE', #241, #473, #407, .T. ) ;
#328 = ORIENTED_EDGE ( 'NONE', *, *, #92, .T. ) ;
#329 = ORIENTED_EDGE ( 'NONE', *, *, #340, .T. ) ;
#330 = FACE_OUTER_BOUND ( 'NONE', #141, .T. ) ;
#331 = VERTEX_POINT ( 'NONE', #310 ) ;
#332 = FACE_OUTER_BOUND ( 'NONE', #487, .T. ) ;
#333 = SURFACE_STYLE_FILL_AREA ( #518 ) ;
#334 = EDGE_LOOP ( 'NONE', ( #721, #393 ) ) ;
#335 = ADVANCED_FACE ( 'NONE', ( #543 ), #16, .T. ) ;
#336 = CIRCLE ( 'NONE', #573, 2.250000000000001776 ) ;
#337 = CARTESIAN_POINT ( 'NONE',  ( -13.47468831681135271, 0.000000000000000000, 0.3057232255736196391 ) ) ;
#338 = DIRECTION ( 'NONE',  ( 0.000000000000000000, 0.000000000000000000, -1.000000000000000000 ) ) ;
#339 = ORIENTED_EDGE ( 'NONE', *, *, #748, .T. ) ;
#340 = EDGE_CURVE ( 'NONE', #241, #500, #369, .T. ) ;
#341 = DIRECTION ( 'NONE',  ( -1.040834085586094610E-16, -0.000000000000000000, -1.000000000000000000 ) ) ;
#342 = ORIENTED_EDGE ( 'NONE', *, *, #677, .T. ) ;
#343 = CARTESIAN_POINT ( 'NONE',  ( 4.999999999999989342, 18.00000000000000000, -100.0000000000000000 ) ) ;
#344 = DIRECTION ( 'NONE',  ( 0.8425558180458874169, 0.000000000000000000, -0.5386090358293532665 ) ) ;
#345 = EDGE_CURVE ( 'NONE', #509, #625, #169, .T. ) ;
#346 = CARTESIAN_POINT ( 'NONE',  ( 2.999999999999999112, 18.00000000000000000, -85.14486490616359049 ) ) ;
#347 = CARTESIAN_POINT ( 'NONE',  ( 0.000000000000000000, 0.000000000000000000, 0.000000000000000000 ) ) ;
#348 = VERTEX_POINT ( 'NONE', #292 ) ;
#349 = VECTOR ( 'NONE', #521, 1000.000000000000000 ) ;
#350 = DIRECTION ( 'NONE',  ( 0.000000000000000000, 0.000000000000000000, 1.000000000000000000 ) ) ;
#351 = AXIS2_PLACEMENT_3D ( 'NONE', #636, #756, #570 ) ;
#352 = DIRECTION ( 'NONE',  ( 0.2644732620533331025, 0.000000000000000000, -0.9643930182549378394 ) ) ;
#353 = CARTESIAN_POINT ( 'NONE',  ( 9.999999999999991118, 18.00000000000000000, -99.99999999999906208 ) ) ;
#354 = CARTESIAN_POINT ( 'NONE',  ( -20.98969858723281234, 18.00000000000000000, -5.229422174922484068 ) ) ;
#355 = DIRECTION ( 'NONE',  ( 0.000000000000000000, 0.000000000000000000, -1.000000000000000000 ) ) ;
#356 = CARTESIAN_POINT ( 'NONE',  ( -16.16773349595811737, 18.00000000000000000, -3.907055864655816890 ) ) ;
#357 = CARTESIAN_POINT ( 'NONE',  ( 1.071213963490121435, 0.000000000000000000, -85.67381143027024848 ) ) ;
#358 = ORIENTED_EDGE ( 'NONE', *, *, #324, .T. ) ;
#359 = DIRECTION ( 'NONE',  ( -0.000000000000000000, -1.000000000000000000, -0.000000000000000000 ) ) ;
#360 = CARTESIAN_POINT ( 'NONE',  ( -30.54774002826776425, 18.00000000000000000, 10.71815755839265094 ) ) ;
#361 = ADVANCED_FACE ( 'NONE', ( #404 ), #236, .F. ) ;
#362 = DIRECTION ( 'NONE',  ( 1.223316414399868464E-17, 0.000000000000000000, -1.000000000000000000 ) ) ;
#363 = ORIENTED_EDGE ( 'NONE', *, *, #617, .T. ) ;
#364 = CARTESIAN_POINT ( 'NONE',  ( 4.999999999999998224, 18.00000000000000000, -85.14486490616359049 ) ) ;
#365 = VECTOR ( 'NONE', #74, 1000.000000000000000 ) ;
#366 = CARTESIAN_POINT ( 'NONE',  ( 0.1780349087250471252, 18.00000000000000000, -101.3223663102657497 ) ) ;
#367 = ADVANCED_FACE ( 'NONE', ( #55 ), #475, .F. ) ;
#368 = ORIENTED_EDGE ( 'NONE', *, *, #205, .F. ) ;
#369 = LINE ( 'NONE', #709, #223 ) ;
#370 = CARTESIAN_POINT ( 'NONE',  ( -20.90380984571846312, 18.00000000000000000, 15.61289017892625886 ) ) ;
#371 = ORIENTED_EDGE ( 'NONE', *, *, #119, .T. ) ;
#372 = DIRECTION ( 'NONE',  ( 0.000000000000000000, 0.000000000000000000, 1.000000000000000000 ) ) ;
#373 = CARTESIAN_POINT ( 'NONE',  ( 4.999999999999989342, 18.00000000000000000, -105.0000000000000142 ) ) ;
#374 = VERTEX_POINT ( 'NONE', #651 ) ;
#375 = CARTESIAN_POINT ( 'NONE',  ( -30.54774002826776425, 18.00000000000000000, 10.71815755839265094 ) ) ;
#376 = CARTESIAN_POINT ( 'NONE',  ( 0.000000000000000000, 18.00000000000000000, 0.000000000000000000 ) ) ;
#377 = VECTOR ( 'NONE', #653, 1000.000000000000000 ) ;
#378 = ORIENTED_EDGE ( 'NONE', *, *, #92, .F. ) ;
#379 = ORIENTED_EDGE ( 'NONE', *, *, #109, .F. ) ;
#380 = ORIENTED_EDGE ( 'NONE', *, *, #279, .F. ) ;
#381 = ORIENTED_EDGE ( 'NONE', *, *, #97, .T. ) ;
#382 = AXIS2_PLACEMENT_3D ( 'NONE', #544, #602, #495 ) ;
#383 = CIRCLE ( 'NONE', #445, 2.250000000000000000 ) ;
#384 = APPLICATION_PROTOCOL_DEFINITION ( 'draft international standard', 'automotive_design', 1998, #447 ) ;
#385 = ORIENTED_EDGE ( 'NONE', *, *, #132, .T. ) ;
#386 = CARTESIAN_POINT ( 'NONE',  ( 9.999999999999991118, 18.00000000000000000, -99.99999999999906208 ) ) ;
#387 = VERTEX_POINT ( 'NONE', #641 ) ;
#388 = DIRECTION ( 'NONE',  ( -0.000000000000000000, -1.000000000000000000, -0.000000000000000000 ) ) ;
#389 = EDGE_CURVE ( 'NONE', #430, #435, #69, .T. ) ;
#390 = VERTEX_POINT ( 'NONE', #295 ) ;
#391 = CARTESIAN_POINT ( 'NONE',  ( 0.000000000000000000, 0.000000000000000000, 0.000000000000000000 ) ) ;
#392 = CARTESIAN_POINT ( 'NONE',  ( 4.332851387010890676, 18.00000000000000000, -95.04470861319066444 ) ) ;
#393 = ORIENTED_EDGE ( 'NONE', *, *, #462, .F. ) ;
#394 = VECTOR ( 'NONE', #142, 1000.000000000000000 ) ;
#395 = AXIS2_PLACEMENT_3D ( 'NONE', #2, #231, #702 ) ;
#396 = AXIS2_PLACEMENT_3D ( 'NONE', #513, #168, #110 ) ;
#397 = DIRECTION ( 'NONE',  ( 0.000000000000000000, -1.000000000000000000, 0.000000000000000000 ) ) ;
#398 = CYLINDRICAL_SURFACE ( 'NONE', #263, 5.000000000000000888 ) ;
#399 = VERTEX_POINT ( 'NONE', #123 ) ;
#400 = FACE_BOUND ( 'NONE', #334, .T. ) ;
#401 = ORIENTED_EDGE ( 'NONE', *, *, #759, .T. ) ;
#402 = EDGE_CURVE ( 'NONE', #221, #179, #502, .T. ) ;
#403 = DIRECTION ( 'NONE',  ( 0.000000000000000000, 0.000000000000000000, -1.000000000000000000 ) ) ;
#404 = FACE_OUTER_BOUND ( 'NONE', #452, .T. ) ;
#405 = DIRECTION ( 'NONE',  ( 0.000000000000000000, 0.000000000000000000, -1.000000000000000000 ) ) ;
#406 = AXIS2_PLACEMENT_3D ( 'NONE', #90, #77, #311 ) ;
#407 = CIRCLE ( 'NONE', #190, 5.000000000000001776 ) ;
#408 = DIRECTION ( 'NONE',  ( 0.000000000000000000, 0.000000000000000000, -1.000000000000000000 ) ) ;
#409 = CARTESIAN_POINT ( 'NONE',  ( 4.332851387010890676, 18.00000000000000000, -95.04470861319066444 ) ) ;
#410 = DIRECTION ( 'NONE',  ( 0.000000000000000000, 0.000000000000000000, -1.000000000000000000 ) ) ;
#411 = DIRECTION ( 'NONE',  ( 0.000000000000000000, -1.000000000000000000, 0.000000000000000000 ) ) ;
#412 = ORIENTED_EDGE ( 'NONE', *, *, #269, .T. ) ;
#413 = DIRECTION ( 'NONE',  ( -0.000000000000000000, -1.000000000000000000, -0.000000000000000000 ) ) ;
#414 = EDGE_CURVE ( 'NONE', #210, #558, #757, .T. ) ;
#415 = FACE_OUTER_BOUND ( 'NONE', #105, .T. ) ;
#416 = CARTESIAN_POINT ( 'NONE',  ( -15.51771948742469043, 18.00000000000000000, 21.78844835938496871 ) ) ;
#417 = ORIENTED_EDGE ( 'NONE', *, *, #22, .T. ) ;
#418 = LINE ( 'NONE', #59, #349 ) ;
#419 = DIRECTION ( 'NONE',  ( 0.000000000000000000, 0.000000000000000000, -1.000000000000000000 ) ) ;
#420 = EDGE_CURVE ( 'NONE', #716, #79, #467, .T. ) ;
#421 = AXIS2_PLACEMENT_3D ( 'NONE', #555, #21, #27 ) ;
#422 = ORIENTED_EDGE ( 'NONE', *, *, #619, .F. ) ;
#423 = CARTESIAN_POINT ( 'NONE',  ( -15.51771948742469043, 18.00000000000000000, 21.78844835938496871 ) ) ;
#424 = VECTOR ( 'NONE', #699, 1000.000000000000114 ) ;
#425 = CYLINDRICAL_SURFACE ( 'NONE', #738, 2.250000000000000000 ) ;
#426 = ADVANCED_FACE ( 'NONE', ( #303, #592, #540, #400, #13 ), #596, .F. ) ;
#427 = ORIENTED_EDGE ( 'NONE', *, *, #10, .T. ) ;
#428 = CARTESIAN_POINT ( 'NONE',  ( 0.000000000000000000, 0.000000000000000000, -2.250000000000000000 ) ) ;
#429 = DIRECTION ( 'NONE',  ( 0.000000000000000000, 0.000000000000000000, -1.000000000000000000 ) ) ;
#430 = VERTEX_POINT ( 'NONE', #3 ) ;
#431 = FACE_OUTER_BOUND ( 'NONE', #516, .T. ) ;
#432 = FACE_OUTER_BOUND ( 'NONE', #312, .T. ) ;
#433 = ORIENTED_EDGE ( 'NONE', *, *, #635, .F. ) ;
#434 = VECTOR ( 'NONE', #749, 1000.000000000000000 ) ;
#435 = VERTEX_POINT ( 'NONE', #242 ) ;
#436 = EDGE_CURVE ( 'NONE', #727, #37, #479, .T. ) ;
#437 = ORIENTED_EDGE ( 'NONE', *, *, #284, .F. ) ;
#438 = ORIENTED_EDGE ( 'NONE', *, *, #327, .F. ) ;
#439 = ADVANCED_FACE ( 'NONE', ( #529 ), #298, .F. ) ;
#440 = DIRECTION ( 'NONE',  ( 0.000000000000000000, 0.000000000000000000, -1.000000000000000000 ) ) ;
#441 = EDGE_LOOP ( 'NONE', ( #618, #217, #732, #621 ) ) ;
#442 = DIRECTION ( 'NONE',  ( -0.000000000000000000, -1.000000000000000000, -0.000000000000000000 ) ) ;
#443 = EDGE_LOOP ( 'NONE', ( #545, #663, #204, #127 ) ) ;
#444 = AXIS2_PLACEMENT_3D ( 'NONE', #728, #197, #29 ) ;
#445 = AXIS2_PLACEMENT_3D ( 'NONE', #184, #637, #584 ) ;
#446 = CARTESIAN_POINT ( 'NONE',  ( 1.734723475976807094E-15, 0.000000000000000000, -6.938893903907228378E-15 ) ) ;
#447 = APPLICATION_CONTEXT ( 'automotive_design' ) ;
#448 = LINE ( 'NONE', #386, #740 ) ;
#449 = EDGE_LOOP ( 'NONE', ( #379, #650 ) ) ;
#450 = LINE ( 'NONE', #569, #192 ) ;
#451 = DIRECTION ( 'NONE',  ( 0.000000000000000000, -1.000000000000000000, 0.000000000000000000 ) ) ;
#452 = EDGE_LOOP ( 'NONE', ( #673, #148, #339, #368 ) ) ;
#453 = DIRECTION ( 'NONE',  ( 0.000000000000000000, -1.000000000000000000, 0.000000000000000000 ) ) ;
#454 = EDGE_CURVE ( 'NONE', #210, #509, #457, .T. ) ;
#455 = ORIENTED_EDGE ( 'NONE', *, *, #583, .T. ) ;
#456 = AXIS2_PLACEMENT_3D ( 'NONE', #14, #185, #638 ) ;
#457 = CIRCLE ( 'NONE', #304, 2.250000000000001776 ) ;
#458 = CIRCLE ( 'NONE', #165, 2.000000000000001776 ) ;
#459 = FACE_OUTER_BOUND ( 'NONE', #88, .T. ) ;
#460 = DIRECTION ( 'NONE',  ( 0.000000000000000000, 0.000000000000000000, -1.000000000000000000 ) ) ;
#461 = VERTEX_POINT ( 'NONE', #111 ) ;
#462 = EDGE_CURVE ( 'NONE', #504, #607, #383, .T. ) ;
#463 = PLANE ( 'NONE',  #755 ) ;
#464 = DIRECTION ( 'NONE',  ( 0.000000000000000000, 1.000000000000000000, 0.000000000000000000 ) ) ;
#465 = DIRECTION ( 'NONE',  ( 0.000000000000000000, 0.000000000000000000, 1.000000000000000000 ) ) ;
#466 = CARTESIAN_POINT ( 'NONE',  ( 4.999999999999998224, 0.000000000000000000, -85.14486490616359049 ) ) ;
#467 = LINE ( 'NONE', #51, #489 ) ;
#468 = CARTESIAN_POINT ( 'NONE',  ( 0.000000000000000000, 0.000000000000000000, -14.24237984354700615 ) ) ;
#469 = AXIS2_PLACEMENT_3D ( 'NONE', #170, #57, #293 ) ;
#470 = EDGE_CURVE ( 'NONE', #187, #390, #511, .T. ) ;
#471 = AXIS2_PLACEMENT_3D ( 'NONE', #649, #640, #350 ) ;
#472 = CARTESIAN_POINT ( 'NONE',  ( 4.332851387010890676, 0.000000000000000000, -92.79470861319066444 ) ) ;
#473 = VERTEX_POINT ( 'NONE', #533 ) ;
#474 = AXIS2_PLACEMENT_3D ( 'NONE', #446, #684, #266 ) ;
#475 = CYLINDRICAL_SURFACE ( 'NONE', #288, 2.250000000000001776 ) ;
#476 = ORIENTED_EDGE ( 'NONE', *, *, #617, .F. ) ;
#477 = CARTESIAN_POINT ( 'NONE',  ( 2.999999999999999112, 0.000000000000000000, -87.14486490616359049 ) ) ;
#478 = EDGE_LOOP ( 'NONE', ( #604, #616, #710, #689 ) ) ;
#479 = LINE ( 'NONE', #713, #86 ) ;
#480 = CARTESIAN_POINT ( 'NONE',  ( 10.00000000000000178, 0.000000000000000000, -5.196013828848716574E-14 ) ) ;
#481 = EDGE_CURVE ( 'NONE', #390, #675, #418, .T. ) ;
#482 = EDGE_LOOP ( 'NONE', ( #268, #15, #358, #160, #328, #642, #281 ) ) ;
#483 = CARTESIAN_POINT ( 'NONE',  ( -20.98969858723280879, 0.000000000000000000, -5.229422174922485844 ) ) ;
#484 = CARTESIAN_POINT ( 'NONE',  ( 4.332851387010890676, 18.00000000000000000, -92.79470861319066444 ) ) ;
#485 = EDGE_CURVE ( 'NONE', #183, #731, #67, .T. ) ;
#486 = CIRCLE ( 'NONE', #586, 5.000000000000004441 ) ;
#487 = EDGE_LOOP ( 'NONE', ( #329, #47, #600, #666 ) ) ;
#488 = DIRECTION ( 'NONE',  ( 0.000000000000000000, 0.000000000000000000, -1.000000000000000000 ) ) ;
#489 = VECTOR ( 'NONE', #114, 1000.000000000000000 ) ;
#490 = DIRECTION ( 'NONE',  ( 0.000000000000000000, 0.000000000000000000, -1.000000000000000000 ) ) ;
#491 = APPLICATION_PROTOCOL_DEFINITION ( 'draft international standard', 'automotive_design', 1998, #253 ) ;
#492 = EDGE_CURVE ( 'NONE', #34, #679, #171, .T. ) ;
#493 = ORIENTED_EDGE ( 'NONE', *, *, #315, .T. ) ;
#494 = CARTESIAN_POINT ( 'NONE',  ( 2.999999999999999112, 0.000000000000000000, -85.14486490616359049 ) ) ;
#495 = DIRECTION ( 'NONE',  ( 0.000000000000000000, 0.000000000000000000, -1.000000000000000000 ) ) ;
#496 = EDGE_LOOP ( 'NONE', ( #553, #412, #380, #626 ) ) ;
#497 = LINE ( 'NONE', #26, #394 ) ;
#498 = DIRECTION ( 'NONE',  ( -0.000000000000000000, -1.000000000000000000, -0.000000000000000000 ) ) ;
#499 = EDGE_CURVE ( 'NONE', #461, #79, #297, .T. ) ;
#500 = VERTEX_POINT ( 'NONE', #357 ) ;
#501 = AXIS2_PLACEMENT_3D ( 'NONE', #551, #321, #667 ) ;
#502 = CIRCLE ( 'NONE', #671, 2.250000000000000000 ) ;
#503 = CIRCLE ( 'NONE', #96, 2.000000000000001776 ) ;
#504 = VERTEX_POINT ( 'NONE', #5 ) ;
#505 = EDGE_CURVE ( 'NONE', #348, #576, #63, .T. ) ;
#506 = ORIENTED_EDGE ( 'NONE', *, *, #167, .F. ) ;
#507 = ORIENTED_EDGE ( 'NONE', *, *, #227, .T. ) ;
#508 = DIRECTION ( 'NONE',  ( 0.000000000000000000, 0.000000000000000000, -1.000000000000000000 ) ) ;
#509 = VERTEX_POINT ( 'NONE', #537 ) ;
#510 = VECTOR ( 'NONE', #80, 1000.000000000000000 ) ;
#511 = CIRCLE ( 'NONE', #33, 2.249999999999998668 ) ;
#512 =( NAMED_UNIT ( * ) PLANE_ANGLE_UNIT ( ) SI_UNIT ( $, .RADIAN. ) );
#513 = CARTESIAN_POINT ( 'NONE',  ( -15.51771948742469398, 18.00000000000000000, 21.78844835938497226 ) ) ;
#514 = ORIENTED_EDGE ( 'NONE', *, *, #615, .F. ) ;
#515 = CARTESIAN_POINT ( 'NONE',  ( 9.999999999999991118, 0.000000000000000000, -99.99999999999906208 ) ) ;
#516 = EDGE_LOOP ( 'NONE', ( #12, #747, #267, #708 ) ) ;
#517 = EDGE_CURVE ( 'NONE', #75, #241, #711, .T. ) ;
#518 = FILL_AREA_STYLE ('',( #567 ) ) ;
#519 = ORIENTED_EDGE ( 'NONE', *, *, #327, .T. ) ;
#520 = CARTESIAN_POINT ( 'NONE',  ( 4.332851387010890676, 18.00000000000000000, -92.79470861319066444 ) ) ;
#521 = DIRECTION ( 'NONE',  ( -0.000000000000000000, -1.000000000000000000, -0.000000000000000000 ) ) ;
#522 = AXIS2_PLACEMENT_3D ( 'NONE', #697, #585, #60 ) ;
#523 = PRESENTATION_LAYER_ASSIGNMENT (  '', '', ( #94 ) ) ;
#524 = CIRCLE ( 'NONE', #474, 10.00000000000000000 ) ;
#525 = DIRECTION ( 'NONE',  ( 0.8425558180458874169, 0.000000000000000000, -0.5386090358293531555 ) ) ;
#526 = CARTESIAN_POINT ( 'NONE',  ( -20.90380984571846312, 18.00000000000000000, 13.36289017892626063 ) ) ;
#527 = LINE ( 'NONE', #754, #598 ) ;
#528 = CARTESIAN_POINT ( 'NONE',  ( 1.071213963490121435, 18.00000000000000000, -85.67381143027024848 ) ) ;
#529 = FACE_OUTER_BOUND ( 'NONE', #82, .T. ) ;
#530 = CYLINDRICAL_SURFACE ( 'NONE', #469, 10.00000000000000000 ) ;
#531 = ADVANCED_FACE ( 'NONE', ( #707 ), #463, .F. ) ;
#532 = CARTESIAN_POINT ( 'NONE',  ( 2.693045179146764223, 18.00000000000000000, -10.02960075331756862 ) ) ;
#533 = CARTESIAN_POINT ( 'NONE',  ( -13.47468831681135271, 0.000000000000000000, 0.3057232255736196391 ) ) ;
#534 = LINE ( 'NONE', #360, #549 ) ;
#535 = AXIS2_PLACEMENT_3D ( 'NONE', #251, #17, #189 ) ;
#536 = VECTOR ( 'NONE', #591, 1000.000000000000000 ) ;
#537 = CARTESIAN_POINT ( 'NONE',  ( 4.332851387010890676, 18.00000000000000000, -97.29470861319067865 ) ) ;
#538 = EDGE_LOOP ( 'NONE', ( #751, #159, #93, #199, #493, #433, #550 ) ) ;
#539 =( GEOMETRIC_REPRESENTATION_CONTEXT ( 3 ) GLOBAL_UNCERTAINTY_ASSIGNED_CONTEXT ( ( #1 ) ) GLOBAL_UNIT_ASSIGNED_CONTEXT ( ( #270, #512, #209 ) ) REPRESENTATION_CONTEXT ( 'NONE', 'WORKASPACE' ) );
#540 = FACE_OUTER_BOUND ( 'NONE', #482, .T. ) ;
#541 = FACE_OUTER_BOUND ( 'NONE', #563, .T. ) ;
#542 = ORIENTED_EDGE ( 'NONE', *, *, #10, .F. ) ;
#543 = FACE_OUTER_BOUND ( 'NONE', #478, .T. ) ;
#544 = CARTESIAN_POINT ( 'NONE',  ( 1.734723475976807094E-15, 18.00000000000000000, -6.938893903907228378E-15 ) ) ;
#545 = ORIENTED_EDGE ( 'NONE', *, *, #53, .T. ) ;
#546 = DIRECTION ( 'NONE',  ( 0.000000000000000000, 1.000000000000000000, 0.000000000000000000 ) ) ;
#547 = EDGE_CURVE ( 'NONE', #75, #387, #11, .T. ) ;
#548 = FACE_BOUND ( 'NONE', #258, .T. ) ;
#549 = VECTOR ( 'NONE', #226, 1000.000000000000000 ) ;
#550 = ORIENTED_EDGE ( 'NONE', *, *, #119, .F. ) ;
#551 = CARTESIAN_POINT ( 'NONE',  ( 4.999999999999989342, 18.00000000000000000, -100.0000000000000000 ) ) ;
#552 = DIRECTION ( 'NONE',  ( 0.000000000000000000, -0.000000000000000000, -1.000000000000000000 ) ) ;
#553 = ORIENTED_EDGE ( 'NONE', *, *, #257, .T. ) ;
#554 = DIRECTION ( 'NONE',  ( 0.000000000000000000, 0.000000000000000000, -1.000000000000000000 ) ) ;
#555 = CARTESIAN_POINT ( 'NONE',  ( -20.90380984571845602, 18.00000000000000000, 13.36289017892624464 ) ) ;
#556 = PRODUCT_DEFINITION_SHAPE ( 'NONE', 'NONE',  #639 ) ;
#557 = ORIENTED_EDGE ( 'NONE', *, *, #674, .F. ) ;
#558 = VERTEX_POINT ( 'NONE', #472 ) ;
#559 = EDGE_CURVE ( 'NONE', #387, #500, #599, .T. ) ;
#560 = AXIS2_PLACEMENT_3D ( 'NONE', #322, #314, #552 ) ;
#561 = COLOUR_RGB ( '',0.7921568627450980005, 0.8196078431372548767, 0.9333333333333333481 ) ;
#562 = LINE ( 'NONE', #337, #73 ) ;
#563 = EDGE_LOOP ( 'NONE', ( #581, #670, #506, #401 ) ) ;
#564 = ADVANCED_FACE ( 'NONE', ( #178 ), #240, .F. ) ;
#565 = ORIENTED_EDGE ( 'NONE', *, *, #505, .F. ) ;
#566 = PRODUCT_CONTEXT ( 'NONE', #447, 'mechanical' ) ;
#567 = FILL_AREA_STYLE_COLOUR ( '', #561 ) ;
#568 = ORIENTED_EDGE ( 'NONE', *, *, #66, .F. ) ;
#569 = CARTESIAN_POINT ( 'NONE',  ( 0.000000000000000000, 18.00000000000000000, -2.250000000000000000 ) ) ;
#570 = DIRECTION ( 'NONE',  ( 0.000000000000000000, 0.000000000000000000, 1.000000000000000000 ) ) ;
#571 = ORIENTED_EDGE ( 'NONE', *, *, #279, .T. ) ;
#572 = CIRCLE ( 'NONE', #456, 5.000000000000004441 ) ;
#573 = AXIS2_PLACEMENT_3D ( 'NONE', #182, #411, #408 ) ;
#574 = CARTESIAN_POINT ( 'NONE',  ( -20.98969858723281234, 18.00000000000000000, -5.229422174922484068 ) ) ;
#575 = SURFACE_SIDE_STYLE ('',( #333 ) ) ;
#576 = VERTEX_POINT ( 'NONE', #477 ) ;
#577 = EDGE_CURVE ( 'NONE', #558, #625, #336, .T. ) ;
#578 = CARTESIAN_POINT ( 'NONE',  ( -20.90380984571845602, 18.00000000000000000, 13.36289017892624464 ) ) ;
#579 = VERTEX_POINT ( 'NONE', #416 ) ;
#580 = DIRECTION ( 'NONE',  ( -0.000000000000000000, -1.000000000000000000, -0.000000000000000000 ) ) ;
#581 = ORIENTED_EDGE ( 'NONE', *, *, #714, .T. ) ;
#582 = CARTESIAN_POINT ( 'NONE',  ( 9.999999999999991118, 18.00000000000000000, -99.99999999999906208 ) ) ;
#583 = EDGE_CURVE ( 'NONE', #607, #504, #9, .T. ) ;
#584 = DIRECTION ( 'NONE',  ( 0.000000000000000000, 0.000000000000000000, 1.000000000000000000 ) ) ;
#585 = DIRECTION ( 'NONE',  ( -0.000000000000000000, -1.000000000000000000, -0.000000000000000000 ) ) ;
#586 = AXIS2_PLACEMENT_3D ( 'NONE', #136, #256, #490 ) ;
#587 = CIRCLE ( 'NONE', #351, 2.249999999999998668 ) ;
#588 = PLANE ( 'NONE',  #395 ) ;
#589 = DIRECTION ( 'NONE',  ( 0.000000000000000000, 0.000000000000000000, 1.000000000000000000 ) ) ;
#590 = CYLINDRICAL_SURFACE ( 'NONE', #522, 5.000000000000002665 ) ;
#591 = DIRECTION ( 'NONE',  ( -0.000000000000000000, -1.000000000000000000, -0.000000000000000000 ) ) ;
#592 = FACE_BOUND ( 'NONE', #538, .T. ) ;
#593 = DIRECTION ( 'NONE',  ( -0.000000000000000000, 1.000000000000000000, -0.000000000000000000 ) ) ;
#594 = DIRECTION ( 'NONE',  ( -0.000000000000000000, -1.000000000000000000, -0.000000000000000000 ) ) ;
#595 = ORIENTED_EDGE ( 'NONE', *, *, #284, .T. ) ;
#596 = PLANE ( 'NONE',  #177 ) ;
#597 = FACE_OUTER_BOUND ( 'NONE', #206, .T. ) ;
#598 = VECTOR ( 'NONE', #181, 1000.000000000000000 ) ;
#599 = LINE ( 'NONE', #528, #163 ) ;
#600 = ORIENTED_EDGE ( 'NONE', *, *, #547, .F. ) ;
#601 = DIRECTION ( 'NONE',  ( 0.000000000000000000, -1.000000000000000000, 0.000000000000000000 ) ) ;
#602 = DIRECTION ( 'NONE',  ( 0.000000000000000000, 1.000000000000000000, -0.000000000000000000 ) ) ;
#603 = ADVANCED_FACE ( 'NONE', ( #58 ), #588, .F. ) ;
#604 = ORIENTED_EDGE ( 'NONE', *, *, #265, .F. ) ;
#605 = CARTESIAN_POINT ( 'NONE',  ( -20.90380984571845602, 0.000000000000000000, 13.36289017892624464 ) ) ;
#606 = CARTESIAN_POINT ( 'NONE',  ( -30.54774002826776425, 18.00000000000000000, 10.71815755839265094 ) ) ;
#607 = VERTEX_POINT ( 'NONE', #646 ) ;
#608 = ORIENTED_EDGE ( 'NONE', *, *, #246, .T. ) ;
#609 = DIRECTION ( 'NONE',  ( 0.2644732620533331580, 0.000000000000000000, -0.9643930182549378394 ) ) ;
#610 = FACE_BOUND ( 'NONE', #40, .T. ) ;
#611 = ORIENTED_EDGE ( 'NONE', *, *, #402, .T. ) ;
#612 = CARTESIAN_POINT ( 'NONE',  ( 0.000000000000000000, 18.00000000000000000, -14.24237984354700615 ) ) ;
#613 = AXIS2_PLACEMENT_3D ( 'NONE', #245, #135, #722 ) ;
#614 = CYLINDRICAL_SURFACE ( 'NONE', #680, 2.249999999999998668 ) ;
#615 = EDGE_CURVE ( 'NONE', #37, #374, #39, .T. ) ;
#616 = ORIENTED_EDGE ( 'NONE', *, *, #485, .T. ) ;
#617 = EDGE_CURVE ( 'NONE', #4, #374, #448, .T. ) ;
#618 = ORIENTED_EDGE ( 'NONE', *, *, #269, .F. ) ;
#619 = EDGE_CURVE ( 'NONE', #727, #4, #624, .T. ) ;
#620 = ORIENTED_EDGE ( 'NONE', *, *, #345, .F. ) ;
#621 = ORIENTED_EDGE ( 'NONE', *, *, #677, .F. ) ;
#622 = ADVANCED_FACE ( 'NONE', ( #99 ), #398, .F. ) ;
#623 = ORIENTED_EDGE ( 'NONE', *, *, #257, .F. ) ;
#624 = LINE ( 'NONE', #582, #434 ) ;
#625 = VERTEX_POINT ( 'NONE', #155 ) ;
#626 = ORIENTED_EDGE ( 'NONE', *, *, #481, .F. ) ;
#627 = DIRECTION ( 'NONE',  ( 0.000000000000000000, 0.000000000000000000, 1.000000000000000000 ) ) ;
#628 = CARTESIAN_POINT ( 'NONE',  ( -13.47468831681135271, 18.00000000000000000, 0.3057232255736196391 ) ) ;
#629 = ORIENTED_EDGE ( 'NONE', *, *, #492, .T. ) ;
#630 = CIRCLE ( 'NONE', #501, 5.000000000000004441 ) ;
#631 = ADVANCED_FACE ( 'NONE', ( #330 ), #224, .T. ) ;
#632 = VECTOR ( 'NONE', #359, 1000.000000000000000 ) ;
#633 = DIRECTION ( 'NONE',  ( 0.000000000000000000, -1.000000000000000000, 0.000000000000000000 ) ) ;
#634 = EDGE_LOOP ( 'NONE', ( #264, #102, #519, #302, #215, #36, #316 ) ) ;
#635 = EDGE_CURVE ( 'NONE', #150, #34, #688, .T. ) ;
#636 = CARTESIAN_POINT ( 'NONE',  ( -20.90380984571846312, 0.000000000000000000, 13.36289017892626063 ) ) ;
#637 = DIRECTION ( 'NONE',  ( 0.000000000000000000, 1.000000000000000000, 0.000000000000000000 ) ) ;
#638 = DIRECTION ( 'NONE',  ( 0.000000000000000000, 0.000000000000000000, -1.000000000000000000 ) ) ;
#639 = PRODUCT_DEFINITION ( 'UNKNOWN', '', #291, #62 ) ;
#640 = DIRECTION ( 'NONE',  ( 0.000000000000000000, 1.000000000000000000, 0.000000000000000000 ) ) ;
#641 = CARTESIAN_POINT ( 'NONE',  ( 1.071213963490121435, 18.00000000000000000, -85.67381143027024848 ) ) ;
#642 = ORIENTED_EDGE ( 'NONE', *, *, #167, .T. ) ;
#643 = AXIS2_PLACEMENT_3D ( 'NONE', #758, #7, #230 ) ;
#644 = AXIS2_PLACEMENT_3D ( 'NONE', #175, #580, #225 ) ;
#645 = AXIS2_PLACEMENT_3D ( 'NONE', #574, #275, #101 ) ;
#646 = CARTESIAN_POINT ( 'NONE',  ( 0.000000000000000000, 18.00000000000000000, -2.250000000000000000 ) ) ;
#647 = DIRECTION ( 'NONE',  ( 0.000000000000000000, -1.000000000000000000, 0.000000000000000000 ) ) ;
#648 = CARTESIAN_POINT ( 'NONE',  ( 4.999999999999997335, 0.000000000000000000, -14.24237984354700615 ) ) ;
#649 = CARTESIAN_POINT ( 'NONE',  ( 0.000000000000000000, 18.00000000000000000, 0.000000000000000000 ) ) ;
#650 = ORIENTED_EDGE ( 'NONE', *, *, #577, .F. ) ;
#651 = CARTESIAN_POINT ( 'NONE',  ( 9.999999999999991118, 0.000000000000000000, -99.99999999999906208 ) ) ;
#652 = DIRECTION ( 'NONE',  ( 0.000000000000000000, 1.000000000000000000, -0.000000000000000000 ) ) ;
#653 = DIRECTION ( 'NONE',  ( -0.000000000000000000, -1.000000000000000000, -0.000000000000000000 ) ) ;
#654 = ORIENTED_EDGE ( 'NONE', *, *, #246, .F. ) ;
#655 = CARTESIAN_POINT ( 'NONE',  ( 4.332851387010890676, 18.00000000000000000, -97.29470861319067865 ) ) ;
#656 = CARTESIAN_POINT ( 'NONE',  ( -20.90380984571846312, 18.00000000000000000, 13.36289017892626063 ) ) ;
#657 = EDGE_CURVE ( 'NONE', #576, #461, #706, .T. ) ;
#658 = VECTOR ( 'NONE', #126, 1000.000000000000000 ) ;
#659 = ORIENTED_EDGE ( 'NONE', *, *, #694, .F. ) ;
#660 = LINE ( 'NONE', #364, #306 ) ;
#661 = PLANE ( 'NONE',  #23 ) ;
#662 = MANIFOLD_SOLID_BREP ( 'Cut-Extrude2', #8 ) ;
#663 = ORIENTED_EDGE ( 'NONE', *, *, #492, .F. ) ;
#664 = DIRECTION ( 'NONE',  ( 0.000000000000000000, 0.000000000000000000, 1.000000000000000000 ) ) ;
#665 = CARTESIAN_POINT ( 'NONE',  ( -30.54774002826776425, 18.00000000000000000, 10.71815755839265094 ) ) ;
#666 = ORIENTED_EDGE ( 'NONE', *, *, #517, .T. ) ;
#667 = DIRECTION ( 'NONE',  ( 0.000000000000000000, 0.000000000000000000, -1.000000000000000000 ) ) ;
#668 = FACE_OUTER_BOUND ( 'NONE', #744, .T. ) ;
#669 = CIRCLE ( 'NONE', #406, 2.250000000000000000 ) ;
#670 = ORIENTED_EDGE ( 'NONE', *, *, #436, .F. ) ;
#671 = AXIS2_PLACEMENT_3D ( 'NONE', #347, #696, #232 ) ;
#672 = PRODUCT ( 'Gripper_Jaw_Plate', 'Gripper_Jaw_Plate', '', ( #566 ) ) ;
#673 = ORIENTED_EDGE ( 'NONE', *, *, #22, .F. ) ;
#674 = EDGE_CURVE ( 'NONE', #331, #461, #695, .T. ) ;
#675 = VERTEX_POINT ( 'NONE', #289 ) ;
#676 = VERTEX_POINT ( 'NONE', #49 ) ;
#677 = EDGE_CURVE ( 'NONE', #31, #675, #587, .T. ) ;
#678 = DIRECTION ( 'NONE',  ( -0.000000000000000000, -1.000000000000000000, -0.000000000000000000 ) ) ;
#679 = VERTEX_POINT ( 'NONE', #43 ) ;
#680 = AXIS2_PLACEMENT_3D ( 'NONE', #656, #198, #247 ) ;
#681 = DIRECTION ( 'NONE',  ( 0.000000000000000000, 0.000000000000000000, -1.000000000000000000 ) ) ;
#682 = VECTOR ( 'NONE', #594, 1000.000000000000000 ) ;
#683 = ORIENTED_EDGE ( 'NONE', *, *, #454, .F. ) ;
#684 = DIRECTION ( 'NONE',  ( 0.000000000000000000, 1.000000000000000000, -0.000000000000000000 ) ) ;
#685 =( LENGTH_UNIT ( ) NAMED_UNIT ( * ) SI_UNIT ( .MILLI., .METRE. ) );
#686 = ORIENTED_EDGE ( 'NONE', *, *, #615, .T. ) ;
#687 = ADVANCED_FACE ( 'NONE', ( #459 ), #277, .F. ) ;
#688 = LINE ( 'NONE', #628, #274 ) ;
#689 = ORIENTED_EDGE ( 'NONE', *, *, #152, .F. ) ;
#690 = UNCERTAINTY_MEASURE_WITH_UNIT (LENGTH_MEASURE( 1.000000000000000082E-05 ), #685, 'distance_accuracy_value', 'NONE');
#691 = DIRECTION ( 'NONE',  ( 0.000000000000000000, 0.000000000000000000, -1.000000000000000000 ) ) ;
#692 = ORIENTED_EDGE ( 'NONE', *, *, #559, .T. ) ;
#693 = VECTOR ( 'NONE', #752, 1000.000000000000114 ) ;
#694 = EDGE_CURVE ( 'NONE', #387, #348, #503, .T. ) ;
#695 = LINE ( 'NONE', #220, #133 ) ;
#696 = DIRECTION ( 'NONE',  ( 0.000000000000000000, 1.000000000000000000, 0.000000000000000000 ) ) ;
#697 = CARTESIAN_POINT ( 'NONE',  ( -16.16773349595811737, 18.00000000000000000, -3.907055864655816890 ) ) ;
#698 = EDGE_CURVE ( 'NONE', #509, #210, #87, .T. ) ;
#699 = DIRECTION ( 'NONE',  ( 0.2644732620533331025, 0.000000000000000000, -0.9643930182549378394 ) ) ;
#700 = DIRECTION ( 'NONE',  ( -0.000000000000000000, -1.000000000000000000, -0.000000000000000000 ) ) ;
#701 = CYLINDRICAL_SURFACE ( 'NONE', #200, 2.000000000000001776 ) ;
#702 = DIRECTION ( 'NONE',  ( 1.040834085586094610E-16, 0.000000000000000000, 1.000000000000000000 ) ) ;
#703 = CARTESIAN_POINT ( 'NONE',  ( 0.000000000000000000, 18.00000000000000000, 0.000000000000000000 ) ) ;
#704 = DIRECTION ( 'NONE',  ( -0.000000000000000000, -1.000000000000000000, -0.000000000000000000 ) ) ;
#705 = AXIS2_PLACEMENT_3D ( 'NONE', #468, #286, #419 ) ;
#706 = CIRCLE ( 'NONE', #131, 2.000000000000001776 ) ;
#707 = FACE_OUTER_BOUND ( 'NONE', #98, .T. ) ;
#708 = ORIENTED_EDGE ( 'NONE', *, *, #109, .T. ) ;
#709 = CARTESIAN_POINT ( 'NONE',  ( -20.98969858723281234, 0.000000000000000000, -5.229422174922484068 ) ) ;
#710 = ORIENTED_EDGE ( 'NONE', *, *, #78, .T. ) ;
#711 = LINE ( 'NONE', #294, #365 ) ;
#712 = EDGE_LOOP ( 'NONE', ( #623, #50 ) ) ;
#713 = CARTESIAN_POINT ( 'NONE',  ( 10.00000000000000178, 18.00000000000000000, -5.196013828848716574E-14 ) ) ;
#714 = EDGE_CURVE ( 'NONE', #399, #37, #524, .T. ) ;
#715 = ORIENTED_EDGE ( 'NONE', *, *, #152, .T. ) ;
#716 = VERTEX_POINT ( 'NONE', #216 ) ;
#717 = DIRECTION ( 'NONE',  ( 0.000000000000000000, -1.000000000000000000, 0.000000000000000000 ) ) ;
#718 = CARTESIAN_POINT ( 'NONE',  ( -13.47468831681135271, 18.00000000000000000, 0.3057232255736196391 ) ) ;
#719 = EDGE_CURVE ( 'NONE', #473, #679, #562, .T. ) ;
#720 = MECHANICAL_DESIGN_GEOMETRIC_PRESENTATION_REPRESENTATION (  '', ( #94 ), #116 ) ;
#721 = ORIENTED_EDGE ( 'NONE', *, *, #583, .F. ) ;
#722 = DIRECTION ( 'NONE',  ( 0.000000000000000000, 0.000000000000000000, -1.000000000000000000 ) ) ;
#723 = FACE_OUTER_BOUND ( 'NONE', #25, .T. ) ;
#724 = ORIENTED_EDGE ( 'NONE', *, *, #78, .F. ) ;
#725 = CARTESIAN_POINT ( 'NONE',  ( -20.90380984571846312, 18.00000000000000000, 13.36289017892626063 ) ) ;
#726 = FACE_OUTER_BOUND ( 'NONE', #272, .T. ) ;
#727 = VERTEX_POINT ( 'NONE', #46 ) ;
#728 = CARTESIAN_POINT ( 'NONE',  ( -20.90380984571846312, 0.000000000000000000, 13.36289017892626063 ) ) ;
#729 = AXIS2_PLACEMENT_3D ( 'NONE', #494, #717, #554 ) ;
#730 = AXIS2_PLACEMENT_3D ( 'NONE', #174, #228, #403 ) ;
#731 = VERTEX_POINT ( 'NONE', #162 ) ;
#732 = ORIENTED_EDGE ( 'NONE', *, *, #481, .T. ) ;
#733 = EDGE_CURVE ( 'NONE', #348, #331, #458, .T. ) ;
#734 = DIRECTION ( 'NONE',  ( -0.000000000000000000, -1.000000000000000000, -0.000000000000000000 ) ) ;
#735 = ORIENTED_EDGE ( 'NONE', *, *, #499, .T. ) ;
#736 = ORIENTED_EDGE ( 'NONE', *, *, #205, .T. ) ;
#737 = CYLINDRICAL_SURFACE ( 'NONE', #24, 5.000000000000004441 ) ;
#738 = AXIS2_PLACEMENT_3D ( 'NONE', #376, #498, #429 ) ;
#739 = PRESENTATION_STYLE_ASSIGNMENT (( #743 ) ) ;
#740 = VECTOR ( 'NONE', #104, 1000.000000000000000 ) ;
#741 = ORIENTED_EDGE ( 'NONE', *, *, #402, .F. ) ;
#742 = ADVANCED_FACE ( 'NONE', ( #213 ), #737, .T. ) ;
#743 = SURFACE_STYLE_USAGE ( .BOTH. , #575 ) ;
#744 = EDGE_LOOP ( 'NONE', ( #542, #514, #249, #320, #654, #207, #724 ) ) ;
#745 = PRODUCT_RELATED_PRODUCT_CATEGORY ( 'part', '', ( #672 ) ) ;
#746 = DIRECTION ( 'NONE',  ( 0.000000000000000000, 0.000000000000000000, -1.000000000000000000 ) ) ;
#747 = ORIENTED_EDGE ( 'NONE', *, *, #698, .F. ) ;
#748 = EDGE_CURVE ( 'NONE', #607, #221, #450, .T. ) ;
#749 = DIRECTION ( 'NONE',  ( -1.040834085586094610E-16, -0.000000000000000000, -1.000000000000000000 ) ) ;
#750 = ADVANCED_FACE ( 'NONE', ( #332 ), #103, .F. ) ;
#751 = ORIENTED_EDGE ( 'NONE', *, *, #547, .T. ) ;
#752 = DIRECTION ( 'NONE',  ( -0.2644732620533331025, -0.000000000000000000, 0.9643930182549378394 ) ) ;
#753 = VECTOR ( 'NONE', #238, 1000.000000000000227 ) ;
#754 = CARTESIAN_POINT ( 'NONE',  ( -13.47468831681135271, 18.00000000000000000, 0.3057232255736196391 ) ) ;
#755 = AXIS2_PLACEMENT_3D ( 'NONE', #300, #117, #362 ) ;
#756 = DIRECTION ( 'NONE',  ( 0.000000000000000000, 1.000000000000000000, 0.000000000000000000 ) ) ;
#757 = LINE ( 'NONE', #520, #632 ) ;
#758 = CARTESIAN_POINT ( 'NONE',  ( 4.332851387010890676, 0.000000000000000000, -95.04470861319066444 ) ) ;
#759 = EDGE_CURVE ( 'NONE', #68, #399, #218, .T. ) ;
ENDSEC;
END-ISO-10303-21;